<?xml version="1.0" encoding="UTF-8"?>
<svg width="32px" height="32px" viewBox="0 0 32 32" version="1.1" xmlns="http://www.w3.org/2000/svg" xmlns:xlink="http://www.w3.org/1999/xlink">
    <title>Logo/ApplePay</title>
    <g id="Logo/ApplePay" stroke="none" stroke-width="1" fill="none" fill-rule="evenodd">
        <g id="Apple_Pay_Mark_RGB_041619" transform="translate(1.000000, 6.000000)" fill-rule="nonzero">
            <path d="M27.234591,0 L2.67888795,0 C2.57661687,0 2.47416506,0 2.37207651,0.000597735849 C2.28577952,0.00121358491 2.19968313,0.00217358491 2.11358675,0.00452830189 C1.92581566,0.00961811321 1.73643614,0.0207215094 1.55101446,0.0541222642 C1.36262892,0.0881026415 1.18732771,0.143529057 1.01630964,0.230798491 C0.848183133,0.316492075 0.694261446,0.428576604 0.560871687,0.562324528 C0.427424096,0.696072453 0.315592771,0.850089057 0.230110843,1.01877736 C0.143020482,1.19018264 0.0876831325,1.36593509 0.0540144578,1.55489208 C0.020510241,1.74078792 0.00935783133,1.93056 0.00429759036,2.11855698 C0.00198433735,2.2048483 0.000992168675,2.29113962 0.000430120482,2.37741283 C7.22891567e-07,2.4799517 7.22891567e-07,2.58241811 7.22891567e-07,2.68513811 L7.22891567e-07,16.5087396 C7.22891567e-07,16.6114596 7.22891567e-07,16.7137467 0.000430120482,16.8164848 C0.000992168675,16.902758 0.00198433735,16.9890494 0.00429759036,17.0753407 C0.00935783133,17.2631728 0.020510241,17.4529449 0.0540144578,17.6387864 C0.0876831325,17.8278158 0.143020482,18.0034958 0.230110843,18.1749192 C0.315592771,18.3436075 0.427424096,18.4978234 0.560871687,18.6313721 C0.694261446,18.7653374 0.848183133,18.8774038 1.01630964,18.96288 C1.18732771,19.0503849 1.36262892,19.1058294 1.55101446,19.1397917 C1.73643614,19.1729751 1.92581566,19.1842777 2.11358675,19.1893675 C2.19968313,19.1913238 2.28577952,19.192483 2.37207651,19.1928815 C2.47416506,19.1936785 2.57661687,19.1936785 2.67888795,19.1936785 L27.234591,19.1936785 C27.3366813,19.1936785 27.4391349,19.1936785 27.5412036,19.1928815 C27.6273018,19.192483 27.7134,19.1913238 27.7998904,19.1893675 C27.9872639,19.1842777 28.1766072,19.1729751 28.3624825,19.1397917 C28.5506151,19.1058294 28.7259524,19.0503849 28.8969886,18.96288 C29.0652958,18.8774038 29.2187657,18.7653374 29.3524301,18.6313721 C29.485659,18.4978234 29.5974886,18.3436075 29.6831892,18.1749192 C29.7704765,18.0034958 29.8257596,17.8278158 29.8592657,17.6387864 C29.8927898,17.4529449 29.9036693,17.2631728 29.9087476,17.0753407 C29.911097,16.9890494 29.9122554,16.902758 29.912653,16.8164848 C29.9134464,16.7137467 29.9134464,16.6114614 29.9134464,16.5087396 L29.9134464,2.68513811 C29.9134464,2.58241811 29.9134464,2.4799517 29.912653,2.37741283 C29.9122554,2.29113962 29.911097,2.2048483 29.9087476,2.11855698 C29.9036675,1.93056 29.8927898,1.74078792 29.8592657,1.55489208 C29.8257614,1.36593509 29.7704765,1.19018264 29.6831892,1.01877736 C29.5974886,0.850089057 29.485659,0.696072453 29.3524301,0.562324528 C29.2187657,0.428576604 29.0652958,0.316492075 28.8969886,0.230798491 C28.7259524,0.143529057 28.5506151,0.0881026415 28.3624825,0.0541222642 C28.176609,0.0207215094 27.9872657,0.00961811321 27.7998904,0.00452830189 C27.7134,0.00217358491 27.6273018,0.00121358491 27.5412036,0.000597735849 C27.4391349,0 27.3366813,0 27.234591,0 L27.234591,0 Z" id="XMLID_4_" fill="#000000"></path>
            <path d="M27.234591,0.639758491 L27.5366675,0.640338113 C27.6184988,0.640917736 27.7003319,0.641805283 27.7826169,0.644051321 C27.9257512,0.647927547 28.0931873,0.655698113 28.2492596,0.683737358 C28.3849283,0.708226415 28.4987096,0.74546717 28.6079042,0.801183396 C28.7157054,0.856084528 28.8144723,0.928030189 28.9007096,1.01433962 C28.9872759,1.10122868 29.0591512,1.20038038 29.1146512,1.30962113 C29.1699325,1.41820981 29.2068542,1.53170717 29.2311434,1.66867925 C29.259047,1.82340226 29.2667639,1.99167396 29.2706873,2.13601811 C29.2728904,2.21749132 29.2739747,2.29896453 29.2743741,2.38237585 C29.2751332,2.4832483 29.2751332,2.58406642 29.2751332,2.68513811 L29.2751332,16.5087396 C29.2751332,16.6098113 29.2751332,16.7104483 29.274356,16.8134762 C29.2739747,16.8949313 29.2728922,16.9764045 29.2706693,17.0580226 C29.2667639,17.2021494 29.2590488,17.3703306 29.2308018,17.526883 C29.2068542,17.6619713 29.1699524,17.7754868 29.1143639,17.8846189 C29.0590247,17.9935879 28.9872596,18.0926309 28.9010711,18.1789766 C28.814344,18.26592 28.7159024,18.3376483 28.6068199,18.3930566 C28.4984404,18.4485011 28.3848542,18.4857075 28.2505229,18.5099411 C28.0912898,18.5383789 27.916838,18.5462038 27.7854524,18.5497721 C27.7027898,18.5516377 27.6205247,18.5527589 27.5362554,18.5531592 C27.4358259,18.55392 27.3350386,18.55392 27.2345928,18.55392 L2.67888795,18.55392 C2.6775506,18.55392 2.6762494,18.55392 2.67489398,18.55392 C2.57560482,18.55392 2.47611687,18.55392 2.37502048,18.5531411 C2.29259277,18.5527589 2.21034578,18.5516558 2.13082771,18.5498445 C1.99644217,18.5462038 1.82188193,18.538397 1.66394819,18.5101223 C1.52846205,18.4857057 1.4148759,18.4485011 1.30506867,18.3923321 C1.19701627,18.3374128 1.09864699,18.265757 1.01188193,18.1786506 C0.925785542,18.0925042 0.854237349,17.9937691 0.798918072,17.884637 C0.743544578,17.7756136 0.706496386,17.661754 0.682136747,17.5250536 C0.653978313,17.3688091 0.646243373,17.2012981 0.642377711,17.0581494 C0.640171084,16.9761872 0.639249398,16.894243 0.638725301,16.8127698 L0.638327711,16.5722445 L0.638327711,16.5087396 L0.638327711,2.68513811 L0.638327711,2.62163321 L0.638707229,2.38161509 C0.639249398,2.29965283 0.640171084,2.21770868 0.642377711,2.13581887 C0.646243373,1.99252528 0.653978313,1.82494189 0.68236988,1.66739321 C0.706514458,1.53192453 0.743544578,1.41806491 0.799207229,1.30849811 C0.854092771,1.20019925 0.92576747,1.10133736 1.01231747,1.01461132 C1.09852229,0.928175094 1.19721325,0.85632 1.30595422,0.800893585 C1.41458675,0.745449057 1.52838795,0.708226415 1.6638759,0.683791698 C1.81998434,0.65568 1.98753253,0.647927547 2.13102651,0.644033208 C2.21282169,0.641805283 2.29461687,0.640917736 2.37579759,0.640356226 L2.67888795,0.639758491 L27.234591,0.639758491" id="XMLID_3_" fill="#FFFFFF"></path>
            <g id="Group" transform="translate(3.975904, 5.252830)" fill="#000000">
                <g id="Path">
                    <path d="M4.19027711,1.20281298 C4.44640482,0.881727396 4.62021145,0.450604075 4.57437108,0.0100473962 C4.19943614,0.0287329811 3.7419,0.257964679 3.47700904,0.579302038 C3.23916506,0.854477887 3.02865361,1.30365283 3.08353373,1.72574128 C3.50441747,1.76233177 3.92491265,1.51488906 4.19027711,1.20281298"></path>
                    <path d="M4.56958916,1.80815457 C3.95836446,1.7716637 3.4386741,2.1558394 3.14678313,2.1558394 C2.85473133,2.1558394 2.4077512,1.82654309 1.92430482,1.83541857 C1.29506928,1.84468166 0.711211446,2.20126189 0.391901205,2.76839185 C-0.264865663,3.90293072 0.218580723,5.58584875 0.857251807,6.50986687 C1.16740482,6.967008 1.54119217,7.47035411 2.03371446,7.45227351 C2.49906506,7.43397192 2.68146325,7.15026838 3.24711687,7.15026838 C3.81235482,7.15026838 3.97665723,7.45227351 4.46925904,7.44312453 C4.9800994,7.43397011 5.29946566,6.98575517 5.60961506,6.52816845 C5.96541867,6.00705147 6.11107229,5.50387019 6.12023313,5.47624755 C6.11107048,5.46709857 5.13518855,5.09187804 5.12613976,3.96676891 C5.11692651,3.02469917 5.89231627,2.57659834 5.92880964,2.54880906 C5.49093976,1.89973132 4.80677711,1.82654309 4.56958916,1.80815457"></path>
                </g>
                <g transform="translate(7.228916, 0.362264)">
                    <path d="M2.66274398,0.170952453 C3.99123072,0.170952453 4.91630422,1.08876498 4.91630422,2.42502883 C4.91630422,3.7660637 3.97219518,4.68864362 2.62943133,4.68864362 L1.15854217,4.68864362 L1.15854217,7.03306868 L0.0958246988,7.03306868 L0.0958246988,0.170952453 L2.66274398,0.170952453 L2.66274398,0.170952453 Z M1.15854036,3.79459019 L2.37793554,3.79459019 C3.30319157,3.79459019 3.82979096,3.29532498 3.82979096,2.42979804 C3.82979096,1.56436347 3.30319157,1.06977691 2.38269398,1.06977691 L1.15854036,1.06977691 L1.15854036,3.79459019 L1.15854036,3.79459019 Z" id="Shape"></path>
                    <path d="M5.19397048,5.61122536 C5.19397048,4.73615819 5.8629741,4.19882808 7.04924096,4.13223487 L8.41561627,4.0514246 L8.41561627,3.66626717 C8.41561627,3.1098566 8.04075542,2.77698294 7.41458313,2.77698294 C6.82135843,2.77698294 6.45125602,3.06225147 6.36120181,3.50932347 L5.39329699,3.50932347 C5.45022289,2.60572981 6.21879759,1.93998249 7.45247169,1.93998249 C8.66235,1.93998249 9.43568313,2.58197253 9.43568313,3.58536453 L9.43568313,7.03307049 L8.45350482,7.03307049 L8.45350482,6.21037947 L8.42989337,6.21037947 C8.14051084,6.76679004 7.50939759,7.11864996 6.85467108,7.11864996 C5.8772494,7.11864996 5.19397048,6.50995562 5.19397048,5.61122536 Z M8.41561627,5.15947472 L8.41561627,4.76477887 L7.1867006,4.84081992 C6.57462289,4.88365585 6.22831627,5.15470551 6.22831627,5.58269887 C6.22831627,6.02014008 6.5889,6.30549917 7.13929518,6.30549917 C7.85570422,6.30549917 8.41561627,5.8109126 8.41561627,5.15947472 Z" id="Shape"></path>
                    <path d="M10.3629524,8.87346113 L10.3629524,8.0412317 C10.4387295,8.06021977 10.6095036,8.06021977 10.6949819,8.06021977 C11.1694157,8.06021977 11.4256681,7.86053072 11.5821651,7.34695789 C11.5821651,7.33741766 11.6724018,7.04261072 11.6724018,7.03784151 L9.86948133,2.03033298 L10.9796042,2.03033298 L12.2418307,6.10104272 L12.2606837,6.10104272 L13.522912,2.03033298 L14.6046651,2.03033298 L12.7351175,7.29458174 C12.3082753,8.50729177 11.8148042,8.89721842 10.7804602,8.89721842 C10.6949837,8.89721842 10.4387313,8.88767819 10.3629524,8.87346113 Z" id="Path"></path>
                </g>
            </g>
        </g>
    </g>
</svg>