<?xml version="1.0" encoding="UTF-8"?>
<svg width="32px" height="32px" viewBox="0 0 32 32" version="1.1" xmlns="http://www.w3.org/2000/svg" xmlns:xlink="http://www.w3.org/1999/xlink">
    <title>Logo/eNets</title>
    <g id="Logo/eNets" stroke="none" stroke-width="1" fill="none" fill-rule="evenodd">
        <g id="pmx-enets-icon" transform="translate(1.000000, 13.000000)" fill-rule="nonzero">
            <g id="eNets">
                <path d="M2.59090909,6.305 C1.62144886,6.37 0.651988636,5.785 0.264204545,4.875 C-0.123579545,4.03 0.0703125,3.055 0.716619318,2.405 C1.55681818,1.495 2.97869318,1.43 3.94815341,2.275 C4.20667614,2.535 4.20667614,2.795 4.01278409,2.99 C3.88352273,3.12 3.625,3.12 3.43110795,2.99 C3.43110795,2.99 3.43110795,2.99 3.43110795,2.99 C3.17258523,2.795 2.9140625,2.6 2.59090909,2.6 C1.81534091,2.535 1.03977273,3.055 0.975142045,3.9 C0.910511364,4.68 1.42755682,5.46 2.26775568,5.525 C2.33238636,5.525 2.39701705,5.525 2.46164773,5.525 C2.78480114,5.525 3.10795455,5.395 3.36647727,5.2 C3.43110795,5.135 3.49573864,5.135 3.49573864,5.07 C3.68963068,4.94 3.94815341,4.94 4.07741477,5.07 C4.14204545,5.135 4.14204545,5.2 4.14204545,5.265 C4.20667614,5.395 4.14204545,5.59 4.01278409,5.655 C3.68963068,6.045 3.17258523,6.305 2.59090909,6.305" id="Fill-1" fill="#2E50A0"></path>
                <path d="M2.72017045,4.42 C2.33238636,4.42 1.94460227,4.42 1.55681818,4.42 C1.36292614,4.42 1.16903409,4.29 1.16903409,4.095 C1.16903409,4.095 1.16903409,4.03 1.16903409,4.03 C1.16903409,3.835 1.29829545,3.64 1.4921875,3.575 C1.4921875,3.575 1.55681818,3.575 1.55681818,3.575 C2.33238636,3.575 3.10795455,3.575 3.88352273,3.575 C4.07741477,3.575 4.27130682,3.77 4.27130682,3.965 C4.27130682,3.965 4.27130682,3.965 4.27130682,4.03 C4.27130682,4.225 4.14204545,4.42 3.94815341,4.42 C3.94815341,4.42 3.88352273,4.42 3.88352273,4.42 C3.49573864,4.42 3.10795455,4.42 2.72017045,4.42" id="Fill-3" fill="#2E50A0"></path>
                <path d="M29.9289773,4.08761684 C29.8643466,3.50261684 29.4765625,2.98261684 28.8302557,2.72261684 C28.3778409,2.59261684 27.8607955,2.46261684 27.4083807,2.52761684 C26.7620739,2.52761684 26.1803977,2.52761684 25.5340909,2.52761684 C25.2109375,2.52761684 24.8877841,2.52761684 24.5646307,2.39761684 C24.306108,2.33261684 24.1768466,2.13761684 24.2414773,1.87761684 C24.2414773,1.55261684 24.306108,1.48761684 24.6292614,1.48761684 C24.693892,1.48761684 24.8231534,1.48761684 24.8877841,1.48761684 C25.727983,1.48761684 26.5681818,1.48761684 27.4083807,1.48761684 C27.6022727,1.48761684 27.7961648,1.48761684 27.9900568,1.48761684 C28.3778409,1.55261684 28.5071023,1.68261684 28.5071023,2.07261684 C28.5071023,2.26761684 28.6363636,2.39761684 28.8302557,2.46261684 C29.0241477,2.46261684 29.2826705,2.46261684 29.4765625,2.46261684 C29.6058239,2.46261684 29.7350852,2.33261684 29.7350852,2.13761684 C29.7997159,1.48761684 29.5411932,0.902616841 28.959517,0.512616841 C28.5071023,0.252616841 27.9900568,0.122616841 27.4730114,0.187616841 C22.6903409,0.187616841 17.9076705,0.187616841 13.125,0.187616841 L13.125,1.55261684 C14.9992898,1.55261684 16.8735795,1.55261684 18.7478693,1.55261684 C18.9417614,1.55261684 18.9417614,1.55261684 18.9417614,1.74761684 C18.9417614,3.11261684 18.9417614,4.47761684 18.9417614,5.84261684 C18.9417614,5.90761684 18.9417614,5.97261684 18.9417614,6.03761684 C18.9417614,6.23261684 19.0710227,6.36261684 19.2649148,6.42761684 C19.4588068,6.42761684 19.5880682,6.42761684 19.7819602,6.42761684 C20.1051136,6.42761684 20.2990057,6.29761684 20.2990057,5.90761684 C20.2990057,4.54261684 20.2990057,3.17761684 20.2990057,1.81261684 C20.2990057,1.74761684 20.2990057,1.68261684 20.2990057,1.68261684 C20.2990057,1.61761684 20.3636364,1.55261684 20.428267,1.55261684 C21.2038352,1.55261684 21.9147727,1.55261684 22.6903409,1.55261684 C22.7549716,1.55261684 22.8196023,1.61761684 22.8196023,1.68261684 C22.8196023,1.81261684 22.8196023,1.94261684 22.8196023,2.13761684 C22.8196023,2.85261684 23.272017,3.50261684 23.9829545,3.76261684 C24.3707386,3.89261684 24.7585227,3.95761684 25.2109375,3.95761684 C26.0511364,3.95761684 26.8267045,3.95761684 27.6669034,3.95761684 C27.8607955,3.95761684 27.9900568,3.95761684 28.1839489,4.02261684 C28.4424716,4.08761684 28.571733,4.28261684 28.571733,4.54261684 C28.571733,4.86761684 28.4424716,4.99761684 28.1193182,5.06261684 C27.9900568,5.06261684 27.9254261,5.12761684 27.7961648,5.12761684 C26.8913352,5.12761684 25.921875,5.12761684 25.0170455,5.12761684 C24.8877841,5.12761684 24.7585227,5.12761684 24.6292614,5.06261684 C24.306108,4.99761684 24.1768466,4.86761684 24.1768466,4.47761684 C24.1768466,4.28261684 24.0475852,4.15261684 23.8536932,4.15261684 C23.8536932,4.15261684 23.8536932,4.15261684 23.8536932,4.15261684 C23.6598011,4.15261684 23.4659091,4.15261684 23.272017,4.15261684 C23.078125,4.15261684 22.9488636,4.28261684 22.9488636,4.41261684 C22.9488636,4.54261684 22.9488636,4.67261684 22.9488636,4.73761684 C23.0134943,5.38761684 23.4012784,5.97261684 23.9829545,6.23261684 C24.3707386,6.36261684 24.693892,6.42761684 25.0816761,6.42761684 C26.1803977,6.42761684 27.2791193,6.42761684 28.3778409,6.42761684 C28.959517,6.42761684 29.4765625,6.03761684 29.6704545,5.51761684 C29.9289773,4.99761684 29.993608,4.54261684 29.9289773,4.08761684" id="Fill-5" fill="#E5212B"></path>
                <g id="Group-9" transform="translate(11.122159, 0.171053)" fill="#2E50A0">
                    <path d="M5.28409091,0.527819549 L5.28409091,0.857706767 C5.28409091,1.12161654 5.09309967,1.38552632 4.77478094,1.38552632 C4.77478094,1.38552632 4.77478094,1.38552632 4.77478094,1.38552632 L0.509309967,1.38552632 C0.254654984,1.38552632 0,1.18759398 0,0.857706767 L0,0.527819549 C0,0.263909774 0.190991238,0 0.509309967,0 L4.77478094,0 C5.02943593,0 5.28409091,0.263909774 5.28409091,0.527819549 C5.28409091,0.527819549 5.28409091,0.527819549 5.28409091,0.527819549" id="Fill-7"></path>
                </g>
                <path d="M16.5511364,5.46 L16.5511364,5.785 C16.5511364,6.045 16.3572443,6.305 16.0340909,6.305 C16.0340909,6.305 16.0340909,6.305 16.0340909,6.305 L11.7038352,6.305 C11.4453125,6.305 11.1867898,6.11 11.1867898,5.785 L11.1867898,5.46 C11.1867898,5.2 11.3806818,4.94 11.7038352,4.94 L16.0340909,4.94 C16.2926136,4.94 16.5511364,5.2 16.5511364,5.46 C16.5511364,5.46 16.5511364,5.46 16.5511364,5.46" id="Fill-10" fill="#2E50A0"></path>
                <path d="M16.5511364,3.055 L16.5511364,3.38 C16.5511364,3.64 16.3572443,3.9 16.0340909,3.9 C16.0340909,3.9 16.0340909,3.9 16.0340909,3.9 L11.7038352,3.9 C11.4453125,3.9 11.1867898,3.705 11.1867898,3.38 L11.1867898,3.055 C11.1867898,2.795 11.3806818,2.535 11.7038352,2.535 L16.0340909,2.535 C16.2926136,2.6 16.5511364,2.795 16.5511364,3.055 C16.5511364,3.055 16.5511364,3.055 16.5511364,3.055" id="Fill-12" fill="#2E50A0"></path>
                <path d="M11.8977273,5.98 L11.8977273,0.455 C11.8977273,0.26 11.7684659,0.13 11.5745739,0.13 C11.5745739,0.13 11.5745739,0.13 11.5745739,0.13 C11.3806818,0.13 11.0575284,0.13 10.8636364,0.13 C10.6697443,0.13 10.540483,0.26 10.540483,0.455 L10.540483,4.29 C10.4758523,4.225 10.4758523,4.225 10.4758523,4.225 C9.50639205,2.925 8.53693182,1.69 7.56747159,0.39 C7.43821023,0.26 7.30894886,0.13 7.11505682,0.195 C6.79190341,0.195 6.46875,0.195 6.21022727,0.195 C5.82244318,0.195 5.69318182,0.325 5.69318182,0.715 C5.69318182,2.47 5.69318182,4.16 5.69318182,5.915 C5.69318182,5.98 5.69318182,5.98 5.69318182,6.045 C5.69318182,6.24 5.82244318,6.435 6.01633523,6.435 C6.01633523,6.435 6.01633523,6.435 6.01633523,6.435 C6.21022727,6.435 6.40411932,6.435 6.53338068,6.435 C6.72727273,6.435 6.92116477,6.305 6.92116477,6.11 C6.92116477,6.045 6.92116477,5.98 6.92116477,5.85 C6.92116477,4.615 6.92116477,3.315 6.92116477,2.08 C6.92116477,2.015 6.92116477,1.95 6.98579545,1.95 C7.05042614,1.95 7.05042614,2.015 7.05042614,2.015 C8.08451705,3.38 8.98934659,4.68 10.0880682,5.98 C10.2173295,6.175 10.3465909,6.37 10.6697443,6.37 L11.4453125,6.37 C11.7684659,6.305 11.8977273,6.175 11.8977273,5.98 C11.8977273,5.98 11.8977273,5.98 11.8977273,5.98" id="Fill-14" fill="#E5212B"></path>
            </g>
        </g>
    </g>
</svg>