<?xml version="1.0" encoding="UTF-8"?>
<svg width="32px" height="32px" viewBox="0 0 32 32" version="1.1" xmlns="http://www.w3.org/2000/svg" xmlns:xlink="http://www.w3.org/1999/xlink">
    <title>Logo/GPay</title>
    <g id="Logo/GPay" stroke="none" stroke-width="1" fill="none" fill-rule="evenodd">
        <g id="google-pay-mark_800_gray" transform="translate(1.000000, 6.000000)" fill-rule="nonzero">
            <g id="border">
                <path d="M27.2986597,0.00633630173 L2.68515861,0.00633630173 C2.58262878,0.00633630173 2.47991779,0.00633630173 2.3775691,0.00687941331 C2.29116145,0.00760356205 2.20493494,0.00850874802 2.11852729,0.0108622315 C1.93031439,0.0159312729 1.74047116,0.0269745416 1.55461318,0.0604664222 C1.36585684,0.0943203769 1.19014316,0.149717758 1.01877704,0.236977685 C0.850128134,0.322608277 0.695971084,0.434670299 0.562102622,0.568275746 C0.428415308,0.702062231 0.316284621,0.855943842 0.230601559,1.02467051 C0.143288164,1.19593169 0.0878568388,1.37153777 0.0541632884,1.56035956 C0.0204697378,1.74628475 0.00941970233,1.9358307 0.00434755492,2.1237473 C0.00199262934,2.21010204 0.000905740609,2.29627575 0.000362296244,2.38244945 C-2.89836995e-05,2.4849165 -2.89836995e-05,2.58738355 -2.89836995e-05,2.69003164 L-2.89836995e-05,16.506428 C-2.89836995e-05,16.6090762 -2.89836995e-05,16.7113622 0.000362296244,16.8140103 C0.000905740609,16.900184 0.00199262934,16.9865387 0.00434755492,17.0727124 C0.00941970233,17.260448 0.0204697378,17.450175 0.0541632884,17.6359192 C0.0878568388,17.8247409 0.143288164,18.000347 0.230601559,18.1717892 C0.316284621,18.3403348 0.428415308,18.4943975 0.562102622,18.6280029 C0.695971084,18.7617894 0.850128134,18.8738514 1.01877704,18.959301 C1.19014316,19.0467419 1.36585684,19.1021394 1.55461318,19.1361743 C1.74047116,19.1693041 1.93031439,19.1805284 2.11852729,19.1855975 C2.20493494,19.1875889 2.29116145,19.1888562 2.3775691,19.1892182 C2.47991779,19.1899424 2.58262878,19.1899424 2.68515861,19.1899424 L27.2986597,19.1899424 C27.4010084,19.1899424 27.5037193,19.1899424 27.606068,19.1892182 C27.6922945,19.1888562 27.778521,19.1875889 27.865291,19.1855975 C28.0531416,19.1805284 28.2429848,19.1693041 28.4292051,19.1361743 C28.6177803,19.1021394 28.793494,19.0467419 28.9650412,18.959301 C29.1336901,18.8738514 29.2874849,18.7617894 29.4215345,18.6280029 C29.5550407,18.4943975 29.6671714,18.3403348 29.7530356,18.1717892 C29.8405301,18.000347 29.8959614,17.8247409 29.9294739,17.6359192 C29.9631674,17.450175 29.9740363,17.260448 29.9791084,17.0727124 C29.9814634,16.9865387 29.9825502,16.900184 29.9830937,16.8140103 C29.9838183,16.7113622 29.9838183,16.6090762 29.9838183,16.506428 L29.9838183,2.69003164 C29.9838183,2.58738355 29.9838183,2.4849165 29.9830937,2.38244945 C29.9825502,2.29627575 29.9814634,2.21010204 29.9791084,2.1237473 C29.9740363,1.9358307 29.9631674,1.74628475 29.9294739,1.56035956 C29.8959614,1.37153777 29.8405301,1.19593169 29.7530356,1.02467051 C29.6671714,0.855943842 29.5550407,0.702062231 29.4215345,0.568275746 C29.2874849,0.434670299 29.1336901,0.322608277 28.9650412,0.236977685 C28.793494,0.149717758 28.6177803,0.0943203769 28.4292051,0.0604664222 C28.2429848,0.0269745416 28.0531416,0.0159312729 27.865291,0.0108622315 C27.778521,0.00850874802 27.6922945,0.00760356205 27.606068,0.00687941331 C27.5037193,0.00633630173 27.4010084,0.00633630173 27.2986597,0.00633630173" id="Fill-1" fill="#3C4043"></path>
                <path d="M27.2986597,0.645759665 L27.6015393,0.646302776 C27.6834183,0.646845888 27.7654784,0.647751074 27.8479008,0.650104557 C27.9913701,0.653906339 28.1592944,0.661690938 28.3158064,0.689751702 C28.4516675,0.714191725 28.5657908,0.751485388 28.6752042,0.807063805 C28.7833496,0.861918071 28.8822565,0.933970878 28.9686642,1.02014458 C29.0554342,1.10704243 29.1275311,1.20606978 29.1831436,1.3152352 C29.2385749,1.42385752 29.2755292,1.5371868 29.2999841,1.67405092 C29.3278809,1.82883772 29.3356703,1.99702127 29.3394744,2.14130791 C29.3418294,2.22259361 29.3429162,2.30406035 29.3432785,2.38751849 C29.3440031,2.4883562 29.3440031,2.58901289 29.3440031,2.69003164 L29.3440031,16.506428 C29.3440031,16.6074468 29.3440031,16.7081035 29.3432785,16.8109326 C29.3429162,16.8923994 29.3418294,16.9738661 29.3394744,17.0555139 C29.3356703,17.1994384 29.3278809,17.367622 29.2996218,17.5240381 C29.2755292,17.6590919 29.2385749,17.7724211 29.1827813,17.8815866 C29.12735,17.990571 29.0554342,18.0894173 28.9690265,18.175772 C28.8820754,18.2626699 28.7835308,18.3343606 28.6741174,18.389758 C28.5654285,18.4451554 28.4516675,18.4824491 28.3170744,18.506527 C28.1573017,18.5349498 27.9824939,18.5429154 27.8507992,18.5463551 C27.7680145,18.5483466 27.685592,18.5494328 27.6009959,18.5497949 C27.5004587,18.550519 27.399378,18.550519 27.2986597,18.550519 L2.68515861,18.550519 C2.68389057,18.550519 2.68262254,18.550519 2.68117336,18.550519 C2.58172303,18.550519 2.48191042,18.550519 2.38064862,18.5497949 C2.29804508,18.5494328 2.21562268,18.5483466 2.1359175,18.5465362 C2.0011433,18.5429154 1.82615422,18.5349498 1.66783076,18.506708 C1.53196967,18.4824491 1.41820865,18.4451554 1.30807059,18.3890339 C1.19974401,18.3341796 1.10119943,18.2624888 1.01424834,18.1754099 C0.928021828,18.0894173 0.856287169,17.990752 0.800855845,17.8815866 C0.745243376,17.7726022 0.708108007,17.6589109 0.683653012,17.5222278 C0.655575053,17.3659926 0.647785684,17.1987143 0.643800425,17.0555139 C0.641626648,16.9736851 0.640720907,16.8916752 0.640177463,16.8103895 L0.639815166,16.5699721 L0.639815166,2.62666862 L0.640177463,2.38679435 C0.640720907,2.3047845 0.641626648,2.22295568 0.643800425,2.14112687 C0.647785684,1.99774542 0.655575053,1.83028602 0.684015308,1.67278366 C0.708108007,1.53754888 0.745243376,1.42367648 0.801036995,1.31414898 C0.856106026,1.20588874 0.928021828,1.10704243 1.01461063,1.02050665 C1.10101828,0.933970878 1.20010631,0.862280146 1.30897633,0.806882767 C1.41784635,0.751304351 1.53196967,0.714191725 1.66783076,0.689751702 C1.82434273,0.661690938 1.99226704,0.653906339 2.13609865,0.650104557 C2.2179776,0.647751074 2.30003771,0.646845888 2.38137321,0.646302776 L2.68515861,0.645759665 L27.2986597,0.645759665" id="wihit-fill" fill="#FFFFFE"></path>
            </g>
            <g id="GPay-logo" transform="translate(3.441814, 5.433962)">
                <g id="Pay" transform="translate(10.134346, 0.538221)" fill="#3C4043">
                    <path d="M0.859562344,4.06895094 L0.859562344,6.80311374 L0.00530594041,6.80311374 L0.00530594041,0.0538221024 L2.2709425,0.0538221024 C2.81745436,0.0430576819 3.3480484,0.252963882 3.73538205,0.640483019 C4.51004935,1.37246361 4.55780281,2.60498976 3.83088898,3.39617466 C3.79905334,3.42846793 3.76721769,3.46076118 3.73538205,3.49305445 C3.33743652,3.87519138 2.84929,4.06895094 2.2709425,4.06895094 L0.859562344,4.06895094 Z M0.859562344,0.882682482 L0.859562344,3.24009056 L2.29216626,3.24009056 C2.61052268,3.25085499 2.91826722,3.12168194 3.13581078,2.8902469 C3.58150978,2.42199461 3.5708979,1.66848517 3.10928108,1.21637951 C2.89173752,1.00109111 2.5999108,0.882682482 2.29216626,0.882682482 L0.859562344,0.882682482 Z" id="Shape"></path>
                    <path d="M6.31937503,2.03447547 C6.95078194,2.03447547 7.44954035,2.2067062 7.81565026,2.54578544 C8.18176009,2.88486469 8.36216209,3.35849919 8.36216209,3.95592453 L8.36216209,6.80311374 L7.54504729,6.80311374 L7.54504729,6.16263073 L7.50790567,6.16263073 C7.15240765,6.69008733 6.68548492,6.95381563 6.09652554,6.95381563 C5.59776714,6.95381563 5.1732919,6.80311374 4.83901765,6.50170998 C4.51004935,6.22183504 4.32434144,5.80740485 4.33495332,5.37144582 C4.33495332,4.89242911 4.51535529,4.51567439 4.8708533,4.23041725 C5.2263513,3.94516011 5.70388595,3.80522264 6.29815127,3.80522264 C6.80752155,3.80522264 7.22138492,3.90210243 7.5503532,4.08509757 L7.5503532,3.88595579 C7.5503532,3.58993423 7.42301061,3.3100593 7.20016115,3.11629973 C6.9720057,2.91177574 6.68017898,2.79874933 6.37774038,2.79874933 C5.90020574,2.79874933 5.52348397,3.00327332 5.24757507,3.41232129 L4.49413153,2.93330458 C4.897383,2.33587924 5.50756615,2.03447547 6.31937503,2.03447547 Z M5.21573943,5.38759245 C5.21573943,5.61364528 5.32185823,5.82355148 5.49695427,5.95272453 C5.68796812,6.10342641 5.9214295,6.18415957 6.16019682,6.17877736 C6.52100077,6.17877736 6.86588689,6.03345768 7.120572,5.77511159 C7.40178685,5.50600108 7.54504729,5.18845067 7.54504729,4.82246038 C7.27975024,4.60717196 6.90833442,4.49952776 6.43079978,4.50490998 C6.08591365,4.50490998 5.79408693,4.59102534 5.56062556,4.75787385 C5.33247011,4.92472237 5.21573943,5.13462857 5.21573943,5.38759245 Z" id="Shape"></path>
                    <polygon id="Path" points="13.0526134 2.18517736 10.1980175 8.83220704 9.31723136 8.83220704 10.3784195 6.50709218 8.50542247 2.18517736 9.43396207 2.18517736 10.7869769 5.50061887 10.8028947 5.50061887 12.1240739 2.18517736"></polygon>
                </g>
                <g id="Super-G">
                    <path d="M7.53974132,4.01512884 C7.53974132,3.75140054 7.51851755,3.48767224 7.47607002,3.22932615 L3.8733365,3.22932615 L3.8733365,4.72019838 L5.93734732,4.72019838 C5.85245228,5.1992151 5.57654337,5.62979191 5.1732919,5.89890243 L5.1732919,6.86770027 L6.40427008,6.86770027 C7.12587798,6.19492399 7.53974132,5.1992151 7.53974132,4.01512884 Z" id="Path" fill="#4285F4"></path>
                    <path d="M3.8733365,7.80420487 C4.90268894,7.80420487 5.77286317,7.45974339 6.40427008,6.86770027 L5.1732919,5.89890243 C4.82840578,6.13571968 4.38801272,6.27027493 3.8733365,6.27027493 C2.8758197,6.27027493 2.03217518,5.58673423 1.72973658,4.67175849 L0.461616816,4.67175849 L0.461616816,5.6728496 C1.10894154,6.98072668 2.43012071,7.80420487 3.8733365,7.80420487 Z" id="Path" fill="#34A853"></path>
                    <path d="M1.72973658,4.67175849 C1.57055836,4.19274178 1.57055836,3.67066739 1.72973658,3.18626846 L1.72973658,2.19055957 L0.461616816,2.19055957 C-0.0848950468,3.28314824 -0.0848950468,4.57487871 0.461616816,5.66746739 L1.72973658,4.67175849 Z" id="Path" fill="#FBBC04"></path>
                    <path d="M3.8733365,1.58775202 C4.41984836,1.5769876 4.94513646,1.7868938 5.33777605,2.16903073 L6.43079978,1.06029542 C5.73572159,0.403665768 4.82309984,0.0430576819 3.8733365,0.0538221024 C2.43012071,0.0538221024 1.10894154,0.882682482 0.461616816,2.19055957 L1.72973658,3.19165067 C2.03217518,2.27129272 2.8758197,1.58775202 3.8733365,1.58775202 Z" id="Path" fill="#EA4335"></path>
                </g>
            </g>
        </g>
    </g>
</svg>