<?xml version="1.0" encoding="UTF-8"?>
<svg width="32px" height="32px" viewBox="0 0 32 32" version="1.1" xmlns="http://www.w3.org/2000/svg" xmlns:xlink="http://www.w3.org/1999/xlink">
    <title>Logo/PayNow</title>
    <defs>
        <filter id="filter-1">
            <feColorMatrix in="SourceGraphic" type="matrix" values="0 0 0 0 0.564706 0 0 0 0 0.152941 0 0 0 0 0.545098 0 0 0 1.000000 0"></feColorMatrix>
        </filter>
    </defs>
    <g id="Logo/PayNow" stroke="none" stroke-width="1" fill="none" fill-rule="evenodd">
        <g filter="url(#filter-1)" id="PayNow">
            <g transform="translate(1.000000, 7.000000)">
                <path d="M0.100483544,0.074691498 C0.0628748431,0.112042105 0.0378020535,0.17428664 0.0378020535,0.248978138 L0.0378020535,7.68087449 C0.0378020535,7.75559514 0.0628748431,7.81778138 0.100483544,7.85519028 C0.15062951,7.89250202 0.200775476,7.90493927 0.275993458,7.90493927 L1.85557882,7.90493927 C2.01855466,7.90493927 2.10630865,7.83021862 2.10630865,7.68087449 L2.10630865,5.14134413 L3.73603804,5.14134413 C4.09958613,5.14134413 4.43806995,5.06662348 4.73894769,4.91727935 C5.03981574,4.7802753 5.30307771,4.58118219 5.51620146,4.344583 C5.74185734,4.09564372 5.9048235,3.83417004 6.01765144,3.52294737 C6.13047938,3.22425911 6.1931691,2.91300729 6.1931691,2.58933765 C6.1931691,2.36526316 6.16809515,2.15363563 6.11794725,1.9420081 C6.05526721,1.73038057 5.98004535,1.51874332 5.87975923,1.33201943 C5.77946342,1.14528583 5.65410335,0.958552227 5.50365964,0.796722267 C5.36576743,0.634882591 5.20279159,0.497946559 5.01474179,0.373467206 C4.82670168,0.261425101 4.62611975,0.16182996 4.412996,0.0995854251 C4.18734012,0.0373506073 3.96168424,0 3.71096409,0 L0.275993458,0 C0.200775476,0 0.138093502,0.0248939271 0.100483544,0.074691498 Z M4.03690609,2.25322105 C4.07451218,2.36526316 4.087054,2.46484858 4.087054,2.57689069 C4.087054,2.68893279 4.06198005,2.80096518 4.03690609,2.91300729 C3.99930001,3.02506883 3.9491521,3.11222672 3.87393025,3.19928745 C3.79871808,3.28644534 3.71096409,3.34872874 3.61066828,3.39847773 C3.51038216,3.44832389 3.3850124,3.47319838 3.25965233,3.47319838 L2.11884079,3.47319838 L2.11884079,1.69302996 L3.25965233,1.69302996 C3.39755422,1.69302996 3.51038216,1.71792389 3.61066828,1.76772146 C3.71096409,1.81751903 3.79871808,1.87976356 3.87393025,1.96690202 C3.9491521,2.05404049 3.99930001,2.14118866 4.03690609,2.25322105 Z M21.5128886,16.6315142 C21.5379529,16.6937976 21.5755977,16.7559838 21.6132425,16.8182672 C21.6507905,16.8928907 21.7259833,16.9302996 21.8263372,16.9054251 L23.1300665,16.9054251 L23.142647,16.9054251 C23.1927756,16.9054251 23.2429041,16.8928907 23.2805489,16.8555789 C23.3181937,16.8182672 23.3557417,16.7808583 23.3933865,16.7311093 C23.4235798,16.701085 23.4457408,16.6549312 23.4662568,16.6121781 L23.4663536,16.6119838 C23.4713858,16.601587 23.4762244,16.5913846 23.4811599,16.581668 C23.4886114,16.5631093 23.4960629,16.5457166 23.5032242,16.529004 L23.5032242,16.529004 C23.5200627,16.489749 23.5349658,16.4547692 23.5437722,16.4198866 C23.6090941,16.2324534 23.6786741,16.0491984 23.7475766,15.8676923 L23.7475766,15.867498 C23.7977052,15.7356437 23.8473499,15.6047611 23.8948655,15.4737814 C23.9719938,15.28217 24.0443802,15.0906559 24.1179279,14.8961296 C24.1637984,14.7746721 24.2101528,14.6521457 24.2583459,14.5276761 L25.1108215,16.7435466 C25.123402,16.7933927 25.1609501,16.8431417 25.1985949,16.8680162 C25.2362396,16.9054251 25.2988519,16.9178623 25.3741415,16.9178623 L26.6778709,16.9178623 L26.6904514,16.9178623 C26.7656442,16.9178623 26.8283533,16.8928907 26.8784818,16.8431417 C26.9286104,16.80583 26.9662552,16.7559838 26.9787389,16.7186721 C27.2168979,16.0963239 27.4676374,15.4738785 27.7182801,14.8515304 L27.7183769,14.851336 C27.8437951,14.5401134 27.9723099,14.2288907 28.1007281,13.917668 C28.2292429,13.6064453 28.3577578,13.2952227 28.483176,12.984 C28.6084973,12.6728745 28.7369154,12.3616518 28.8654303,12.0505263 L28.8655271,12.0504291 L28.8657207,12.0498462 C28.9941388,11.7388178 29.1225569,11.4277895 29.2478782,11.1167611 C29.5111015,10.4943158 29.761841,9.87187045 30,9.2494251 L30,9.23698785 L30,9.17470445 C30,9.12495547 29.9875162,9.07510931 29.9498715,9.05023482 C29.9123234,9.01292308 29.8620981,9.00038866 29.7744215,9.00038866 L28.081954,9.00038866 C27.9315684,9.00038866 27.8312145,9.06267206 27.781086,9.19957895 L26.0385867,14.0545749 L25.324013,11.9632713 L26.2767457,9.26186235 L26.2767457,9.2494251 L26.2767457,9.1871417 C26.2767457,9.13739271 26.2641652,9.08754656 26.2266172,9.06267206 C26.1889724,9.02536032 26.1388438,9.01292308 26.0510705,9.01292308 L24.3084744,9.01292308 C24.1580888,9.01292308 24.0578317,9.07510931 24.0076064,9.21201619 L22.4907823,14.0671093 L20.8484434,9.21201619 C20.7983149,9.07510931 20.7105415,9.01292308 20.5726396,9.01292308 L18.8426241,9.01292308 C18.7047222,9.01292308 18.6421099,9.06267206 18.6421099,9.16226721 C18.6421099,9.16848583 18.6452067,9.17470445 18.6483034,9.18092308 C18.6514969,9.1871417 18.6545937,9.19336032 18.6545937,9.19957895 C18.6671742,9.21201619 18.6671742,9.23698785 18.6671742,9.2494251 C18.8354629,9.68764372 19.0022032,10.1259595 19.1684597,10.5630121 C19.460231,11.3301377 19.7506476,12.093668 20.0461931,12.8470931 C20.372319,13.7107045 20.7049287,14.5743158 21.0394738,15.4425911 L21.0394738,15.4426883 L21.0403448,15.4449231 L21.0403448,15.4449231 L21.0403448,15.4449231 C21.1684726,15.7774251 21.2967939,16.1106073 21.4251152,16.4447611 C21.4502763,16.5070445 21.4753406,16.5692308 21.5128886,16.6315142 Z M8.51230149,0.21162753 C8.51230149,0.186733603 8.52484331,0.16182996 8.54991726,0.136936032 C8.55826879,0.128638057 8.56523647,0.120340081 8.57219446,0.112042105 C8.58612981,0.0954364372 8.60005548,0.0788404858 8.62512943,0.0622445344 C8.64429054,0.0432194332 8.67075802,0.0314720648 8.69336426,0.0214251012 L8.69336426,0.0214251012 L8.69338361,0.0214251012 C8.70036096,0.0183255061 8.70697058,0.0153813765 8.71288342,0.0124469636 C8.73795737,0 8.76303133,0 8.80063741,0 L10.1796757,0 C10.242288,0 10.2925133,0.0124469636 10.3300613,0.0497975709 L10.4304152,0.149382996 L10.5683171,0.448158704 L13.1947433,7.17123887 C13.226001,7.17075304 13.2573556,7.17046154 13.2888069,7.17046154 C13.7696732,7.17046154 14.2393138,7.23031579 14.6935675,7.34584615 L14.6935675,4.68068016 L12.1737854,0.21162753 C12.1236569,0.16182996 12.0985926,0.124489069 12.0985926,0.074691498 C12.0985926,0.0497975709 12.1110763,0.0373506073 12.1236569,0.0248939271 C12.1361406,0.0124469636 12.1612049,0 12.1862692,0 L14.2547975,0 C14.2798618,0.0124469636 14.3049261,0.0124469636 14.3175066,0.0124469636 C14.3237969,0.0124469636 14.3299904,0.0155562753 14.3362806,0.0186753036 C14.3425709,0.0217846154 14.3488611,0.0248939271 14.3550546,0.0248939271 L14.3926994,0.0622445344 C14.3997639,0.0762267206 14.4106993,0.0902089069 14.4234733,0.106396761 C14.433441,0.11902834 14.4443763,0.133010526 14.4554085,0.149382996 L15.7591378,2.92547368 L17.0503834,0.16182996 C17.0629639,0.143164372 17.0723509,0.124489069 17.0801895,0.108923077 L17.0801895,0.108893927 L17.0801895,0.108864777 C17.0880282,0.0933376518 17.0943184,0.0809101215 17.1005119,0.074691498 C17.1130925,0.0497975709 17.125673,0.0373506073 17.1381567,0.0373506073 C17.1507373,0.0248939271 17.163221,0.0248939271 17.1882853,0.0248939271 C17.2008658,0.0248939271 17.2259301,0.0248939271 17.2384138,0.0124469636 L19.3069422,0.0124469636 C19.3320065,0.0124469636 19.3570707,0.0248939271 19.3696513,0.0373506073 C19.382135,0.0497975709 19.3947155,0.074691498 19.3947155,0.0871384615 C19.3947155,0.124489069 19.3696513,0.17428664 19.3195227,0.224074494 L16.7745796,4.69321457 L16.7745796,7.66843725 C16.7745796,7.83021862 16.686903,7.91737652 16.5238401,7.91737652 L15.9459102,7.91737652 C15.9510392,7.9297166 15.955394,7.94225101 15.9589746,7.95478543 C15.9715551,8.04194332 15.9589746,8.14153846 15.8963623,8.22859919 L15.369819,8.95063968 C15.2694651,9.08764372 15.0563704,9.14982996 14.8934043,9.07520648 C14.3919252,8.86348178 13.8528982,8.75144939 13.2888069,8.75144939 C12.3736222,8.75144939 11.508566,9.05023482 10.7815086,9.61049393 C9.91645242,10.2826883 9.3774157,11.2412308 9.23951381,12.3118057 C9.10161192,13.3823806 9.40248965,14.4406154 10.0669348,15.2995628 C10.8442176,16.2829798 12.0226256,16.8555789 13.2888069,16.8555789 C14.2038948,16.8555789 15.0689509,16.5568907 15.7960084,15.9966316 C17.350574,14.7891498 17.8144082,12.6728745 16.9242878,10.9548826 L13.6398035,15.4240324 C13.5770944,15.5111903 13.4768373,15.5609393 13.3764835,15.5609393 C13.2762264,15.5609393 13.188453,15.5111903 13.1257439,15.4364696 L10.5684139,12.3367773 C10.4555762,12.1997733 10.4555762,11.9881457 10.5558333,11.8388016 L11.2202785,10.9300081 C11.2829876,10.8428502 11.3832447,10.7931012 11.4835018,10.7931012 C11.5838556,10.7931012 11.6715322,10.8428502 11.7342413,10.9175709 L13.3012906,12.8346559 L16.4479699,8.55235628 C16.5105822,8.45276113 16.610936,8.40291498 16.7237736,8.40291498 C16.8114502,8.40291498 16.8867398,8.44022672 16.9493521,8.49007287 C17.2502202,8.73901215 17.5260239,9.01292308 17.7642797,9.32414575 C18.7044319,10.506753 19.1056538,11.9881457 18.9301071,13.5069474 C18.7420767,15.0132146 17.9773744,16.3452632 16.7863859,17.2663968 C15.7835247,18.0507206 14.5800525,18.4615385 13.3012906,18.4615385 C11.5336303,18.4615385 9.90396867,17.6647773 8.813276,16.2829798 C6.88267855,13.8306073 7.33398064,10.2826883 9.8036148,8.36560324 C10.2545782,8.01289069 10.7460896,7.73577328 11.2667297,7.53755466 C11.2615039,7.52404858 11.2562782,7.51054251 11.2510524,7.4971336 L11.2510524,7.49703644 C11.2081819,7.38626721 11.1664726,7.27831579 11.1198279,7.17046154 C11.0885701,7.08330364 11.0540221,6.99303644 11.0195708,6.9028664 C10.9851195,6.81259919 10.9506682,6.72233198 10.9193137,6.63517409 L8.06099941,6.63517409 C8.02457396,6.7437085 7.98391951,6.84796761 7.94395216,6.95047773 C7.91513308,7.02442105 7.88667206,7.09748988 7.86041748,7.17046154 C7.80072773,7.30872874 7.74894437,7.4548664 7.69878679,7.59643725 C7.6857224,7.63326316 7.67277413,7.66979757 7.65982587,7.70574899 C7.60968765,7.84275304 7.52193366,7.90493927 7.38403177,7.90493927 L5.77937633,7.90493927 C5.71668661,7.90493927 5.65400657,7.89250202 5.61640049,7.85519028 C5.56625258,7.81778138 5.56625258,7.76803239 5.59132654,7.69331174 L8.51230149,0.21162753 Z M9.41706371,2.69723077 L9.41705403,2.69726964 C9.37376735,2.81737652 9.32916456,2.94111741 9.28956494,3.07481781 C9.21434309,3.28644534 9.15166305,3.49807287 9.08898301,3.7097004 C9.05763815,3.81551417 9.02316752,3.92132794 8.98869688,4.0271417 L8.98868721,4.0271417 C8.95421657,4.13295547 8.91973626,4.23876923 8.8883914,4.344583 C8.81317923,4.55621053 8.75049919,4.74296356 8.68781915,4.9297166 L10.3300613,4.9297166 L9.49013719,2.48975223 C9.46706645,2.55848745 9.44229249,2.62723239 9.41707338,2.69721134 L9.41706371,2.69722105 L9.41706371,2.69723077 Z M0,9.23698785 C0,9.17470445 0.0250727896,9.11242105 0.0626818773,9.07510931 C0.100290965,9.02536032 0.162972939,9.00038866 0.238190921,9.00038866 L1.99328716,9.00038866 C2.04342539,9.00038866 2.09357329,9.01292308 2.14372119,9.03779757 C2.19386909,9.06267206 2.24401699,9.09998381 2.28162308,9.16226721 C2.74546698,9.89674494 3.19677874,10.6187854 3.63554869,11.3283887 C4.08686045,12.0378947 4.53817221,12.7599352 4.98948397,13.4819757 L4.98948397,9.21201619 C5.00201611,9.14982996 5.02709006,9.09998381 5.07723796,9.06267206 C5.11484405,9.02536032 5.16499195,9.01292308 5.22767199,9.01292308 L6.76964739,9.01292308 C6.84485957,9.01292308 6.90754928,9.03779757 6.95768751,9.07510931 C7.00783541,9.11242105 7.03290936,9.17470445 7.03290936,9.2494251 L7.03290936,16.7186721 C7.03290936,16.7932955 7.00783541,16.8431417 6.97022932,16.8804534 C6.93261356,16.9178623 6.86993352,16.9302996 6.79472134,16.9302996 L5.07723796,16.9302996 C5.02709006,16.9302996 4.98948397,16.9178623 4.95186821,16.8804534 L4.95184885,16.8804534 C4.91424277,16.8431417 4.87664636,16.8057328 4.83904027,16.7559838 C4.54888501,16.2783158 4.25872975,15.8052146 3.97140995,15.3367773 L3.97136157,15.3366802 L3.97113899,15.3363887 C3.78682464,15.0358543 3.60367158,14.7372632 3.42243462,14.4405182 C3.24123638,14.1438704 3.0581317,13.8453765 2.87386574,13.5449393 L2.87340123,13.5441619 L2.87339155,13.5441619 C2.5860911,13.0757247 2.2959552,12.6027206 2.0058193,12.1250526 L2.0058193,16.7062348 C2.0058193,16.7808583 1.99328716,16.8431417 1.9556714,16.8804534 C1.91806531,16.9178623 1.85538527,16.9427368 1.76763128,16.9427368 L0.238190921,16.9427368 C0.150436931,16.9427368 0.100290965,16.9178623 0.0626818773,16.8804534 C0.0250727896,16.8307045 0,16.7808583 0,16.7186721 L0,9.23698785 Z" id="Shape" fill="#585858"></path>
            </g>
        </g>
    </g>
</svg>