<?xml version="1.0" encoding="UTF-8"?>
<svg width="32px" height="32px" viewBox="0 0 32 32" version="1.1" xmlns="http://www.w3.org/2000/svg" xmlns:xlink="http://www.w3.org/1999/xlink">
    <title>Logo/SamsungPay</title>
    <g id="Logo/SamsungPay" stroke="none" stroke-width="1" fill="none" fill-rule="evenodd">
        <g id="Group-12" transform="translate(2.000000, 2.000000)">
            <path d="M27.7427944,9.82685634 C27.3983155,7.2268 26.478062,4.87065915 24.8552451,3.14491268 L24.8548507,3.14491268 C23.1294986,1.52229296 20.7733577,0.602039437 18.1733014,0.257757746 C15.6901746,-0.0713408451 13.9995248,0.00950422535 13.9995248,0.00950422535 C13.9995248,0.00950422535 12.3084845,-0.0713408451 9.82535775,0.257757746 C7.22510423,0.602039437 4.86935775,1.52229296 3.14380845,3.14491268 L3.14361127,3.14491268 C1.52118873,4.87065915 0.600738028,7.2268 0.256259155,9.82685634 C-0.0728394366,12.3099831 0.0084,14.0010254 0.0084,14.0010254 C0.0084,14.0010254 -0.0728394366,15.6916732 0.256259155,18.1749972 C0.600738028,20.7746592 1.52118873,23.1308 3.14361127,24.8565465 L3.14380845,24.8569408 C4.86935775,26.4793634 7.22510423,27.3996169 9.82535775,27.744293 C12.3084845,28.0731944 13.9995248,27.9921521 13.9995248,27.9921521 C13.9995248,27.9921521 15.6901746,28.0731944 18.1733014,27.744293 C20.7733577,27.3996169 23.1294986,26.4793634 24.8548507,24.8569408 L24.8552451,24.8565465 C26.478062,23.1308 27.3983155,20.7746592 27.7427944,18.1749972 C28.0716958,15.6916732 27.9906535,14.0010254 27.9906535,14.0010254 C27.9906535,14.0010254 28.0716958,12.3099831 27.7427944,9.82685634" id="Fill-1" fill="#1E4BC6"></path>
            <path d="M6.52269859,11.1661239 L6.52269859,13.8712789 L7.56855775,13.8712789 C7.76968451,13.8712789 7.9540507,13.8361803 8.12126197,13.7657859 C8.28906479,13.6951944 8.43320563,13.5981803 8.55407887,13.4741521 C8.67475493,13.3501239 8.76861408,13.2059831 8.83545915,13.0417296 C8.90230423,12.8774761 8.93621972,12.7015887 8.93621972,12.5136732 C8.93621972,12.3261521 8.90230423,12.1500676 8.83545915,11.9856169 C8.76861408,11.8215606 8.67475493,11.6789972 8.55407887,11.5581239 C8.43320563,11.4376451 8.28906479,11.3422085 8.12126197,11.2716169 C7.9540507,11.2014197 7.76968451,11.1661239 7.56855775,11.1661239 L6.52269859,11.1661239 Z M5.15483944,9.89902535 L7.66872676,9.89902535 C8.05126197,9.89902535 8.4032338,9.96784225 8.72503662,10.1050817 C9.04683944,10.2425183 9.32486761,10.4286592 9.55971268,10.6631099 C9.79436056,10.8981521 9.97833239,11.1746028 10.1128113,11.4930535 C10.2468958,11.8115042 10.313938,12.1516451 10.313938,12.5136732 C10.313938,12.8757014 10.2468958,13.2176169 10.1128113,13.5392225 C9.97833239,13.8612225 9.79436056,14.1396451 9.55971268,14.3740958 C9.32486761,14.6089408 9.04506479,14.7946873 8.72010704,14.9323211 C8.39475493,15.0697577 8.04120563,15.1383775 7.65906479,15.1383775 L6.52269859,15.1383775 L6.52269859,17.2401521 L5.15483944,17.2401521 L5.15483944,9.89902535 Z" id="Fill-6" fill="#FFFFFF"></path>
            <path d="M13.6929268,16.003262 C13.9476873,16.003262 14.1819408,15.9592901 14.3968704,15.8711493 C14.6112085,15.7830085 14.7957718,15.6601634 14.949969,15.5026141 C15.103969,15.3450648 15.2264197,15.1624732 15.3169268,14.9548394 C15.4074338,14.7472056 15.4527859,14.5236 15.4527859,14.2840225 C15.4527859,14.0513465 15.4074338,13.8306986 15.3169268,13.623262 C15.2264197,13.415431 15.103969,13.2342197 14.949969,13.0800225 C14.7957718,12.9258254 14.6112085,12.8043606 14.3968704,12.7162197 C14.1819408,12.6282761 13.9476873,12.584107 13.6929268,12.584107 C13.4446732,12.584107 13.2118,12.6282761 12.9939127,12.7162197 C12.7762225,12.8043606 12.5867296,12.9240507 12.4258282,13.075093 C12.2649268,13.2263324 12.1391239,13.4059662 12.0486169,13.6136 C11.9581099,13.8216282 11.9129549,14.0448394 11.9129549,14.2840225 C11.9129549,14.5236 11.9581099,14.7487831 12.0486169,14.9595718 C12.1391239,15.1701634 12.2649268,15.3531493 12.4258282,15.5071493 C12.5867296,15.6617408 12.7762225,15.7830085 12.9939127,15.8711493 C13.2118,15.9592901 13.4446732,16.003262 13.6929268,16.003262 M13.4716873,17.2502479 C13.1161662,17.2502479 12.765969,17.1839944 12.4208986,17.0514873 C12.0754338,16.9191775 11.765462,16.7267268 11.4905887,16.4749239 C11.2157155,16.2227268 10.9942789,15.9143324 10.8268704,15.5491493 C10.6588704,15.1839662 10.5752648,14.7688958 10.5752648,14.3035437 C10.5752648,13.8318817 10.657293,13.4136563 10.8217437,13.0484732 C10.9858,12.683093 11.2038845,12.3746986 11.4756028,12.1223042 C11.7471239,11.8706986 12.0588704,11.6782479 12.4106451,11.545938 C12.7626169,11.413431 13.1228704,11.3471775 13.4916028,11.3471775 C13.8804479,11.3471775 14.2393211,11.4175718 14.5678282,11.5581634 C14.8963352,11.6985577 15.1676592,11.8904169 15.3823915,12.1331493 L15.3823915,11.3572338 L16.7399972,11.3572338 L16.7399972,17.2401915 L15.3823915,17.2401915 L15.3823915,16.4041352 C15.1676592,16.6667831 14.8929831,16.8736282 14.5577718,17.0242761 C14.2225606,17.1747268 13.8605324,17.2502479 13.4716873,17.2502479" id="Fill-8" fill="#FFFFFF"></path>
            <polygon id="Fill-10" fill="#FFFFFF" points="19.5958986 16.9855296 17.1823775 11.3571352 18.6304901 11.3571352 20.2696732 15.3818394 21.8183493 11.3571352 23.2463493 11.3571352 19.7366873 19.9454451 18.3591662 19.9454451"></polygon>
        </g>
    </g>
</svg>