<svg id="Layer_1" data-name="Layer 1" xmlns="http://www.w3.org/2000/svg" xmlns:xlink="http://www.w3.org/1999/xlink" viewBox="0 0 240 240"><defs><style>.cls-1{fill:url(#linear-gradient);}.cls-2{fill:#ef8d3c;}.cls-3{fill:url(#linear-gradient-2);}.cls-4{fill:#fff;}.cls-5{fill:url(#linear-gradient-3);}.cls-6{fill:#e5a394;}.cls-7{fill:url(#linear-gradient-4);}.cls-8{fill:#353535;}.cls-9{fill:url(#linear-gradient-5);}.cls-10{fill:#0f2386;}.cls-11{fill:#cc8e87;}.cls-12{fill:#b2d4d9;}.cls-13{fill:url(#linear-gradient-6);}.cls-14{fill:url(#linear-gradient-7);}.cls-15{fill:#9dbfc1;}.cls-16,.cls-17{fill:#9b0165;}.cls-17{opacity:0.4;}.cls-18{fill:url(#linear-gradient-8);}.cls-19{fill:url(#linear-gradient-9);}.cls-20{fill:url(#linear-gradient-10);}.cls-21{fill:url(#linear-gradient-11);}.cls-22{fill:#7da5d4;}.cls-23{fill:#746aab;}.cls-24{fill:#d3e5f5;}.cls-25{fill:#8aacce;}.cls-26{fill:#3171bd;}.cls-27{fill:#bedafa;}.cls-28{fill:#9ec4f0;}.cls-29{fill:#b7d8f7;}.cls-30{fill:url(#linear-gradient-12);}.cls-31{fill:url(#linear-gradient-13);}.cls-32{fill:url(#linear-gradient-14);}.cls-33{fill:#ff7d7d;}.cls-34{fill:url(#linear-gradient-15);}.cls-35{fill:#58495d;}.cls-36{fill:url(#linear-gradient-16);}.cls-37{fill:url(#linear-gradient-17);}.cls-38{fill:url(#linear-gradient-18);}.cls-39{fill:url(#linear-gradient-19);}.cls-40{fill:url(#linear-gradient-20);}.cls-41{fill:url(#linear-gradient-21);}.cls-42{fill:url(#linear-gradient-22);}.cls-43{fill:#cc8e83;}.cls-44{fill:url(#linear-gradient-23);}.cls-45{fill:url(#linear-gradient-24);}.cls-46{fill:#f18d0a;}.cls-47{opacity:0.6;}.cls-48{fill:#c0d7e7;}</style><linearGradient id="linear-gradient" x1="0.51" y1="124.1" x2="86.84" y2="202.93" gradientTransform="translate(52.07 -22.03) rotate(-1.47)" gradientUnits="userSpaceOnUse"><stop offset="0.24" stop-color="#00b0da" stop-opacity="0"/><stop offset="0.58" stop-color="#3580e1" stop-opacity="0.08"/><stop offset="0.8" stop-color="#6c68e5" stop-opacity="0.2"/></linearGradient><linearGradient id="linear-gradient-2" x1="141.03" y1="46" x2="233.01" y2="46" gradientUnits="userSpaceOnUse"><stop offset="0" stop-color="#ff9a00"/><stop offset="0.06" stop-color="#fea500"/><stop offset="0.22" stop-color="#fbba00"/><stop offset="0.38" stop-color="#fac700"/><stop offset="0.52" stop-color="#f9cb00"/><stop offset="1" stop-color="#ffbd00"/></linearGradient><linearGradient id="linear-gradient-3" x1="-182.3" y1="161.14" x2="-174" y2="161.14" gradientTransform="translate(326.2)" gradientUnits="userSpaceOnUse"><stop offset="0" stop-color="#3772cd"/><stop offset="0.17" stop-color="#3267c6"/><stop offset="0.47" stop-color="#254ab3"/><stop offset="0.8" stop-color="#14249a"/></linearGradient><linearGradient id="linear-gradient-4" x1="-193.21" y1="156.28" x2="-179.83" y2="156.28" xlink:href="#linear-gradient-3"/><linearGradient id="linear-gradient-5" x1="-191.01" y1="116" x2="-148.47" y2="129.13" gradientTransform="translate(326.2)" gradientUnits="userSpaceOnUse"><stop offset="0" stop-color="#14249a"/><stop offset="0.1" stop-color="#1e3ba9"/><stop offset="0.25" stop-color="#2c59bd"/><stop offset="0.38" stop-color="#346bc9"/><stop offset="0.47" stop-color="#3772cd"/><stop offset="0.58" stop-color="#3267c6"/><stop offset="0.76" stop-color="#254ab3"/><stop offset="0.96" stop-color="#14249a"/></linearGradient><linearGradient id="linear-gradient-6" x1="81.05" y1="163.04" x2="211.63" y2="157.38" gradientUnits="userSpaceOnUse"><stop offset="0" stop-color="#6c68e6"/><stop offset="0.2" stop-color="#5c73e4"/><stop offset="0.58" stop-color="#338ee0"/><stop offset="1" stop-color="#00b1db"/></linearGradient><linearGradient id="linear-gradient-7" x1="78.78" y1="137.5" x2="208.51" y2="137.5" xlink:href="#linear-gradient-6"/><linearGradient id="linear-gradient-8" x1="-175.05" y1="132.83" x2="-150.23" y2="141.89" gradientTransform="matrix(1, -0.05, 0.05, 1, 317.58, -46.21)" gradientUnits="userSpaceOnUse"><stop offset="0" stop-color="#9b0165"/><stop offset="0.52" stop-color="#f81274"/><stop offset="1" stop-color="#f47e64"/></linearGradient><linearGradient id="linear-gradient-9" x1="-166.86" y1="133.13" x2="-145.29" y2="138.47" gradientTransform="matrix(1, -0.05, 0.05, 1, 317.58, -46.21)" gradientUnits="userSpaceOnUse"><stop offset="0" stop-color="#9b0165"/><stop offset="0.03" stop-color="#a80367"/><stop offset="0.11" stop-color="#c5096c"/><stop offset="0.19" stop-color="#dc0d6f"/><stop offset="0.28" stop-color="#ec1072"/><stop offset="0.39" stop-color="#f51174"/><stop offset="0.52" stop-color="#f81274"/><stop offset="1" stop-color="#f47e64"/></linearGradient><linearGradient id="linear-gradient-10" x1="-159.45" y1="146" x2="-140.79" y2="139.16" gradientTransform="matrix(1, -0.05, 0.05, 1, 317.58, -46.21)" gradientUnits="userSpaceOnUse"><stop offset="0" stop-color="#f47e64"/><stop offset="0.48" stop-color="#f81274"/><stop offset="1" stop-color="#9b0165"/></linearGradient><linearGradient id="linear-gradient-11" x1="15.44" y1="294.76" x2="29.66" y2="294.76" gradientTransform="matrix(0.46, 0.9, 0.89, -0.45, -94.51, 254.32)" gradientUnits="userSpaceOnUse"><stop offset="0.35" stop-color="#00b0da" stop-opacity="0"/><stop offset="0.78" stop-color="#6c68e5" stop-opacity="0.2"/></linearGradient><linearGradient id="linear-gradient-12" x1="-67.49" y1="240.71" x2="-50.11" y2="240.71" xlink:href="#linear-gradient-11"/><linearGradient id="linear-gradient-13" x1="93.18" y1="98.47" x2="106.18" y2="98.47" gradientUnits="userSpaceOnUse"><stop offset="0" stop-color="#f43a34"/><stop offset="0.28" stop-color="#fa4744"/><stop offset="0.57" stop-color="#ff5050"/><stop offset="0.73" stop-color="#fd4c4c"/><stop offset="0.91" stop-color="#f9423f"/><stop offset="1" stop-color="#f53a35"/></linearGradient><linearGradient id="linear-gradient-14" x1="89.76" y1="92.02" x2="109.57" y2="92.02" xlink:href="#linear-gradient-13"/><linearGradient id="linear-gradient-15" x1="90.37" y1="85.25" x2="109" y2="85.25" xlink:href="#linear-gradient-13"/><linearGradient id="linear-gradient-16" x1="94.27" y1="74.84" x2="101.92" y2="74.84" gradientUnits="userSpaceOnUse"><stop offset="0" stop-color="#20a692"/><stop offset="0.94" stop-color="#31bf77"/></linearGradient><linearGradient id="linear-gradient-17" x1="88.88" y1="78.77" x2="99.67" y2="78.77" gradientUnits="userSpaceOnUse"><stop offset="0" stop-color="#20cdbb"/><stop offset="0.94" stop-color="#31d086"/></linearGradient><linearGradient id="linear-gradient-18" x1="99.2" y1="79.18" x2="107.17" y2="79.18" xlink:href="#linear-gradient-17"/><linearGradient id="linear-gradient-19" x1="7.79" y1="120.41" x2="54.12" y2="120.41" gradientTransform="matrix(0.51, 0.86, 0.86, -0.51, -74.54, 250.43)" xlink:href="#linear-gradient-11"/><linearGradient id="linear-gradient-20" x1="-4.72" y1="129.33" x2="35.96" y2="129.33" xlink:href="#linear-gradient-11"/><linearGradient id="linear-gradient-21" x1="-1948.92" y1="213.28" x2="-1980.41" y2="144.58" gradientTransform="matrix(-1, 0, 0, 1, -1906.68, 0)" xlink:href="#linear-gradient-3"/><linearGradient id="linear-gradient-22" x1="-1957.25" y1="138.4" x2="-1938.76" y2="135.41" gradientTransform="matrix(-1, 0, 0, 1, -1915.05, 0)" gradientUnits="userSpaceOnUse"><stop offset="0" stop-color="#ff9a00"/><stop offset="0.52" stop-color="#f9cb00"/><stop offset="1" stop-color="#ffbd00"/></linearGradient><linearGradient id="linear-gradient-23" x1="-1984.71" y1="144.41" x2="-1946.55" y2="141.93" xlink:href="#linear-gradient-22"/><linearGradient id="linear-gradient-24" x1="-1992.24" y1="398.49" x2="-1956.04" y2="402.93" gradientTransform="matrix(-0.96, 0.27, 0.27, 0.96, -1950.35, 277.74)" xlink:href="#linear-gradient-22"/></defs><path class="cls-1" d="M125.29,113.68l-71.2,38.87c-9.09,6-8.55,9.2-1.41,14l103.5,53.8c20.38,8.53,24.34,5.61,31.49,1.22L200,207.77a9.24,9.24,0,0,0-.41-16L141.74,109C136,105.91,130.9,110.34,125.29,113.68Z"/><path class="cls-2" d="M141.18,4.61,142,34a3,3,0,0,0,1.48,2.56l87.84,50.8A1.78,1.78,0,0,0,234,85.82V56.18a3,3,0,0,0-1.48-2.56L144.68,2.87C143.5,2.18,141.18,3.24,141.18,4.61Z"/><path class="cls-3" d="M141,5.3V34.88a3,3,0,0,0,1.48,2.57L193.2,66.53l.05,8a.71.71,0,0,0,1.3.41l3.81-5.44,32,18.73A1.77,1.77,0,0,0,233,86.71V57.07a2.94,2.94,0,0,0-1.48-2.56L143.7,3.76A1.78,1.78,0,0,0,141,5.3Z"/><polygon class="cls-4" points="148.76 24.95 148.76 26.24 226.1 69.55 226.1 68.21 148.76 24.95"/><polygon class="cls-4" points="148.76 30.32 148.76 31.61 190.43 54.93 190.43 53.59 148.76 30.32"/><path class="cls-4" d="M148.69,17.08l.05,2.66a1.05,1.05,0,0,0,.46,1L166,30.24c.55.31.9-.06.87-.9l0-2.3c0-.54-.08-.86-.46-1.08L149.68,16.2C149.12,15.89,148.68,16.29,148.69,17.08Z"/><path class="cls-5" d="M148.26,155s-4.37,7.21-4.37,10.5,3.58,1.21,5.77-1.2,3.17-4.68,2.09-8.48Z"/><path class="cls-6" d="M156.61,131.6s-2.64-8-7.25-4.24c0,0-.88,25.7-1.1,27.68s1.56,4.05,3.1,1.63c0-.07.34-.71.39-.81C153.26,152.51,156,133.73,156.61,131.6Z"/><path class="cls-6" d="M148.24,155.54s-2.28,4.23-2.37,6,1.95,1.43,2.94.28a17,17,0,0,0,2.68-5.55Z"/><path class="cls-7" d="M143.91,152.32s-8.35,2.45-10.42,5,2.62,3.55,6.07,2.47c3.12-1,7.45-2.42,6.72-6.08Z"/><path class="cls-6" d="M139.16,130.23s1.62-5.86,6.23-2.13c0,0,.92,23.26.91,25.34,0,1.71-1.65,3.91-3.1,1.63,0-.07-.35-.71-.39-.81C141.29,150.91,139.8,132.36,139.16,130.23Z"/><path class="cls-6" d="M142.39,152.88s-.09.48-1.31,1a19.42,19.42,0,0,0-3.5,1.83c-1.41,1.1.44,2.16,2.14,1.8s4.12-.79,5.48-1.71Z"/><path class="cls-8" d="M157.27,75.28s-4,10-1.6,11.25c0,0,1.89,4.21,4.53,2.55s6.21-6.49,5.83-10.22-3.82-9.3-3.82-9.3S156.78,71.11,157.27,75.28Z"/><path class="cls-9" d="M157.56,107.86s5.52,4.9,16.94,1.16a13.52,13.52,0,0,1,2.16,7.75c-.22,4.39-.75,9.67-9.43,12.53s-12.31,2.24-12.75,4.21,0,4-.45,5c-.86,1.79-4,1.11-7.1.23-2.76-.79-12.18-3.49-12.4-7.23a13.85,13.85,0,0,1,2.36-9.61c1.28-2,3.53-3.57,6.58-6.22S154,108.3,157.56,107.86Z"/><path class="cls-10" d="M174.22,109.8s-1.17,1.88-4.49,2.2-7.42,1.28-11.34-1.53a2,2,0,0,1-.2-3.16s.57,1.78,3.6,2.26,10.05.22,12.17-.41Z"/><path class="cls-6" d="M165.56,77.93l-1,4.08s-3.33,3.08-2,6.25,8.83-1.15,9.07-3.81a71.31,71.31,0,0,0-.22-7.91C171.41,74.34,165.63,76.24,165.56,77.93Z"/><path class="cls-11" d="M164.67,81.67s3.2,1.08,6.12-4.32l-5.68,2.48Z"/><path class="cls-6" d="M160,65.37s-2.07,3.4-.66,8.87c1.49,5.74,5.39,6.07,7.62,5.68,2.49-.44,5.3-3.39,5.56-7.41s-2.93-8.63-6.49-8.46S160.85,64.14,160,65.37Z"/><rect class="cls-12" x="202.07" y="146.51" width="8.65" height="11.4"/><path class="cls-8" d="M165.38,67.16a17.79,17.79,0,0,1-3.73,2.9c-1.8.92-2.67,1.29-2.72,2.64a3.59,3.59,0,0,1-1.66,2.58c-.22,0-3.77-9,2-13.34,4-3,9.34-2,9.54-1.37,0,0,5.91,1.45,7.36,5.61,2.09,6-1.43,8.57-3.33,8.65s-3.26-1.74-4.41-3.75S166.61,66.74,165.38,67.16Z"/><rect class="cls-12" x="74.29" y="96.58" width="8.65" height="11.4"/><path class="cls-13" d="M208.1,165.29l-113.76-69a5.35,5.35,0,0,0-8.12,4.56h0l-7.61,8v60.3h0c-.06,2.31,1.6,4.76,4.91,6.66l81.86,47.27c5.93,3.42,14.9,3.79,20,.83l17.8-10.73a10.28,10.28,0,0,0,4.88-8.12Z"/><path class="cls-14" d="M194.26,177.7l13.79-7.17.46-13.31-73.63-45.13c-6.27-3.62-11.55-19.63-17-16.49L78.78,114l0,8.39,94.26,54.45C179.34,180.44,188.83,180.83,194.26,177.7Z"/><path class="cls-12" d="M195.48,170.05l9.64-5.56c5.83-3.37,8.27-7.69,1.53-11.58l-80.88-44.65c-6.74-3.89-7.75-10.76-13.58-7.39L78.1,102.28c-5.83,3.37-5.1,9.26,1.64,13.15l93,53.68C179.46,173,189.65,173.42,195.48,170.05Z"/><path class="cls-15" d="M108.25,83.36a17,17,0,0,0-17,0L78.1,91c-5.83,3.37-5.1,9.25,1.64,13.14l93,53.68c6.74,3.89,16.93,4.32,22.76.95l12.06-7a6.41,6.41,0,0,0,0-11.1Z"/><path class="cls-16" d="M166.15,112.47s-.31.14-.37,1.14.77,5.15,2.22,4.68l1-2.09-.78-2.68S166.4,112.32,166.15,112.47Z"/><path class="cls-6" d="M168,113.48c-1.68.08-5.86.34-6.6,1.86a2.78,2.78,0,0,0,1.4,3.92c1.58.6,2.76-1.75,4.3-2s3.12-1.16,2.73-2.09S169.63,113.4,168,113.48Z"/><path class="cls-11" d="M170.81,76.71s-.47,5.23-1.23,6.85A22.47,22.47,0,0,0,168.23,88l1.4-.76s1.85-3.74,2-5.93a43.69,43.69,0,0,0-.14-4.78Z"/><path class="cls-17" d="M175.51,95.88a8.75,8.75,0,0,1-6-2.58c-2.31-2.61-1.31-4.69-1.08-6a4.37,4.37,0,0,0,1.93-.56c.65-.39,1.28,1,1.28,1l2.8,2.09Z"/><path class="cls-6" d="M151.22,109.62c.08,1.68.34,5.86,1.86,6.6a2.78,2.78,0,0,0,3.92-1.4c.6-1.58-1.75-2.76-2-4.3s-1.16-3.11-2.08-2.73S151.14,108,151.22,109.62Z"/><path class="cls-18" d="M160.1,83.42s-3.14,1.33-4.95,6.83-5.5,8.8-5.3,10.79.25,6.68.42,7.45,2.69,2.72,4.21,2.42,1-1.79.82-2.86a38,38,0,0,1-.63-6.21c.18-.62,1.88-2.15,2.25-3.44s2.3-5.8,2.65-7.81S160.79,84.4,160.1,83.42Z"/><path class="cls-19" d="M157.59,108.13s.4,1.63,4.06,2.37,10.95.53,12.45-.71.39-9.08,1.67-12.25c.41-1,3.79-10.14,2.83-11.39s-5.93-3.31-6.85-3.65c0,0,.3,4.71-3.45,4.76s-4.36-1.89-4-3.89c0,0,.12-.79.13-1.21s-2.85.18-4.75,1.49c-.64.44-1.61,4.23-2.48,7.64s0,5.11.24,7.3A67.43,67.43,0,0,1,157.59,108.13Z"/><path class="cls-16" d="M164.62,82s-.49-.28-.6.47c-.14,1-1,2.93.14,4.13s2.68,1.57,5.26,1c0,0,3.49-1.12,3.75-3.08a1.24,1.24,0,0,0-.35-.86c-.69,1.47-2.09,3.55-4.52,3.58-3.75,0-4.36-1.89-4-3.89A10.28,10.28,0,0,0,164.62,82Z"/><path class="cls-20" d="M178.35,86.46c1.14-.19,2.09,1.25,2.4,2.05a53,53,0,0,1,1.72,10.85c.32,5.32,1.19,13.79-.29,15.28s-4.15,2.28-7.38,2.5a26.65,26.65,0,0,0-6.56,1.12c-.67.3,0-.94-.34-2.75s-1.15-2.92-1.69-3,4.63-.62,6.78-.85,4-.12,4.2-1.08-1.39-10.69-1.51-11.83-.12-7,.64-9.67S178.35,86.46,178.35,86.46Z"/><path class="cls-8" d="M170,73.29s1.9,7.09.73,10.43-2.46,5.55-1.59,7.61,4.53,5.18,7.59,4.52c4.05-.87,6-2.3,5.4-6.45-.82-5.5-2.57-8.05-3.25-10.43a54.54,54.54,0,0,1-2.07-10.08S169.16,68.82,170,73.29Z"/><polygon class="cls-21" points="190.94 140 180.16 132.31 165.3 140.39 180.74 148.07 190.94 140"/><polygon class="cls-22" points="126.4 116.63 126.36 117.6 127.11 117.44 127.4 116.92 126.4 116.63"/><path class="cls-22" d="M126.5,117.42l11.92-5.27a.84.84,0,0,1,.66,0l27,15.14c.18.1.17.25,0,.33l-11.91,5.27a.82.82,0,0,1-.67,0l-27-15.14C126.31,117.65,126.32,117.5,126.5,117.42Z"/><polygon class="cls-23" points="166.26 126.54 166.22 127.49 165.61 127.53 165.07 126.75 166.26 126.54"/><path class="cls-24" d="M166.13,126.37l-27-15.14a.82.82,0,0,0-.67,0l-11.91,5.27c-.19.08-.2.23,0,.33l27,15.14a.84.84,0,0,0,.66,0l11.92-5.27C166.31,126.62,166.31,126.47,166.13,126.37Z"/><path class="cls-4" d="M134.11,116.84l-2.5-1.41a.33.33,0,0,0-.22,0l-1,.45c-.06,0-.06.07,0,.1l2.5,1.41a.3.3,0,0,0,.21,0l1-.45C134.17,116.92,134.17,116.87,134.11,116.84Z"/><path class="cls-4" d="M156.86,129.59l-3.37-1.89a.3.3,0,0,0-.21,0l-1,.45c-.06,0-.07.07,0,.1l3.37,1.89a.26.26,0,0,0,.21,0l1-.44C156.91,129.67,156.92,129.62,156.86,129.59Z"/><path class="cls-4" d="M136.5,118.17l-1.79-1a.3.3,0,0,0-.21,0l-1,.45c-.06,0-.07.07,0,.1l1.78,1a.24.24,0,0,0,.22,0l1-.44C136.55,118.25,136.55,118.21,136.5,118.17Z"/><path class="cls-4" d="M138.84,119.49l-1.78-1a.26.26,0,0,0-.21,0l-1,.44c-.06,0-.06.08,0,.11l1.78,1a.28.28,0,0,0,.22,0l1-.44C138.9,119.57,138.9,119.52,138.84,119.49Z"/><path class="cls-4" d="M141.19,120.8l-1.78-1a.24.24,0,0,0-.22,0l-1,.44c-.06,0-.06.07,0,.11l1.78,1a.3.3,0,0,0,.21,0l1-.45C141.24,120.89,141.25,120.84,141.19,120.8Z"/><path class="cls-4" d="M143.53,122.12l-1.78-1a.26.26,0,0,0-.21,0l-1,.44c-.06,0-.07.08,0,.11l1.78,1a.28.28,0,0,0,.22,0l1-.44C143.59,122.2,143.59,122.15,143.53,122.12Z"/><path class="cls-4" d="M145.88,123.44l-1.78-1a.24.24,0,0,0-.22,0l-1,.44c-.06,0-.06.07,0,.11l1.78,1a.3.3,0,0,0,.21,0l1-.45C145.94,123.52,145.94,123.47,145.88,123.44Z"/><path class="cls-4" d="M148.23,124.75l-1.78-1a.33.33,0,0,0-.22,0l-1,.45c-.06,0-.06.07,0,.1l1.79,1a.26.26,0,0,0,.21,0l1-.44C148.28,124.83,148.29,124.78,148.23,124.75Z"/><path class="cls-4" d="M150.57,126.07l-1.78-1a.26.26,0,0,0-.21,0l-1,.44c-.06,0-.07.08,0,.11l1.78,1a.33.33,0,0,0,.22,0l1-.45C150.63,126.15,150.63,126.1,150.57,126.07Z"/><path class="cls-4" d="M152.92,127.38l-1.78-1a.33.33,0,0,0-.22,0l-1,.45c-.06,0-.06.07,0,.1l1.78,1a.22.22,0,0,0,.21,0l1-.44C153,127.46,153,127.42,152.92,127.38Z"/><path class="cls-4" d="M137.54,117l-4.13-2.31a.28.28,0,0,0-.22,0l-1,.44c-.06,0-.06.08,0,.11l4.13,2.31a.22.22,0,0,0,.21,0l1-.44C137.59,117,137.6,117,137.54,117Z"/><path class="cls-4" d="M158.66,128.79l-1.79-1a.3.3,0,0,0-.21,0l-1,.45c-.06,0-.06.07,0,.1l1.79,1a.22.22,0,0,0,.21,0l1-.44C158.71,128.87,158.71,128.83,158.66,128.79Z"/><path class="cls-4" d="M156.31,127.48l-1.78-1a.28.28,0,0,0-.22,0l-1,.44c-.06,0-.06.08,0,.11l1.78,1a.3.3,0,0,0,.21,0l1-.44C156.37,127.56,156.37,127.51,156.31,127.48Z"/><path class="cls-4" d="M154,126.16l-1.78-1a.3.3,0,0,0-.21,0l-1,.45c-.07,0-.07.07,0,.1l1.78,1a.28.28,0,0,0,.22,0l1-.44C154,126.24,154,126.19,154,126.16Z"/><path class="cls-4" d="M151.62,124.85l-1.79-1a.26.26,0,0,0-.21,0l-1,.44c-.06,0-.06.08,0,.11l1.79,1a.3.3,0,0,0,.21,0l1-.45C151.67,124.93,151.67,124.88,151.62,124.85Z"/><path class="cls-4" d="M149.27,123.53l-1.78-1a.33.33,0,0,0-.22,0l-1,.44c-.06,0-.06.08,0,.11l1.78,1a.26.26,0,0,0,.21,0l1-.44C149.33,123.61,149.33,123.56,149.27,123.53Z"/><path class="cls-4" d="M146.92,122.22l-1.78-1a.22.22,0,0,0-.21,0l-1,.44c-.07,0-.07.07,0,.11l1.78,1a.33.33,0,0,0,.22,0l1-.45C147,122.3,147,122.25,146.92,122.22Z"/><path class="cls-4" d="M144.58,120.9l-1.78-1a.28.28,0,0,0-.22,0l-1,.44c-.06,0-.06.08,0,.11l1.79,1a.26.26,0,0,0,.21,0l1-.44C144.63,121,144.63,120.93,144.58,120.9Z"/><path class="cls-4" d="M142.23,119.58l-1.78-1a.24.24,0,0,0-.22,0l-1,.44c-.06,0-.06.07,0,.11l1.78,1a.22.22,0,0,0,.21,0l1-.44C142.29,119.66,142.29,119.62,142.23,119.58Z"/><path class="cls-4" d="M139.88,118.27l-1.78-1a.26.26,0,0,0-.21,0l-1,.44c-.06,0-.07.08,0,.11l1.78,1a.28.28,0,0,0,.22,0l1-.44C139.94,118.35,139.94,118.3,139.88,118.27Z"/><path class="cls-4" d="M138,115.39l-2.76-1.55a.33.33,0,0,0-.22,0l-1,.45c-.06,0-.06.07,0,.1l2.76,1.55a.26.26,0,0,0,.21,0l1-.44C138,115.47,138,115.42,138,115.39Z"/><path class="cls-4" d="M160.46,128l-3.14-1.76a.26.26,0,0,0-.21,0l-1,.44c-.06,0-.07.08,0,.11l3.13,1.76a.33.33,0,0,0,.22,0l1-.45C160.51,128.08,160.51,128,160.46,128Z"/><path class="cls-4" d="M156.76,125.92l-1.78-1a.24.24,0,0,0-.22,0l-1,.44c-.06,0-.06.07,0,.11l1.78,1a.22.22,0,0,0,.21,0l1-.44C156.81,126,156.82,126,156.76,125.92Z"/><path class="cls-4" d="M154.41,124.61l-1.78-1a.26.26,0,0,0-.21,0l-1,.44c-.06,0-.06.08,0,.11l1.78,1a.28.28,0,0,0,.22,0l1-.44C154.47,124.69,154.47,124.64,154.41,124.61Z"/><path class="cls-4" d="M152.07,123.29l-1.79-1a.3.3,0,0,0-.21,0l-1,.45c-.06,0-.07.07,0,.1l1.78,1a.24.24,0,0,0,.22,0l1-.44C152.12,123.37,152.12,123.33,152.07,123.29Z"/><path class="cls-4" d="M149.72,122l-1.78-1a.28.28,0,0,0-.22,0l-1,.44c-.06,0-.06.08,0,.11l1.78,1a.3.3,0,0,0,.21,0l1-.44C149.77,122.06,149.78,122,149.72,122Z"/><path class="cls-4" d="M147.37,120.66l-1.78-1a.3.3,0,0,0-.21,0l-1,.45c-.06,0-.06.07,0,.1l1.78,1a.28.28,0,0,0,.22,0l1-.44C147.43,120.74,147.43,120.69,147.37,120.66Z"/><path class="cls-4" d="M145,119.35l-1.79-1a.26.26,0,0,0-.21,0l-1,.44c-.06,0-.07.08,0,.11l1.78,1a.33.33,0,0,0,.22,0l1-.45C145.08,119.43,145.08,119.38,145,119.35Z"/><path class="cls-4" d="M142.68,118l-1.78-1a.33.33,0,0,0-.22,0l-1,.45c-.06,0-.06.07,0,.1l1.78,1a.26.26,0,0,0,.21,0l1-.44C142.73,118.11,142.74,118.06,142.68,118Z"/><path class="cls-4" d="M140.33,116.72l-1.78-1a.22.22,0,0,0-.21,0l-1,.44c-.06,0-.06.07,0,.11l1.78,1a.33.33,0,0,0,.22,0l1-.45C140.39,116.8,140.39,116.75,140.33,116.72Z"/><path class="cls-4" d="M141.14,115.36,137,113.05a.24.24,0,0,0-.22,0l-1,.44c-.06,0-.06.07,0,.11l4.12,2.31a.28.28,0,0,0,.22,0l1-.44C141.19,115.44,141.19,115.39,141.14,115.36Z"/><path class="cls-4" d="M162.26,127.2l-1.79-1a.3.3,0,0,0-.21,0l-1,.45c-.06,0-.07.07,0,.1l1.78,1a.28.28,0,0,0,.22,0l1-.44C162.31,127.28,162.31,127.23,162.26,127.2Z"/><path class="cls-4" d="M159.91,125.89l-1.78-1a.24.24,0,0,0-.22,0l-1,.44c-.06,0-.06.07,0,.11l1.78,1a.3.3,0,0,0,.21,0l1-.45C160,126,160,125.92,159.91,125.89Z"/><path class="cls-4" d="M157.56,124.57l-1.78-1a.26.26,0,0,0-.21,0l-1,.44c-.06,0-.06.08,0,.11l1.78,1a.28.28,0,0,0,.22,0l1-.44C157.62,124.65,157.62,124.6,157.56,124.57Z"/><path class="cls-4" d="M155.22,123.25l-1.79-1a.22.22,0,0,0-.21,0l-1,.44c-.06,0-.07.07,0,.11l1.78,1a.28.28,0,0,0,.22,0l1-.45C155.27,123.34,155.27,123.29,155.22,123.25Z"/><path class="cls-4" d="M152.87,121.94l-1.78-1a.28.28,0,0,0-.22,0l-1,.44c-.06,0-.06.08,0,.11l1.78,1a.26.26,0,0,0,.21,0l1-.44C152.92,122,152.93,122,152.87,121.94Z"/><path class="cls-4" d="M150.52,120.62l-1.78-1a.3.3,0,0,0-.21,0l-1,.45c-.06,0-.06.07,0,.1l1.78,1a.24.24,0,0,0,.22,0l1-.44C150.58,120.7,150.58,120.66,150.52,120.62Z"/><path class="cls-4" d="M148.18,119.31l-1.79-1a.26.26,0,0,0-.21,0l-1,.44c-.06,0-.07.08,0,.11l1.78,1a.28.28,0,0,0,.22,0l1-.44C148.23,119.39,148.23,119.34,148.18,119.31Z"/><path class="cls-4" d="M145.83,118l-1.78-1a.33.33,0,0,0-.22,0l-1,.45c-.06,0-.06.07,0,.1l1.78,1a.22.22,0,0,0,.21,0l1-.44C145.88,118.07,145.89,118,145.83,118Z"/><path class="cls-4" d="M143.48,116.68l-1.78-1a.26.26,0,0,0-.21,0l-1,.44c-.06,0-.06.08,0,.11l1.78,1a.33.33,0,0,0,.22,0l1-.45C143.54,116.76,143.54,116.71,143.48,116.68Z"/><path class="cls-4" d="M164.05,126.41l-1.78-1a.22.22,0,0,0-.21,0l-1,.44c-.06,0-.07.07,0,.11l1.78,1a.33.33,0,0,0,.22,0l1-.45C164.11,126.49,164.11,126.44,164.05,126.41Z"/><path class="cls-4" d="M161.71,125.09l-1.78-1a.28.28,0,0,0-.22,0l-1,.44c-.06,0-.06.08,0,.11l1.79,1a.26.26,0,0,0,.21,0l1-.44C161.76,125.17,161.77,125.12,161.71,125.09Z"/><path class="cls-4" d="M159.36,123.77l-1.78-1a.28.28,0,0,0-.22,0l-1,.45c-.06,0-.06.07,0,.11l1.78,1a.22.22,0,0,0,.21,0l1-.44C159.42,123.85,159.42,123.81,159.36,123.77Z"/><path class="cls-4" d="M157,122.46l-11.16-6.26a.24.24,0,0,0-.22,0l-1,.44c-.06,0-.06.08,0,.11L155.79,123a.28.28,0,0,0,.22,0l1-.44C157.07,122.54,157.07,122.49,157,122.46Z"/><path class="cls-4" d="M145.28,115.88l-1.78-1a.26.26,0,0,0-.21,0l-1,.44c-.06,0-.06.08,0,.11l1.78,1a.28.28,0,0,0,.22,0l1-.44C145.34,116,145.34,115.91,145.28,115.88Z"/><path class="cls-4" d="M142.94,114.57l-1.79-1a.22.22,0,0,0-.21,0l-1,.44c-.06,0-.07.07,0,.11l1.78,1a.33.33,0,0,0,.22,0l1-.45C143,114.65,143,114.6,142.94,114.57Z"/><path class="cls-4" d="M140.59,113.25l-1.78-1a.28.28,0,0,0-.22,0l-1,.44c-.06,0-.06.08,0,.11l1.78,1a.26.26,0,0,0,.21,0l1-.44C140.64,113.33,140.65,113.28,140.59,113.25Z"/><path class="cls-4" d="M131.59,117.23l-1.78-1a.26.26,0,0,0-.21,0l-1,.44c-.06,0-.06.08,0,.11l1.78,1a.28.28,0,0,0,.22,0l1-.44C131.65,117.31,131.65,117.26,131.59,117.23Z"/><path class="cls-4" d="M133.94,118.55l-1.78-1a.24.24,0,0,0-.22,0l-1,.44c-.06,0-.06.07,0,.11l1.78,1a.3.3,0,0,0,.21,0l1-.45C134,118.63,134,118.58,133.94,118.55Z"/><path class="cls-4" d="M136.29,119.86l-1.79-1a.26.26,0,0,0-.21,0l-1,.44c-.06,0-.07.08,0,.11l1.78,1a.28.28,0,0,0,.22,0l1-.44C136.34,119.94,136.34,119.89,136.29,119.86Z"/><path class="cls-4" d="M138.63,121.18l-1.78-1a.22.22,0,0,0-.21,0l-1,.44c-.06,0-.06.08,0,.11l1.78,1a.33.33,0,0,0,.22,0l1-.45C138.69,121.26,138.69,121.21,138.63,121.18Z"/><path class="cls-4" d="M141,122.49l-1.78-1a.33.33,0,0,0-.22,0l-1,.45c-.06,0-.06.07,0,.1l1.78,1a.26.26,0,0,0,.21,0l1-.44C141,122.57,141,122.52,141,122.49Z"/><path class="cls-4" d="M143.32,123.81l-1.78-1a.26.26,0,0,0-.21,0l-1,.44c-.06,0-.07.08,0,.11l1.78,1a.33.33,0,0,0,.22,0l1-.45C143.38,123.89,143.38,123.84,143.32,123.81Z"/><path class="cls-4" d="M145.67,125.12l-1.78-1a.3.3,0,0,0-.21,0l-1,.45c-.06,0-.06.07,0,.1l1.78,1a.22.22,0,0,0,.21,0l1-.44C145.73,125.2,145.73,125.16,145.67,125.12Z"/><path class="cls-4" d="M148,126.44l-1.78-1a.28.28,0,0,0-.22,0l-1,.44c-.06,0-.06.08,0,.11l1.79,1a.26.26,0,0,0,.21,0l1-.44C148.07,126.52,148.08,126.47,148,126.44Z"/><path class="cls-4" d="M150.36,127.75l-1.78-1a.26.26,0,0,0-.21,0l-1,.45c-.06,0-.07.07,0,.11l1.78,1a.24.24,0,0,0,.22,0l1-.44C150.42,127.83,150.42,127.79,150.36,127.75Z"/><path class="cls-4" d="M152.71,129.07l-1.78-1a.28.28,0,0,0-.22,0l-1,.44c-.06,0-.06.08,0,.11l1.78,1a.26.26,0,0,0,.21,0l1-.44C152.77,129.15,152.77,129.1,152.71,129.07Z"/><path class="cls-4" d="M155.06,130.39l-1.78-1a.24.24,0,0,0-.22,0l-1,.44c-.06,0-.06.07,0,.11l1.79,1a.3.3,0,0,0,.21,0l1-.45C155.11,130.47,155.12,130.42,155.06,130.39Z"/><path class="cls-25" d="M182.48,148l7.32-2.17c.59-.18.57-.82,0-1.42l-10.35-10.18a2.37,2.37,0,0,0-2-.72l-6.59,2c-.56.16-.57.76,0,1.34l9.61,10.4A2.42,2.42,0,0,0,182.48,148Z"/><path class="cls-26" d="M182.48,146.87l7.32-2.17c.59-.17.57-.82,0-1.42L179.42,133.1a2.36,2.36,0,0,0-2-.71l-6.59,2c-.56.17-.57.76,0,1.34l9.61,10.4A2.36,2.36,0,0,0,182.48,146.87Z"/><path class="cls-24" d="M164.39,123.74l34.8-11.91c.25-.09.49,0,1,.3l1.8,1-5.44,20.49a.76.76,0,0,1-.47.63s-34.18,9.4-34.15,9.16Z"/><path class="cls-27" d="M177.15,130.81c-3.86-3.41-9,9.28-12.25,14a9.83,9.83,0,0,0-.79,1.36l-2-1.4a1.83,1.83,0,0,1-.13-1.28l2.2-19.21v-.1a1,1,0,0,1,.23-.4Z"/><path class="cls-22" d="M202.12,113.37c0-.21-.17-.31-.43-.22L167,124.88a.66.66,0,0,0-.29.17.75.75,0,0,0-.32.45L164,145.91c0,.23.19.34.47.24L199,134.57a.86.86,0,0,0,.57-.59l.16-1.38h0Z"/><path class="cls-26" d="M175.13,127.19l15.92-5.44c.11,0,.22,0,.46.13l.83.48-2.49,9.37a.34.34,0,0,1-.21.28S174,136.31,174,136.2Z"/><path class="cls-26" d="M181,130.42c-1.76-1.56-4.12,4.25-5.6,6.39a5.43,5.43,0,0,0-.36.62l-.93-.64a.86.86,0,0,1-.06-.59l1-8.78v0a.54.54,0,0,1,.1-.18Z"/><path class="cls-28" d="M175.18,137.44l15.77-5.3a.37.37,0,0,0,.26-.27l1.11-9.33c0-.1-.09-.15-.22-.11l-15.77,5.3a.37.37,0,0,0-.26.27L175,137.33C175,137.43,175.05,137.48,175.18,137.44Z"/><path class="cls-28" d="M175.32,136.15l15.85-5.36c.12,0,.1.55.12.45l1.1-8.79c0-.1-.08-.14-.2-.1l-15.84,5.36a.37.37,0,0,0-.24.25l-1,8.09C175.11,136.15,175.2,136.19,175.32,136.15Z"/><path class="cls-29" d="M190.22,135.64a2.37,2.37,0,0,0-.12-.6l-.21-3.26a2.51,2.51,0,0,0-3-2.3l-7,2.07a2,2,0,0,0-1.37,2.17l.88,9.15a.88.88,0,0,0,0,.17l.31,3.26a2,2,0,0,0,2.41,1.87l7.51-2.22a1.62,1.62,0,0,0,1.11-1.73Z"/><polygon class="cls-30" points="108.4 91.18 95.23 81.78 77.07 91.65 95.94 101.04 108.4 91.18"/><path class="cls-26" d="M176.54,130.79h0a.32.32,0,0,1-.32-.38l.36-3A.44.44,0,0,1,177,127h0a.33.33,0,0,1,.32.38l-.36,3A.44.44,0,0,1,176.54,130.79Z"/><path class="cls-26" d="M178.75,130.06h0a.32.32,0,0,1-.32-.38l.36-3a.44.44,0,0,1,.42-.38h0a.33.33,0,0,1,.32.38l-.36,3A.45.45,0,0,1,178.75,130.06Z"/><path class="cls-26" d="M181,129.33h0a.32.32,0,0,1-.32-.38l.36-3a.44.44,0,0,1,.41-.38h0a.33.33,0,0,1,.33.38l-.37,3A.43.43,0,0,1,181,129.33Z"/><path class="cls-26" d="M183.12,128.7h0a.32.32,0,0,1-.32-.38l.36-3a.43.43,0,0,1,.41-.38h0a.33.33,0,0,1,.33.38l-.37,3A.43.43,0,0,1,183.12,128.7Z"/><path class="cls-31" d="M104.28,96.17a11.56,11.56,0,0,0-9.19,0c-2.54,1.27-2.54,3.33,0,4.6a11.56,11.56,0,0,0,9.19,0C106.82,99.5,106.82,97.44,104.28,96.17Z"/><polygon class="cls-32" points="89.76 85.25 93.18 98.78 106.15 98.78 109.57 85.62 89.76 85.25"/><path class="cls-33" d="M106.7,81.74a17.72,17.72,0,0,0-14,0c-3.88,1.94-3.88,5.08,0,7a17.64,17.64,0,0,0,14,0C110.57,86.82,110.57,83.68,106.7,81.74Z"/><path class="cls-34" d="M106.27,82A16.57,16.57,0,0,0,93.1,82c-3.64,1.82-3.64,4.77,0,6.59a16.65,16.65,0,0,0,13.17,0C109.91,86.73,109.91,83.78,106.27,82Z"/><path class="cls-35" d="M106.27,83.72a16.57,16.57,0,0,0-13.17,0,5,5,0,0,0-2.56,2.41,4.93,4.93,0,0,0,2.56,2.42,16.65,16.65,0,0,0,13.17,0,4.93,4.93,0,0,0,2.56-2.42A5,5,0,0,0,106.27,83.72Z"/><path class="cls-36" d="M99.5,84.59c-4.3-3.25-6.88-9.36-4-14a32.61,32.61,0,0,0,2.37-5.46s.64,1.28,3,5.07C103.91,75.13,99.5,84.59,99.5,84.59Z"/><path class="cls-37" d="M99.67,86.54C98.21,84,96,86,91.46,81.72S89.76,71,89.76,71s-.92,3.78,4.51,5.49S99.67,86.54,99.67,86.54Z"/><path class="cls-38" d="M99.67,86.54c-.27-3.21-1.71-6.9,2.31-9.61,2.25-1.51,4.2-5.12,4.2-5.12s1.32,1.47.92,5.7S99.67,86.54,99.67,86.54Z"/><path class="cls-6" d="M34.1,150.21a39.61,39.61,0,0,0,6,16.83l1.78-8.75L40.8,147.2S34.1,147.61,34.1,150.21Z"/><polygon class="cls-39" points="73.78 226.03 33.4 196.02 18.51 210.23 59.2 232.55 73.78 226.03"/><polygon class="cls-40" points="54.85 215.57 16.71 192.53 0.71 203.48 42.38 225.44 54.85 215.57"/><path class="cls-10" d="M50.64,215.61l-8.14,2.48-.7.56c-.13.34-.69,2.94-.72,3.3-.17,1.54,0,2.44,1.09,3.34s3.22.19,4.35-.33l6.26-3.52c4.77-2.23,2.81-5.41,2.81-5.41C54.41,214.67,53,215.14,50.64,215.61Z"/><path class="cls-10" d="M69.67,224.59l-9.32-.45-2.24,2.63a5.09,5.09,0,0,0,0,5c.7,1.16,3,1.31,4.22,1.22l5.82-.9c7.32-1.15,6.72-4.37,6.72-4.37C74.79,226.21,72.28,224.5,69.67,224.59Z"/><path class="cls-6" d="M63.08,229.16a3.68,3.68,0,0,1-2.5.25c-1.35-.36-1.57-1-1.57-1.87v-4.91a1.6,1.6,0,0,1,1.6-1.6h2.31a1.6,1.6,0,0,1,1.6,1.6l0,4.05A2.73,2.73,0,0,1,63.08,229.16Z"/><path class="cls-6" d="M45.06,221.17h0a2.75,2.75,0,0,1-2.75-2.75v-2.61a2.75,2.75,0,0,1,2.75-2.75h0a2.76,2.76,0,0,1,2.76,2.75v2.61A2.76,2.76,0,0,1,45.06,221.17Z"/><path class="cls-41" d="M42,182.28c-.63-6.48-3.48-16.06-2.74-23.67h0a4.69,4.69,0,0,1,3-4.12c6.66-2.86,15.12,1.92,19.88,5.53.61.46,1.82-.82,2.13-.12s.92,6.46.94,6.56c2.15,11.24,1.51,24.66,1.22,35.24-.21,7.77-1.25,23.39-1.25,23.39-.88,2.48-5.59,2.82-7.73,0,0,0-1.28-14.7-1-22.26a95.41,95.41,0,0,0-2.68-23.08A13.9,13.9,0,0,0,52,177.28c-.06,5.64-.13,13.87-.42,16.71-.81,7.8-2.57,23.22-2.57,23.22-1.66,2-7.93,2-8.76-.34,0,0,1.38-15.59,2.19-23.28A55,55,0,0,0,42,182.28Z"/><path class="cls-42" d="M38.47,126s-5.06,13.41-5.2,16.55-1.09,7,.83,7.66,5.88.14,5.88.14,1.5-20,1.09-22.57S40.39,123.67,38.47,126Z"/><path class="cls-6" d="M73.16,146.29s9.78-7.64,13.15-12.69,3.84-3.12,3.84-3.12,0,1.12-1.68,4a15.75,15.75,0,0,0,1.44,2s1.44,3.12-1.2,4.8l-3.12,1s-7,9.14-8.9,10.58a2.87,2.87,0,0,1-4.56-1.44C71.65,149.7,71.24,148.46,73.16,146.29Z"/><path class="cls-6" d="M76.69,152.83a8.15,8.15,0,0,1-7.11,1.65c-4.24-1-5.78-10.91-5.78-10.91l6.68-1.67s1.46,5.86,2.36,6S76.69,152.83,76.69,152.83Z"/><path class="cls-6" d="M46.77,120c2.35-4,1.54-9.21,1.54-9.21l7.85,2.44v7.93C56.11,122.32,44.41,124,46.77,120Z"/><path class="cls-43" d="M56.16,118.21A6.83,6.83,0,0,1,52,115.26l.3-1L56.18,116Z"/><path class="cls-6" d="M50.15,97.4s-5.58-3.35-5,5.66a14.3,14.3,0,0,0,9.23,13,5.05,5.05,0,0,0,7-4c.46-4.61.81-8.27-.93-11.83,0-3.78-2.54-2.27-7-2.21Z"/><path class="cls-8" d="M48.28,115.08s-5.57-1.79-5.57-10.49c0-9.42,8.38-8.72,13.14-9.5,2.11-.35,3.56-.76,5.86,1,2.1,1.62.38,5.83-2.43,6.27-1.12.18-.89,2.55-1.05,3.61-.28,1.87-1.81,2.75-2.12,4.57s-2,4.6-3.59,4.9C49.65,116,48.28,115.08,48.28,115.08Z"/><path class="cls-10" d="M65.13,166.14s-6.28,5-12.56,3.26C44,167,38.75,164.46,39.11,160c.31-3.83,25.78,2.17,25.78,2.17Z"/><path class="cls-6" d="M56.57,109.73c.21,1.36-.35,2.58-1.26,2.72a1,1,0,0,1-.3,0,2.42,2.42,0,0,1-1.72-2.22c-.21-1.37.35-2.58,1.26-2.72S56.36,108.37,56.57,109.73Z"/><path class="cls-44" d="M56.24,120.63s7.26,3.48,8.58,6.87.08,28.56.65,37.58a11.42,11.42,0,0,1-9.4,2.82c-6-.75-17-6.85-17.6-9.48,0,0,.41-27.09,0-32.42,0,0,4.33-9.19,9-7.24,0,0-.7,2.54,2.87,3.1A8.11,8.11,0,0,0,56.24,120.63Z"/><path class="cls-45" d="M72.64,147.85a8.6,8.6,0,0,1-5.89,4.1c-1.77.33-5-9.31-7.69-18.31-1.85-6.12,2.12-8.68,3.36-8.44s3.27,3,4.11,5c.66,1.55,3.47,9.11,4.33,10.82A17,17,0,0,1,72.64,147.85Z"/><path class="cls-46" d="M57.49,121.29a7.71,7.71,0,0,1-5.09,2.4c-3.23.21-4.79-.92-5.54-2.25s-.84-3-.43-3.47,1.46.18,1.46.18,0,1.28,1.84,2a8.16,8.16,0,0,0,5.62-.22C56.25,119.47,57.75,120.59,57.49,121.29Z"/><g class="cls-47"><path class="cls-48" d="M96.37,144c.37.21,1,.63,1,1.18l-.08,9.2-2.15-1.26.09-8.85V144c0-.55.61-.26,1,0Z"/><path class="cls-48" d="M102.61,168.9l.09-8.85,2.14,1.26-.08,8.9c0,.1,0,.2,0,.3s0,.55-.86.09l-.11,0-.2-.12c-.37-.22-1-.63-1-1.18v-.35Z"/><path class="cls-48" d="M92.78,151.77l.25.16,0,0,2,1.19,2.15,1.26,1.66,1,2.14,1.25,1.66,1,2.14,1.26,1.66,1,2.14,1.26,2,1.18.3.19c.48.27.54,1,.53,1.42v.23c0,.42-.07,1.07-.54.8l-2.34-1.37-2.14-1.25-1.66-1-2.14-1.26-1.66-1-2.14-1.25-1.66-1-2.15-1.25L93,154.38l-.26-.16c-.17-.09-.48-.28-.52-1.28v-.36C92.24,152.16,92.3,151.5,92.78,151.77Z"/><path class="cls-48" d="M107.78,150.69c.37.22,1,.64,1,1.18l-.08,9.21-2.14-1.26.08-8.85v-.35c0-.55.6-.25,1,0Z"/><path class="cls-48" d="M106.42,171.13l.08-8.85,2.14,1.25-.08,8.9a1.5,1.5,0,0,0,0,.3c0,.18,0,.56-.87.1l-.11-.06-.2-.12c-.37-.21-1-.63-1-1.17v-.35Z"/><path class="cls-48" d="M95,164.45l.08-8.85,2.15,1.25-.08,8.9c0,.11,0,.2,0,.3s0,.56-.87.1l-.1-.06L96,166c-.37-.22-1-.63-1-1.18v-.35Z"/><path class="cls-48" d="M100.18,146.25c.36.21,1,.63,1,1.18l-.09,9.19-2.14-1.25.08-8.85v-.35c0-.53.55-.29.93-.07l0,0Z"/><path class="cls-48" d="M98.82,166.68l.08-8.85,2.14,1.25L101,168v.31c0,.18,0,.55-.87.1l-.1-.06-.2-.11c-.37-.22-1-.64-1-1.18v-.35Z"/><path class="cls-48" d="M104,148.47c.37.22,1,.64,1,1.18l-.09,9.2-2.14-1.26.08-8.85c0-.11,0-.22,0-.34,0-.52.55-.29.92-.08l0,0Z"/><path class="cls-48" d="M138.17,170.12c5.12,3,7.38,7.23,7.32,13.71s-2.48,8-7.39,5.19l-.23-.14c-4.9-2.9-7.25-7.4-7.2-13.73s2.34-8,7.38-5.1Zm4,11.74c0-4.78-1-7.2-4-8.94l-.1,0-.05,0c-2.93-1.68-4-.53-4.07,4.22s1.09,7.4,4,9.12l0,0,.05,0c2.91,1.68,4.06.45,4.1-4.36"/><path class="cls-48" d="M117.47,158.12l.06,0a4.2,4.2,0,0,1,1.55,1.32,1,1,0,0,1,.15.61l-.1,11.09c0,1.8,0,2.18.68,3.26a6.86,6.86,0,0,0,2.44,2.12l.1.06c.77.45,1.71.91,2.34.68s.73-.63.74-2.47l.09-9.14,0-1.91c0-.15,0-.35.14-.44s.74,0,1.5.47l.06,0a4.45,4.45,0,0,1,1.56,1.33,1,1,0,0,1,.14.6l-.1,10.57c0,2.95-.29,4.34-1.8,4.76-1,.31-2.38-.09-4.57-1.36l-.19-.11-.14-.08a13.55,13.55,0,0,1-4.72-4.08c-1.48-2.18-1.72-3.86-1.69-6.81l.1-10.52c0-.2,0-.39.14-.48S116.71,157.68,117.47,158.12Z"/><path class="cls-48" d="M159.09,192a8.06,8.06,0,0,1,1.39,4.67c0,1.3-.29,2.93-1.52,3.3-1,.27-2.23-.31-3.9-1.27l-.4-.23-6.9-4a1.21,1.21,0,0,1-.55-1l.16-17.1a.33.33,0,0,1,.54-.31l6.6,3.87a10.77,10.77,0,0,1,3.86,3.24,8,8,0,0,1,1.26,4.35c0,2-.5,2.76-1.85,2.71h-.29l.3.29A11.85,11.85,0,0,1,159.09,192Zm-4.79,3.61c2,1.17,2.74,1.15,2.76-1.14a4.33,4.33,0,0,0-2.55-4.3l-3.87-2.27,0,5.54,3.61,2.11.1.06m-3.59-15.33,0,5,3.42,2,0,0c1.58.92,2.27.57,2.29-1.14a3.61,3.61,0,0,0-2-3.75l-3.68-2.16"/></g></svg>