<svg id="Layer_1" data-name="Layer 1" xmlns="http://www.w3.org/2000/svg" xmlns:xlink="http://www.w3.org/1999/xlink" viewBox="0 0 240 240"><defs><style>.cls-1{fill:url(#linear-gradient);}.cls-2{fill:url(#linear-gradient-2);}.cls-3{fill:#b2d4d9;}.cls-4{fill:#f0f4f8;}.cls-5{fill:#383839;}.cls-6{fill:url(#linear-gradient-3);}.cls-7{opacity:0.7;}.cls-10,.cls-8{fill:#dbebfb;}.cls-9{fill:#ededed;}.cls-10{opacity:0.4;}.cls-11{opacity:0.15;}.cls-12{fill:url(#linear-gradient-4);}.cls-13{fill:#1c4169;}.cls-14{fill:#01384d;}.cls-15{fill:url(#_ÂÁ_Ï_ÌÌ_È_ËÂÌÚ_20);}.cls-16{fill:#fff;}.cls-17{fill:url(#linear-gradient-5);}.cls-18{fill:#255468;}.cls-19{fill:#57a6db;}.cls-20{fill:url(#linear-gradient-6);}.cls-21{fill:url(#linear-gradient-7);}.cls-22{fill:#82c0e9;}.cls-23{fill:url(#linear-gradient-8);}.cls-24{fill:url(#linear-gradient-9);}.cls-25{fill:#1e0e00;}.cls-26{fill:url(#linear-gradient-10);}.cls-27{fill:url(#linear-gradient-11);}.cls-28{fill:url(#linear-gradient-12);}.cls-29{fill:url(#linear-gradient-13);}.cls-30{fill:url(#linear-gradient-14);}.cls-31{fill:#285e70;}.cls-32{fill:url(#_ÂÁ_Ï_ÌÌ_È_ËÂÌÚ_14);}.cls-33{fill:url(#linear-gradient-15);}.cls-34{fill:url(#linear-gradient-16);}.cls-35{fill:url(#linear-gradient-17);}.cls-36{fill:url(#linear-gradient-18);}.cls-37{fill:url(#linear-gradient-19);}.cls-38,.cls-42,.cls-45{opacity:0.6;}.cls-38{fill:url(#linear-gradient-20);}.cls-39{fill:#4160a1;}.cls-40{fill:url(#linear-gradient-21);}.cls-41{fill:url(#linear-gradient-22);}.cls-42{fill:url(#linear-gradient-23);}.cls-43{fill:url(#linear-gradient-24);}.cls-44{fill:url(#linear-gradient-25);}.cls-45{fill:url(#linear-gradient-26);}.cls-46{fill:url(#linear-gradient-27);}.cls-47{fill:url(#linear-gradient-28);}</style><linearGradient id="linear-gradient" x1="136.1" y1="116.56" x2="213.93" y2="116.56" gradientUnits="userSpaceOnUse"><stop offset="0" stop-color="#6c68e6" stop-opacity="0.4"/><stop offset="0.43" stop-color="#4582e2" stop-opacity="0.36"/><stop offset="1" stop-color="#00b1db" stop-opacity="0.3"/></linearGradient><linearGradient id="linear-gradient-2" x1="151.36" y1="191.09" x2="115.14" y2="127.54" gradientUnits="userSpaceOnUse"><stop offset="0" stop-color="#6c68e6" stop-opacity="0.2"/><stop offset="0.27" stop-color="#4781e2" stop-opacity="0.13"/><stop offset="0.66" stop-color="#00b1db" stop-opacity="0"/></linearGradient><linearGradient id="linear-gradient-3" x1="174.82" y1="116.69" x2="175.77" y2="186.95" gradientUnits="userSpaceOnUse"><stop offset="0.12" stop-color="#00b0da"/><stop offset="0.32" stop-color="#14a5e4"/><stop offset="0.77" stop-color="#3c8df7"/><stop offset="1" stop-color="#4c84ff"/></linearGradient><linearGradient id="linear-gradient-4" x1="59.53" y1="191.84" x2="44.83" y2="166.06" xlink:href="#linear-gradient-2"/><linearGradient id="_ÂÁ_Ï_ÌÌ_È_ËÂÌÚ_20" x1="-742.37" y1="173.46" x2="-728.86" y2="196.86" gradientTransform="translate(815.55)" gradientUnits="userSpaceOnUse"><stop offset="0" stop-color="#fff"/><stop offset="1" stop-color="#94c0de"/></linearGradient><linearGradient id="linear-gradient-5" x1="-739.83" y1="202.74" x2="-766.49" y2="184.17" gradientTransform="translate(815.55)" gradientUnits="userSpaceOnUse"><stop offset="0" stop-color="#3772cd"/><stop offset="0.17" stop-color="#3267c6"/><stop offset="0.47" stop-color="#254ab3"/><stop offset="0.8" stop-color="#14249a"/></linearGradient><linearGradient id="linear-gradient-6" x1="-723.29" y1="145.92" x2="-704" y2="145.92" gradientTransform="translate(815.55)" gradientUnits="userSpaceOnUse"><stop offset="0" stop-color="#00b1db"/><stop offset="0.28" stop-color="#338ee0"/><stop offset="0.54" stop-color="#5c73e4"/><stop offset="0.67" stop-color="#6c68e6"/></linearGradient><linearGradient id="linear-gradient-7" x1="-708.08" y1="148.2" x2="-702.48" y2="148.2" gradientTransform="translate(452.23 782.59) rotate(73.54)" xlink:href="#linear-gradient-6"/><linearGradient id="linear-gradient-8" x1="-752.45" y1="158.54" x2="-711.88" y2="88.26" gradientTransform="translate(815.55)" gradientUnits="userSpaceOnUse"><stop offset="0" stop-color="#94c0de"/><stop offset="0.18" stop-color="#a0c7e2"/><stop offset="0.5" stop-color="#c1dbec"/><stop offset="0.94" stop-color="#f7fafc"/><stop offset="1" stop-color="#fff"/></linearGradient><linearGradient id="linear-gradient-9" x1="-744.51" y1="158.51" x2="-709.84" y2="123.84" gradientTransform="translate(815.55)" gradientUnits="userSpaceOnUse"><stop offset="0.33" stop-color="#6c68e6"/><stop offset="0.46" stop-color="#5c73e4"/><stop offset="0.72" stop-color="#338ee0"/><stop offset="1" stop-color="#00b1db"/></linearGradient><linearGradient id="linear-gradient-10" x1="-756.98" y1="141.86" x2="-740.87" y2="132.55" xlink:href="#linear-gradient-6"/><linearGradient id="linear-gradient-11" x1="-748.97" y1="131.21" x2="-742.92" y2="127.72" gradientTransform="translate(453.91 781.77) rotate(69.34)" xlink:href="#linear-gradient-6"/><linearGradient id="linear-gradient-12" x1="-750.96" y1="149.67" x2="-737.87" y2="162.33" xlink:href="#linear-gradient-9"/><linearGradient id="linear-gradient-13" x1="-741.89" y1="161.89" x2="-734.62" y2="161.89" gradientTransform="translate(815.55)" gradientUnits="userSpaceOnUse"><stop offset="0" stop-color="#4160a1"/><stop offset="0.2" stop-color="#5450c6"/><stop offset="0.36" stop-color="#6047dd"/><stop offset="0.46" stop-color="#6443e5"/><stop offset="0.58" stop-color="#6146df"/><stop offset="0.74" stop-color="#574dcd"/><stop offset="0.92" stop-color="#485aaf"/><stop offset="1" stop-color="#4160a1"/></linearGradient><linearGradient id="linear-gradient-14" x1="-752.46" y1="130.5" x2="-743.32" y2="130.5" xlink:href="#linear-gradient-13"/><linearGradient id="_ÂÁ_Ï_ÌÌ_È_ËÂÌÚ_14" x1="-746.86" y1="110.47" x2="-718.68" y2="61.66" gradientTransform="translate(815.55)" gradientUnits="userSpaceOnUse"><stop offset="0" stop-color="#94c0de"/><stop offset="1" stop-color="#fff"/></linearGradient><linearGradient id="linear-gradient-15" x1="-731.21" y1="102.86" x2="-733.36" y2="99.12" gradientTransform="translate(815.55)" gradientUnits="userSpaceOnUse"><stop offset="0" stop-color="#6c5ae5"/><stop offset="0.21" stop-color="#685bdf"/><stop offset="0.51" stop-color="#5d5ccd"/><stop offset="0.86" stop-color="#4a5faf"/><stop offset="1" stop-color="#4160a1"/></linearGradient><linearGradient id="linear-gradient-16" x1="-720.53" y1="97.28" x2="-722.69" y2="93.55" xlink:href="#linear-gradient-15"/><linearGradient id="linear-gradient-17" x1="108.24" y1="210.33" x2="91.34" y2="180.69" xlink:href="#linear-gradient-2"/><linearGradient id="linear-gradient-18" x1="100.18" y1="218.18" x2="166.28" y2="218.18" gradientUnits="userSpaceOnUse"><stop offset="0" stop-color="#4160a1"/><stop offset="0.2" stop-color="#585dc6"/><stop offset="0.36" stop-color="#675bdd"/><stop offset="0.46" stop-color="#6c5ae5"/><stop offset="0.58" stop-color="#685bdf"/><stop offset="0.74" stop-color="#5d5ccd"/><stop offset="0.92" stop-color="#4a5faf"/><stop offset="1" stop-color="#4160a1"/></linearGradient><linearGradient id="linear-gradient-19" x1="137.37" y1="229.99" x2="119.5" y2="170.97" gradientTransform="matrix(1, 0, 0, 1, 0, 0)" xlink:href="#linear-gradient-6"/><linearGradient id="linear-gradient-20" x1="136.4" y1="226.78" x2="121.9" y2="178.87" gradientUnits="userSpaceOnUse"><stop offset="0" stop-color="#4160a1"/><stop offset="0.21" stop-color="#455fa7"/><stop offset="0.5" stop-color="#505eb8"/><stop offset="0.83" stop-color="#615bd4"/><stop offset="1" stop-color="#6c5ae5"/></linearGradient><linearGradient id="linear-gradient-21" x1="98.45" y1="209.53" x2="164.55" y2="209.53" xlink:href="#linear-gradient-18"/><linearGradient id="linear-gradient-22" x1="135.64" y1="221.34" x2="117.77" y2="162.31" gradientTransform="matrix(1, 0, 0, 1, 0, 0)" xlink:href="#linear-gradient-6"/><linearGradient id="linear-gradient-23" x1="134.67" y1="218.12" x2="120.17" y2="170.22" xlink:href="#linear-gradient-20"/><linearGradient id="linear-gradient-24" x1="101.92" y1="200.88" x2="168.01" y2="200.88" xlink:href="#linear-gradient-18"/><linearGradient id="linear-gradient-25" x1="139.1" y1="212.68" x2="121.23" y2="153.66" gradientTransform="matrix(1, 0, 0, 1, 0, 0)" xlink:href="#linear-gradient-6"/><linearGradient id="linear-gradient-26" x1="138.13" y1="209.47" x2="123.63" y2="161.57" xlink:href="#linear-gradient-20"/><linearGradient id="linear-gradient-27" x1="82.26" y1="163.01" x2="158.19" y2="163.01" gradientUnits="userSpaceOnUse"><stop offset="0" stop-color="#e80"/><stop offset="1" stop-color="#ffa700"/></linearGradient><linearGradient id="linear-gradient-28" x1="124.98" y1="176.57" x2="104.45" y2="108.77" gradientUnits="userSpaceOnUse"><stop offset="0" stop-color="#f9cb00"/><stop offset="1" stop-color="#ff9a00"/></linearGradient></defs><path class="cls-1" d="M146,9.62l56.33,32a37.9,37.9,0,0,1,7,5.31,15.75,15.75,0,0,1,4,6.74,30,30,0,0,1,.68,7.24v159s-3.13,5.05-5.13,4.34c-3.86-1.38-6.92.61-10.28-.83-4.1-1.76-50.45-28.46-52.69-30.07s-5.93-5.42-7.15-8-1.29-9.85-1.64-11.06c-1.4-4.82-.81-157.3-.81-159.11a8.42,8.42,0,0,1,2.45-5.22A7.59,7.59,0,0,1,146,9.62Z"/><polygon class="cls-2" points="205.7 225.38 74.17 176.84 130.66 142.59 216.69 184.53 205.7 225.38"/><path class="cls-3" d="M150.78,4.69,206.5,36.13a24,24,0,0,1,6.83,5.4A32.46,32.46,0,0,1,217.51,49a21.34,21.34,0,0,1,1.34,6.79V218s.12,3.45-1.25,5.18-7.36,4.71-11.59,2.66-57.18-33.29-59.57-34.93-6.3-5.53-7.61-8.19a25.42,25.42,0,0,1-2.6-11.48c0-5.12,1.22-158.91,1.22-160.75S140.9,6.16,142,5.34A10.43,10.43,0,0,1,150.78,4.69Z"/><path class="cls-4" d="M146,7.89l56.33,32a37.9,37.9,0,0,1,7,5.31,15.75,15.75,0,0,1,4,6.74,29.91,29.91,0,0,1,.68,7.24v159s-.15,4.18-1.44,5.87a5.63,5.63,0,0,1-7.11,1.69c-4.09-1.76-57.31-32.51-59.55-34.12s-5.93-5.42-7.15-8a25.63,25.63,0,0,1-2.45-11.25V13.39a8.42,8.42,0,0,1,2.45-5.22A7.59,7.59,0,0,1,146,7.89Z"/><path class="cls-5" d="M146.52,9.81l54.79,31.63s4.65,2.49,7,5.39,3.27,4.69,3.7,6.52a46.73,46.73,0,0,1,.57,7.17V217.8s-.07,3-1.33,4.7-5.17,3.5-8.41,1.86c-3.88-2-54.32-31.24-56.51-32.83s-5.76-5.37-7-7.95A25.66,25.66,0,0,1,137,172.45c0-5,0-155.4,0-157.19a6.71,6.71,0,0,1,2.39-5.17A7.31,7.31,0,0,1,146.52,9.81Z"/><path class="cls-6" d="M156.13,18.69l-9.78-5.59s-3.44-1.2-5.16,1.21a10.16,10.16,0,0,0-1.51,5.15V171.93s.43,7.76,2.42,11.22c1.09,1.89,5.46,6.06,8.19,7.58s48.5,27.89,48.5,27.89,4.9,3.38,7.25,2.86,3.93-1.69,3.9-6.51c0-3,0-155.43,0-155.43s.08-5.18-2.21-8.6a28.13,28.13,0,0,0-7.16-6.77c-1.81-1.17-6.22-3.38-7.78-4.15a.38.38,0,0,0-.55.35v2.16a1,1,0,0,1-1.54.89L158.89,25.23A3.83,3.83,0,0,1,157,21.91V20.12A1.65,1.65,0,0,0,156.13,18.69Z"/><g class="cls-7"><path class="cls-8" d="M198.5,123.44a1.47,1.47,0,0,1,.65,1.14v1.11c0,.43-.3.6-.66.39L147,96.36a1.47,1.47,0,0,1-.66-1.15v-1.1c0-.42.31-.59.67-.38Z"/><path class="cls-8" d="M198.47,131.62a1.44,1.44,0,0,1,.66,1.14v1.11c0,.43-.3.6-.66.39L147,104.54a1.47,1.47,0,0,1-.66-1.14v-1.11c0-.43.3-.59.67-.38Z"/><path class="cls-8" d="M198.45,139.26a1.44,1.44,0,0,1,.66,1.13v1.12c0,.42-.3.59-.66.38L147,112.18a1.46,1.46,0,0,1-.66-1.15v-1.11c0-.42.3-.59.67-.38Z"/></g><path class="cls-9" d="M153.29,78.63l2.33,1.44,1.19,6,0,0,1.48-4.39,2.34,1.44-.23,7.32-1.61-1,.1-3.21c0-.17,0-.34,0-.55s.05-.69.11-1.46l0,0-1.47,4.47-1.67-1-1.16-6.09,0,0c0,.93,0,1.65,0,2.15l-.1,3.18-1.55-1Z"/><polygon class="cls-9" points="163.48 84.89 165.23 85.97 165 93.29 163.25 92.22 163.48 84.89"/><path class="cls-9" d="M171,89.43l.17.1a8.69,8.69,0,0,1,1.15.84,10.15,10.15,0,0,1,.93.92l-.6,1.21a6.22,6.22,0,0,0-1.53-1.34l0,0c-.49-.28-.86-.32-1.15-.13a1.71,1.71,0,0,0-.47,1.35,3.79,3.79,0,0,0,.34,1.8,2.68,2.68,0,0,0,1.07,1.21l.15.09a3.56,3.56,0,0,0,.57.27l0-1.15-1.15-.71.05-1.53,2.79,1.72-.12,4a8.15,8.15,0,0,1-2.21-.92l-.31-.18a6.06,6.06,0,0,1-2.28-2.41,6.49,6.49,0,0,1-.73-3.3c0-1.17.37-1.91,1-2.2A2.59,2.59,0,0,1,171,89.43Z"/><polygon class="cls-9" points="176.17 92.69 177.93 93.78 177.84 96.49 179.88 97.73 179.96 95.02 181.72 96.1 181.49 103.43 179.74 102.35 179.83 99.36 177.8 98.11 177.7 101.09 175.94 100.02 176.17 92.69"/><polygon class="cls-9" points="184.06 97.54 188.97 100.56 188.92 102.18 187.34 101.21 187.16 106.91 185.41 105.83 185.59 100.13 184.01 99.16 184.06 97.54"/><polygon class="cls-9" points="190.6 101.56 192.51 102.74 193.53 106.13 194.73 104.1 196.63 105.26 194.36 108.42 194.26 111.28 192.5 110.19 192.59 107.39 190.6 101.56"/><path class="cls-10" d="M183.45,204.44a.87.87,0,0,1-.44-.11L165.24,194a.87.87,0,0,1,.87-1.5l17.78,10.35a.86.86,0,0,1,.31,1.18A.86.86,0,0,1,183.45,204.44Z"/><path d="M180.77,34.43a.72.72,0,0,1-.34-.09l-13.85-8.06a.68.68,0,1,1,.68-1.17l13.85,8.06a.68.68,0,0,1,.25.93A.69.69,0,0,1,180.77,34.43Z"/><path class="cls-11" d="M135.24,173.47s15.79,2.47,21.53,11.94l3.16,28.14-9.76,7.18-20-19.51Z"/><polygon class="cls-12" points="63.97 209.88 10 189.69 62.88 161.46 95.75 170.64 63.97 209.88"/><path class="cls-13" d="M81.37,160.94,101,195l4.69-2.79c2.51-1.46,4.07-4.57,4.07-9,0-8.87-6.23-19.65-13.91-24.09-3.84-2.22-7.32-2.43-9.83-1Z"/><ellipse class="cls-14" cx="91.21" cy="177.98" rx="11.36" ry="19.67" transform="translate(-76.77 69.45) rotate(-30)"/><path class="cls-15" d="M56.85,183,70.33,206.3l25.94-15.07c1.72-1,2.79-3.13,2.79-6.16,0-6.08-4.26-13.46-9.53-16.5-2.63-1.52-5-1.66-6.73-.67Z"/><ellipse class="cls-16" cx="63.59" cy="194.64" rx="7.78" ry="13.47" transform="translate(-88.8 57.87) rotate(-30)"/><path class="cls-13" d="M53.81,177.3l19.67,34.07,4.69-2.79c2.51-1.45,4.07-4.57,4.07-9,0-8.87-6.23-19.65-13.91-24.09-3.84-2.22-7.32-2.43-9.83-1Z"/><ellipse class="cls-14" cx="63.65" cy="194.34" rx="11.36" ry="19.67" transform="translate(-88.64 57.86) rotate(-30)"/><path class="cls-17" d="M69.86,208.88a9.4,9.4,0,0,1-4.5-1.44c-6.62-3.82-12.2-13.5-12.2-21.13,0-2,.41-6.52,4.28-6.52a9.35,9.35,0,0,1,4.5,1.45c6.61,3.81,12.2,13.49,12.2,21.13C74.14,204.33,73.72,208.88,69.86,208.88Z"/><path class="cls-14" d="M91.48,151.05H71.26v22c0,1.49,1,3,3,4.13a15.8,15.8,0,0,0,14.3,0c2-1.14,3-2.64,3-4.13Z"/><ellipse class="cls-14" cx="81.37" cy="151.05" rx="10.11" ry="5.84"/><circle class="cls-18" cx="92.07" cy="141.65" r="5.02" transform="translate(-69.08 90.93) rotate(-39.5)"/><path class="cls-19" d="M93.05,122.38l-9,1,1.83,15.76a2.24,2.24,0,0,0,1.52,1.67,7,7,0,0,0,6.33-.73,2.24,2.24,0,0,0,1.09-2Z"/><path class="cls-16" d="M92,124.36a7.05,7.05,0,0,1-6.32.74c-1.87-.81-2.06-2.44-.43-3.65a7,7,0,0,1,6.32-.74C93.39,121.52,93.58,123.15,92,124.36Z"/><path class="cls-20" d="M109,152.52l2.55-8.63-15.21-4.5a2.22,2.22,0,0,0-2.13.75,7,7,0,0,0-1.81,6.1A2.21,2.21,0,0,0,93.78,148Z"/><ellipse class="cls-21" cx="110.27" cy="148.2" rx="4.5" ry="2.6" transform="translate(-63.1 211.96) rotate(-73.54)"/><path class="cls-16" d="M86.15,115.94l.06-.06,0,0a3.42,3.42,0,0,1,3.32-.43,10.57,10.57,0,0,1,6.65,6.93l.91,3.67-3.46,3.36L82.89,119.12Z"/><path class="cls-22" d="M86.09,118.78a10.61,10.61,0,0,1,6.65,6.93l.91,3.68L83,126.29l-.91-3.67C81.36,119.65,83.15,117.93,86.09,118.78Z"/><path class="cls-14" d="M119.2,148l0,.05v0a2,2,0,0,1-.31,1.92,6.17,6.17,0,0,1-5,2.56l-4.84-.13-1.58-3.07,10.15-4.27Z"/><path class="cls-18" d="M117.34,146.93a6.14,6.14,0,0,1-5,2.56l-4.84-.13,3.49-5.43,4.83.14C117.64,144.15,118.3,145.43,117.34,146.93Z"/><path class="cls-23" d="M83.1,107.4c-1.17-.74-2.72-.71-4.43.28l-8.8,5.08c-3.65,2.11-6.6,7.75-6.6,12.61l-.43,29c0,2.65.88,4.52,2.27,5.33l14.47,7.16L97.2,115.49Z"/><path class="cls-24" d="M92.67,161.43l-8.8,5.08c-3.65,2.1-6.6-.13-6.6-5l.2-28c0-4.86,3-10.51,6.6-12.61l8.8-5.08c3.65-2.11,6.6.13,6.6,5l-.2,28C99.27,153.68,96.31,159.32,92.67,161.43Z"/><path class="cls-13" d="M87.37,97.83h-12v15.26a3,3,0,0,0,1.76,2.45,9.32,9.32,0,0,0,8.48,0,3,3,0,0,0,1.76-2.45Z"/><path class="cls-16" d="M85.61,100.27a9.32,9.32,0,0,1-8.48,0c-2.34-1.35-2.34-3.54,0-4.89a9.32,9.32,0,0,1,8.48,0C88,96.73,88,98.92,85.61,100.27Z"/><path class="cls-25" d="M81.37,101.45a8.86,8.86,0,0,1-4.33-1,2.75,2.75,0,0,1,0-5.19,9.57,9.57,0,0,1,8.66,0,2.75,2.75,0,0,1,0,5.19h0A8.83,8.83,0,0,1,81.37,101.45Zm0-6.92a8.56,8.56,0,0,0-4.16,1,2.43,2.43,0,0,0,0,4.61,9.24,9.24,0,0,0,8.32,0h0a2.43,2.43,0,0,0,0-4.61A8.53,8.53,0,0,0,81.37,94.53Z"/><circle class="cls-13" cx="64.12" cy="147.73" r="5.02"/><path class="cls-26" d="M73.81,131.05l-8.42-3.17-5.6,14.84a2.25,2.25,0,0,0,.59,2.18,7,7,0,0,0,5.95,2.25,2.25,2.25,0,0,0,1.89-1.26Z"/><ellipse class="cls-27" cx="69.6" cy="129.46" rx="2.6" ry="4.5" transform="translate(-76.09 148.92) rotate(-69.34)"/><path class="cls-28" d="M74.18,165.14l6.22-6.5-11.46-11a2.23,2.23,0,0,0-2.24-.32,7,7,0,0,0-4.4,4.6,2.24,2.24,0,0,0,.42,2.22Z"/><path class="cls-29" d="M73.76,162.92a7,7,0,0,1,4.4-4.6c2-.56,3.14.57,2.66,2.54a7.06,7.06,0,0,1-4.4,4.6C74.47,166,73.28,164.89,73.76,162.92Z"/><path class="cls-16" d="M70.64,122.16l.07,0h0a3.4,3.4,0,0,1,3.15,1.14,10.59,10.59,0,0,1,2.73,9.2l-.88,3.68-4.61,1.4-4.86-14.06Z"/><path class="cls-30" d="M69.28,124.66A10.61,10.61,0,0,1,72,133.87l-.88,3.68-8-7.63.88-3.68C64.68,123.26,67.06,122.56,69.28,124.66Z"/><path class="cls-18" d="M85.31,165.82v.07a2,2,0,0,1-1.15,1.56,6.19,6.19,0,0,1-5.59,0l-4.24-2.33v-3.45l11,.85Z"/><path class="cls-31" d="M84.16,164a6.19,6.19,0,0,1-5.59,0l-4.24-2.33,5.59-3.22,4.24,2.33C85.7,161.67,85.7,163.11,84.16,164Z"/><path class="cls-13" d="M84.52,74.13a3.74,3.74,0,0,0-3.94.25l-15.23,9c-3.24,1.87-5.86,6.88-5.86,11.2v6.92c0,2.36.78,4,2,4.74L66.38,109,89.26,76.89Z"/><path class="cls-22" d="M85.42,99.74l-15.23,9c-3.24,1.86-5.86-.12-5.86-4.43V97.34C64.33,93,67,88,70.19,86.15l15.23-9c3.23-1.86,5.86.12,5.86,4.43v6.93C91.28,92.86,88.65,97.87,85.42,99.74Z"/><path class="cls-32" d="M89.36,77a3.71,3.71,0,0,0-3.94.24l-15.23,9C67,88,64.33,93,64.33,97.34v6.93c0,2.35.78,4,2,4.73l9.6,5.66L98.83,82.53Z"/><path class="cls-22" d="M95,105.39l-15.23,9c-3.24,1.87-5.86-.11-5.86-4.43V103c0-4.32,2.62-9.33,5.86-11.2l15.23-9c3.24-1.87,5.86.11,5.86,4.43v6.92C100.85,98.51,98.23,103.52,95,105.39Z"/><path class="cls-18" d="M67.05,99.23l3.69,6.39.71-.46a1.85,1.85,0,0,0,.76-1.69A5.76,5.76,0,0,0,69.6,99a1.84,1.84,0,0,0-1.85-.19Z"/><ellipse class="cls-14" cx="68.9" cy="102.42" rx="2.13" ry="3.69" transform="translate(-41.98 48.17) rotate(-30)"/><path class="cls-33" d="M85.42,99.74a4.78,4.78,0,0,1-2.16,3.74c-1.19.69-2.16.13-2.16-1.25a4.76,4.76,0,0,1,2.16-3.73C84.45,97.81,85.42,98.37,85.42,99.74Z"/><path class="cls-34" d="M96.1,94.17a4.78,4.78,0,0,1-2.16,3.74c-1.19.69-2.16.13-2.16-1.25a4.76,4.76,0,0,1,2.16-3.73C95.13,92.24,96.1,92.8,96.1,94.17Z"/><polygon class="cls-35" points="113.34 231.07 51.3 207.86 112.09 175.4 149.87 185.95 113.34 231.07"/><path class="cls-36" d="M163,218.18c0,9.09-13.8,16.46-30.83,16.46s-30.83-7.37-30.83-16.46c0-2.08-.55-4.75.77-6.59,4.44-6.17,16.93-9.87,30.06-9.87,13.54,0,26,3.33,30.12,9.81C163.39,213.2,163,216.32,163,218.18Z"/><ellipse class="cls-37" cx="132.21" cy="212.94" rx="30.83" ry="16.46"/><ellipse class="cls-38" cx="132.21" cy="212.94" rx="25.03" ry="13.36"/><path class="cls-39" d="M132.65,201.9c13.82,0,24.59,5.38,24.59,11,0-7.38-11.21-13.36-25-13.36s-25,6-25,13.36C107.46,206.93,118.83,201.9,132.65,201.9Z"/><path class="cls-16" d="M144.93,206.69a.25.25,0,0,1,0,.48l-2.11,1.23c2,1.33,2.11,3.31.19,4.67a1,1,0,0,1-.87,0L140,211.86c-.19-.11-.23-.28-.1-.41.52-.47.42-1.09-.28-1.5l-1.89-1.09a4.88,4.88,0,0,0-4.11-.2c-1.39.63-1.47,1.84-.23,2.56l1.61.92c3,1.71,2.8,4.57-.5,6.16a11.71,11.71,0,0,1-8.84.06l-2.15,1.25a.91.91,0,0,1-.85,0l-2.12-1.22a.26.26,0,0,1,0-.5l2.1-1.22c-2-1.33-2.11-3.31-.19-4.67a1,1,0,0,1,.87,0l2.12,1.23c.19.1.24.27.09.4-.5.47-.41,1.09.3,1.5l1.88,1.09a4.9,4.9,0,0,0,4.12.2c1.38-.63,1.47-1.83.22-2.56l-1.4-.8c-2.63-1.52-3.09-4-.73-5.69,2.53-1.77,6.9-2,9.89-.66l2.13-1.24a.91.91,0,0,1,.85,0Z"/><path class="cls-40" d="M161.31,209.53c0,9.09-13.8,16.46-30.83,16.46s-30.83-7.37-30.83-16.46c0-2.08-.55-4.76.76-6.59,4.45-6.17,16.94-9.87,30.07-9.87,13.54,0,26,3.32,30.12,9.81C161.66,204.54,161.31,207.67,161.31,209.53Z"/><ellipse class="cls-41" cx="130.48" cy="204.29" rx="30.83" ry="16.46"/><ellipse class="cls-42" cx="130.48" cy="204.29" rx="25.03" ry="13.36"/><path class="cls-39" d="M130.92,193.24c13.82,0,24.58,5.39,24.58,11,0-7.38-11.2-13.36-25-13.36s-25,6-25,13.36C105.73,198.28,117.1,193.24,130.92,193.24Z"/><path class="cls-16" d="M143.2,198c.23.13.23.35,0,.49l-2.1,1.22c2,1.34,2.11,3.31.19,4.67a.92.92,0,0,1-.87,0l-2.12-1.22c-.19-.11-.24-.27-.09-.41.5-.46.41-1.09-.3-1.5L136,200.2a4.9,4.9,0,0,0-4.12-.2c-1.38.64-1.47,1.83-.21,2.56l1.6.92c3,1.72,2.79,4.58-.51,6.17a11.73,11.73,0,0,1-8.83,0L121.79,211a.89.89,0,0,1-.84,0l-2.12-1.22c-.24-.14-.24-.35,0-.49l2.11-1.22c-2-1.34-2.11-3.31-.19-4.67a1,1,0,0,1,.87,0l2.13,1.23c.18.11.23.27.09.4-.52.47-.42,1.1.29,1.5l1.88,1.09a4.9,4.9,0,0,0,4.12.21c1.38-.64,1.47-1.84.22-2.56l-1.39-.81c-2.64-1.52-3.11-4-.74-5.68,2.53-1.77,6.89-2,9.88-.67l2.14-1.24a.92.92,0,0,1,.84,0Z"/><path class="cls-43" d="M164.77,200.88c0,9.09-13.8,16.46-30.83,16.46s-30.83-7.37-30.83-16.46c0-2.08-.55-4.76.77-6.59,4.44-6.18,16.93-9.87,30.06-9.87,13.55,0,26,3.32,30.12,9.8C165.12,195.89,164.77,199,164.77,200.88Z"/><ellipse class="cls-44" cx="133.94" cy="195.64" rx="30.83" ry="16.46"/><ellipse class="cls-45" cx="133.94" cy="195.64" rx="25.03" ry="13.36"/><path class="cls-39" d="M134.38,184.59c13.82,0,24.59,5.39,24.59,11,0-7.38-11.21-13.36-25-13.36s-25,6-25,13.36C109.19,189.63,120.56,184.59,134.38,184.59Z"/><path class="cls-16" d="M146.65,189.38c.24.13.25.35,0,.49l-2.11,1.22c2,1.33,2.11,3.31.19,4.67a.92.92,0,0,1-.87,0l-2.12-1.22c-.19-.11-.23-.27-.1-.41.52-.46.42-1.09-.28-1.5l-1.89-1.09a4.88,4.88,0,0,0-4.11-.2c-1.38.64-1.47,1.84-.23,2.56l1.61.93c3,1.71,2.8,4.57-.51,6.16a11.73,11.73,0,0,1-8.83.05l-2.15,1.26a.94.94,0,0,1-.85,0l-2.12-1.22c-.24-.14-.24-.36,0-.49l2.11-1.23c-2-1.33-2.1-3.3-.19-4.66a1,1,0,0,1,.87,0l2.12,1.23c.19.11.24.27.1.41-.51.46-.42,1.08.29,1.49l1.88,1.09a4.86,4.86,0,0,0,4.12.2c1.38-.63,1.47-1.83.22-2.55l-1.39-.8c-2.64-1.53-3.1-4-.74-5.69,2.52-1.77,6.9-2,9.89-.67l2.13-1.24a.94.94,0,0,1,.85,0Z"/><path class="cls-46" d="M154.47,163c0,10.44-15.86,18.9-35.42,18.9S83.63,173.45,83.63,163c0-2.39-.63-5.47.88-7.57,5.11-7.1,19.45-11.34,34.54-11.34,15.56,0,29.84,3.82,34.6,11.26C154.87,157.28,154.47,160.87,154.47,163Z"/><ellipse class="cls-47" cx="119.05" cy="156.99" rx="35.42" ry="18.91"/><path class="cls-16" d="M132.31,147.54c7.54,4.36,8.31,11.24,2.09,16.1l4.1-.48a3.82,3.82,0,0,1,1.76.2,3,3,0,0,1,.36.17,1.35,1.35,0,0,1,.64.69.91.91,0,0,1-.33,1,2.69,2.69,0,0,1-1.48.58L129.15,167a3.63,3.63,0,0,1-1.86-.25,2,2,0,0,1-.29-.14,1.16,1.16,0,0,1-.65-.87l-.6-6.3c-.07-.74.92-1.38,2.2-1.42a3.41,3.41,0,0,1,1.77.4,1.22,1.22,0,0,1,.69.88l.25,2.69c4.88-3.79,4.27-9.14-1.64-12.55-6.5-3.76-17.06-3.76-23.51,0s-6.44,9.86.06,13.61a23.93,23.93,0,0,0,11.76,2.82,3.34,3.34,0,0,1,1.66.4,1.17,1.17,0,0,1,.69,1,1.15,1.15,0,0,1-.68,1,3.38,3.38,0,0,1-1.65.4A30.6,30.6,0,0,1,102.28,165c-8.33-4.81-8.36-12.64-.09-17.45S124,142.73,132.31,147.54Z"/></svg>