<svg id="Layer_1" data-name="Layer 1" xmlns="http://www.w3.org/2000/svg" xmlns:xlink="http://www.w3.org/1999/xlink" viewBox="0 0 240 240"><defs><style>.cls-1,.cls-13,.cls-22{opacity:0.9;}.cls-1{fill:url(#linear-gradient);}.cls-2{fill:#d9dee6;}.cls-3{fill:#2e333d;}.cls-4{fill:url(#linear-gradient-2);}.cls-5{fill:url(#linear-gradient-3);}.cls-6{fill:url(#linear-gradient-4);}.cls-7{fill:#c9cfd6;}.cls-8{fill:#d8dfe9;}.cls-9{fill:#4f5359;}.cls-10{opacity:0.2;}.cls-11{fill:#e8edff;}.cls-12{fill:none;stroke:#e8edff;stroke-linecap:round;stroke-linejoin:round;stroke-width:1.24px;}.cls-13{fill:url(#linear-gradient-5);}.cls-14{fill:url(#linear-gradient-6);}.cls-15{fill:#aabed2;}.cls-16{fill:url(#linear-gradient-7);}.cls-17{fill:url(#linear-gradient-8);}.cls-18{fill:#141414;opacity:0.1;}.cls-19{fill:#88beff;}.cls-20{opacity:0.7;}.cls-21{fill:#2fa2f7;}.cls-22{fill:url(#linear-gradient-9);}.cls-23{fill:url(#linear-gradient-10);}.cls-24{fill:url(#linear-gradient-11);}.cls-25{fill:url(#linear-gradient-12);}.cls-26{fill:#fff;}.cls-27{fill:#ff4c41;}.cls-28{fill:url(#linear-gradient-13);}.cls-29{fill:url(#linear-gradient-14);}.cls-30{fill:url(#linear-gradient-15);}.cls-31{fill:#e5a394;}.cls-32{fill:url(#linear-gradient-16);}.cls-33{fill:url(#linear-gradient-17);}.cls-34{fill:#0f2386;}.cls-35{fill:url(#linear-gradient-18);}.cls-36{fill:url(#linear-gradient-19);}.cls-37{fill:url(#linear-gradient-20);}.cls-38{fill:#fabdab;}.cls-39{fill:#f18d0a;}.cls-40{fill:#d3958b;}.cls-41{fill:#353535;}</style><linearGradient id="linear-gradient" x1="67.76" y1="142.09" x2="206.4" y2="169.53" gradientTransform="translate(-58.28 5.21) rotate(-2.22)" gradientUnits="userSpaceOnUse"><stop offset="0.38" stop-color="#3580e1" stop-opacity="0.08"/><stop offset="0.59" stop-color="#6c68e5" stop-opacity="0.2"/></linearGradient><linearGradient id="linear-gradient-2" x1="-61.23" y1="83.4" x2="93.19" y2="83.4" gradientTransform="translate(77.11 8.92) rotate(2.87)" gradientUnits="userSpaceOnUse"><stop offset="0" stop-color="#6c68e6"/><stop offset="0.17" stop-color="#5c73e4"/><stop offset="0.51" stop-color="#338ee0"/><stop offset="0.88" stop-color="#00b1db"/></linearGradient><linearGradient id="linear-gradient-3" x1="-35.38" y1="155.99" x2="167.38" y2="155.99" gradientTransform="translate(77.11 8.92) rotate(2.87)" gradientUnits="userSpaceOnUse"><stop offset="0.39" stop-color="#b3b9c5"/><stop offset="0.39" stop-color="#b4bac6"/><stop offset="0.46" stop-color="#c5cad2"/><stop offset="0.54" stop-color="#d0d6db"/><stop offset="0.66" stop-color="#d7dce1"/><stop offset="1" stop-color="#d9dee2"/></linearGradient><linearGradient id="linear-gradient-4" x1="29.49" y1="163.78" x2="249.62" y2="163.78" gradientTransform="matrix(1, -0.02, 0.02, 1, -34.35, 5.01)" gradientUnits="userSpaceOnUse"><stop offset="0.29" stop-color="#e4e4e4"/><stop offset="0.66" stop-color="#eceff1"/><stop offset="1" stop-color="#f0f4f8"/></linearGradient><linearGradient id="linear-gradient-5" x1="-140.96" y1="85.4" x2="-52.82" y2="85.4" gradientTransform="translate(192.99 31.13) rotate(2.96)" gradientUnits="userSpaceOnUse"><stop offset="0.12" stop-color="#000012" stop-opacity="0.08"/><stop offset="0.59" stop-color="#6c68e5" stop-opacity="0.15"/></linearGradient><linearGradient id="linear-gradient-6" x1="-241.07" y1="18.65" x2="-217.63" y2="18.65" gradientTransform="translate(292.93 48.36) rotate(4.31)" gradientUnits="userSpaceOnUse"><stop offset="0.09" stop-color="#68a7ba"/><stop offset="1" stop-color="#6c68e6"/></linearGradient><linearGradient id="linear-gradient-7" x1="-117.38" y1="125.31" x2="-107.09" y2="142.6" gradientTransform="translate(265.92 44.62) rotate(4.04)" xlink:href="#linear-gradient-6"/><linearGradient id="linear-gradient-8" x1="-1203.56" y1="-8.09" x2="-1116.79" y2="158.14" gradientTransform="translate(1283.46 116.42) rotate(4.04)" gradientUnits="userSpaceOnUse"><stop offset="0" stop-color="#739bff"/><stop offset="0.02" stop-color="#88aafb"/><stop offset="0.05" stop-color="#afc6f4"/><stop offset="0.08" stop-color="#cadaef"/><stop offset="0.1" stop-color="#dbe6ec"/><stop offset="0.12" stop-color="#e1eaeb"/><stop offset="0.7" stop-color="#e1e0de"/><stop offset="1" stop-color="#739bff"/></linearGradient><linearGradient id="linear-gradient-9" x1="14.95" y1="36.7" x2="48.89" y2="36.7" gradientTransform="matrix(1, 0.02, -0.02, 1, 71.04, 8.89)" gradientUnits="userSpaceOnUse"><stop offset="0.38" stop-color="#3580e3" stop-opacity="0.08"/><stop offset="0.59" stop-color="#6c68e7" stop-opacity="0.2"/></linearGradient><linearGradient id="linear-gradient-10" x1="23.09" y1="31.48" x2="62.05" y2="31.48" gradientTransform="matrix(1, 0.02, -0.02, 1, 71.04, 8.89)" gradientUnits="userSpaceOnUse"><stop offset="0" stop-color="#5948e5"/><stop offset="0.06" stop-color="#5649dd"/><stop offset="0.28" stop-color="#4d4bc3"/><stop offset="0.51" stop-color="#464db0"/><stop offset="0.75" stop-color="#424fa5"/><stop offset="1" stop-color="#414fa1"/></linearGradient><linearGradient id="linear-gradient-11" x1="98.93" y1="43.71" x2="133.85" y2="43.71" gradientUnits="userSpaceOnUse"><stop offset="0.12" stop-color="#00b1db"/><stop offset="0.49" stop-color="#338ee0"/><stop offset="0.83" stop-color="#5c73e4"/><stop offset="1" stop-color="#6c68e6"/></linearGradient><linearGradient id="linear-gradient-12" x1="37.66" y1="58.55" x2="47.8" y2="58.55" gradientTransform="matrix(1, 0.02, -0.02, 1, 71.04, 8.89)" gradientUnits="userSpaceOnUse"><stop offset="0" stop-color="#414fa3"/><stop offset="0.25" stop-color="#424fa7"/><stop offset="0.49" stop-color="#464db2"/><stop offset="0.72" stop-color="#4d4bc5"/><stop offset="0.94" stop-color="#5649df"/><stop offset="1" stop-color="#5948e7"/></linearGradient><linearGradient id="linear-gradient-13" x1="313.55" y1="-141.68" x2="343.78" y2="-141.68" gradientTransform="matrix(0.51, 0.86, 0.86, -0.51, 155.65, -151.86)" gradientUnits="userSpaceOnUse"><stop offset="0.35" stop-color="#00b1db" stop-opacity="0"/><stop offset="0.78" stop-color="#6c68e6" stop-opacity="0.2"/></linearGradient><linearGradient id="linear-gradient-14" x1="311.18" y1="-112.52" x2="338.33" y2="-112.52" gradientTransform="matrix(0.46, 0.9, 0.89, -0.45, 143.56, -133.54)" xlink:href="#linear-gradient-13"/><linearGradient id="linear-gradient-15" x1="210.75" y1="213.99" x2="222.69" y2="213.99" gradientUnits="userSpaceOnUse"><stop offset="0.2" stop-color="#14249a"/><stop offset="0.53" stop-color="#254ab3"/><stop offset="0.83" stop-color="#3267c6"/><stop offset="1" stop-color="#3772cd"/></linearGradient><linearGradient id="linear-gradient-16" x1="200.37" y1="217.72" x2="211.85" y2="217.72" xlink:href="#linear-gradient-15"/><linearGradient id="linear-gradient-17" x1="-2154.08" y1="173.27" x2="-2125.67" y2="174.6" gradientTransform="matrix(-1, 0, 0, 1, -1927.74, 0)" gradientUnits="userSpaceOnUse"><stop offset="0" stop-color="#3772cd"/><stop offset="0.17" stop-color="#3267c6"/><stop offset="0.47" stop-color="#254ab3"/><stop offset="0.8" stop-color="#14249a"/></linearGradient><linearGradient id="linear-gradient-18" x1="-2154.4" y1="143.19" x2="-2132.86" y2="143.19" gradientTransform="matrix(-1, 0, 0, 1, -1927.74, 0)" gradientUnits="userSpaceOnUse"><stop offset="0" stop-color="#ffbd00"/><stop offset="0.48" stop-color="#f9cb00"/><stop offset="1" stop-color="#ff9a00"/></linearGradient><linearGradient id="linear-gradient-19" x1="-2152.52" y1="129.47" x2="-2140.83" y2="129.47" gradientTransform="matrix(-1, 0, 0, 1, -1927.74, 0)" gradientUnits="userSpaceOnUse"><stop offset="0" stop-color="#9b0165"/><stop offset="0.52" stop-color="#f81274"/><stop offset="1" stop-color="#f47e64"/></linearGradient><linearGradient id="linear-gradient-20" x1="-2051.09" y1="180.16" x2="-2028.38" y2="168.05" gradientTransform="matrix(-1, 0.09, 0.09, 1, -1845.92, 151.54)" gradientUnits="userSpaceOnUse"><stop offset="0" stop-color="#ff9a00"/><stop offset="0.52" stop-color="#f9cb00"/><stop offset="1" stop-color="#ffbd00"/></linearGradient></defs><path class="cls-1" d="M117.07,217.92,1.15,173.18s-3.1-4.17,34.13-21.44,98.85-45.56,98.85-45.56l99.61,57.7Z"/><path class="cls-2" d="M32.86,168.77s-1.82-.3-1.81-4.59S30,67.86,30,67.86a5.77,5.77,0,0,1,2.85-3.74C35.1,63,146,18,146,18s3.32-1.06,3.41,1.2S151,112.55,151,112.55s.27,2.88-.58,3.45-32.71,16.35-32.71,16.35L43.94,164Z"/><path class="cls-3" d="M33.86,169s-1.82-.3-1.81-4.59S31,68.1,31,68.1a5.78,5.78,0,0,1,2.84-3.74C36.1,63.24,147,18.25,147,18.25s3.32-1.06,3.41,1.2S152,112.79,152,112.79s.27,2.88-.58,3.45-32.71,16.35-32.71,16.35L44.94,164.25Z"/><path class="cls-4" d="M35.08,71.09,146.6,25.36a.21.21,0,0,1,.29.19l1.3,86.51a.2.2,0,0,1-.13.19L36.54,160.94a.21.21,0,0,1-.29-.19L35,71.29A.23.23,0,0,1,35.08,71.09Z"/><path class="cls-5" d="M236.85,165.41h0l.14-2.74-3.3.23c-13.61-7.87-74.94-43.32-76.84-44.49a9.18,9.18,0,0,0-5.27-.86l-8.69,3.37-.06,1.2L47.4,164.05l-1.26-.4-10.64,5L34.8,167l-1,.09-.15,2.84,0,0c0,1.25,2.87,2.83,2.87,2.83l60.86,35.11s14.56,8.88,17.36,10.16,6.43,0,6.43,0l42.39-18.75,29.65-12.8s41.41-19.41,42.9-20.13C236.7,166.09,236.86,165.73,236.85,165.41Z"/><path class="cls-6" d="M33.89,166.69l12.39-5.84,1.26.4L143,119.32l.06-1.2,8.69-3.38a9.22,9.22,0,0,1,5.27.87c2.14,1.31,79.54,46.05,79.54,46.05s1.2,1.19-.29,1.91-43,19.5-43,19.5a8.34,8.34,0,0,0-4.73.19c-2.05.9-22.06,9.47-22.93,9.86a5,5,0,0,0-2,2.76l-42.39,18.74s-3.64,1.25-6.43,0-17.36-10.16-17.36-10.16L36.66,169.94S33,168,33.89,166.69Z"/><path class="cls-7" d="M188.5,183.26c-2.05.9-22.06,9.47-22.93,9.86a5,5,0,0,0-2,2.76s1.3.87,3.69-.14,23.57-10.17,24.59-11.09a7.26,7.26,0,0,0,1.38-1.58A8.34,8.34,0,0,0,188.5,183.26Z"/><polygon class="cls-8" points="119.95 180.24 169.79 157.89 199.87 175.86 150.53 197.75 119.95 180.24"/><polygon class="cls-9" points="47.53 172.73 44.9 171.22 159.27 121.13 161.9 122.64 47.53 172.73"/><line class="cls-9" x1="54.79" y1="176.88" x2="168.99" y2="126.86"/><polygon class="cls-9" points="55.18 170.43 48.57 173.33 54.77 176.89 61.38 174 55.18 170.43"/><polygon class="cls-9" points="62.98 167.01 56.42 169.89 62.62 173.45 69.18 170.58 62.98 167.01"/><polygon class="cls-9" points="71.12 163.45 64.22 166.47 70.42 170.03 77.32 167.01 71.12 163.45"/><polygon class="cls-9" points="79.09 159.95 72.36 162.9 78.56 166.47 85.3 163.52 79.09 159.95"/><polygon class="cls-9" points="87.08 156.45 80.33 159.41 86.54 162.98 93.29 160.02 87.08 156.45"/><polygon class="cls-9" points="95.06 152.95 88.32 155.91 94.53 159.48 101.27 156.52 95.06 152.95"/><polygon class="cls-9" points="103.05 149.46 96.3 152.41 102.51 155.98 109.26 153.03 103.05 149.46"/><polygon class="cls-9" points="111.03 145.96 104.29 148.91 110.5 152.48 117.24 149.53 111.03 145.96"/><polygon class="cls-9" points="119.02 142.46 112.27 145.41 118.48 148.98 125.23 146.03 119.02 142.46"/><polygon class="cls-9" points="127 138.96 120.26 141.91 126.47 145.49 133.22 142.53 127 138.96"/><polygon class="cls-9" points="134.99 135.46 128.24 138.42 134.46 141.99 141.2 139.03 134.99 135.46"/><polygon class="cls-9" points="142.97 131.96 136.22 134.92 142.44 138.49 149.19 135.53 142.97 131.96"/><polygon class="cls-9" points="158.41 131.49 169.27 126.74 162.91 123.22 152.19 127.92 158.41 131.49"/><polygon class="cls-9" points="150.96 128.46 144.21 131.42 150.43 134.99 157.17 132.04 150.96 128.46"/><polygon class="cls-9" points="65.82 172.89 55.7 177.32 61.9 180.89 72.03 176.45 65.82 172.89"/><polygon class="cls-9" points="73.87 169.36 67.06 172.34 73.27 175.91 80.08 172.93 73.87 169.36"/><polygon class="cls-9" points="81.92 165.83 75.11 168.82 81.32 172.38 88.13 169.4 81.92 165.83"/><polygon class="cls-9" points="89.97 162.31 83.16 165.29 89.37 168.86 96.18 165.88 89.97 162.31"/><polygon class="cls-9" points="98.02 158.78 91.21 161.76 97.42 165.33 104.23 162.35 98.02 158.78"/><polygon class="cls-9" points="106.07 155.25 99.26 158.24 105.47 161.81 112.28 158.82 106.07 155.25"/><polygon class="cls-9" points="114.12 151.73 107.31 154.71 113.52 158.28 120.33 155.3 114.12 151.73"/><polygon class="cls-9" points="122.16 148.2 115.36 151.18 121.57 154.75 128.38 151.77 122.16 148.2"/><polygon class="cls-9" points="130.21 144.67 123.4 147.66 129.62 151.23 136.43 148.25 130.21 144.67"/><polygon class="cls-9" points="138.26 141.15 131.45 144.13 137.67 147.7 144.48 144.72 138.26 141.15"/><polygon class="cls-9" points="146.31 137.62 139.5 140.6 145.72 144.18 152.53 141.19 146.31 137.62"/><polygon class="cls-9" points="154.36 134.09 147.55 137.08 153.77 140.65 160.58 137.67 154.36 134.09"/><polygon class="cls-9" points="169.87 133.6 176.41 130.73 170.05 127.22 163.65 130.02 169.87 133.6"/><polygon class="cls-9" points="162.41 130.57 155.6 133.55 161.82 137.12 168.63 134.14 162.41 130.57"/><polygon class="cls-9" points="75.27 175.78 62.56 181.38 68.77 184.95 81.48 179.35 75.27 175.78"/><polygon class="cls-9" points="83.31 172.24 76.51 175.24 82.72 178.81 89.52 175.81 83.31 172.24"/><polygon class="cls-9" points="91.35 168.7 84.55 171.7 90.75 175.27 97.56 172.27 91.35 168.7"/><polygon class="cls-9" points="99.39 165.16 92.58 168.16 98.79 171.73 105.59 168.73 99.39 165.16"/><polygon class="cls-9" points="107.42 161.62 100.62 164.62 106.83 168.19 113.63 165.19 107.42 161.62"/><polygon class="cls-9" points="115.46 158.08 108.66 161.08 114.87 164.65 121.67 161.65 115.46 158.08"/><polygon class="cls-9" points="123.5 154.54 116.69 157.54 122.91 161.11 129.71 158.11 123.5 154.54"/><polygon class="cls-9" points="131.53 151 124.73 154 130.95 157.57 137.75 154.57 131.53 151"/><polygon class="cls-9" points="139.57 147.46 132.77 150.46 138.98 154.03 145.78 151.03 139.57 147.46"/><polygon class="cls-9" points="147.61 143.92 140.81 146.91 147.02 150.49 153.82 147.49 147.61 143.92"/><polygon class="cls-9" points="155.65 140.38 148.84 143.37 155.06 146.95 161.86 143.95 155.65 140.38"/><polygon class="cls-9" points="171.14 139.87 183.38 134.48 177.02 130.96 164.92 136.29 171.14 139.87"/><polygon class="cls-9" points="163.68 136.84 156.88 139.83 163.1 143.41 169.9 140.41 163.68 136.84"/><polygon class="cls-9" points="83.36 186.51 76.69 189.46 82.89 193.02 89.57 190.08 83.36 186.51"/><polygon class="cls-9" points="87.03 177.8 69.72 185.43 75.93 188.99 93.23 181.37 87.03 177.8"/><polygon class="cls-9" points="95.03 174.28 88.26 177.26 94.47 180.82 101.24 177.84 95.03 174.28"/><polygon class="cls-9" points="103.03 170.75 96.27 173.73 102.47 177.3 109.24 174.32 103.03 170.75"/><polygon class="cls-9" points="111.04 167.22 104.27 170.21 110.48 173.77 117.25 170.79 111.04 167.22"/><polygon class="cls-9" points="119.04 163.7 112.28 166.68 118.49 170.25 125.25 167.27 119.04 163.7"/><polygon class="cls-9" points="127.05 160.17 120.28 163.15 126.49 166.72 133.26 163.74 127.05 160.17"/><polygon class="cls-9" points="135.05 156.65 128.28 159.63 134.5 163.2 141.26 160.22 135.05 156.65"/><polygon class="cls-9" points="143.04 153.12 136.29 156.1 142.5 159.67 149.26 156.69 143.04 153.12"/><polygon class="cls-9" points="151.24 149.51 144.28 152.58 150.5 156.15 157.45 153.09 151.24 149.51"/><polygon class="cls-9" points="158.94 146.12 152.47 148.97 158.69 152.54 165.16 149.69 158.94 146.12"/><polygon class="cls-9" points="174.09 145.76 190.54 138.52 184.18 135 167.88 142.19 174.09 145.76"/><polygon class="cls-9" points="166.64 142.73 160.18 145.58 166.39 149.15 172.86 146.3 166.64 142.73"/><polygon class="cls-9" points="91.64 182.87 84.6 185.97 90.81 189.54 97.84 186.44 91.64 182.87"/><polygon class="cls-9" points="99.61 179.36 92.88 182.32 99.08 185.89 105.81 182.93 99.61 179.36"/><polygon class="cls-9" points="110.06 174.75 100.84 178.82 107.05 182.38 116.27 178.32 110.06 174.75"/><polygon class="cls-9" points="150.04 157.14 111.3 174.21 117.51 177.78 156.26 160.71 150.04 157.14"/><polygon class="cls-9" points="159.55 152.95 151.28 156.6 157.5 160.17 165.77 156.52 159.55 152.95"/><polygon class="cls-9" points="167.59 149.41 160.79 152.41 167 155.98 173.81 152.98 167.59 149.41"/><polygon class="cls-9" points="175.64 145.87 168.83 148.86 175.05 152.44 181.86 149.44 175.64 145.87"/><polygon class="cls-9" points="191.14 145.35 197.51 142.55 191.15 139.03 184.92 141.78 191.14 145.35"/><polygon class="cls-9" points="183.68 142.32 176.88 145.32 183.09 148.89 189.9 145.9 183.68 142.32"/><g class="cls-10"><path class="cls-11" d="M116.12,72.18l15.26-6.47a1.3,1.3,0,0,0,.71-1.09l-.34-19.74a1.3,1.3,0,0,0-1.88-1.22l-15.22,6.7a1.29,1.29,0,0,0-.7,1.09l.29,19.5A1.3,1.3,0,0,0,116.12,72.18Z"/><path class="cls-11" d="M117.29,111.62l15.27-6a2.48,2.48,0,0,0,.72-1.78l-.21-26.26c.06-1.6-1-2.65-1.87-1.88l-15.36,6.52a2.48,2.48,0,0,0-.72,1.78l.3,25.77C115.36,111.34,116.4,112.38,117.29,111.62Z"/><path class="cls-11" d="M52.17,140.15,108,114.87a2.57,2.57,0,0,0,.72-1.79l-.44-26c.06-1.61-1-2.65-1.87-1.88L50.31,110.64a2.52,2.52,0,0,0-.72,1.79l.71,25.83C50.24,139.87,51.28,140.91,52.17,140.15Z"/><line class="cls-12" x1="106.44" y1="56.56" x2="50.26" y2="81.32"/><line class="cls-12" x1="106.85" y1="65.47" x2="50.32" y2="90.29"/><line class="cls-12" x1="106.6" y1="75.1" x2="50.07" y2="99.92"/></g><path class="cls-13" d="M112.17,185.4l-6.91-.52c-29.16-9.63-30-39.27-30.42-54l-4-80.54-1.25-2.23,17-9.84L107.18,60l32.65,69.48Z"/><path class="cls-14" d="M50.54,57l24.24-9.85-10.31-5.4L56.9,44.56a11.67,11.67,0,0,0-3.33,2.92A22.65,22.65,0,0,0,50.54,57Z"/><path class="cls-15" d="M56.65,44.82s0-.06.46-.29c6.83-3.34,60-28,61-28.3s4,1.15,6.75,1.94,6.21,1.53,9.1,4.33a27.3,27.3,0,0,1,6.88,10A50.12,50.12,0,0,1,145,48.34c.87,7.45,1.09,17.17,1.43,22.19s4.7,52.79,6.29,60.69,5.11,15.88,7.71,18.44c3.51,3.45,8.41,5.85,11.79,5.6l-3.17,2.12-52.14,25.77a6.7,6.7,0,0,1-2.31,2.81c-1.42.77-7.43.4-10.74-1.94s-8.55-7.44-10.82-13.94S89.8,153,89.45,145.6s-2-19.87-2.22-25.1-2.58-46.28-4.59-53-6-13.23-8.92-16.16S64.39,42.39,56.65,44.82Z"/><path class="cls-16" d="M110,186.17s3.52.51,5.54-.47c12.5-6,57.74-26.94,59.06-27.79,3.57-2.31.86-10.58.86-10.58l-7,3.7-26,10.7-30.48,14.53Z"/><path class="cls-17" d="M56.88,44.65s59.55-28,60.57-28.37,4-.11,6.86.39A16.72,16.72,0,0,1,133.36,21a25.38,25.38,0,0,1,6.79,9.54,48.6,48.6,0,0,1,4.38,15.67c.87,7.44,1,18.72,1.32,23.74s4.7,52.79,6.28,60.7,5.22,15.78,7.71,18.43,7.42,1.32,10.5,1l-2.52,1.21-53.26,25.33s3.31,5.66-.73,9.3c-1.2,1.08-7.16.09-9.66-2.49-2.82-2.92-8.55-7.44-10.82-13.94S90.08,152.36,89.73,145s-2-19.87-2.22-25.11-2.58-46.28-4.59-53S76.9,53.67,74,50.74,64.62,42.22,56.88,44.65Z"/><path class="cls-18" d="M112.66,186.32c1.69-1.57,2.42-3.59,1.71-6.78-3.37,4.72-10.92,4.84-11.57,5C106.1,186.7,111.66,187.26,112.66,186.32Z"/><path class="cls-19" d="M135,35.53l.65,2.34A1,1,0,0,1,135,39L85.67,61.19a1.06,1.06,0,0,1-1.46-.83L83.15,58a1.06,1.06,0,0,1,.64-1.13l49.77-22.17A1.06,1.06,0,0,1,135,35.53Z"/><g class="cls-20"><polygon class="cls-21" points="139.19 62.65 139.46 64.67 90.08 85.26 89.84 83.42 139.19 62.65"/></g><g class="cls-20"><polygon class="cls-21" points="142.82 114.18 142.94 115.63 95.01 137.54 95.02 135.77 142.82 114.18"/></g><path class="cls-19" d="M137.27,48.78l.22,2.38a1.06,1.06,0,0,1-.64,1.09L117,61a1.06,1.06,0,0,1-1.46-.83l-.33-2.42a1.06,1.06,0,0,1,.64-1.13l20-8.72A1.06,1.06,0,0,1,137.27,48.78Z"/><path class="cls-19" d="M109,60.88l.57,2.59a1.06,1.06,0,0,1-.64,1.09L89.29,73a1.07,1.07,0,0,1-1.47-.83l-.36-2.6a1.06,1.06,0,0,1,.64-1.12L107.55,60A1.06,1.06,0,0,1,109,60.88Z"/><path class="cls-19" d="M113.19,84.69l.28,2.51a1.06,1.06,0,0,1-.64,1.09L93.59,96.44a1.06,1.06,0,0,1-1.46-.83l-.23-2.43a1.06,1.06,0,0,1,.64-1.13l19.19-8.22A1.05,1.05,0,0,1,113.19,84.69Z"/><path class="cls-19" d="M114.73,99.84l.27,2.51a1,1,0,0,1-.64,1.09l-19.25,8.24a1.07,1.07,0,0,1-1.47-.83l-.06-2.8a1.06,1.06,0,0,1,.64-1.12l19-8A1.07,1.07,0,0,1,114.73,99.84Z"/><path class="cls-19" d="M115.77,113.69l.27,2.51a1.06,1.06,0,0,1-.64,1.09l-19.28,8.13a1.06,1.06,0,0,1-1.46-.83l0-2.69a1.06,1.06,0,0,1,.64-1.12l19-8A1.06,1.06,0,0,1,115.77,113.69Z"/><path class="cls-22" d="M114.76,58.44c2.39-1.45,4.36-4.54,4.41-6.9l.18-9.88L119.58,29l.1-5.59.08-4.29c0-2.36-1.86-3.1-4.25-1.64L89.84,33c-2.39,1.46-4.36,4.55-4.41,6.91l-.59,32.46c0,2.36,1.86,3.1,4.25,1.65l8-4.9,6.48,6.8,4.18-13.28,7-4.24"/><path class="cls-23" d="M93.72,31.94c0-2.36,2-5.46,4.4-6.91l24.81-12.14a6,6,0,0,1,3.85-.53,3.08,3.08,0,0,1,.53.26L133,16.3,127.85,22l-.22,11.64-.18,9.88c0,2.36-2,5.45-4.4,6.91L104.58,61.67l-4.92,8.38-5-3.32a4.9,4.9,0,0,1-1.19-1.1h0a1.93,1.93,0,0,1-.38-1.22Z"/><path class="cls-24" d="M103.93,28.73,129.6,16.27c2.39-1.17,4.29-.15,4.25,2.21l-.08,3.72-.1,5.59-.23,12.71-.18,9.87c0,2.36-2,5.46-4.41,6.91l-6.7,3.19-4.44,11.17-6.48-6.79-8,4.89c-2.39,1.45-4.29.72-4.25-1.65l.59-32.46C99.57,33.27,101.54,30.18,103.93,28.73Z"/><polygon class="cls-25" points="117.71 71.64 111.13 70.26 107.66 67.02 111.23 64.84 117.71 71.64"/><path class="cls-26" d="M114.29,56l4.28-2.37c.39-.22.66.06.54.55a6.31,6.31,0,0,1-2.67,3.7l0,0c-1.25.69-2.3.35-2.65-.74A1.17,1.17,0,0,1,114.29,56Z"/><path class="cls-26" d="M116.73,28.47c1-.57,1.83-.08,1.82,1.08l0,1a6.07,6.07,0,0,1,1-.18,11.22,11.22,0,0,0-1.08,4.47c0,3.85,2.6,5.48,5.92,3.63l-.06,5.48,2.86,1.14c.62.54,0,2.13-1,2.73l-3.34,1.85-12.67,7.06-3,1.67c-1,.58-1.64-.28-1.07-1.5l2.66-4.3.12-7.92c0-4.25,2.67-9.27,6.11-12.12v-1A4,4,0,0,1,116.73,28.47Z"/><path class="cls-27" d="M124.41,25.34l.1-.06c2.94-1.64,5.29-.2,5.25,3.21a11.74,11.74,0,0,1-5.32,9.09l-.09.06c-2.95,1.63-5.29.19-5.25-3.22A11.71,11.71,0,0,1,124.41,25.34Z"/><polygon class="cls-28" points="221.07 211.91 196.44 193.16 184.69 204.37 217.35 215.94 221.07 211.91"/><polygon class="cls-29" points="211.09 217.28 187.66 199.26 176.43 210.51 207.24 219.97 211.09 217.28"/><path class="cls-30" d="M222.46,214.17s.75,1.83-.44,2.53-5.77-1.08-7.8-1.9-3.7-2.06-3.45-3.08c.37-1.44,6.82.16,7.71.3S222.28,213.62,222.46,214.17Z"/><path class="cls-31" d="M222.69,186.71s-.13,26.95-.53,27.75-2.44.44-3.58.13-4-1.46-4.25-2.52,3.56-.08,3.84-.29-.93-26.34-.93-26.34S222.54,183.08,222.69,186.71Z"/><path class="cls-32" d="M211.62,217.91s.74,1.82-.45,2.52-5.77-1.07-7.79-1.89-3.15-1.91-3-2.95c.25-1.71,6.36,0,7.25.16S211.43,217.36,211.62,217.91Z"/><path class="cls-31" d="M211.85,190.44s-.14,27-.53,27.75-2.44.45-3.59.13-4-1.46-4.25-2.52,3.56-.08,3.85-.29-.93-26.34-.93-26.34S211.69,186.81,211.85,190.44Z"/><path class="cls-33" d="M227,173.55c-.45-4-1.16-12.51-1.75-16.64s-4.33-9-4.33-9c-4.92-.79-14.76,4.94-14.76,4.94a44.46,44.46,0,0,0-3.15,9.25c-1.18,5.31-3.19,33.94-3.19,34.72s4.92,2.76,4.92,2.76c7.48,2,16.33-4.13,18.3-5.31,0,0,4.69-2.61,5.15-3.81S227.55,178.29,227,173.55Z"/><path class="cls-34" d="M222.28,150.17s1.77,2.2,1.1,3.23c-.82,1.26-4.83,4.26-10.24,4.78-4.36.42-8.26-2.11-7.59-3.94C208.7,145.57,218.86,154.12,222.28,150.17Z"/><path class="cls-35" d="M224.75,129.62s3.31,3.31,1.22,10.8c0,0-1.32,3.42-2.75,7.29-1.07,2.9-.68,4-.68,4a8.54,8.54,0,0,1-3.7,2.92c-2.77,1.31-7.24,2.62-9.94,2s-3.62-1-3.54-2.46a34.14,34.14,0,0,0,.07-6.17c-.23-3.7-.61-7.63.08-9.78s4.62-7.7,8.63-8.55C214.14,129.64,218.88,134.92,224.75,129.62Z"/><path class="cls-36" d="M222.53,127.79s2,.66,2.22,1.83-1.45,1.79-2.45,2-6,1-8.7-2S219.76,126.56,222.53,127.79Z"/><path class="cls-31" d="M194,123.57h0a2.37,2.37,0,0,0,2.77-1.85l.47-2.36a2.34,2.34,0,0,0-1.84-2.76h0a2.35,2.35,0,0,0-2.77,1.84l-.48,2.36A2.37,2.37,0,0,0,194,123.57Z"/><path class="cls-37" d="M212.94,138.83c.08,1.43-2,3.62-6.14,3.66-3.51,0-9.7,1.79-14-1.14s-2.12-10.94-2.06-15.2c.07-4.09,4.53-4,5.16-3.35,1.33,1.42-.13,6.28-.28,9.89s.27,3.61,7.67,3.19S212.79,136.15,212.94,138.83Z"/><path class="cls-38" d="M212.63,124.86c0,4,2.46,5.8,5.47,4s5.43-6.4,5.41-10.39-2.46-5.8-5.47-4S212.61,120.87,212.63,124.86Z"/><path class="cls-39" d="M221.85,147.64s-13-1.41-12.64-8.6,1.12-7.12,1.12-7.12l15.11,10.15Z"/><path class="cls-40" d="M214.83,135.71l.42,0A2.6,2.6,0,0,0,218,133.3l.44-8a2.59,2.59,0,0,0-2.43-2.73l-.42,0a2.59,2.59,0,0,0-2.73,2.43l-1.56,7.63C211.2,134,213.41,135.63,214.83,135.71Z"/><path class="cls-31" d="M209.68,122c-.43,4,2.86,6.79,6,5.39s6.1-5.76,6.53-9.73-1.81-6-5-4.63S210.11,118.07,209.68,122Z"/><path class="cls-31" d="M215,135.76l.42,0a2.6,2.6,0,0,0,2.73-2.44l.44-8a2.59,2.59,0,0,0-2.43-2.73l-.42,0A2.6,2.6,0,0,0,213,125l-1.56,7.63C211.38,134.08,213.59,135.68,215,135.76Z"/><path class="cls-31" d="M211.53,121.66a1.76,1.76,0,1,0,1.75-1.76A1.75,1.75,0,0,0,211.53,121.66Z"/><path class="cls-41" d="M219.31,108.69s8,1.35,8.3,8.54-2.9,8.86-1.71,12.75c1.72,5.61,1.76,10.5-.61,13.94-.79,1.13-1.95,4.05-3.83,4-4.31-.05-10.37-5.07-11.28-9.21-1.3-5.94,1.24-10.23,2.11-15.21s-.89-5.53-1.26-7.75S211.25,108.28,219.31,108.69Z"/></svg>