<?xml version="1.0" encoding="UTF-8"?>
<svg width="214px" height="60px" viewBox="0 0 214 60" version="1.1" xmlns="http://www.w3.org/2000/svg" xmlns:xlink="http://www.w3.org/1999/xlink">
    <title>Logo</title>
    <g id="Logo" stroke="none" stroke-width="1" fill="none" fill-rule="evenodd">
        <g id="Group-23">
            <path d="M12.6972427,0.000620891035 C13.8483342,0.0140581633 15.61525,0.227578571 15.595,1.6499 L15.595,1.6499 L15.5948,26.3759 L20.7668,26.3759 L20.7675,2.5759 C20.7675,2.4194 20.76925,2.26615 20.771,2.1129 L20.7745,1.6499 C20.7595,0.1749 22.6505,-0.0001 23.7955,-0.0001 L24.5375361,0.000620891035 C25.6868367,0.0140581633 27.4538214,0.227578571 27.4355,1.6499 L27.4355,1.6499 L27.4348,26.3759 L32.6038,26.3759 L32.6043,2.5759 C32.6043,2.4194 32.6073,2.26615 32.6103,2.1129 L32.6163,1.6499 C32.5993,0.1749 34.4883,-0.0001 35.6353,-0.0001 L36.3753435,0.000620891035 C37.5247745,0.0140581633 39.29355,0.227578571 39.2733,1.6499 L39.2733,1.6499 L39.2728,26.3759 L44.4428,26.3759 L44.4437,2.5759 C44.4437,2.4194 44.44595,2.26615 44.4482,2.1129 L44.4527,1.6499 C44.4347,0.1749 46.3267,-0.0001 47.4717,-0.0001 L48.2127398,0.000620891035 C49.3621056,0.0140581633 51.1299857,0.227578571 51.1107,1.6499 L51.1107,1.6499 L51.1098,26.3759 L57.4328,26.3765 C57.5918,26.3765 57.7468,26.37925 57.901675,26.382 L58.3698,26.3875 C59.8638,26.3695 60.0398,28.2375 60.0398,29.3735 L60.0398,29.3735 L60.0398,29.9845 C60.0398,31.1095 59.8638,32.9885 58.3698,32.9705 L58.3698,32.9705 L51.1098,32.9699 L51.1107,56.9009 C51.1053667,57.0982333 51.1035889,57.2786778 51.1053667,57.4514185 L51.1107,57.7059 L51.1107,57.7059 L51.1102645,57.8013944 C51.1025594,58.3065055 50.9617,59.2005875 48.4267,59.3309 C48.2927,59.3429 48.2007,59.3469 48.0877,59.3469 L48.0877,59.3469 L47.4717,59.3469 C46.3267,59.3469 44.4347,59.1859 44.4527,57.7059 L44.4527,57.7059 L44.4527,56.9279 C44.4437,56.8469 44.4437,56.8059 44.4437,56.7769 L44.4437,56.7769 L44.4428,32.9699 L39.2728,32.9699 L39.2733,56.9009 C39.2686333,57.0982333 39.2670778,57.2786778 39.2686333,57.4514185 L39.2733,57.7059 L39.2733,57.7059 L39.2728747,57.8013944 C39.2652648,58.3065055 39.12505,59.2005875 36.5863,59.3309 C36.4563,59.3429 36.3623,59.3469 36.2503,59.3469 L36.2503,59.3469 L35.6353,59.3469 C34.4883,59.3469 32.5993,59.1859 32.6163,57.7059 L32.6163,57.7059 L32.6163,56.9279 C32.6043,56.8469 32.6043,56.8059 32.6043,56.7769 L32.6038,32.9699 L27.4348,32.9699 L27.4355,56.9009 C27.4295,57.0982333 27.4275,57.2786778 27.4295,57.4514185 L27.4355,57.7059 L27.4355,57.7059 L27.4350532,57.8013944 C27.4272383,58.3065055 27.2855,59.2005875 24.7505,59.3309 C24.6165,59.3429 24.5245,59.3469 24.4125,59.3469 L24.4125,59.3469 L23.7955,59.3469 C22.6505,59.3469 20.7595,59.1859 20.7745,57.7059 L20.7745,57.7059 L20.7745,56.9279 C20.7675,56.8469 20.7675,56.8059 20.7675,56.7769 L20.7668,32.9699 L15.5948,32.9699 L15.595,56.9009 C15.5916667,57.0982333 15.5905556,57.2786778 15.5916667,57.4514185 L15.595,57.7059 C15.595,58.1839 15.616,59.1919 12.91,59.3309 C12.78,59.3429 12.686,59.3469 12.572,59.3469 L12.572,59.3469 L11.957,59.3469 C10.812,59.3469 8.92,59.1859 8.94,57.7059 L8.94,57.7059 L8.94,56.9279 C8.928,56.8469 8.928,56.8059 8.928,56.7769 L8.9278,32.9699 L2.4748,32.9705 C2.27346667,32.9645 2.09035556,32.9625 1.9150963,32.9645 L1.6568,32.9705 L1.6568,32.9705 L1.56010396,32.9700496 C1.04862813,32.9622383 0.1432375,32.8214375 0.0148,30.3155 C0.0038,30.1845 -0.0002,30.0955 -0.0002,29.9845 L-0.0002,29.9845 L0.000465861881,29.249104 C0.0129339286,28.106477 0.213264286,26.3701429 1.6568,26.3875 L1.6568,26.3875 L2.4448,26.3875 C2.5318,26.3765 2.5668,26.3765 2.5988,26.3765 L8.9278,26.3759 L8.928,2.5759 C8.928,2.4194 8.931,2.26615 8.934,2.1129 L8.94,1.6499 C8.92,0.1749 10.812,-0.0001 11.957,-0.0001 Z" id="Combined-Shape" fill="#ED1C2B"></path>
            <path d="M143.1436,4.4881 C127.2676,4.4881 120.1876,12.2151 120.1876,29.5431 C120.1876,46.4731 127.5646,54.7541 142.7416,54.8601 L143.4796,54.8601 C158.6846,54.7851 166.0776,46.5031 166.0776,29.5431 C166.0776,12.2151 159.0036,4.4881 143.1436,4.4881 M143.1856,47.4341 L143.0696,47.4341 C133.9556,47.4341 130.4056,42.3951 130.4056,29.4631 C130.4056,16.6721 133.8126,11.9161 142.9766,11.9161 L143.2736,11.9161 C152.4406,11.9161 155.8486,16.6721 155.8486,29.4631 C155.8486,42.3951 152.2986,47.4341 143.1856,47.4341" id="Fill-16" fill="#00377B"></path>
            <path d="M79.3878,51.0276 C82.6068,53.4846 86.9878,54.5306 94.0368,54.5306 L94.2578,54.5306 L94.4818,54.5306 C101.5848,54.5306 105.9768,53.4846 109.1698,51.0306 C113.8038,47.5486 114.5848,43.4476 114.5848,35.5706 L114.5928,7.3096 C114.5988,6.8976 114.6058,6.3836 114.1438,5.9196 C113.4138,5.1886 111.7848,4.8186 109.3028,4.8186 C106.8438,4.8186 105.2288,5.1876 104.5008,5.9156 C104.0338,6.3826 104.0428,6.8986 104.0488,7.3136 L104.0498,12.4066 L104.0498,36.8416 C104.0508,41.7576 104.0508,42.7816 101.8408,44.5806 C99.8018,46.2196 96.7258,46.4296 94.2738,46.4296 C91.8228,46.4296 88.7488,46.2196 86.7108,44.5826 C84.5078,42.7936 84.5088,41.7866 84.5108,36.9496 L84.5118,7.3136 C84.5178,6.8996 84.5248,6.3836 84.0598,5.9176 C83.3308,5.1876 81.7108,4.8186 79.2448,4.8186 C76.7728,4.8186 75.1498,5.1886 74.4228,5.9186 C73.9568,6.3836 73.9638,6.8986 73.9708,7.3116 L73.9718,7.4336 L73.9718,35.5706 C73.9718,43.4426 74.7538,47.5416 79.3878,51.0276" id="Fill-18" fill="#00377B"></path>
            <path d="M205.7227,7.7532 C203.0997,5.8252 199.9717,5.1432 193.7647,5.1432 L173.3537,5.1432 C172.4257,5.1432 171.6697,5.8872 171.6697,6.8002 L171.6697,52.5382 C171.6697,53.4592 172.4257,54.2092 173.3537,54.2092 L194.7647,54.2092 C200.5767,54.2092 204.6407,54.0212 208.0187,51.5082 C211.8037,48.6082 212.5987,43.8522 212.5987,40.3732 C212.5987,35.7822 211.0387,32.1482 208.2087,30.1402 C206.9797,29.2352 205.5287,28.6922 204.1477,28.2132 L203.2197,27.8922 L204.1057,27.4732 C208.2767,25.5052 209.8027,22.7702 209.7367,17.3792 C209.7007,14.8552 209.1307,10.2462 205.7227,7.7532 L205.7227,7.7532 Z M182.0647,12.0012 L193.4677,12.0012 C199.3697,12.0012 199.8377,14.9592 199.8377,18.8262 C199.8377,23.4492 197.6957,25.4212 192.6717,25.4212 L182.0647,25.4212 L182.0647,12.0012 Z M193.2327,47.1792 L182.0547,47.1792 L182.0547,32.3772 L194.0407,32.3772 C200.6887,32.3772 202.0247,35.2382 202.0247,39.8532 C202.0247,46.0732 199.7217,47.1792 193.2327,47.1792 L193.2327,47.1792 Z" id="Fill-20" fill="#00377B"></path>
        </g>
    </g>
</svg>