<svg xmlns="http://www.w3.org/2000/svg" xmlns:xlink="http://www.w3.org/1999/xlink" viewBox="0 0 240 240"><defs><style>.cls-1{isolation:isolate;}.cls-2{fill:url(#linear-gradient);}.cls-3{fill:url(#linear-gradient-2);}.cls-4{fill:url(#linear-gradient-3);}.cls-5{fill:#fff;opacity:0.25;mix-blend-mode:overlay;}.cls-6{opacity:0.8;}.cls-7{fill:#caf8ff;}.cls-8{fill:none;stroke:#fff5d7;stroke-miterlimit:10;stroke-width:0.25px;opacity:0.5;}.cls-9{fill:url(#linear-gradient-4);}.cls-10{fill:url(#linear-gradient-5);}.cls-11{fill:#b2d4d9;}.cls-12{fill:#f0f4f8;}.cls-13{fill:#383839;}.cls-14{fill:url(#linear-gradient-6);}.cls-15{opacity:0.7;}.cls-16,.cls-26{fill:#dbebfb;}.cls-17{fill:url(#linear-gradient-7);}.cls-18,.cls-19{fill:#cadfe3;}.cls-18{opacity:0.5;}.cls-19,.cls-20{opacity:0.8;}.cls-20{fill:#c0d7e7;}.cls-21{fill:#d3e7ea;}.cls-22{fill:#d8d8d8;opacity:0.7;}.cls-23{opacity:0.15;}.cls-24,.cls-33{fill:#353535;}.cls-25{fill:#4d4f4f;}.cls-26{opacity:0.4;}.cls-27{opacity:0.12;fill:url(#linear-gradient-8);}.cls-28{opacity:0.9;fill:url(#linear-gradient-9);}.cls-29{fill:url(#linear-gradient-10);}.cls-30{fill:url(#linear-gradient-11);}.cls-31{fill:url(#linear-gradient-12);}.cls-32{fill:url(#linear-gradient-13);}.cls-33{opacity:0.3;}.cls-34{fill:url(#linear-gradient-14);}.cls-35{fill:#2c4480;}.cls-36{fill:#e5a394;}.cls-37{fill:url(#linear-gradient-15);}.cls-38{fill:url(#linear-gradient-16);}.cls-39{fill:url(#linear-gradient-17);}.cls-40{fill:url(#linear-gradient-18);}.cls-41{fill:url(#linear-gradient-19);}.cls-42{fill:url(#linear-gradient-20);}.cls-43{fill:#0f2386;}.cls-44{fill:url(#linear-gradient-21);}.cls-45{fill:#9b0165;}.cls-46{fill:url(#linear-gradient-22);}.cls-47{fill:#cc8e83;}.cls-48{fill:url(#linear-gradient-23);}.cls-49{fill:#fabdab;}.cls-50{fill:#14249a;}</style><linearGradient id="linear-gradient" x1="133.53" y1="-21.59" x2="212.21" y2="137.99" gradientUnits="userSpaceOnUse"><stop offset="0.08" stop-color="#6c68e6" stop-opacity="0.2"/><stop offset="0.32" stop-color="#4781e2" stop-opacity="0.13"/><stop offset="0.66" stop-color="#00b1db" stop-opacity="0"/><stop offset="0.91" stop-color="#6c68e6" stop-opacity="0.25"/></linearGradient><linearGradient id="linear-gradient-2" x1="161.87" y1="56.43" x2="227.93" y2="56.43" gradientUnits="userSpaceOnUse"><stop offset="0" stop-color="#6443e5"/><stop offset="0.27" stop-color="#5d49d8"/><stop offset="0.76" stop-color="#4b58b4"/><stop offset="1" stop-color="#4160a1"/></linearGradient><linearGradient id="linear-gradient-3" x1="149.81" y1="57.22" x2="226.85" y2="57.22" gradientUnits="userSpaceOnUse"><stop offset="0" stop-color="#6c68e6"/><stop offset="0.2" stop-color="#5c73e4"/><stop offset="0.58" stop-color="#338ee0"/><stop offset="1" stop-color="#00b1db"/></linearGradient><linearGradient id="linear-gradient-4" x1="107.42" y1="201.3" x2="69.01" y2="133.9" gradientUnits="userSpaceOnUse"><stop offset="0" stop-color="#6c68e6" stop-opacity="0.2"/><stop offset="0.27" stop-color="#4781e2" stop-opacity="0.13"/><stop offset="0.66" stop-color="#00b1db" stop-opacity="0"/></linearGradient><linearGradient id="linear-gradient-5" x1="91.24" y1="122.26" x2="173.78" y2="122.26" gradientUnits="userSpaceOnUse"><stop offset="0" stop-color="#6c68e6" stop-opacity="0.4"/><stop offset="0.43" stop-color="#4582e2" stop-opacity="0.36"/><stop offset="1" stop-color="#00b1db" stop-opacity="0.3"/></linearGradient><linearGradient id="linear-gradient-6" x1="132.31" y1="122.39" x2="133.31" y2="196.91" gradientUnits="userSpaceOnUse"><stop offset="0.12" stop-color="#00b0da"/><stop offset="0.32" stop-color="#14a5e4"/><stop offset="0.77" stop-color="#3c8df7"/><stop offset="1" stop-color="#4c84ff"/></linearGradient><linearGradient id="linear-gradient-7" x1="160.69" y1="-2267.43" x2="122.34" y2="-2367.72" gradientTransform="matrix(1, 0, 0, -1, 0, -2266.67)" gradientUnits="userSpaceOnUse"><stop offset="0.61" stop-color="#146eb3"/><stop offset="0.63" stop-color="#166aad"/><stop offset="0.72" stop-color="#205993"/><stop offset="0.81" stop-color="#274d80"/><stop offset="0.9" stop-color="#2c4575"/><stop offset="1" stop-color="#2d4371"/></linearGradient><linearGradient id="linear-gradient-8" x1="97.39" y1="68.48" x2="138.22" y2="68.48" gradientTransform="translate(33.71 95.21) rotate(-3.32)" gradientUnits="userSpaceOnUse"><stop offset="0.11"/><stop offset="0.65" stop-color="#3580e3" stop-opacity="0.08"/></linearGradient><linearGradient id="linear-gradient-9" x1="47.56" y1="169.13" x2="72.56" y2="216.38" gradientTransform="translate(2.17 6.65) rotate(-0.23)" gradientUnits="userSpaceOnUse"><stop offset="0.22" stop-color="#3580e1" stop-opacity="0"/><stop offset="0.59" stop-color="#6c68e5" stop-opacity="0.2"/></linearGradient><linearGradient id="linear-gradient-10" x1="207.47" y1="118.61" x2="214.62" y2="130.61" gradientTransform="matrix(-1, 0.06, 0.06, 1, 281.47, 80.85)" gradientUnits="userSpaceOnUse"><stop offset="0.17" stop-color="#598372"/><stop offset="0.94" stop-color="#5e93af"/></linearGradient><linearGradient id="linear-gradient-11" x1="-862.25" y1="42.76" x2="-808.24" y2="146.24" gradientTransform="matrix(-1, 0.06, 0.06, 1, -736.89, 139.9)" gradientUnits="userSpaceOnUse"><stop offset="0.05" stop-color="#77b7ab"/><stop offset="0.1" stop-color="#8ccdb8"/><stop offset="0.15" stop-color="#9bdec2"/><stop offset="0.19" stop-color="#a1e4c5"/><stop offset="0.66" stop-color="#8addc3"/><stop offset="0.81" stop-color="#6bb2a8"/></linearGradient><linearGradient id="linear-gradient-12" x1="201.19" y1="334.88" x2="198.24" y2="376.96" gradientTransform="translate(-48.81 -192.79) rotate(6.44)" gradientUnits="userSpaceOnUse"><stop offset="0" stop-color="#57ad95"/><stop offset="0.03" stop-color="#64b49d"/><stop offset="0.08" stop-color="#75bda7"/><stop offset="0.12" stop-color="#7bc0aa"/><stop offset="0.67" stop-color="#7ecca8"/><stop offset="0.8" stop-color="#79c6a8"/><stop offset="0.98" stop-color="#6db4a8"/><stop offset="1" stop-color="#6bb2a8"/></linearGradient><linearGradient id="linear-gradient-13" x1="44.6" y1="128.49" x2="98.43" y2="45.63" gradientTransform="translate(33.71 95.21) rotate(-3.32)" gradientUnits="userSpaceOnUse"><stop offset="0" stop-color="#308c85"/><stop offset="0.05" stop-color="#499d91"/><stop offset="0.11" stop-color="#64b09f"/><stop offset="0.17" stop-color="#75bca7"/><stop offset="0.21" stop-color="#7bc0aa"/><stop offset="0.7" stop-color="#7eccbd"/><stop offset="1" stop-color="#6bb2a8"/></linearGradient><linearGradient id="linear-gradient-14" x1="-639.8" y1="-46.97" x2="-626.41" y2="-46.97" gradientTransform="matrix(-0.84, -0.54, -0.54, 0.84, -523.33, -201.71)" gradientUnits="userSpaceOnUse"><stop offset="0" stop-color="#ff9a00"/><stop offset="0.52" stop-color="#f9cb00"/><stop offset="1" stop-color="#ffbd00"/></linearGradient><linearGradient id="linear-gradient-15" x1="-1900.87" y1="134.25" x2="-1867.99" y2="134.25" gradientTransform="matrix(-1, 0, 0, 1, -1848.79, 0)" gradientUnits="userSpaceOnUse"><stop offset="0" stop-color="#9b0165"/><stop offset="0.52" stop-color="#f81274"/><stop offset="1" stop-color="#f47e64"/></linearGradient><linearGradient id="linear-gradient-16" x1="650.98" y1="-973.48" x2="689" y2="-973.48" gradientTransform="matrix(0.51, 0.86, 0.86, -0.51, 553.43, -847)" gradientUnits="userSpaceOnUse"><stop offset="0.35" stop-color="#00b0da" stop-opacity="0"/><stop offset="0.78" stop-color="#6c68e5" stop-opacity="0.2"/></linearGradient><linearGradient id="linear-gradient-17" x1="667.63" y1="-950.95" x2="700.58" y2="-950.95" gradientTransform="matrix(0.46, 0.9, 0.89, -0.45, 565.25, -823.97)" xlink:href="#linear-gradient-16"/><linearGradient id="linear-gradient-18" x1="-1937.29" y1="236.06" x2="-1924.75" y2="234.92" gradientTransform="matrix(-1, 0, 0, 1, -1857.92, 0)" gradientUnits="userSpaceOnUse"><stop offset="0.08" stop-color="#14249a"/><stop offset="0.39" stop-color="#254ab3"/><stop offset="0.67" stop-color="#3267c6"/><stop offset="0.84" stop-color="#3772cd"/><stop offset="0.87" stop-color="#336ac8"/><stop offset="0.92" stop-color="#2a55ba"/><stop offset="0.98" stop-color="#1a32a3"/><stop offset="1" stop-color="#14249a"/></linearGradient><linearGradient id="linear-gradient-19" x1="-1904.86" y1="225.77" x2="-1898.92" y2="225.77" gradientTransform="matrix(-1, 0, 0, 1, -1857.92, 0)" gradientUnits="userSpaceOnUse"><stop offset="0.2" stop-color="#14249a"/><stop offset="0.53" stop-color="#254ab3"/><stop offset="0.83" stop-color="#3267c6"/><stop offset="1" stop-color="#3772cd"/></linearGradient><linearGradient id="linear-gradient-20" x1="175.78" y1="186.29" x2="209.57" y2="187.88" gradientTransform="translate(-122.38)" gradientUnits="userSpaceOnUse"><stop offset="0.24" stop-color="#14249a"/><stop offset="0.52" stop-color="#2447b1"/><stop offset="0.83" stop-color="#3266c5"/><stop offset="1" stop-color="#3772cd"/></linearGradient><linearGradient id="linear-gradient-21" x1="176.28" y1="153.96" x2="199.48" y2="153.96" gradientTransform="translate(-122.38)" xlink:href="#linear-gradient-15"/><linearGradient id="linear-gradient-22" x1="178.31" y1="139.18" x2="190.89" y2="139.18" gradientTransform="translate(-122.38)" xlink:href="#linear-gradient-15"/><linearGradient id="linear-gradient-23" x1="430.87" y1="515.25" x2="462.47" y2="515.25" gradientTransform="matrix(0.96, 0.26, -0.26, 0.96, -206.99, -473.18)" xlink:href="#linear-gradient-15"/></defs><g class="cls-1"><g id="Layer_1" data-name="Layer 1"><polygon class="cls-2" points="166.74 7.91 101.05 39.34 155.23 115.89 227.29 105.6 228.65 44.53 166.74 7.91"/><path class="cls-3" d="M164.57,10.92l.1-2.24,1-.51c.07-.05,1.09-.74,1.17-.77a3.73,3.73,0,0,1,2.93.64l57.65,33.35a5.93,5.93,0,0,1,2.31,2.42c.92,1.73,1,3,1,5.45s-.16,51.69-.16,52.21.17,2.12-.81,2.8l-2.15,1.3L226.7,104l-.59-3.11c-13.93-8-54.46-31.53-54.78-31.71a5.59,5.59,0,0,1-2.26-2,6.53,6.53,0,0,1-1.37-3.87c0-.88.1-42.19.14-52.25Z"/><path class="cls-4" d="M225.16,42.73a5.86,5.86,0,0,1,2.31,2.42c.92,1.72,1,2.28,1,4.7s-.16,52.44-.16,53,.16,2.1-.8,2.8a2.51,2.51,0,0,1-2.18,0s-57.86-33.49-58.23-33.69a5.78,5.78,0,0,1-2.26-2,6.56,6.56,0,0,1-1.37-3.88c0-1,.14-54.45.14-54.45s-.1-2.44,1.1-2.94c1-.41,2.14.3,2.84.7Z"/><path class="cls-5" d="M220.7,46.89a5,5,0,0,1,2,2.06c.78,1.46.81,1.92.81,4s-.13,41.25-.13,41.69.14,1.78-.68,2.38a2.16,2.16,0,0,1-1.85,0L171.47,68.45a5,5,0,0,1-1.92-1.67,5.57,5.57,0,0,1-1.16-3.29c0-.84.13-42.95.13-42.95s-.09-2.07.92-2.49,1.82.25,2.41.59Z"/><g class="cls-6"><path class="cls-7" d="M190.31,47.23a2.41,2.41,0,0,1,.78.78,17.89,17.89,0,0,1,2.93,8.2c.19,2.66-.49,4.75-1.93,5.88a.81.81,0,0,1-.93,0,2.41,2.41,0,0,1-.78-.78c-.51-.79-.57-1.71-.14-2.05a4.72,4.72,0,0,0,1.36-4.17,12.57,12.57,0,0,0-2.08-5.81c-.51-.79-.58-1.71-.15-2.06A.83.83,0,0,1,190.31,47.23Z"/><path class="cls-7" d="M194.91,45.34a2.47,2.47,0,0,1,.78.77,29.91,29.91,0,0,1,4.91,13.72c.31,4.45-.83,8-3.23,9.85a.83.83,0,0,1-.94,0,2.49,2.49,0,0,1-.77-.78c-.52-.79-.58-1.71-.15-2.06,2-1.56,2.93-4.46,2.66-8.13a24.59,24.59,0,0,0-4-11.32c-.52-.79-.59-1.71-.15-2.06A.82.82,0,0,1,194.91,45.34Z"/><path class="cls-7" d="M199,41.85a2.37,2.37,0,0,1,.78.77,45.33,45.33,0,0,1,7.46,20.84c.48,6.76-1,11.64-4.65,14.53a.83.83,0,0,1-.94,0,2.51,2.51,0,0,1-.78-.78c-.51-.79-.57-1.71-.14-2,3.23-2.56,4.51-6.83,4.09-12.81a40.13,40.13,0,0,0-6.61-18.44c-.51-.8-.58-1.72-.15-2.07A.85.85,0,0,1,199,41.85Z"/><path class="cls-7" d="M185.27,49.77a5.63,5.63,0,0,1,2.55,4.42c0,1.62-1.16,2.27-2.57,1.45a5.57,5.57,0,0,1-2.54-4.4C182.71,49.61,183.86,49,185.27,49.77Z"/></g><path class="cls-8" d="M164.67,8.68c1-.41,2.14.3,2.84.7l57.65,33.35a5.86,5.86,0,0,1,2.31,2.42c.92,1.72,1,2.28,1,4.7s-.16,52.44-.16,53,.16,2.1-.8,2.8a2.51,2.51,0,0,1-2.18,0"/><path class="cls-8" d="M168.86,18.66a1.53,1.53,0,0,1,2-.44l49.78,28.61a5.16,5.16,0,0,1,2,2.11c.8,1.51.84,2,.84,4.1S223.4,94,223.4,94.43s.14,1.83-.7,2.44a2.19,2.19,0,0,1-1.9,0"/><polygon class="cls-9" points="165.06 237.67 25.55 186.18 85.47 149.86 176.71 194.34 165.06 237.67"/><path class="cls-10" d="M101.73,8.83l59.74,33.91a40.34,40.34,0,0,1,7.4,5.63,16.71,16.71,0,0,1,4.19,7.15c.62,1.86.72,5.66.72,7.67V231.83s-3.31,5.36-5.44,4.6c-4.09-1.45-7.33.65-10.9-.88-4.34-1.86-53.5-30.18-55.88-31.88s-6.29-5.76-7.59-8.53-1.37-10.45-1.74-11.73c-1.48-5.11-.86-166.83-.86-168.75A9,9,0,0,1,94,9.12,8.1,8.1,0,0,1,101.73,8.83Z"/><path class="cls-11" d="M106.81,3.6,165.91,37a25.61,25.61,0,0,1,7.24,5.72,34.58,34.58,0,0,1,4.44,7.93A23,23,0,0,1,179,57.81v172s.12,3.66-1.34,5.49-7.8,5-12.28,2.82-60.65-35.3-63.19-37-6.68-5.87-8.06-8.69a26.78,26.78,0,0,1-2.77-12.18c0-5.43,1.3-168.54,1.3-170.49s3.66-4.57,4.81-5.44A11.12,11.12,0,0,1,106.81,3.6Z"/><path class="cls-12" d="M101.73,7,161.47,40.9a40.62,40.62,0,0,1,7.4,5.64,16.7,16.7,0,0,1,4.19,7.14c.62,1.87.72,5.66.72,7.68V230s-.15,4.43-1.52,6.23a6,6,0,0,1-7.54,1.78c-4.34-1.86-60.78-34.47-63.16-36.18s-6.29-5.75-7.59-8.52a27.25,27.25,0,0,1-2.6-11.93V12.83A9,9,0,0,1,94,7.29,8.09,8.09,0,0,1,101.73,7Z"/><path class="cls-13" d="M102.29,9,160.4,42.58s4.93,2.64,7.45,5.72,3.48,5,3.93,6.91a49.64,49.64,0,0,1,.6,7.6V229.62s-.07,3.22-1.4,5-5.49,3.7-8.93,2c-4.11-2.08-57.61-33.13-59.93-34.82s-6.11-5.69-7.38-8.43a27.37,27.37,0,0,1-2.53-11.8c0-5.27,0-164.82,0-166.72a7.14,7.14,0,0,1,2.53-5.48A7.77,7.77,0,0,1,102.29,9Z"/><path class="cls-14" d="M112.48,18.45l-10.37-5.93s-3.65-1.28-5.47,1.28A10.86,10.86,0,0,0,95,19.27V181s.46,8.22,2.58,11.9c1.15,2,5.78,6.43,8.68,8s51.43,29.58,51.43,29.58,5.21,3.59,7.69,3,4.18-1.8,4.15-6.91c0-3.17,0-164.85,0-164.85s.08-5.49-2.35-9.11a29.62,29.62,0,0,0-7.59-7.18c-1.92-1.24-6.6-3.59-8.25-4.41a.41.41,0,0,0-.59.37v2.29a1.1,1.1,0,0,1-1.64,1L115.4,25.38a4,4,0,0,1-2-3.52V20A1.75,1.75,0,0,0,112.48,18.45Z"/><g class="cls-15"><path class="cls-16" d="M156.89,126.18a2.7,2.7,0,0,1,1.22,2.1c0,.78-.56,1.08-1.23.7L103.33,98.06a2.69,2.69,0,0,1-1.21-2.1c0-.77.55-1.08,1.22-.7Z"/><path class="cls-16" d="M156.87,134.85a2.7,2.7,0,0,1,1.21,2.11c0,.77-.55,1.08-1.22.69L103.3,106.73a2.63,2.63,0,0,1-1.2-2.1c0-.77.54-1.08,1.21-.7Z"/></g><path class="cls-17" d="M101.91,81.4V41a1.58,1.58,0,0,1,2.37-1.36l54.85,31.74a3.15,3.15,0,0,1,1.58,2.73v40.1a1.58,1.58,0,0,1-2.36,1.37L103.5,84.14A3.16,3.16,0,0,1,101.91,81.4Z"/><path class="cls-18" d="M117.42,77.21a1,1,0,0,1,.44.77v.32c0,.28-.19.39-.44.25l-6.57-3.79a1,1,0,0,1-.44-.76v-.33c0-.28.2-.4.44-.26Z"/><path class="cls-18" d="M126.92,82.7a1,1,0,0,1,.44.76v.33c0,.28-.19.39-.44.25l-6.57-3.8a1,1,0,0,1-.44-.76v-.32c0-.28.2-.4.44-.26Z"/><path class="cls-18" d="M136.41,88.18a1,1,0,0,1,.45.77v.32c0,.28-.2.39-.45.25l-6.57-3.79a1,1,0,0,1-.45-.77v-.32a.28.28,0,0,1,.45-.26Z"/><path class="cls-18" d="M145.82,93.61a1,1,0,0,1,.44.77v.32c0,.28-.2.39-.44.25l-6.58-3.79a1,1,0,0,1-.44-.76v-.33c0-.28.2-.4.45-.26Z"/><path class="cls-19" d="M114.35,84.49a1.3,1.3,0,0,1,.58,1v.23c0,.37-.26.52-.59.34l-7.41-4.28a1.29,1.29,0,0,1-.59-1v-.23c0-.38.27-.53.59-.34Z"/><path class="cls-20" d="M154.25,106.33a1.43,1.43,0,0,1,.64,1.11v1.29c0,.42-.29.59-.65.38l-6-3.46a1.45,1.45,0,0,1-.64-1.12v-1.29c0-.41.29-.58.65-.37Z"/><path class="cls-21" d="M109.51,54.41V52.48l.47.27,0,1.94v.06s0,.12-.19,0h0l0,0c-.08,0-.21-.13-.21-.25v-.07Z"/><path class="cls-21" d="M107.85,53.44l0-1.93.47.27,0,1.94v.07s0,.11-.19,0h0l0,0c-.07,0-.21-.13-.2-.25v-.06Z"/><path class="cls-21" d="M108.68,53.92l0-1.92.47.27,0,1.94v.06s0,.12-.19,0l0,0,0,0c-.08,0-.21-.14-.21-.25v-.07Z"/><g class="cls-1"><path class="cls-21" d="M107,53l0-1.92.46.27v2s0,.12-.19,0h0l0,0c-.08-.05-.21-.13-.21-.25V53Z"/><path class="cls-21" d="M106.6,50.23l.45.26.47.28.36.21.46.27.36.21.47.28.36.21.46.27.44.26.07,0c.11.06.12.21.12.31v.05c0,.09,0,.23-.13.17l-.5-.3-.47-.27-.35-.21L108.7,52l-.36-.22-.47-.27-.36-.21-.46-.27-.45-.26-.06,0s-.11-.06-.11-.28v-.08c0-.09,0-.23.11-.17Z"/></g><path class="cls-21" d="M109.8,50c.08,0,.22.15.21.26l0,2-.46-.27V50c0-.12.13-.06.21,0Z"/><path class="cls-21" d="M107.32,48.52c.09,0,.22.14.21.25v2l-.47-.28,0-1.92V48.5c0-.1.1-.07.18,0l0,0Z"/><path class="cls-21" d="M108.15,49c.08,0,.21.14.21.26l0,2-.46-.27,0-1.92V49c0-.11.1-.08.18,0l0,0Z"/><path class="cls-21" d="M109,49.48c.08.05.21.14.21.26l0,2-.47-.28,0-1.92v-.08c0-.12.14-.05.21,0Z"/><path class="cls-21" d="M116.4,54.18a3.05,3.05,0,0,1,1.59,3c0,1.38-.53,1.75-1.6,1.13l0,0a3.16,3.16,0,0,1-1.57-3c0-1.4.51-1.74,1.61-1.11Zm0,3.5c.63.37.88.09.89-.94s-.23-1.57-.87-2h0c-.65-.38-.89-.13-.9.91s.24,1.6.88,2h0"/><path class="cls-21" d="M111.92,51.58a.94.94,0,0,1,.34.29l0,.14,0,2.4c0,.4,0,.48.14.71a1.59,1.59,0,0,0,.53.46c.18.1.39.21.54.16s.15-.13.16-.54V52.81l0-.1s.17,0,.34.11a.94.94,0,0,1,.34.29l0,.13,0,2.29c0,.65-.06.95-.4,1s-.5,0-1-.28l-.07,0,0,0a2.77,2.77,0,0,1-1-.89,2.2,2.2,0,0,1-.37-1.47l0-2.29,0-.11S111.75,51.48,111.92,51.58Z"/><path class="cls-21" d="M121,58.94a1.82,1.82,0,0,1,.3,1c0,.28-.06.64-.33.72s-.53-.09-.94-.33l-1.5-.88a.26.26,0,0,1-.11-.2l0-3.71c0-.08,0-.11.11-.07l1.43.83a2.39,2.39,0,0,1,.84.71,1.58,1.58,0,0,1,.27.94c0,.44-.11.61-.4.59h-.06l.07.06C120.76,58.71,120.86,58.82,121,58.94Zm-1,.79c.42.25.57.23.57-.25a.92.92,0,0,0-.55-.94l-.84-.49v1.19l.78.47.05,0m-.8-3.34v1.09l.74.44h0c.33.19.48.11.48-.25a.79.79,0,0,0-.44-.82l-.8-.47"/><path class="cls-22" d="M117.32,67.32a1.89,1.89,0,0,1,.86,1.49l0,4.76c0,.55-.38.78-.86.5l-2-1.12.89-1.45,1.92,1.11v-.28l-1.89-1.09,0-2.2,1.86,1.07v-.28l-1.91-1.1-.88-2.53Z"/><path class="cls-22" d="M112.34,69.24l.86,2.47-1.93-1.12a1.89,1.89,0,0,1-.86-1.49v-1Z"/><polygon class="cls-22" points="115.08 66.03 116.01 68.75 115.97 71.2 115.04 72.77 113.51 71.89 112.6 69.26 112.57 66.77 113.51 65.12 115.08 66.03"/><path class="cls-22" d="M113.21,65l-.9,1.5-1.89-1.09v-1c0-.55.39-.77.87-.49Z"/><polygon class="cls-22" points="112.27 66.7 112.28 68.94 110.42 67.86 110.42 65.64 112.27 66.7"/><path class="cls-23" d="M155.1,151.73,99.38,118.6a1.38,1.38,0,0,0-.93-.11,1.06,1.06,0,0,0-.61,1c0,.52,0,12,0,12a3.66,3.66,0,0,0,.41,1.77,3.52,3.52,0,0,0,1.62,1.58c.5.29,53.59,32.19,54.4,32.4,1.81.49,2.62-.1,2.71-.95s0-11.36,0-11.77a3.83,3.83,0,0,0-.77-1.88A3.65,3.65,0,0,0,155.1,151.73Z"/><path class="cls-24" d="M158.51,148.76l-55.72-33.13a2.09,2.09,0,0,0-.92-.11c-.45.09-2.63,1.07-2.65,1.59s2.06,11.41,2.06,11.41a3.63,3.63,0,0,0,.42,1.78,7.24,7.24,0,0,0,2.54,2.19c.5.3,52.33,33.47,53.12,33.76s3-1.13,3.06-2.27c0-.85,0-12,0-12.43a3.84,3.84,0,0,0-.76-1.88A3.69,3.69,0,0,0,158.51,148.76Z"/><path class="cls-25" d="M156.19,150,100.47,116.9a1.38,1.38,0,0,0-.93-.11,1.08,1.08,0,0,0-.61,1c0,.52,0,12,0,12a3.64,3.64,0,0,0,.41,1.77,3.48,3.48,0,0,0,1.62,1.58c.5.3,54.8,32.72,55.59,33a1,1,0,0,0,1.51-.9c.08-.84,0-12,0-12.42a3.84,3.84,0,0,0-.76-1.88A3.54,3.54,0,0,0,156.19,150Z"/><path class="cls-24" d="M152.4,152.9l-48.1-28.61a1.18,1.18,0,0,0-.8-.09.92.92,0,0,0-.53.88c0,.45,0,1.48,0,1.48a3.12,3.12,0,0,0,.36,1.53,3,3,0,0,0,1.39,1.36c.43.26,47.31,28.24,48,28.49a.88.88,0,0,0,1.3-.77,16.08,16.08,0,0,0,0-1.86,3.24,3.24,0,0,0-.66-1.62A3.11,3.11,0,0,0,152.4,152.9Z"/><path class="cls-26" d="M141.46,215.46a1,1,0,0,1-.47-.12l-18.84-11a.91.91,0,1,1,.92-1.58l18.85,11a.92.92,0,0,1-.46,1.71Z"/><path d="M138.62,35.15a.78.78,0,0,1-.36-.1l-14.7-8.56a.72.72,0,0,1-.26-1,.73.73,0,0,1,1-.26L139,33.81a.72.72,0,0,1,.26,1A.71.71,0,0,1,138.62,35.15Z"/><path class="cls-27" d="M137.51,153.59c.23,4-2.37,8.44-2.13,12.49,1.55-2.39,6.66-5.46,9.47-6.18a102.76,102.76,0,0,1,14.77-2s-.61-3.67-14.39-8C140.74,148.49,139,150,137.51,153.59Z"/><path class="cls-28" d="M53.31,203.94l-35-16.31,34-13.2,52.61,31S71.76,212.54,53.31,203.94Z"/><path class="cls-29" d="M105.88,232a9.3,9.3,0,0,1-4.3-.42c-9.66-4.82-45.12-25.89-46.14-26.57-2.75-1.82-2.37-7.87-2.37-7.87l5.58,3.27,21.61,12.44,22.13,12.88Z"/><path class="cls-30" d="M152.63,155.14s-43.56-25.7-44.35-26-2-.13-4,1.28a30.61,30.61,0,0,0-5.4,5.32,30.19,30.19,0,0,0-5.66,8.58c-1.58,3.58-2.3,5.85-3,11.63s-1.56,13-1.88,16.92-2.19,16.16-7,20.69c-4.57,4.29-12.8,7-17,7.26-2.83.16-5.12-.76-8.59-2.17l3.21,1.88,43.53,25.19s-3.3,3.92-.3,5.84c1.82,1.17,7.78.94,11.34.4,4.59-.71,11.49-6.13,14.28-11.31,2.48-4.59,4.68-17.57,5.32-29.58.34-6.36,1-13.84,1.87-19.23s3.11-9.5,5.39-11.76S147.27,154.74,152.63,155.14Z"/><path class="cls-31" d="M96.53,181.76c-1,9.29,1.44,18.53,8,19.62,8.15,1.33,16.07-3.21,18.21-15.15,1.66-9.32-1.38-21.21-10.93-21.82S97.54,172.32,96.53,181.76Z"/><path class="cls-32" d="M110.29,130.29c-3.44.36-9.73,6.53-14.25,14.93-4.17,7.75-3,16.48-4.86,32.32s-6.55,19.74-15,23.61S59.57,201,59.57,201l8.34,4.85c.67-.2,1.6,0,2-1.62,0,0,11.87-.84,17.21-8.27s5.26-10.68,6.27-20,1.18-20,3.38-26,5.36-10.46,8.65-12.52c0,0,6,0,8.75-2.85L139.43,149s-1.84,1.06-2.23,6.08c0,0-4.91,4.49-7.2,18.36s-1.9,37.39-9.93,46.89c-6.09,7.21-11.52,6.22-12.23,5.92s-7.26-3.69-9.94-3.12l4.43,2.59s-1.73,2-1.49,4c0,0,6.81.26,10.31-.76a22.25,22.25,0,0,0,13.42-10.54c4-7.07,5.81-26.86,6.61-38.64.82-12.2,3.61-20.24,9.39-23.79,6.46-4,9.68-2.22,9.68-2.22Z"/><path class="cls-33" d="M104.71,130.15l44.16,25.24a15.44,15.44,0,0,1,3.76-.25s-43.56-25.7-44.35-26C107.82,129,107,128.82,104.71,130.15Z"/><polygon class="cls-34" points="26.55 105.98 37.78 108.99 39.73 101.72 28.5 98.71 31.31 103.34 26.55 105.98"/><path class="cls-35" d="M34.83,119.89h0a.67.67,0,0,0,.81-.47l4.63-17.32a.67.67,0,0,0-.47-.81h0a.66.66,0,0,0-.8.47l-4.63,17.32A.66.66,0,0,0,34.83,119.89Z"/><path class="cls-36" d="M36.6,123.58h0a2.53,2.53,0,0,0,1.33-3.32l-1-2.39a2.53,2.53,0,0,0-3.32-1.33h0a2.53,2.53,0,0,0-1.33,3.32l1,2.39A2.54,2.54,0,0,0,36.6,123.58Z"/><path class="cls-37" d="M66.64,144.65c-.06,1.54-2.73,3-7,2.06a41.57,41.57,0,0,1-15.35-7.42c-4.31-3.57-9-9.13-10.3-13.53s4.73-4.67,5.45-4,2.26,3.09,4.7,6.12,6,8,13.92,10.44S66.74,141.76,66.64,144.65Z"/><polygon class="cls-38" points="73.37 233.1 43.38 207.82 36.38 218.9 69.06 236.83 73.37 233.1"/><polygon class="cls-39" points="46.67 223.35 24.29 204.6 9.98 214.88 44.9 231.35 46.67 223.35"/><path class="cls-40" d="M72.47,231.85l2.22,3.07c2.21,1.66,3.9.84,4.72,2.39v.37c0,1.29-1.07,1.63-2.75,1.88S69,236.8,69,236.8A3.55,3.55,0,0,1,67.56,233a2.29,2.29,0,0,1,2.6-1.29C71.51,231.89,71.45,231.23,72.47,231.85Z"/><path class="cls-36" d="M74.32,234.26a4.2,4.2,0,0,1-1.24-3.15c2.18-25.24,2.15-45.94,4.76-54.93L65,179.32c3.24,22,5,31.7,3.36,51.8l-.06,1.21a1.36,1.36,0,0,0,.78,1.25h0s6.19,4,7,2.56A17.12,17.12,0,0,0,74.32,234.26Z"/><path class="cls-41" d="M46.94,222.43l-.72,3.65c.28,2.7.72,4.07-.23,4.91l-.27.24c-.95.85-1.63.41-2.27-1.08l-2.39-6.51A3.61,3.61,0,0,1,42.69,220s.71-.41,2.77.73C46.63,221.34,46.7,221.28,46.94,222.43Z"/><path class="cls-36" d="M69.6,170.34l-12,4.7c-4.26,20.94-2.83,25-12.19,42.82h0l-1.57,2.19c0,.23.78.78.76,1.2a12.55,12.55,0,0,0,.71,4.49c1,2.89,1.13,1.34,1.13.54a21.48,21.48,0,0,1,.55-3.14l2.69-4.21C60.38,202.13,65.7,186.72,69.6,170.34Z"/><path class="cls-42" d="M60.25,159s-4,5.3-4.66,9.74-1.25,13.69-1.89,17.92-4.48,9.94-4.48,12.62c0,2.42,6.63,8.36,8.75,9.64s11.65,7.83,19.7,5.71c0,0,5.3-2.11,5.3-3S80.81,180,79.54,174.26a48.53,48.53,0,0,0-3.39-10S65.55,158.13,60.25,159Z"/><path class="cls-43" d="M58.62,161.47s-1.91,2.37-1.19,3.48c.89,1.35,5.2,4.59,11,5.15,4.69.45,8.89-2.28,8.17-4.25C73.24,156.52,62.3,165.72,58.62,161.47Z"/><path class="cls-44" d="M56,139.35S52.4,142.91,54.65,151c0,0,1.41,3.68,3,7.85,1.16,3.13.74,4.27.74,4.27a9.16,9.16,0,0,0,4,3.15c3,1.41,7.8,2.82,10.7,2.16s3.9-1.08,3.82-2.66a37,37,0,0,1-.08-6.64c.25-4,.66-8.21-.09-10.53s-5-8.3-9.28-9.21C67.39,139.36,62.28,145.05,56,139.35Z"/><path class="cls-45" d="M56.84,156.8s10.18,3.11,11.93-6.55l.61-2.43-13.1,7.54Z"/><path class="cls-46" d="M58.35,137.37s-2.13.71-2.39,2,1.56,1.92,2.64,2.17,6.47,1.08,9.37-2.16S61.33,136.05,58.35,137.37Z"/><path class="cls-36" d="M101.49,133.65h0a2.55,2.55,0,0,1-.42-3.56l1.61-2a2.54,2.54,0,0,1,3.56-.41h0a2.53,2.53,0,0,1,.41,3.55l-1.6,2A2.55,2.55,0,0,1,101.49,133.65Z"/><path class="cls-47" d="M65.82,143.31h-.46a2.79,2.79,0,0,1-2.71-2.85l.37-7a2.8,2.8,0,0,1,2.85-2.72h.45A2.8,2.8,0,0,1,69,133.55l.85,6.74C69.86,141.82,67.35,143.35,65.82,143.31Z"/><path class="cls-48" d="M68.29,146.12c-.35,1.5,1.6,3.57,4.93,3.81A39.69,39.69,0,0,0,90,146.8c5.09-2.32,11.09-6.46,13.49-10.36s-3.35-5.75-4.22-5.28-3,2.39-6.14,4.67-7.91,6.29-16.18,6.43C70.08,142.37,69,143.31,68.29,146.12Z"/><path class="cls-49" d="M69.47,133.4c-.36,4.28-3.14,6-6.22,3.88s-5.27-7.34-4.91-11.62,3.15-6,6.22-3.88S69.83,129.13,69.47,133.4Z"/><path class="cls-36" d="M73.49,131.27c-.37,4.28-4.42,6.61-7.49,4.47s-5.27-7.34-4.91-11.62,3.15-6,6.22-3.88S73.85,127,73.49,131.27Z"/><path class="cls-36" d="M70.93,130.06a1.89,1.89,0,1,1-1.72-2A1.89,1.89,0,0,1,70.93,130.06Z"/><path class="cls-24" d="M67.33,115.55s-8.56-1.61-11.56,5.53S54.08,132.76,53,137c-2.11,8.59-3.43,10.86-1.64,14.67.58,1.23,2.22,3.63,4.2,4.11,4.23,1,9.77.53,12.18-3.23,3.54-5.52.14-14.06,1.12-19.42s3-5.25,4.17-7.35S75.62,118.14,67.33,115.55Z"/><path class="cls-50" d="M41.08,222.37h.05a2.82,2.82,0,0,1,.9,1.69c.33,1.32,2.12,6.94,2.72,7.55h-.14c-.33-.23-.41,0-1.16-1.46l-2.39-6.51A3.39,3.39,0,0,1,41.08,222.37Z"/></g></g></svg>