<svg id="Layer_1" data-name="Layer 1" xmlns="http://www.w3.org/2000/svg" xmlns:xlink="http://www.w3.org/1999/xlink" viewBox="0 0 240 240"><defs><style>.cls-1{fill:url(#linear-gradient);}.cls-2{fill:url(#linear-gradient-2);}.cls-3{fill:#b2d4d9;}.cls-4{fill:#f0f4f8;}.cls-5{fill:#383839;}.cls-6{fill:url(#linear-gradient-3);}.cls-7{opacity:0.7;}.cls-8,.cls-9{fill:#dbebfb;}.cls-9{opacity:0.4;}.cls-10{opacity:0.5;}.cls-11{fill:#fff;stroke:#a6c7dd;stroke-miterlimit:10;stroke-width:0.1px;}.cls-12{fill:url(#linear-gradient-4);}.cls-13{fill:#8ac0ff;opacity:0.3;}.cls-14{opacity:0.12;}.cls-15{fill:#b7bfc4;}.cls-16{fill:url(#linear-gradient-5);}.cls-17{fill:url(#linear-gradient-6);}.cls-18{fill:url(#linear-gradient-7);}.cls-19{fill:url(#linear-gradient-8);}.cls-20{fill:#d0d2d4;}.cls-21{fill:url(#linear-gradient-9);}.cls-22{fill:url(#linear-gradient-10);}.cls-23{fill:url(#linear-gradient-11);}.cls-24{fill:url(#linear-gradient-12);}.cls-25{fill:url(#linear-gradient-13);}.cls-26{fill:url(#linear-gradient-14);}.cls-27{fill:url(#linear-gradient-15);}.cls-28{fill:url(#linear-gradient-16);}.cls-29{fill:url(#linear-gradient-17);}.cls-30{fill:#bac4ca;}.cls-31{fill:#373e66;}.cls-32{fill:#8797a7;}.cls-33{fill:url(#linear-gradient-18);}.cls-34{fill:url(#linear-gradient-19);}.cls-35{fill:url(#linear-gradient-20);}.cls-36{fill:url(#linear-gradient-21);}.cls-37{fill:url(#linear-gradient-22);}.cls-38{fill:url(#linear-gradient-23);}.cls-39{fill:url(#linear-gradient-24);}.cls-40{fill:#e5a394;}.cls-41{fill:url(#linear-gradient-25);}.cls-42{fill:url(#linear-gradient-26);}.cls-43{opacity:0.6;fill:url(#linear-gradient-27);}.cls-44{fill:#4160a1;}.cls-45{fill:#fbfbff;}.cls-46{fill:url(#linear-gradient-28);}.cls-47{fill:url(#linear-gradient-29);}.cls-48{fill:url(#linear-gradient-30);}.cls-49{fill:url(#linear-gradient-31);}.cls-50{fill:#0f2386;}.cls-51{fill:url(#linear-gradient-32);}.cls-52{fill:#f18d0a;}.cls-53{fill:url(#linear-gradient-33);}.cls-54{fill:#fabdab;}.cls-55{fill:#d3958b;}.cls-56{fill:url(#linear-gradient-34);}.cls-57{fill:#353535;}</style><linearGradient id="linear-gradient" x1="1089.03" y1="111.81" x2="1161.61" y2="111.81" gradientTransform="matrix(-1, 0, 0, 1, 1222.31, 0)" gradientUnits="userSpaceOnUse"><stop offset="0" stop-color="#6c68e6" stop-opacity="0.4"/><stop offset="0.43" stop-color="#4582e2" stop-opacity="0.36"/><stop offset="1" stop-color="#00b1db" stop-opacity="0.3"/></linearGradient><linearGradient id="linear-gradient-2" x1="74.23" y1="201.26" x2="50.65" y2="159.88" gradientUnits="userSpaceOnUse"><stop offset="0" stop-color="#6c68e6" stop-opacity="0.2"/><stop offset="0.27" stop-color="#4781e2" stop-opacity="0.13"/><stop offset="0.66" stop-color="#00b1db" stop-opacity="0"/></linearGradient><linearGradient id="linear-gradient-3" x1="1125.15" y1="111.93" x2="1126.03" y2="177.45" gradientTransform="matrix(-1, 0, 0, 1, 1222.31, 0)" gradientUnits="userSpaceOnUse"><stop offset="0.12" stop-color="#00b0da"/><stop offset="0.32" stop-color="#14a5e4"/><stop offset="0.77" stop-color="#3c8df7"/><stop offset="1" stop-color="#4c84ff"/></linearGradient><linearGradient id="linear-gradient-4" x1="521.01" y1="121.32" x2="565.13" y2="121.32" gradientTransform="matrix(-1, 0, 0, 1, 641.71, 0)" gradientUnits="userSpaceOnUse"><stop offset="0.12" stop-color="#00b2dc"/><stop offset="0.32" stop-color="#14a7e5"/><stop offset="0.77" stop-color="#3c8ff8"/><stop offset="1" stop-color="#4c86ff"/></linearGradient><linearGradient id="linear-gradient-5" x1="1081.39" y1="51.74" x2="1088.65" y2="51.74" gradientTransform="matrix(-1, 0, 0, 1, 1222.31, 0)" gradientUnits="userSpaceOnUse"><stop offset="0" stop-color="#483ddb"/><stop offset="0.28" stop-color="#4c44db"/><stop offset="1" stop-color="#5454db"/></linearGradient><linearGradient id="linear-gradient-6" x1="1095.78" y1="59.84" x2="1103.04" y2="59.84" xlink:href="#linear-gradient-5"/><linearGradient id="linear-gradient-7" x1="1110.19" y1="67.93" x2="1117.46" y2="67.93" xlink:href="#linear-gradient-5"/><linearGradient id="linear-gradient-8" x1="1124.61" y1="75.95" x2="1131.87" y2="75.95" xlink:href="#linear-gradient-5"/><linearGradient id="linear-gradient-9" x1="1133.75" y1="64.55" x2="1155.27" y2="74.23" gradientTransform="matrix(-1, 0, 0, 1, 1222.31, 0)" gradientUnits="userSpaceOnUse"><stop offset="0.19" stop-color="#e4e4e4"/><stop offset="1" stop-color="#f0f4f8"/></linearGradient><linearGradient id="linear-gradient-10" x1="1129.7" y1="61.9" x2="1153.09" y2="72.54" gradientTransform="matrix(-1, 0, 0, 1, 1222.31, 0)" gradientUnits="userSpaceOnUse"><stop offset="0" stop-color="#6c68e6"/><stop offset="0.16" stop-color="#676ce5"/><stop offset="0.37" stop-color="#5776e4"/><stop offset="0.6" stop-color="#3d88e1"/><stop offset="0.85" stop-color="#19a0de"/><stop offset="1" stop-color="#00b1db"/></linearGradient><linearGradient id="linear-gradient-11" x1="1119.74" y1="56.21" x2="1140.85" y2="66.65" xlink:href="#linear-gradient-9"/><linearGradient id="linear-gradient-12" x1="1117.31" y1="54" x2="1137.74" y2="66.41" gradientTransform="matrix(-1, 0, 0, 1, 1222.31, 0)" gradientUnits="userSpaceOnUse"><stop offset="0" stop-color="#6c68e6"/><stop offset="0.16" stop-color="#676be6"/><stop offset="0.33" stop-color="#5a74e4"/><stop offset="0.51" stop-color="#4483e2"/><stop offset="0.7" stop-color="#2598df"/><stop offset="0.88" stop-color="#00b1db"/></linearGradient><linearGradient id="linear-gradient-13" x1="1105.67" y1="47.79" x2="1126.37" y2="59.12" xlink:href="#linear-gradient-9"/><linearGradient id="linear-gradient-14" x1="1103.94" y1="46.69" x2="1124.53" y2="58.22" gradientTransform="matrix(-1, 0, 0, 1, 1222.31, 0)" gradientUnits="userSpaceOnUse"><stop offset="0" stop-color="#6c68e6"/><stop offset="0.15" stop-color="#676ce5"/><stop offset="0.33" stop-color="#5876e4"/><stop offset="0.52" stop-color="#3f87e1"/><stop offset="0.73" stop-color="#1c9ede"/><stop offset="0.88" stop-color="#00b1db"/></linearGradient><linearGradient id="linear-gradient-15" x1="1091.77" y1="39.4" x2="1111.89" y2="51.72" xlink:href="#linear-gradient-9"/><linearGradient id="linear-gradient-16" x1="1089.55" y1="38.55" x2="1110.06" y2="50.21" gradientTransform="matrix(-1, 0, 0, 1, 1222.31, 0)" gradientUnits="userSpaceOnUse"><stop offset="0" stop-color="#625ce6"/><stop offset="0.53" stop-color="#6c68e6"/></linearGradient><linearGradient id="linear-gradient-17" x1="168.56" y1="203.01" x2="147.95" y2="166.83" xlink:href="#linear-gradient-2"/><linearGradient id="linear-gradient-18" x1="190.77" y1="138.53" x2="219.71" y2="138.53" gradientUnits="userSpaceOnUse"><stop offset="0" stop-color="#f77e64"/><stop offset="0.48" stop-color="#fb1274"/><stop offset="1" stop-color="#9e0165"/></linearGradient><linearGradient id="linear-gradient-19" x1="153.87" y1="142.63" x2="197" y2="142.63" xlink:href="#linear-gradient-18"/><linearGradient id="linear-gradient-20" x1="153.87" y1="164.03" x2="213.48" y2="164.03" xlink:href="#linear-gradient-18"/><linearGradient id="linear-gradient-21" x1="176.58" y1="155.74" x2="219.71" y2="155.74" xlink:href="#linear-gradient-18"/><linearGradient id="linear-gradient-22" x1="153.87" y1="161.57" x2="176.58" y2="161.57" xlink:href="#linear-gradient-18"/><linearGradient id="linear-gradient-23" x1="350.12" y1="-322.92" x2="380.8" y2="-322.92" gradientTransform="matrix(0.51, 0.86, 0.86, -0.51, 226.89, -276.34)" gradientUnits="userSpaceOnUse"><stop offset="0.35" stop-color="#00b1db" stop-opacity="0"/><stop offset="0.78" stop-color="#6c68e6" stop-opacity="0.2"/></linearGradient><linearGradient id="linear-gradient-24" x1="372.3" y1="-325.67" x2="400.08" y2="-325.67" gradientTransform="matrix(0.46, 0.9, 0.89, -0.45, 237.97, -294.26)" xlink:href="#linear-gradient-23"/><linearGradient id="linear-gradient-25" x1="157.18" y1="135.8" x2="217.77" y2="69.11" gradientUnits="userSpaceOnUse"><stop offset="0" stop-color="#4160a1"/><stop offset="0.2" stop-color="#5450c6"/><stop offset="0.36" stop-color="#6047dd"/><stop offset="0.46" stop-color="#6443e5"/><stop offset="0.58" stop-color="#6146df"/><stop offset="0.74" stop-color="#574dcd"/><stop offset="0.92" stop-color="#485aaf"/><stop offset="1" stop-color="#4160a1"/></linearGradient><linearGradient id="linear-gradient-26" x1="163.97" y1="136.58" x2="234.98" y2="65.56" gradientTransform="translate(183.96 -112.86) rotate(58.5)" gradientUnits="userSpaceOnUse"><stop offset="0" stop-color="#00b1db"/><stop offset="0.28" stop-color="#338ee0"/><stop offset="0.54" stop-color="#5c73e4"/><stop offset="0.67" stop-color="#6c68e6"/></linearGradient><linearGradient id="linear-gradient-27" x1="170.77" y1="131.36" x2="234.19" y2="67.93" gradientTransform="translate(184.92 -113.48) rotate(58.5)" gradientUnits="userSpaceOnUse"><stop offset="0" stop-color="#4160a1"/><stop offset="0.21" stop-color="#455fa7"/><stop offset="0.5" stop-color="#505eb8"/><stop offset="0.83" stop-color="#615bd4"/><stop offset="1" stop-color="#6c5ae5"/></linearGradient><linearGradient id="linear-gradient-28" x1="451.07" y1="-499.4" x2="471.08" y2="-510.06" gradientTransform="matrix(0.76, 0.65, -0.65, 0.76, -520.81, 222.14)" gradientUnits="userSpaceOnUse"><stop offset="0" stop-color="#ff9a00"/><stop offset="0.52" stop-color="#f9cb00"/><stop offset="1" stop-color="#ffbd00"/></linearGradient><linearGradient id="linear-gradient-29" x1="133.62" y1="207.98" x2="144.14" y2="207.98" gradientUnits="userSpaceOnUse"><stop offset="0.2" stop-color="#14249a"/><stop offset="0.53" stop-color="#254ab3"/><stop offset="0.83" stop-color="#3267c6"/><stop offset="1" stop-color="#3772cd"/></linearGradient><linearGradient id="linear-gradient-30" x1="143.17" y1="211.26" x2="153.28" y2="211.26" xlink:href="#linear-gradient-29"/><linearGradient id="linear-gradient-31" x1="556.27" y1="172.11" x2="581.3" y2="173.29" gradientTransform="translate(-425.87)" gradientUnits="userSpaceOnUse"><stop offset="0.29" stop-color="#14249a"/><stop offset="0.58" stop-color="#254ab3"/><stop offset="0.85" stop-color="#3267c6"/><stop offset="1" stop-color="#3772cd"/></linearGradient><linearGradient id="linear-gradient-32" x1="555.99" y1="145.62" x2="574.97" y2="145.62" gradientTransform="translate(-425.87)" xlink:href="#linear-gradient-28"/><linearGradient id="linear-gradient-33" x1="557.65" y1="133.54" x2="567.94" y2="133.54" gradientTransform="translate(-425.87)" gradientUnits="userSpaceOnUse"><stop offset="0" stop-color="#9b0165"/><stop offset="0.52" stop-color="#f81274"/><stop offset="1" stop-color="#f47e64"/></linearGradient><linearGradient id="linear-gradient-34" x1="452.03" y1="-494.34" x2="472.03" y2="-505.01" xlink:href="#linear-gradient-28"/></defs><path class="cls-1" d="M124.05,12.07,71.52,41.88a35.92,35.92,0,0,0-6.51,5,14.66,14.66,0,0,0-3.68,6.28,27.48,27.48,0,0,0-.64,6.75v148.3s2.91,4.71,4.78,4c3.6-1.28,6.46.57,9.59-.77,3.82-1.64,47.05-26.54,49.14-28s5.53-5.06,6.67-7.5,1.2-9.19,1.53-10.31c1.31-4.5.76-146.7.76-148.39a7.87,7.87,0,0,0-2.29-4.87A7.1,7.1,0,0,0,124.05,12.07Z"/><polygon class="cls-2" points="64.11 213.83 -17.35 182.78 84.41 120.52 123.45 145.4 64.11 213.83"/><path class="cls-3" d="M119.58,7.47l-52,29.32a22.49,22.49,0,0,0-6.36,5,30.52,30.52,0,0,0-3.91,7,20.41,20.41,0,0,0-1.24,6.34V206.39s-.11,3.22,1.17,4.83,6.86,4.4,10.8,2.49,53.34-31.05,55.56-32.58,5.88-5.16,7.1-7.64a23.73,23.73,0,0,0,2.43-10.71c0-4.77-1.15-148.2-1.15-149.92s-3.21-4-4.23-4.78A9.73,9.73,0,0,0,119.58,7.47Z"/><path class="cls-4" d="M124.05,10.45,71.52,40.27a35.4,35.4,0,0,0-6.51,5,14.6,14.6,0,0,0-3.68,6.28,27.48,27.48,0,0,0-.64,6.75V206.55s.13,3.9,1.34,5.48a5.26,5.26,0,0,0,6.63,1.57c3.82-1.64,53.45-30.32,55.54-31.82s5.53-5.06,6.67-7.49a24,24,0,0,0,2.29-10.49V15.59a7.9,7.9,0,0,0-2.29-4.88A7.15,7.15,0,0,0,124.05,10.45Z"/><path class="cls-5" d="M123.56,12.25,72.46,41.74a26.2,26.2,0,0,0-6.56,5c-2.21,2.7-3.05,4.38-3.45,6.09a43,43,0,0,0-.53,6.68V206.22a9.1,9.1,0,0,0,1.23,4.39c1.18,1.56,4.84,3.26,7.85,1.73,3.62-1.83,50.67-29.14,52.71-30.62s5.37-5,6.48-7.41a24.06,24.06,0,0,0,2.23-10.38c0-4.63,0-144.94,0-146.6a6.28,6.28,0,0,0-2.23-4.82A6.81,6.81,0,0,0,123.56,12.25Z"/><path class="cls-6" d="M114.6,20.52l9.12-5.21s3.2-1.12,4.8,1.13a9.55,9.55,0,0,1,1.42,4.81v142.2s-.41,7.23-2.26,10.46A28,28,0,0,1,120,181c-2.54,1.41-45.23,26-45.23,26s-4.58,3.16-6.76,2.67-3.67-1.57-3.64-6.07c0-2.79,0-145,0-145s-.07-4.83,2.06-8a25.74,25.74,0,0,1,6.68-6.31c1.68-1.1,5.8-3.16,7.25-3.88a.36.36,0,0,1,.52.33v2a1,1,0,0,0,1.44.83l29.66-17a3.58,3.58,0,0,0,1.8-3.1V21.86A1.56,1.56,0,0,1,114.6,20.52Z"/><g class="cls-7"><path class="cls-8" d="M123,138.66c.4-.23.73,0,.73.42v.78a1.59,1.59,0,0,1-.72,1.26L75.22,168.7c-.4.24-.73.05-.73-.41v-.79a1.59,1.59,0,0,1,.72-1.25Z"/><path class="cls-8" d="M123,131c.4-.23.73,0,.73.42v.78a1.58,1.58,0,0,1-.73,1.26L75.2,161.08c-.4.23-.73,0-.73-.42v-.79a1.56,1.56,0,0,1,.72-1.25Z"/><path class="cls-8" d="M123,145.79c.4-.23.73,0,.73.41V147a1.61,1.61,0,0,1-.72,1.26L75.24,175.82c-.4.23-.73.05-.73-.41v-.78a1.61,1.61,0,0,1,.72-1.26Z"/></g><path class="cls-9" d="M89.12,193.77a.86.86,0,0,0,.4-.11L106.1,184a.81.81,0,0,0-.82-1.4l-16.57,9.65a.81.81,0,0,0-.29,1.11A.82.82,0,0,0,89.12,193.77Z"/><path d="M91.61,35.21a.62.62,0,0,0,.32-.09l12.92-7.52a.63.63,0,0,0-.63-1.09L91.29,34a.62.62,0,0,0-.22.86A.61.61,0,0,0,91.61,35.21Z"/><g class="cls-10"><path class="cls-11" d="M122.93,84.33v33a1.57,1.57,0,0,1-.79,1.37L75.2,145.89a.94.94,0,0,1-1.42-.82V112a1.58,1.58,0,0,1,.79-1.37l46.94-27.12A.94.94,0,0,1,122.93,84.33Z"/><path class="cls-12" d="M104.89,106.24c5.69-3.28,5.07,7.4,10.41,4.32,4.07-2.35,5.3-7,5.37-7.29l0,10.63L76.6,139.36l0-8.74a4.44,4.44,0,0,0,4-.07c4.52-2.61,4.68-9.09,8.4-11.24,4-2.29,3.17,3,7.25.61S99.21,109.52,104.89,106.24Z"/><polygon class="cls-13" points="115.76 120.13 115.9 120.21 115.9 89.08 115.76 89 115.76 120.13"/><polygon class="cls-13" points="107.44 124.85 107.59 124.93 107.59 93.8 107.44 93.72 107.44 124.85"/><polygon class="cls-13" points="99.21 129.88 99.35 129.97 99.35 98.83 99.21 98.75 99.21 129.88"/><polygon class="cls-13" points="90.89 134.12 91.04 134.2 91.18 102.95 91.04 102.87 90.89 134.12"/><polygon class="cls-13" points="82.73 138.61 82.87 138.69 82.87 108.54 82.73 108.45 82.73 138.61"/></g><path class="cls-14" d="M79,61.68l7.06-4h0L92.68,54,101,49.38l6.68-3.73,8-4.47,2.21-6.84,4.49,3.1,2.74-5.6L129.68,36V68l-.29.16c-1.89,1-3.42-.07-3.42-2.5l-.06,0v0A7.82,7.82,0,0,1,122.49,72l-.51.29c-1.89,1.05-3.42-.07-3.42-2.5h0a7.84,7.84,0,0,1-3.43,6.31l-.51.29c-1.87,1-3.38,0-3.42-2.41a7.84,7.84,0,0,1-3.41,6.21l-.51.29c-1.89,1-3.43-.07-3.43-2.5h-.08a7.81,7.81,0,0,1-3.43,6.31l-.51.29c-1.73,1-3.14.09-3.37-1.92a7.82,7.82,0,0,1-3.37,5.62l-.51.28c-1.9,1.06-3.43-.06-3.43-2.49l0,.09A7.83,7.83,0,0,1,85.7,92.5l-.51.29a3.12,3.12,0,0,1-1,.35l-1,.29c-2.23.51-3.94-.44-3.94-2.87v-1a9.18,9.18,0,0,0-1.42-4.89L66.9,65.22l4.28-1.41Z"/><path class="cls-15" d="M66.85,65.17l0-1.76,6.75-3.81L89,74.67l-.09.06.05,4a7.54,7.54,0,0,1-3.3,6.15v.63c-2.19.52-3.89-.37-3.92-2.72l0-3.51Z"/><path class="cls-16" d="M137.12,56.75l.5-.28a7.54,7.54,0,0,0,3.3-6.14l0-4-7.22,4.05.06,4C133.74,56.74,135.26,57.8,137.12,56.75Z"/><path class="cls-17" d="M122.72,64.85l.51-.28a7.54,7.54,0,0,0,3.3-6.14l0-4-7.22,4.06,0,4C119.34,64.83,120.87,65.89,122.72,64.85Z"/><path class="cls-18" d="M108.31,73l.5-.29a7.51,7.51,0,0,0,3.3-6.14l0-4-7.21,4,.05,4C104.93,72.93,106.46,74,108.31,73Z"/><path class="cls-19" d="M93.9,81l.5-.28a7.56,7.56,0,0,0,3.3-6.15l0-4-7.22,4.06.06,4C90.52,80.94,92,82,93.9,81Z"/><path class="cls-20" d="M130,60.72l.5-.28a7.51,7.51,0,0,0,3.3-6.14l0-4-7.21,4.05,0,4C126.61,60.71,128.14,61.77,130,60.72Z"/><path class="cls-20" d="M115.51,68.9l.5-.28a7.57,7.57,0,0,0,3.3-6.15l0-4-7.21,4.06,0,4C112.13,68.88,113.66,69.94,115.51,68.9Z"/><path class="cls-20" d="M86.65,85.11l.5-.28a7.54,7.54,0,0,0,3.31-6.15l-.06-4-7.21,4.06,0,4C83.27,85.09,84.8,86.15,86.65,85.11Z"/><path class="cls-20" d="M101,77l.5-.28a7.52,7.52,0,0,0,3.31-6.14l-.06-4-7.21,4,0,4C97.63,77,99.16,78.06,101,77Z"/><polygon class="cls-21" points="74.77 58.96 90.5 74.66 83.18 78.77 66.9 63.4 74.77 58.96"/><polygon class="cls-22" points="81.69 55.05 97.65 70.63 90.32 74.75 73.69 59.56 81.69 55.05"/><polygon class="cls-23" points="88.87 51 104.85 66.58 97.65 70.63 81.3 55.27 88.87 51"/><polygon class="cls-24" points="96.33 46.79 112.08 62.52 104.85 66.58 88.18 51.39 96.33 46.79"/><polygon class="cls-25" points="103.52 42.73 119.28 58.47 112.08 62.52 95.68 47.15 103.52 42.73"/><polygon class="cls-26" points="110.7 38.68 126.47 54.42 119.28 58.47 102.88 43.09 110.7 38.68"/><polygon class="cls-27" points="117.89 34.62 133.67 50.38 126.47 54.42 110.08 39.03 117.89 34.62"/><polygon class="cls-28" points="125.08 30.57 140.87 46.33 133.67 50.38 117.27 34.97 125.08 30.57"/><polygon class="cls-29" points="178.06 203.55 102.69 175.02 169.19 159.75 208.38 185.28 178.06 203.55"/><path class="cls-30" d="M178.43,176.21a6.28,6.28,0,0,1,2.84-4.92,1.94,1.94,0,0,1,2.08-.14h0l1.91,1.09-4.07,6.92-1.9-1.1h0A2,2,0,0,1,178.43,176.21Z"/><path class="cls-30" d="M183.26,172.44a6.25,6.25,0,0,0-2.84,4.91c0,1.81,1.27,2.55,2.84,1.64a6.27,6.27,0,0,0,2.83-4.91C186.09,172.27,184.82,171.53,183.26,172.44Z"/><path class="cls-31" d="M184.22,175.16c0-.71-.43-1-1-.73a2.29,2.29,0,0,0-1,1.84c0,.71.43,1,1,.73A2.31,2.31,0,0,0,184.22,175.16Z"/><path class="cls-32" d="M156.76,188.6a6.28,6.28,0,0,1,2.84-4.91,1.92,1.92,0,0,1,2.08-.15h0l1.92,1.09-4.07,6.92-1.9-1.09h0A2,2,0,0,1,156.76,188.6Z"/><path class="cls-30" d="M161.59,184.83a6.28,6.28,0,0,0-2.84,4.92c0,1.81,1.27,2.54,2.84,1.64a6.28,6.28,0,0,0,2.84-4.92C164.43,184.66,163.16,183.93,161.59,184.83Z"/><path class="cls-32" d="M162.55,187.55c0-.7-.43-1-1-.72a2.29,2.29,0,0,0-1,1.83c0,.71.43,1,1,.73A2.31,2.31,0,0,0,162.55,187.55Z"/><path class="cls-30" d="M178.28,204.07a2.55,2.55,0,0,1-1.28-.34,3.11,3.11,0,0,1-1.39-2.84V181.06l-16.93,9.78a3.08,3.08,0,0,1-3.16.22,3.13,3.13,0,0,1-1.39-2.84v-23.8h2v23.8c0,.58.15,1,.42,1.16a1.32,1.32,0,0,0,1.21-.22l17.9-10.34v-4h1.94v2.83l7-4.07a7.81,7.81,0,0,1,7.15,0l15.52,9a2.84,2.84,0,0,1,0,5.25l-27.11,15.68A3.73,3.73,0,0,1,178.28,204.07Zm-.73-24.13v20.95a1,1,0,0,0,1.63.94l27.1-15.68c.5-.29.8-.64.8-.94s-.3-.66-.8-.94l-15.51-9a5.8,5.8,0,0,0-5.2,0Z"/><polygon class="cls-33" points="213.48 159.94 190.77 146.82 197 117.13 219.72 130.24 213.48 159.94"/><path class="cls-34" d="M153.87,168.13l36.9-21.31L197,117.13l-43.13,24.78Zm26.59-22.72,4.89-15.19a1.87,1.87,0,1,1,3.54,1.14L184,146.54a1.87,1.87,0,1,1-3.54-1.13Zm-10.53,5.7,4.89-15.19a1.87,1.87,0,1,1,3.54,1.14l-4.89,15.19a1.87,1.87,0,1,1-3.54-1.14Zm-10.53,5.7,4.89-15.19a1.87,1.87,0,1,1,3.53,1.14L162.94,158a1.87,1.87,0,1,1-3.54-1.14Z"/><polygon class="cls-35" points="153.87 168.13 176.58 181.24 213.48 159.94 190.77 146.82 153.87 168.13"/><path class="cls-36" d="M176.58,181.24l36.9-21.3,6.23-29.7L176.58,155Zm26.59-22.72,4.89-15.19a1.87,1.87,0,1,1,3.54,1.14l-4.89,15.19a1.87,1.87,0,1,1-3.54-1.14Zm-10.53,5.7L197.53,149a1.87,1.87,0,1,1,3.54,1.13l-4.89,15.19a1.87,1.87,0,1,1-3.54-1.14Zm-10.53,5.7L187,154.74a1.87,1.87,0,1,1,3.53,1.13l-4.88,15.19a1.87,1.87,0,1,1-3.54-1.14Z"/><polygon class="cls-37" points="153.87 141.91 176.58 155.02 176.58 181.24 153.87 168.13 153.87 141.91"/><path class="cls-32" d="M174.28,153.7l2.12,1.22-1.35-6.13a9.73,9.73,0,0,0-4.18-5.87l-14.1-8.15c-1.55-.89-2.51-.5-2.94-.18s-1.11,1.1-.74,2.85l1,4.6,2.09,1.2-1.35-6.18c-.15-.71,0-1,0-1s.36-.08,1,.29l14.1,8.14a8,8,0,0,1,3.33,4.68Z"/><polygon class="cls-32" points="176.58 155.02 153.87 141.91 153.87 143.69 176.58 156.8 176.58 155.02"/><path class="cls-32" d="M203.85,190.79a6.28,6.28,0,0,1,2.84-4.92,1.93,1.93,0,0,1,2.07-.15h0l1.92,1.1-4.07,6.91-1.9-1.09h0A2,2,0,0,1,203.85,190.79Z"/><path class="cls-30" d="M208.67,187a6.25,6.25,0,0,0-2.84,4.91c0,1.81,1.27,2.55,2.84,1.64a6.27,6.27,0,0,0,2.84-4.92C211.51,186.84,210.24,186.11,208.67,187Z"/><path class="cls-32" d="M209.63,189.74c0-.71-.43-1-1-.73a2.31,2.31,0,0,0-1,1.84c0,.71.43,1,1,.72A2.28,2.28,0,0,0,209.63,189.74Z"/><path class="cls-32" d="M182.18,203.18a6.28,6.28,0,0,1,2.84-4.92,1.94,1.94,0,0,1,2.08-.14h0l1.91,1.09-4.07,6.92L183,205h0A2,2,0,0,1,182.18,203.18Z"/><path class="cls-30" d="M187,199.41a6.27,6.27,0,0,0-2.84,4.92c0,1.81,1.27,2.54,2.84,1.63a6.25,6.25,0,0,0,2.84-4.91C189.85,199.24,188.58,198.5,187,199.41Z"/><path class="cls-32" d="M188,202.13c0-.71-.43-1-1-.72a2.28,2.28,0,0,0-1,1.83c0,.71.43,1,1,.73A2.31,2.31,0,0,0,188,202.13Z"/><polygon class="cls-38" points="152.76 208.92 127.34 188.27 116.21 198.62 143.81 213.59 152.76 208.92"/><polygon class="cls-39" points="143.05 205.48 116.5 187.84 105.36 196.63 134.03 210.31 143.05 205.48"/><path class="cls-40" d="M155.73,131.22h0a2.08,2.08,0,0,1-1-2.74l.86-1.94a2.07,2.07,0,0,1,2.73-1.05h0a2.07,2.07,0,0,1,1,2.73l-.86,1.94A2.08,2.08,0,0,1,155.73,131.22Z"/><path class="cls-41" d="M164.41,90.45c-11.95,19.5-11.15,39.67-.49,48.27,3,2.42,8.82,5.89,11.25,6.13,11.42,1.14,21.68-12.4,31.54-28.49s17.19-31.6,10.88-41.24c-1.3-2-8.15-5.92-10.39-7C194.93,62,176.36,70.94,164.41,90.45Z"/><ellipse class="cls-42" cx="192.74" cy="107.81" rx="41.42" ry="24.8" transform="translate(0.12 215.82) rotate(-58.5)"/><ellipse class="cls-43" cx="193.77" cy="108.36" rx="33.11" ry="19.83" transform="translate(0.14 216.96) rotate(-58.5)"/><path class="cls-44" d="M211.07,80.13c-3.22-2-7.16-2.28-11.32-1.24a13.11,13.11,0,0,1,8.94,1.72c9.34,5.72,9.16,23-.39,38.59-6.48,10.56-14.5,17.4-21.91,19,8.26-1.47,17.66-8.62,24.28-19.43C220.23,103.12,220.4,85.85,211.07,80.13Z"/><path class="cls-45" d="M195.45,87.53c.39-.23.7,0,.7.4v4c3.56-1.78,6.43-.28,6.79,3.56a1.53,1.53,0,0,1-.69,1.24l-3.48,2c-.31.18-.58.11-.66-.2-.23-1.11-1.21-1.48-2.36-.82l-3.1,1.79a8,8,0,0,0-3.66,5.68c-.22,2.48,1.41,3.59,3.45,2.41l2.64-1.52c4.87-2.81,8.78-.22,8.33,5.77-.37,4.62-3.45,9.74-7.16,12.59v4.09a1.52,1.52,0,0,1-.7,1.2l-3.47,2c-.39.22-.7,0-.7-.4v-4c-3.56,1.79-6.42.28-6.79-3.55a1.52,1.52,0,0,1,.7-1.25l3.48-2c.3-.18.58-.11.66.2.23,1.11,1.2,1.48,2.36.81l3.09-1.78a8,8,0,0,0,3.66-5.68c.23-2.48-1.4-3.59-3.45-2.4L192.82,113c-4.33,2.5-8.24,1.11-8.68-3.62-.44-5,2.83-11.42,7.16-14.58v-4a1.53,1.53,0,0,1,.69-1.2Z"/><path class="cls-46" d="M133.94,132c-.78,1-.37,3.64,2.55,5.75,2.51,1.8,6.07,6.21,10.65,6.28s7.08-6.79,9.2-9.88-1.29-4.53-2.09-4.36c-1.67.35-3,3.91-4.74,6.58s-2,2.46-7.14-1.6S135.41,130.19,133.94,132Z"/><path class="cls-47" d="M133.82,208.14s-.65,1.61.39,2.22,5.09-1,6.87-1.67,3.26-1.81,3-2.71c-.32-1.27-6,.14-6.79.26S134,207.65,133.82,208.14Z"/><path class="cls-40" d="M133.62,184s.12,23.74.47,24.44,2.14.39,3.15.12,3.51-1.29,3.75-2.23-3.14-.06-3.39-.25.82-23.2.82-23.2S133.75,180.75,133.62,184Z"/><path class="cls-48" d="M143.38,211.43s-.66,1.61.39,2.22,5.08-1,6.86-1.67,2.77-1.68,2.64-2.6c-.22-1.5-5.6,0-6.38.15S143.54,210.94,143.38,211.43Z"/><path class="cls-40" d="M143.17,187.24s.12,23.74.47,24.44,2.15.39,3.16.12,3.51-1.29,3.74-2.23-3.13-.07-3.39-.25.82-23.2.82-23.2S143.31,184,143.17,187.24Z"/><path class="cls-49" d="M129.82,172.36c.4-3.48,1-11,1.55-14.66s3.81-8,3.81-8c4.33-.69,13,4.36,13,4.36a39.11,39.11,0,0,1,2.77,8.14c1,4.68,2.81,29.89,2.81,30.58s-4.33,2.43-4.33,2.43c-6.58,1.73-14.38-3.64-16.11-4.68,0,0-4.13-2.3-4.54-3.35S129.34,176.54,129.82,172.36Z"/><path class="cls-50" d="M134,151.77s-1.56,1.94-1,2.84c.73,1.11,4.26,3.76,9,4.22,3.84.36,7.28-1.87,6.69-3.48C145.94,147.72,137,155.25,134,151.77Z"/><path class="cls-51" d="M131.81,133.67s-2.92,2.92-1.08,9.51c0,0,1.16,3,2.42,6.42.95,2.56.61,3.49.61,3.49a7.4,7.4,0,0,0,3.25,2.58c2.45,1.16,6.38,2.31,8.75,1.77s3.19-.89,3.12-2.17a32.55,32.55,0,0,1-.06-5.44c.2-3.26.54-6.72-.07-8.62s-4.07-6.78-7.59-7.52C141.16,133.69,137,138.34,131.81,133.67Z"/><path class="cls-52" d="M132.67,148.43s3.4,3.65,9.66-2.47l.8-1.89-10.66,3.45Z"/><path class="cls-53" d="M133.76,132.06s-1.74.58-1.95,1.61,1.27,1.58,2.16,1.78,5.29.88,7.66-1.76S136.2,131,133.76,132.06Z"/><path class="cls-54" d="M144.13,130c-.6,3.46-3,4.67-5.34,2.71s-3.77-6.36-3.17-9.82,3-4.67,5.35-2.71S144.74,126.51,144.13,130Z"/><path class="cls-55" d="M140.62,139.07l-.37,0a2.29,2.29,0,0,1-2-2.52l.8-7a2.28,2.28,0,0,1,2.52-2l.37,0a2.28,2.28,0,0,1,2,2.52l.23,6.85C144,138.14,141.86,139.21,140.62,139.07Z"/><path class="cls-40" d="M147.56,128.53c-.61,3.46-4.07,5.06-6.42,3.09s-3.77-6.36-3.17-9.82,3-4.67,5.35-2.71S148.16,125.07,147.56,128.53Z"/><path class="cls-40" d="M140.45,139.09l-.36-.05a2.28,2.28,0,0,1-2-2.51l.79-7a2.29,2.29,0,0,1,2.52-2l.37,0a2.28,2.28,0,0,1,2,2.51l.22,6.86C143.85,138.16,141.7,139.23,140.45,139.09Z"/><path class="cls-40" d="M145.56,127.36a1.54,1.54,0,1,1-1.26-1.79A1.54,1.54,0,0,1,145.56,127.36Z"/><path class="cls-40" d="M164.74,138h0a2.07,2.07,0,0,1-.71-2.84l1.09-1.82a2.1,2.1,0,0,1,2.85-.71h0a2.09,2.09,0,0,1,.7,2.85l-1.09,1.81A2.07,2.07,0,0,1,164.74,138Z"/><path class="cls-56" d="M143.28,139.33c-.78,1-.37,3.64,2.56,5.75,2.51,1.81,6.07,6.22,10.65,6.29s7.08-6.79,9.2-9.89-1.3-4.92-2.1-4.76c-1.67.36-3,4.32-4.73,7s-2,2.46-7.14-1.6S144.76,137.48,143.28,139.33Z"/><path class="cls-57" d="M143.27,115.24s-7-1.57-9.62,4.18-1.72,9.5-2.7,12.94c-2,7-3.13,8.78-1.77,11.94.44,1,1.7,3,3.3,3.49,3.43,1,8,.72,10.06-2.28,3.05-4.41.53-11.49,1.48-15.84s2.58-4.21,3.63-5.89S150,117.6,143.27,115.24Z"/></svg>