<svg id="Layer_1" data-name="Layer 1" xmlns="http://www.w3.org/2000/svg" xmlns:xlink="http://www.w3.org/1999/xlink" viewBox="0 0 240 240"><defs><style>.cls-1{fill:url(#linear-gradient);}.cls-2{fill:url(#linear-gradient-2);}.cls-3{fill:url(#linear-gradient-3);}.cls-4{fill:#d8d8d8;opacity:0.7;}.cls-5,.cls-6{fill:#cadfe3;}.cls-5{opacity:0.5;}.cls-6,.cls-7{opacity:0.8;}.cls-7{fill:#c0d7e7;}.cls-8{fill:#d3e7ea;}.cls-9{isolation:isolate;}.cls-10{fill:#48abff;}.cls-11{fill:#00b3ff;}.cls-12{fill:#5d5df3;}.cls-13{fill:#fff;}.cls-14{fill:#f9d84e;}.cls-15{fill:#faa61a;}.cls-16{fill:#f89a3e;}.cls-17{fill:#fc7085;}.cls-18{fill:#4160a3;}.cls-19{fill:#5ad8fc;}.cls-20{fill:#2850ca;}.cls-21{fill:url(#linear-gradient-4);}.cls-22{fill:url(#linear-gradient-5);}.cls-23{fill:#b4c4cc;}.cls-24{fill:#9fb4bc;}.cls-25{fill:url(#linear-gradient-6);}.cls-26{fill:url(#linear-gradient-7);}.cls-27{fill:url(#linear-gradient-8);}.cls-28{fill:url(#linear-gradient-9);}.cls-29{fill:url(#linear-gradient-10);}.cls-30{fill:url(#linear-gradient-11);}.cls-31{fill:url(#linear-gradient-12);}.cls-32{fill:url(#linear-gradient-13);}.cls-33{fill:url(#linear-gradient-14);}.cls-34{fill:#e5a394;}.cls-35{fill:url(#linear-gradient-15);}.cls-36{fill:url(#linear-gradient-16);}.cls-37{fill:url(#linear-gradient-17);}.cls-38{fill:url(#linear-gradient-18);}.cls-39{fill:#0f2386;}.cls-40{fill:url(#linear-gradient-19);}.cls-41{fill:#9c0165;}.cls-42{fill:url(#linear-gradient-20);}.cls-43{fill:#cc8e83;}.cls-44{fill:#fabdab;}.cls-45{fill:#14249a;}.cls-46{fill:url(#linear-gradient-21);}.cls-47{fill:#353535;}.cls-48{fill:url(#linear-gradient-22);}.cls-49{fill:url(#linear-gradient-23);}.cls-50{fill:url(#linear-gradient-24);}.cls-51{fill:url(#linear-gradient-25);}.cls-52{fill:url(#linear-gradient-26);}</style><linearGradient id="linear-gradient" x1="99.79" y1="177.11" x2="79.51" y2="141.53" gradientUnits="userSpaceOnUse"><stop offset="0" stop-color="#6c68e6" stop-opacity="0.4"/><stop offset="0.19" stop-color="#5a74e4" stop-opacity="0.33"/><stop offset="0.55" stop-color="#2a95df" stop-opacity="0.16"/><stop offset="0.82" stop-color="#00b1db" stop-opacity="0"/></linearGradient><linearGradient id="linear-gradient-2" x1="93.8" y1="173.24" x2="154.4" y2="41.03" gradientUnits="userSpaceOnUse"><stop offset="0" stop-color="#131b69"/><stop offset="0.18" stop-color="#131f57"/><stop offset="0.44" stop-color="#132344"/><stop offset="0.71" stop-color="#132539"/><stop offset="1" stop-color="#132635"/></linearGradient><linearGradient id="linear-gradient-3" x1="127.47" y1="188.05" x2="108.36" y2="-48.12" gradientUnits="userSpaceOnUse"><stop offset="0" stop-color="#2d4371"/><stop offset="0.12" stop-color="#2c4575"/><stop offset="0.23" stop-color="#274d80"/><stop offset="0.34" stop-color="#205993"/><stop offset="0.44" stop-color="#166aad"/><stop offset="0.46" stop-color="#146eb3"/></linearGradient><linearGradient id="linear-gradient-4" x1="644.65" y1="-675.7" x2="673.06" y2="-675.7" gradientTransform="matrix(0.46, 0.9, 0.89, -0.45, 476.05, -682.13)" gradientUnits="userSpaceOnUse"><stop offset="0.35" stop-color="#00b0da" stop-opacity="0"/><stop offset="0.78" stop-color="#6c68e5" stop-opacity="0.2"/></linearGradient><linearGradient id="linear-gradient-5" x1="617.28" y1="-669.15" x2="650.06" y2="-669.15" gradientTransform="matrix(0.51, 0.86, 0.86, -0.51, 457.08, -678.62)" xlink:href="#linear-gradient-4"/><linearGradient id="linear-gradient-6" x1="157.35" y1="105.22" x2="173.24" y2="105.22" gradientUnits="userSpaceOnUse"><stop offset="0" stop-color="#e47200"/><stop offset="1" stop-color="#e80"/></linearGradient><linearGradient id="linear-gradient-7" x1="158.43" y1="106.3" x2="174.28" y2="106.3" gradientUnits="userSpaceOnUse"><stop offset="0" stop-color="#cf5800"/><stop offset="1" stop-color="#e47700"/></linearGradient><linearGradient id="linear-gradient-8" x1="166.97" y1="115.68" x2="175.29" y2="100.16" gradientUnits="userSpaceOnUse"><stop offset="0" stop-color="#ff9a00"/><stop offset="0.16" stop-color="#fcb300"/><stop offset="0.33" stop-color="#fac500"/><stop offset="0.45" stop-color="#f9cb00"/><stop offset="0.8" stop-color="#fcc600"/><stop offset="1" stop-color="#ffc000"/></linearGradient><linearGradient id="linear-gradient-9" x1="170.35" y1="113.68" x2="179.91" y2="113.68" gradientUnits="userSpaceOnUse"><stop offset="0" stop-color="#e80"/><stop offset="1" stop-color="#ffa700"/></linearGradient><linearGradient id="linear-gradient-10" x1="171.93" y1="116.6" x2="184.58" y2="116.6" xlink:href="#linear-gradient-7"/><linearGradient id="linear-gradient-11" x1="175.21" y1="118.33" x2="185.35" y2="118.33" gradientUnits="userSpaceOnUse"><stop offset="0" stop-color="#e47200"/><stop offset="1" stop-color="#ee7900"/></linearGradient><linearGradient id="linear-gradient-12" x1="177.92" y1="118.57" x2="183.87" y2="118.57" gradientUnits="userSpaceOnUse"><stop offset="0" stop-color="#ff9a00"/><stop offset="0.16" stop-color="#fcb300"/><stop offset="0.33" stop-color="#fac500"/><stop offset="0.45" stop-color="#f9cb00"/><stop offset="0.6" stop-color="#fac600"/><stop offset="0.77" stop-color="#fbb800"/><stop offset="0.96" stop-color="#fea000"/><stop offset="1" stop-color="#ff9a00"/></linearGradient><linearGradient id="linear-gradient-13" x1="178.13" y1="117.86" x2="182.18" y2="117.86" xlink:href="#linear-gradient-7"/><linearGradient id="linear-gradient-14" x1="179.35" y1="118.57" x2="182.44" y2="118.57" xlink:href="#linear-gradient-6"/><linearGradient id="linear-gradient-15" x1="-1652.57" y1="131.61" x2="-1623.5" y2="131.61" gradientTransform="translate(1861.23)" gradientUnits="userSpaceOnUse"><stop offset="0" stop-color="#f57e64"/><stop offset="0.48" stop-color="#f91274"/><stop offset="1" stop-color="#9c0165"/></linearGradient><linearGradient id="linear-gradient-16" x1="-1685.82" y1="221.61" x2="-1674.74" y2="220.6" gradientTransform="translate(1870.36)" gradientUnits="userSpaceOnUse"><stop offset="0.08" stop-color="#14249a"/><stop offset="0.39" stop-color="#254ab3"/><stop offset="0.67" stop-color="#3267c6"/><stop offset="0.84" stop-color="#3772cd"/><stop offset="0.87" stop-color="#336ac8"/><stop offset="0.92" stop-color="#2a55ba"/><stop offset="0.98" stop-color="#1a32a3"/><stop offset="1" stop-color="#14249a"/></linearGradient><linearGradient id="linear-gradient-17" x1="-1657.16" y1="212.52" x2="-1651.9" y2="212.52" gradientTransform="translate(1870.36)" gradientUnits="userSpaceOnUse"><stop offset="0.2" stop-color="#14249a"/><stop offset="0.53" stop-color="#254ab3"/><stop offset="0.83" stop-color="#3267c6"/><stop offset="1" stop-color="#3772cd"/></linearGradient><linearGradient id="linear-gradient-18" x1="543.32" y1="177.61" x2="573.2" y2="179.02" gradientTransform="matrix(-1, 0, 0, 1, 750.81, 0)" gradientUnits="userSpaceOnUse"><stop offset="0" stop-color="#3772cd"/><stop offset="0.15" stop-color="#3267c6"/><stop offset="0.42" stop-color="#254ab3"/><stop offset="0.71" stop-color="#14249a"/></linearGradient><linearGradient id="linear-gradient-19" x1="543.76" y1="149.03" x2="564.27" y2="149.03" gradientTransform="matrix(-1, 0, 0, 1, 750.81, 0)" xlink:href="#linear-gradient-15"/><linearGradient id="linear-gradient-20" x1="545.56" y1="135.97" x2="556.68" y2="135.97" gradientTransform="matrix(-1, 0, 0, 1, 750.81, 0)" gradientUnits="userSpaceOnUse"><stop offset="0" stop-color="#9b0165"/><stop offset="0.52" stop-color="#f81274"/><stop offset="1" stop-color="#f47e64"/></linearGradient><linearGradient id="linear-gradient-21" x1="-474.57" y1="160.14" x2="-452.95" y2="148.61" gradientTransform="matrix(-0.96, 0.29, 0.29, 0.96, -307.35, 122.04)" gradientUnits="userSpaceOnUse"><stop offset="0" stop-color="#f47e64"/><stop offset="0.48" stop-color="#f81274"/><stop offset="1" stop-color="#9b0165"/></linearGradient><linearGradient id="linear-gradient-22" x1="414.44" y1="115.92" x2="428.17" y2="115.92" gradientTransform="matrix(-1, 0, 0, 1, 628.44, 0)" xlink:href="#linear-gradient-20"/><linearGradient id="linear-gradient-23" x1="418.8" y1="111.4" x2="421.73" y2="111.4" gradientTransform="matrix(-1, 0, 0, 1, 628.44, 0)" gradientUnits="userSpaceOnUse"><stop offset="0" stop-color="#f2cebd"/><stop offset="0.87" stop-color="#fee7e1"/></linearGradient><linearGradient id="linear-gradient-24" x1="420.03" y1="114.38" x2="424.71" y2="114.38" xlink:href="#linear-gradient-23"/><linearGradient id="linear-gradient-25" x1="421.36" y1="117.52" x2="427.92" y2="117.52" xlink:href="#linear-gradient-23"/><linearGradient id="linear-gradient-26" x1="423.83" y1="119.06" x2="431.29" y2="119.06" xlink:href="#linear-gradient-23"/></defs><polygon class="cls-1" points="59.32 203.32 -10.78 176.68 126.19 94.92 184.29 131.81 59.32 203.32"/><path class="cls-2" d="M54.41,109.68v89.13a3.45,3.45,0,0,0,1.42,2.8c1.05.77,3.9,2.62,5.19,1.88l119.56-71.66a6.94,6.94,0,0,0,3.48-6l2.17-88.37c0-1.47-3-2.67-4.21-3.2a3.44,3.44,0,0,0-3.16.14L57.92,103.64A6.94,6.94,0,0,0,54.41,109.68Z"/><path class="cls-3" d="M57.1,111.1v89.13a3.48,3.48,0,0,0,5.22,3l121-70a7,7,0,0,0,3.48-6V38.82a3.48,3.48,0,0,0-5.21-3L60.61,105.06A7,7,0,0,0,57.1,111.1Z"/><polygon class="cls-4" points="79.91 140.96 79.98 145.84 75.85 148.22 75.84 143.31 79.91 140.96"/><path class="cls-4" d="M80.09,146.38l2,3.19L77.77,152c-1,.6-1.91.12-1.91-1.09v-2.12Z"/><path class="cls-5" d="M91.72,150.76c.34-.19.61,0,.61.36v1.54a1.36,1.36,0,0,1-.61,1.07l-15.22,8.78c-.34.2-.62.05-.62-.35v-1.54a1.36,1.36,0,0,1,.62-1.07Z"/><path class="cls-5" d="M112.66,138.67c.35-.19.62,0,.62.36v1.54a1.37,1.37,0,0,1-.62,1.07l-15.21,8.78c-.34.2-.62,0-.63-.35v-1.54a1.37,1.37,0,0,1,.62-1.07Z"/><path class="cls-5" d="M133.61,126.58c.34-.2.62,0,.62.35v1.54a1.35,1.35,0,0,1-.62,1.07l-15.22,8.79c-.33.19-.62,0-.62-.36v-1.54a1.38,1.38,0,0,1,.62-1.07Z"/><path class="cls-5" d="M154.35,114.61c.34-.2.62,0,.62.35v1.54a1.36,1.36,0,0,1-.61,1.07l-15.22,8.79c-.34.19-.61,0-.61-.36v-1.54a1.37,1.37,0,0,1,.61-1.07Z"/><path class="cls-6" d="M85.18,174.51c.45-.26.81,0,.81.46v1.61a1.79,1.79,0,0,1-.81,1.41L67.88,188c-.44.26-.82.06-.82-.46V185.9a1.82,1.82,0,0,1,.81-1.4Z"/><path class="cls-7" d="M173.19,121c.49-.28.9-.06.91.51v4.07a2,2,0,0,1-.91,1.56L159,135.41c-.5.29-.91.06-.91-.51v-4.07a2,2,0,0,1,.9-1.56Z"/><path class="cls-8" d="M73.69,121l0-4.28,1-.58v4.44c0,.08,0,.27-.42.53l0,0-.09,0c-.18.1-.47.24-.47,0V121Z"/><g class="cls-9"><path class="cls-8" d="M71.87,122l0-4.27,1-.58v4.44c0,.08,0,.26-.41.52l-.06,0-.09.06c-.18.1-.47.24-.47,0V122Z"/><path class="cls-8" d="M70.05,123v-4.27l1-.59v4.45c0,.08,0,.26-.41.52l0,0-.1.06c-.17.1-.46.23-.46,0V123Z"/><path class="cls-8" d="M67.12,119.24l.13-.07,0,0,1-.55,1-.58.8-.45,1-.59.79-.45,1-.59.79-.45,1-.58,1-.56.14-.07c.23-.14.26.18.26.39v.11c0,.19,0,.54-.25.67l-1.13.64-1,.58-.8.46-1,.58-.8.45-1,.59-.79.45-1,.58-1,.57-.12.07c-.08,0-.23.13-.25-.34v-.17C66.88,119.72,66.9,119.37,67.12,119.24Z"/></g><path class="cls-8" d="M74.29,110.44c.18-.1.46-.23.46,0v4.44l-1,.58,0-4.27v-.17c0-.26.29-.45.46-.55Z"/><path class="cls-8" d="M68.83,113.55c.17-.1.46-.24.46,0l0,4.44-1,.58v-4.44c0-.24.24-.43.42-.53l0,0Z"/><path class="cls-8" d="M68.23,124.06v-4.28l1-.58,0,4.3v.14c0,.08,0,.27-.41.53l0,0-.1,0c-.17.1-.46.24-.46,0v-.16Z"/><path class="cls-8" d="M70.65,112.51c.17-.1.46-.24.46,0V117l-1,.59v-4.45c0-.24.24-.42.42-.53l0,0Z"/><path class="cls-8" d="M72.47,111.48c.17-.1.46-.24.46,0v4.44l-1,.59,0-4.27v-.17c0-.25.24-.43.42-.53l0,0Z"/><path class="cls-8" d="M88.85,102.93c2.45-1.39,3.54-.62,3.53,2.5s-1.16,5.22-3.51,6.57l-.12.06c-2.34,1.31-3.48.47-3.47-2.59s1.1-5.11,3.53-6.52Zm1.94,3.39c0-2.3-.51-2.86-1.93-2.06l0,0h0c-1.39.81-1.92,2-1.93,4.26s.54,2.93,2,2.13h0c1.4-.8,2-2,2-4.35"/><path class="cls-8" d="M79,108.62c.39-.22.64-.3.74-.23s.08.14.08.21l0,5.35c0,.87,0,1.06.33,1.18s.79-.11,1.17-.33a3.35,3.35,0,0,0,1.17-1c.35-.52.35-.71.35-1.6l0-4.4v-.92a.55.55,0,0,1,.07-.3,2.12,2.12,0,0,1,.74-.62c.38-.22.64-.3.75-.23a.24.24,0,0,1,.07.21l0,5.1a5,5,0,0,1-.84,3.27,6.39,6.39,0,0,1-2.22,1.89l-.06,0-.07,0c-1.09.63-1.77.82-2.26.67-.72-.23-.84-.9-.83-2.32l0-5.08a.55.55,0,0,1,.07-.31A2,2,0,0,1,79,108.62Z"/><path class="cls-8" d="M98.89,101.84c.44.11.68.62.68,1.46a4.36,4.36,0,0,1-.72,2.41A5.29,5.29,0,0,1,97,107.26l-.19.11-3.31,1.88c-.15.08-.26,0-.26-.15l0-8.26a.62.62,0,0,1,.25-.44l3.18-1.8c.95-.55,1.44-.7,1.84-.59s.61.94.62,1.39a3.08,3.08,0,0,1-.88,2.32l-.14.15.14,0A1.48,1.48,0,0,1,98.89,101.84Zm-2.27,4.36a2,2,0,0,0,1.31-2.07c0-.83-.2-1.23-1.23-.64l-1.86,1.06v2.66l1.73-1,.05,0m-1.76-5.34v2.43l1.64-.94h0a1.92,1.92,0,0,0,1.09-1.81c0-.69-.08-1.19-1-.67l-1.76,1"/><polygon class="cls-4" points="86.09 132.33 88.16 135.97 88.11 141.43 86.09 147.23 82.7 149.19 80.67 145.73 80.58 140.34 82.63 134.33 86.09 132.33"/><path class="cls-4" d="M91,129.49c1.06-.61,1.92-.13,1.92,1.08l0,10.51a4.21,4.21,0,0,1-1.9,3.29l-4.3,2.48,1.95-5.44L92.93,139v-.61l-4.17,2.41.07-5,4.09-2.36v-.6l-4.22,2.43L86.76,132Z"/><path class="cls-4" d="M82,134.71,80,140.3l-4.17,2.41v-2.27a4.16,4.16,0,0,1,1.9-3.28Z"/><path class="cls-10" d="M108,50.78a1.07,1.07,0,0,0,.84.12,6.49,6.49,0,0,1,7,2.51,1,1,0,1,0,1.71-1.15,8.48,8.48,0,0,0-9.29-3.34,1,1,0,0,0-.25,1.86Z"/><path class="cls-11" d="M127.25,50.66a1,1,0,0,0,.84-.9l.84-7a1,1,0,1,0-2.05-.25l-.84,7a1,1,0,0,0,.9,1.15A1.06,1.06,0,0,0,127.25,50.66Z"/><path class="cls-12" d="M117.25,41.92a1,1,0,0,0,.07.5l1,2.36a1,1,0,0,0,1.92-.78l-1-2.35a1,1,0,0,0-2,.27Z"/><path class="cls-13" d="M64,138.85l.43-.21a.58.58,0,0,0-.28-1.1l-.48,0a3,3,0,0,1-2.85-1.69l-.21-.43a.57.57,0,0,0-1.09.28l0,.48a3,3,0,0,1-1.69,2.85l-.43.2a.58.58,0,0,0,.28,1.1l.48,0A3,3,0,0,1,61.07,142l.2.43a.58.58,0,0,0,1.1-.28l0-.48A3,3,0,0,1,64,138.85Z"/><path class="cls-13" d="M185.49,49.78l.34-.07a.42.42,0,0,0,0-.82l-.34-.07a2.16,2.16,0,0,1-1.69-1.7l-.07-.34a.42.42,0,0,0-.83,0l-.06.34a2.18,2.18,0,0,1-1.7,1.7l-.34.07a.42.42,0,0,0,0,.82l.34.07a2.18,2.18,0,0,1,1.7,1.7l.06.34a.43.43,0,0,0,.83,0l.07-.34A2.16,2.16,0,0,1,185.49,49.78Z"/><path class="cls-14" d="M181.94,70.34l.41-.08a.51.51,0,0,0,0-1l-.41-.08a2.62,2.62,0,0,1-2.05-2.05l-.08-.4a.5.5,0,0,0-1,0l-.09.4a2.61,2.61,0,0,1-2,2.05l-.41.08a.51.51,0,0,0,0,1l.41.08a2.61,2.61,0,0,1,2,2l.09.41a.5.5,0,0,0,1,0l.08-.41A2.62,2.62,0,0,1,181.94,70.34Z"/><path class="cls-15" d="M201.67,67.31l.34-.07a.42.42,0,0,0,0-.82l-.34-.07a2.2,2.2,0,0,1-1.7-1.7l-.06-.34a.42.42,0,0,0-.83,0l-.07.34a2.17,2.17,0,0,1-1.69,1.7l-.34.07a.42.42,0,0,0,0,.82l.34.07A2.16,2.16,0,0,1,199,69l.07.34a.43.43,0,0,0,.83,0L200,69A2.18,2.18,0,0,1,201.67,67.31Z"/><path class="cls-15" d="M70.48,159.42l.36-.07a.44.44,0,0,0,0-.87l-.36-.07a2.31,2.31,0,0,1-1.8-1.8l-.07-.36a.44.44,0,0,0-.87,0l-.07.36a2.31,2.31,0,0,1-1.8,1.8l-.36.07a.44.44,0,0,0,0,.87l.36.07a2.3,2.3,0,0,1,1.8,1.8l.07.35a.44.44,0,0,0,.87,0l.07-.35A2.3,2.3,0,0,1,70.48,159.42Z"/><path class="cls-14" d="M36.64,168.4l1.39,0a.61.61,0,0,0,.25-1.16L37,166.7a3.39,3.39,0,0,1-2-3.17v-1.39a.61.61,0,0,0-1.16-.25l-.55,1.28a3.43,3.43,0,0,1-3.17,2.06l-1.4,0a.6.6,0,0,0-.24,1.16l1.28.56a3.4,3.4,0,0,1,2.05,3.16v1.4a.6.6,0,0,0,1.15.25l.56-1.28A3.43,3.43,0,0,1,36.64,168.4Z"/><path class="cls-15" d="M40.22,86.37l.55,1.06a.52.52,0,0,0,1-.28L41.65,86a2.94,2.94,0,0,1,1.57-2.83l1.06-.54a.52.52,0,0,0-.27-1l-1.19.1A2.92,2.92,0,0,1,40,80.14l-.55-1a.51.51,0,0,0-1,.27l.09,1.19A2.93,2.93,0,0,1,37,83.37l-1.06.55a.51.51,0,0,0,.27,1l1.19-.09A2.92,2.92,0,0,1,40.22,86.37Z"/><path class="cls-14" d="M214.06,29.33l1.2,0a.52.52,0,0,0,.21-1l-1.1-.48a2.93,2.93,0,0,1-1.76-2.72V24a.52.52,0,0,0-1-.21l-.48,1.09a2.94,2.94,0,0,1-2.72,1.77l-1.2,0a.52.52,0,0,0-.21,1l1.1.48a2.92,2.92,0,0,1,1.76,2.72V32a.52.52,0,0,0,1,.21l.48-1.09A2.94,2.94,0,0,1,214.06,29.33Z"/><path class="cls-13" d="M53.17,100.33l1.32-.27a.58.58,0,0,0,0-1.14l-1.32-.27a3.31,3.31,0,0,1-2.58-2.58l-.26-1.32a.59.59,0,0,0-1.15,0l-.27,1.32a3.29,3.29,0,0,1-2.58,2.58L45,98.92a.58.58,0,0,0,0,1.14l1.32.27a3.29,3.29,0,0,1,2.58,2.58l.27,1.32a.59.59,0,0,0,1.15,0l.26-1.32A3.31,3.31,0,0,1,53.17,100.33Z"/><path class="cls-16" d="M34.17,116.58h0a1.53,1.53,0,0,0,1.89,1l4.27-.48a1.53,1.53,0,0,0,1.33-1.69h0a1.54,1.54,0,0,0-1.9-1l-4.26.48A1.53,1.53,0,0,0,34.17,116.58Z"/><path class="cls-11" d="M150.39,33.09v0a1.54,1.54,0,0,1-1.53-1.56l0-5.08a1.56,1.56,0,0,1,1.57-1.54h0A1.56,1.56,0,0,1,152,26.46l0,5.09A1.57,1.57,0,0,1,150.39,33.09Z"/><circle class="cls-11" cx="95.46" cy="70.43" r="2.88"/><circle class="cls-12" cx="168.02" cy="12.92" r="2.25" transform="translate(1.82 40.79) rotate(-13.92)"/><path class="cls-11" d="M71.68,63.79h0a1.11,1.11,0,0,0-.31,1.52l2.64,4a1.11,1.11,0,0,0,1.52.31h0a1.09,1.09,0,0,0,.31-1.52l-2.64-4A1.1,1.1,0,0,0,71.68,63.79Z"/><path class="cls-16" d="M85.54,55.41h0a1.11,1.11,0,0,0-1.16,1l-.25,4.8a1.1,1.1,0,0,0,1,1.15h0a1.1,1.1,0,0,0,1.15-1l.25-4.79A1.09,1.09,0,0,0,85.54,55.41Z"/><path class="cls-16" d="M195,53.36h0a1.1,1.1,0,0,1-.45-1.48l2.27-4.24a1.1,1.1,0,0,1,1.48-.45h0a1.09,1.09,0,0,1,.45,1.48l-2.26,4.24A1.1,1.1,0,0,1,195,53.36Z"/><path class="cls-11" d="M184.67,100.39h0a1.09,1.09,0,0,1-.45-1.48l2.26-4.24a1.1,1.1,0,0,1,1.49-.45h0a1.1,1.1,0,0,1,.45,1.48l-2.27,4.24A1.09,1.09,0,0,1,184.67,100.39Z"/><circle class="cls-17" cx="185.94" cy="23.5" r="2.02"/><circle class="cls-17" cx="195.66" cy="80.08" r="2.02" transform="translate(-13.28 112.3) rotate(-31.02)"/><circle class="cls-12" cx="47.23" cy="128.84" r="2.14" transform="translate(-1.57 0.59) rotate(-0.7)"/><circle class="cls-18" cx="163.68" cy="29.04" r="2.02" transform="translate(8.57 88.83) rotate(-31.14)"/><path class="cls-10" d="M72.67,83a1.08,1.08,0,0,1-.76-.47,6.82,6.82,0,0,0-7.4-2.6,1.09,1.09,0,0,1-.64-2.09,9,9,0,0,1,9.85,3.46,1.1,1.1,0,0,1-.29,1.52A1.15,1.15,0,0,1,72.67,83Z"/><path class="cls-15" d="M55.85,184.88a1.06,1.06,0,0,1-.52-.21L53,183a1.15,1.15,0,1,1,1.35-1.87l2.3,1.66a1.15,1.15,0,0,1-.82,2.08Z"/><circle class="cls-17" cx="212.45" cy="51.4" r="2.36" transform="translate(32.09 174.89) rotate(-48)"/><circle class="cls-19" cx="63.58" cy="170.69" r="2.02" transform="translate(-78.99 57.33) rotate(-31.08)"/><path class="cls-10" d="M36.65,144.26a1.16,1.16,0,0,1-.56.09l-2.83-.27a1.15,1.15,0,1,1,.22-2.29l2.83.26a1.15,1.15,0,0,1,.34,2.21Z"/><circle class="cls-20" cx="143.22" cy="43.23" r="1.89"/><polygon class="cls-21" points="191.41 220.51 168.95 201.76 156.61 210.62 186.71 224.83 191.41 220.51"/><polygon class="cls-22" points="216.89 213.16 192.77 192.69 186.74 202.24 214.92 217.7 216.89 213.16"/><path class="cls-23" d="M173.55,116.63l.12,9.38a10.33,10.33,0,0,0,2.08,1.7l-.12-9.24Z"/><path class="cls-24" d="M175.63,118.47l.12,9.24a5.3,5.3,0,0,0,2.18-.55l-.12-9.43Z"/><path class="cls-25" d="M173.21,99l-1.12-1c-1.09-1.16-2.92-1.52-5.21-.74a15.64,15.64,0,0,0-9.36,10.66c-.43,2.13,0,3.78,1,4.77l.94,1a11.78,11.78,0,0,0,4.18-.33A15.69,15.69,0,0,0,173,102.6,16.19,16.19,0,0,0,173.21,99Z"/><path class="cls-26" d="M174.11,103.67c.89-4.43-1.87-6.85-6.15-5.4a15.69,15.69,0,0,0-9.36,10.65c-.89,4.44,1.87,6.86,6.15,5.41A15.66,15.66,0,0,0,174.11,103.67Z"/><path class="cls-27" d="M178.14,108.65h0l-.11-.1h0l-5-8.37h0c-.9-1.46-2.76-2-5.16-1.18a14.2,14.2,0,0,0-8.51,9.68c-.51,2.54.3,4.35,1.93,5h0l9.07,3.62,3.76,3.32,3.17-4.78,4-4.51Z"/><path class="cls-28" d="M179.9,111.53c.19-1.85-1.73-3.1-3.54-2.67a9,9,0,0,0-5.93,6.42c-.46,2.47,1.13,3.86,3.52,3.09C176.62,117.5,179.6,114.26,179.9,111.53Z"/><path class="cls-29" d="M184.58,113.56l-3.52-3a3.24,3.24,0,0,0-3.05-.22,10,10,0,0,0-6,6.8,3.22,3.22,0,0,0,.61,3l3.48,3.1Z"/><path class="cls-30" d="M185.25,116.64c.56-2.83-1.2-4.38-3.93-3.45a10.09,10.09,0,0,0-6,6.84c-.57,2.83,1.19,4.38,3.92,3.45A10.1,10.1,0,0,0,185.25,116.64Z"/><path class="cls-31" d="M183.47,115.64a1.42,1.42,0,0,0-1.13-.26,2.87,2.87,0,0,0-.6.14A6.37,6.37,0,0,0,178,119.8a3.29,3.29,0,0,0-.06.6,1.4,1.4,0,0,0,.41,1.09,1.73,1.73,0,0,0,1.72.12,5.9,5.9,0,0,0,2.39-1.69,5.79,5.79,0,0,0,1.37-2.59A1.75,1.75,0,0,0,183.47,115.64Z"/><path class="cls-32" d="M178.13,119.22l1.47.79,2.58-2.94-1-1.36-.35.2a6.39,6.39,0,0,0-1.51,1.28l0,0a6.44,6.44,0,0,0-1,1.61C178.22,119,178.17,119.1,178.13,119.22Z"/><path class="cls-33" d="M182.41,118.05c.17-.86-.36-1.34-1.2-1a3,3,0,0,0-1.83,2.08c-.17.86.37,1.34,1.2,1A3,3,0,0,0,182.41,118.05Z"/><path class="cls-34" d="M222.35,122.17h0a2.24,2.24,0,0,1-1.18-2.93l.9-2.11A2.23,2.23,0,0,1,225,116h0a2.24,2.24,0,0,1,1.19,2.93l-.9,2.11A2.24,2.24,0,0,1,222.35,122.17Z"/><path class="cls-35" d="M195.79,140.8c.05,1.36,2.41,2.67,6.22,1.82a36.75,36.75,0,0,0,13.58-6.56c3.8-3.16,8-8.08,9.1-12s-4.19-4.13-4.82-3.53-2,2.74-4.16,5.41-5.33,7-12.31,9.23S195.7,138.25,195.79,140.8Z"/><path class="cls-36" d="M190.63,217.89l-2,2.71c-1.95,1.47-3.44.74-4.17,2.12V223c0,1.14,1,1.45,2.43,1.66s6.77-2.43,6.77-2.43a3.14,3.14,0,0,0,1.27-3.33,2,2,0,0,0-2.3-1.14C191.48,217.92,191.53,217.34,190.63,217.89Z"/><path class="cls-34" d="M189,220a3.74,3.74,0,0,0,1.1-2.79c-1.94-22.31-1.91-40.61-4.21-48.56l11.34,2.78c-2.87,19.48-4.43,28-3,45.8,0,0,.05,1.06.05,1.06a1.21,1.21,0,0,1-.68,1.1v0s-5.47,3.53-6.19,2.26A14.83,14.83,0,0,1,189,220Z"/><path class="cls-37" d="M213.2,209.56l.64,3.23c-.25,2.39-.63,3.59.21,4.34l.23.21c.84.75,1.44.37,2-1l2.11-5.76a3.17,3.17,0,0,0-1.44-3.25s-.63-.36-2.45.65C213.48,208.6,213.41,208.54,213.2,209.56Z"/><path class="cls-34" d="M193.17,163.51l10.65,4.16c3.77,18.5,2.51,22.12,10.78,37.85h0l1.39,1.94c0,.2-.69.68-.67,1.06a11.13,11.13,0,0,1-.63,4c-.88,2.55-1,1.18-1,.47a18.35,18.35,0,0,0-.49-2.77l-2.37-3.73C201.32,191.61,196.62,178,193.17,163.51Z"/><path class="cls-38" d="M201.43,153.47s3.56,4.68,4.12,8.61,1.11,12.1,1.68,15.84,4,8.79,4,11.16c0,2.13-5.87,7.39-7.74,8.51s-10.3,6.93-17.42,5.06c0,0-4.68-1.87-4.68-2.62s1.91-28,3-33.05a42.36,42.36,0,0,1,3-8.81S196.75,152.72,201.43,153.47Z"/><path class="cls-39" d="M202.88,155.66s1.69,2.11,1.05,3.08c-.78,1.2-4.6,4.06-9.75,4.55-4.15.4-7.86-2-7.23-3.75C190,151.29,199.62,159.43,202.88,155.66Z"/><path class="cls-40" d="M205.23,136.11s3.15,3.15,1.16,10.27c0,0-1.25,3.26-2.61,6.94-1,2.77-.66,3.78-.66,3.78a8.08,8.08,0,0,1-3.52,2.79c-2.64,1.24-6.89,2.49-9.45,1.9s-3.45-.95-3.37-2.34a34.36,34.36,0,0,0,.06-5.88c-.22-3.52-.58-7.26.08-9.31s4.4-7.33,8.21-8.14C195.13,136.12,199.65,141.15,205.23,136.11Z"/><path class="cls-41" d="M204.29,151.93s-8.84,2.36-10.39-6.18l-.53-2.14L205,150.27Z"/><path class="cls-42" d="M203.12,134.37s1.88.62,2.11,1.74-1.38,1.7-2.33,1.92-5.72.95-8.29-1.91S200.48,133.19,203.12,134.37Z"/><path class="cls-43" d="M196.52,139.7l.4,0a2.46,2.46,0,0,0,2.65-2.24l.35-6.23a2.48,2.48,0,0,0-2.25-2.66l-.4,0a2.48,2.48,0,0,0-2.66,2.25l-1.39,5.84C193.11,138,195.17,139.59,196.52,139.7Z"/><path class="cls-44" d="M194.24,130.64c-.08,3.8,2.2,5.59,5.1,4s5.34-5.95,5.42-9.75-2.19-5.58-5.09-4S194.33,126.85,194.24,130.64Z"/><path class="cls-34" d="M190.92,128.39c-.09,3.79,3.25,6.22,6.16,4.63s5.33-6,5.42-9.74-2.2-5.58-5.1-4S191,124.6,190.92,128.39Z"/><path class="cls-34" d="M193.28,127.57a1.67,1.67,0,1,0,1.71-1.63A1.67,1.67,0,0,0,193.28,127.57Z"/><path class="cls-45" d="M218.39,209.51h0a2.49,2.49,0,0,0-.8,1.49c-.29,1.16-1.87,6.14-2.4,6.67h.13c.29-.21.36,0,1-1.29l2.11-5.76A3,3,0,0,0,218.39,209.51Z"/><path class="cls-34" d="M176,129.84h0a2.24,2.24,0,0,0,2.16-2.31l-.09-2.3a2.23,2.23,0,0,0-2.31-2.15h0a2.24,2.24,0,0,0-2.16,2.31l.08,2.29A2.24,2.24,0,0,0,176,129.84Z"/><path class="cls-46" d="M196.78,138.62c.35,1.31-1.22,3.75-5,4.56-3.27.69-8.72,3.49-13.27,1.55s-4-9.81-4.77-13.79,3.4-3.92,4.11-3.41c1.5,1.08,1.13,5.2,1.67,8.59s.93,3.32,7.76,1.55S196.14,136.14,196.78,138.62Z"/><path class="cls-47" d="M197.82,115.15s7.68-.6,9.64,6,.38,10.42.89,14.26c1,7.75,2,9.87.05,13.05-.63,1-2.3,3-4.08,3.21-3.82.51-8.64-.46-10.4-4-2.58-5.18,1.21-12.37.86-17.17s-2.1-4.9-3-6.86S190.29,116.64,197.82,115.15Z"/><path class="cls-48" d="M207.15,121.31c.47-1.41,3.35-11.27,3.42-12s-1-1.54-2.21-.87-10.2,6-10.87,6.57-1.08,2.42.13,4.3,5.77,4.83,7.52,4.29A3,3,0,0,0,207.15,121.31Z"/><path class="cls-49" d="M207.89,108.7a5,5,0,0,0,1.75,4.15l-.35,1.25a5.9,5.9,0,0,1-2.58-4.71Z"/><path class="cls-50" d="M208.41,117.13c-.13.42-.25.83-.36,1.21a8.51,8.51,0,0,1-4.32-7.18l1.25-.74A7.08,7.08,0,0,0,208.41,117.13Z"/><path class="cls-51" d="M207.07,121.61a3.21,3.21,0,0,1-.59,1.09c-1.19-.88-5.92-4.68-6-9.6l1.26-.76C201.3,116.81,205.75,120.59,207.07,121.61Z"/><path class="cls-52" d="M197.14,115.47a1.43,1.43,0,0,1,.35-.46,9.6,9.6,0,0,1,.81-.54c.16,4.3,5.06,8.24,6.31,9.18a8.46,8.46,0,0,1-3.71-1.48A12.51,12.51,0,0,1,197.14,115.47Z"/></svg>