<svg id="Layer_1" data-name="Layer 1" xmlns="http://www.w3.org/2000/svg" xmlns:xlink="http://www.w3.org/1999/xlink" viewBox="0 0 240 240"><defs><style>.cls-1{fill:url(#linear-gradient);}.cls-2{fill:url(#linear-gradient-2);}.cls-3{fill:url(#linear-gradient-3);}.cls-4{fill:url(#linear-gradient-4);}.cls-5{fill:url(#linear-gradient-5);}.cls-6{fill:url(#linear-gradient-6);}.cls-7{fill:url(#linear-gradient-7);}.cls-13,.cls-16,.cls-19,.cls-22,.cls-25,.cls-28,.cls-31,.cls-48,.cls-55,.cls-8{opacity:0.6;}.cls-8{fill:url(#linear-gradient-8);}.cls-9{fill:#4160a1;}.cls-10{fill:#fff;}.cls-11{fill:url(#linear-gradient-9);}.cls-12{fill:url(#linear-gradient-10);}.cls-13{fill:url(#linear-gradient-11);}.cls-14{fill:url(#linear-gradient-12);}.cls-15{fill:url(#linear-gradient-13);}.cls-16{fill:url(#linear-gradient-14);}.cls-17{fill:url(#linear-gradient-15);}.cls-18{fill:url(#linear-gradient-16);}.cls-19{fill:url(#linear-gradient-17);}.cls-20{fill:url(#linear-gradient-18);}.cls-21{fill:url(#linear-gradient-19);}.cls-22{fill:url(#linear-gradient-20);}.cls-23{fill:url(#linear-gradient-21);}.cls-24{fill:url(#linear-gradient-22);}.cls-25{fill:url(#linear-gradient-23);}.cls-26{fill:url(#linear-gradient-24);}.cls-27{fill:url(#linear-gradient-25);}.cls-28{fill:url(#linear-gradient-26);}.cls-29{fill:url(#linear-gradient-27);}.cls-30{fill:url(#linear-gradient-28);}.cls-31{fill:url(#linear-gradient-29);}.cls-32{fill:#e5a394;}.cls-33{fill:url(#linear-gradient-30);}.cls-34{fill:url(#linear-gradient-31);}.cls-35{fill:#0f2386;}.cls-36{fill:url(#linear-gradient-32);}.cls-37{fill:#cc8e83;}.cls-38{fill:url(#linear-gradient-33);}.cls-39{fill:#353535;}.cls-40{fill:url(#linear-gradient-34);}.cls-102,.cls-41,.cls-49,.cls-50,.cls-51,.cls-94,.cls-95{fill:none;stroke-miterlimit:10;}.cls-41{stroke:#09086c;stroke-linecap:round;stroke-width:0.5px;}.cls-42{fill:#5858bb;}.cls-43{fill:#09086c;}.cls-44{fill:#f18d0a;}.cls-45{fill:url(#linear-gradient-35);}.cls-46{fill:url(#linear-gradient-36);}.cls-47{fill:url(#linear-gradient-37);}.cls-48{fill:url(#linear-gradient-38);}.cls-49,.cls-50,.cls-51,.cls-94,.cls-95{stroke-width:0.2px;}.cls-49{stroke:url(#linear-gradient-39);}.cls-50{stroke:url(#linear-gradient-40);}.cls-51{stroke:url(#linear-gradient-41);}.cls-52{fill:url(#linear-gradient-42);}.cls-53{fill:url(#linear-gradient-43);}.cls-54{fill:url(#linear-gradient-44);}.cls-56{fill:url(#linear-gradient-45);}.cls-57,.cls-58{fill:url(#linear-gradient-46);}.cls-58,.cls-66,.cls-69,.cls-75,.cls-78,.cls-84,.cls-87,.cls-93{opacity:0.2;}.cls-59{opacity:0.3;}.cls-60{fill:url(#linear-gradient-48);}.cls-61,.cls-63,.cls-72,.cls-81,.cls-90{opacity:0.1;}.cls-62{fill:url(#linear-gradient-49);}.cls-63{fill:url(#linear-gradient-50);}.cls-64{fill:url(#linear-gradient-51);}.cls-65,.cls-66{fill:url(#linear-gradient-52);}.cls-67{fill:url(#linear-gradient-54);}.cls-68,.cls-69{fill:url(#linear-gradient-55);}.cls-70{fill:url(#linear-gradient-57);}.cls-71{fill:url(#linear-gradient-58);}.cls-72{fill:url(#linear-gradient-59);}.cls-73{fill:url(#linear-gradient-60);}.cls-74,.cls-75{fill:url(#linear-gradient-61);}.cls-76{fill:url(#linear-gradient-63);}.cls-77,.cls-78{fill:url(#linear-gradient-64);}.cls-79{fill:url(#linear-gradient-66);}.cls-80{fill:url(#linear-gradient-67);}.cls-81{fill:url(#linear-gradient-68);}.cls-82{fill:url(#linear-gradient-69);}.cls-83,.cls-84{fill:url(#linear-gradient-70);}.cls-85{fill:url(#linear-gradient-72);}.cls-86,.cls-87{fill:url(#linear-gradient-73);}.cls-88{fill:url(#linear-gradient-75);}.cls-89{fill:url(#linear-gradient-76);}.cls-90{fill:url(#linear-gradient-77);}.cls-91{fill:url(#linear-gradient-78);}.cls-92,.cls-93{fill:url(#linear-gradient-79);}.cls-94{stroke:url(#linear-gradient-81);}.cls-95{stroke:url(#linear-gradient-82);}.cls-96{fill:url(#linear-gradient-83);}.cls-97{fill:url(#linear-gradient-84);}.cls-98{fill:url(#linear-gradient-85);}.cls-99{fill:url(#linear-gradient-86);}.cls-100{fill:url(#linear-gradient-87);}.cls-101{fill:url(#linear-gradient-88);}.cls-102{stroke:#83b9e5;stroke-width:0.25px;opacity:0.5;}.cls-103{fill:url(#linear-gradient-89);}.cls-104{fill:url(#linear-gradient-90);}.cls-105{fill:url(#linear-gradient-91);}.cls-106{fill:url(#linear-gradient-92);}</style><linearGradient id="linear-gradient" x1="58.51" y1="220.95" x2="41.58" y2="191.25" gradientUnits="userSpaceOnUse"><stop offset="0" stop-color="#6c68e6" stop-opacity="0.2"/><stop offset="0.27" stop-color="#4781e2" stop-opacity="0.13"/><stop offset="0.66" stop-color="#00b1db" stop-opacity="0"/></linearGradient><linearGradient id="linear-gradient-2" x1="43.38" y1="193.59" x2="32.67" y2="174.8" xlink:href="#linear-gradient"/><linearGradient id="linear-gradient-3" x1="28.04" y1="120.43" x2="215.55" y2="120.43" gradientUnits="userSpaceOnUse"><stop offset="0" stop-color="#ac2f1f"/><stop offset="0.05" stop-color="#af2e1f"/><stop offset="0.66" stop-color="#cf2521"/><stop offset="1" stop-color="#db2222"/></linearGradient><linearGradient id="linear-gradient-4" x1="38.27" y1="122.97" x2="215.55" y2="122.97" gradientUnits="userSpaceOnUse"><stop offset="0" stop-color="#f43a34"/><stop offset="0.28" stop-color="#fa4744"/><stop offset="0.57" stop-color="#ff5050"/><stop offset="0.73" stop-color="#fd4c4c"/><stop offset="0.91" stop-color="#f9423f"/><stop offset="1" stop-color="#f53a35"/></linearGradient><linearGradient id="linear-gradient-5" x1="97.62" y1="196.78" x2="66.77" y2="142.65" xlink:href="#linear-gradient"/><linearGradient id="linear-gradient-6" x1="114.89" y1="199.41" x2="177.69" y2="199.41" gradientUnits="userSpaceOnUse"><stop offset="0" stop-color="#4160a1"/><stop offset="0.2" stop-color="#585dc6"/><stop offset="0.36" stop-color="#675bdd"/><stop offset="0.46" stop-color="#6c5ae5"/><stop offset="0.58" stop-color="#685bdf"/><stop offset="0.74" stop-color="#5d5ccd"/><stop offset="0.92" stop-color="#4a5faf"/><stop offset="1" stop-color="#4160a1"/></linearGradient><linearGradient id="linear-gradient-7" x1="150.22" y1="210.63" x2="133.24" y2="154.54" gradientUnits="userSpaceOnUse"><stop offset="0" stop-color="#00b1db"/><stop offset="0.28" stop-color="#338ee0"/><stop offset="0.54" stop-color="#5c73e4"/><stop offset="0.67" stop-color="#6c68e6"/></linearGradient><linearGradient id="linear-gradient-8" x1="149.3" y1="207.57" x2="135.52" y2="162.06" gradientUnits="userSpaceOnUse"><stop offset="0" stop-color="#4160a1"/><stop offset="0.21" stop-color="#455fa7"/><stop offset="0.5" stop-color="#505eb8"/><stop offset="0.83" stop-color="#615bd4"/><stop offset="1" stop-color="#6c5ae5"/></linearGradient><linearGradient id="linear-gradient-9" x1="115.07" y1="193.79" x2="177.87" y2="193.79" xlink:href="#linear-gradient-6"/><linearGradient id="linear-gradient-10" x1="150.4" y1="205.01" x2="133.42" y2="148.92" xlink:href="#linear-gradient-7"/><linearGradient id="linear-gradient-11" x1="149.48" y1="201.95" x2="135.7" y2="156.44" xlink:href="#linear-gradient-8"/><linearGradient id="linear-gradient-12" x1="115.25" y1="188.17" x2="178.05" y2="188.17" xlink:href="#linear-gradient-6"/><linearGradient id="linear-gradient-13" x1="150.58" y1="199.39" x2="133.6" y2="143.3" xlink:href="#linear-gradient-7"/><linearGradient id="linear-gradient-14" x1="149.66" y1="196.34" x2="135.88" y2="150.82" xlink:href="#linear-gradient-8"/><linearGradient id="linear-gradient-15" x1="115.43" y1="182.55" x2="178.23" y2="182.55" xlink:href="#linear-gradient-6"/><linearGradient id="linear-gradient-16" x1="150.76" y1="193.77" x2="133.78" y2="137.68" xlink:href="#linear-gradient-7"/><linearGradient id="linear-gradient-17" x1="149.84" y1="190.72" x2="136.06" y2="145.2" xlink:href="#linear-gradient-8"/><linearGradient id="linear-gradient-18" x1="115.61" y1="176.93" x2="178.42" y2="176.93" xlink:href="#linear-gradient-6"/><linearGradient id="linear-gradient-19" x1="150.94" y1="188.15" x2="133.97" y2="132.07" xlink:href="#linear-gradient-7"/><linearGradient id="linear-gradient-20" x1="150.02" y1="185.1" x2="136.24" y2="139.58" xlink:href="#linear-gradient-8"/><linearGradient id="linear-gradient-21" x1="112.85" y1="171.31" x2="175.66" y2="171.31" xlink:href="#linear-gradient-6"/><linearGradient id="linear-gradient-22" x1="148.19" y1="182.53" x2="131.21" y2="126.45" xlink:href="#linear-gradient-7"/><linearGradient id="linear-gradient-23" x1="147.26" y1="179.48" x2="133.48" y2="133.96" xlink:href="#linear-gradient-8"/><linearGradient id="linear-gradient-24" x1="115.97" y1="165.69" x2="178.78" y2="165.69" xlink:href="#linear-gradient-6"/><linearGradient id="linear-gradient-25" x1="154.42" y1="187.18" x2="137.44" y2="131.09" gradientUnits="userSpaceOnUse"><stop offset="0" stop-color="#00b1db"/><stop offset="0.27" stop-color="#308ae0"/><stop offset="0.54" stop-color="#5969e4"/><stop offset="0.67" stop-color="#695ce6"/></linearGradient><linearGradient id="linear-gradient-26" x1="150.38" y1="173.86" x2="136.6" y2="128.34" xlink:href="#linear-gradient-8"/><linearGradient id="linear-gradient-27" x1="109.48" y1="158.64" x2="172.28" y2="158.64" xlink:href="#linear-gradient-6"/><linearGradient id="linear-gradient-28" x1="144.81" y1="169.85" x2="127.83" y2="113.77" xlink:href="#linear-gradient-7"/><linearGradient id="linear-gradient-29" x1="143.89" y1="166.8" x2="130.11" y2="121.29" xlink:href="#linear-gradient-8"/><linearGradient id="linear-gradient-30" x1="873.03" y1="-1102.33" x2="902.57" y2="-1102.33" gradientTransform="matrix(0.51, 0.86, 0.86, -0.51, 705.38, -1112.54)" gradientUnits="userSpaceOnUse"><stop offset="0.35" stop-color="#00b1db" stop-opacity="0"/><stop offset="0.78" stop-color="#6c68e6" stop-opacity="0.2"/></linearGradient><linearGradient id="linear-gradient-31" x1="907.95" y1="-1084.27" x2="935.8" y2="-1084.27" gradientTransform="matrix(0.46, 0.9, 0.89, -0.45, 732.85, -1100.51)" xlink:href="#linear-gradient-30"/><linearGradient id="linear-gradient-32" x1="227.3" y1="212.84" x2="197.24" y2="147.27" gradientUnits="userSpaceOnUse"><stop offset="0" stop-color="#3772cd"/><stop offset="0.17" stop-color="#3267c6"/><stop offset="0.47" stop-color="#254ab3"/><stop offset="0.8" stop-color="#14249a"/></linearGradient><linearGradient id="linear-gradient-33" x1="391.43" y1="-273.01" x2="426.66" y2="-268.69" gradientTransform="translate(-271.12 102.54) rotate(37.76)" gradientUnits="userSpaceOnUse"><stop offset="0" stop-color="#ff9a00"/><stop offset="0.52" stop-color="#f9cb00"/><stop offset="1" stop-color="#ffbd00"/></linearGradient><linearGradient id="linear-gradient-34" x1="203.4" y1="146.94" x2="239.83" y2="144.57" gradientTransform="matrix(1, 0, 0, 1, 0, 0)" xlink:href="#linear-gradient-33"/><linearGradient id="linear-gradient-35" x1="385.11" y1="-261.63" x2="420.34" y2="-257.31" xlink:href="#linear-gradient-33"/><linearGradient id="linear-gradient-36" x1="88.93" y1="89.65" x2="154.22" y2="89.65" xlink:href="#linear-gradient-6"/><linearGradient id="linear-gradient-37" x1="125.66" y1="101.32" x2="108.01" y2="43.01" xlink:href="#linear-gradient-7"/><linearGradient id="linear-gradient-38" x1="124.7" y1="98.14" x2="110.38" y2="50.82" xlink:href="#linear-gradient-8"/><linearGradient id="linear-gradient-39" x1="99.12" y1="64.85" x2="117.08" y2="64.85" gradientUnits="userSpaceOnUse"><stop offset="0" stop-color="#5a442c"/><stop offset="0.04" stop-color="#5e472f"/><stop offset="0.32" stop-color="#7b5b44"/><stop offset="0.48" stop-color="#86624c"/><stop offset="0.81" stop-color="#735c4b"/><stop offset="0.88" stop-color="#6e5a4b"/></linearGradient><linearGradient id="linear-gradient-40" x1="124.01" y1="64.65" x2="142.73" y2="64.65" xlink:href="#linear-gradient-39"/><linearGradient id="linear-gradient-41" x1="118.27" y1="50.64" x2="119.04" y2="50.64" xlink:href="#linear-gradient-39"/><linearGradient id="linear-gradient-42" x1="84.52" y1="34.54" x2="152.21" y2="34.54" gradientTransform="matrix(1, 0, 0, 1, 0, 0)" xlink:href="#linear-gradient-33"/><linearGradient id="linear-gradient-43" x1="121.44" y1="43.43" x2="152.21" y2="43.43" gradientUnits="userSpaceOnUse"><stop offset="0" stop-color="#ffa700"/><stop offset="1" stop-color="#e80"/></linearGradient><linearGradient id="linear-gradient-44" x1="84.51" y1="45.98" x2="121.47" y2="45.98" xlink:href="#linear-gradient-43"/><linearGradient id="linear-gradient-45" x1="147.34" y1="33.39" x2="150.98" y2="33.39" xlink:href="#linear-gradient-8"/><linearGradient id="linear-gradient-46" x1="147.37" y1="31.22" x2="150.98" y2="31.22" xlink:href="#linear-gradient-8"/><linearGradient id="linear-gradient-48" x1="133.99" y1="31.22" x2="164.33" y2="31.22" xlink:href="#linear-gradient-8"/><linearGradient id="linear-gradient-49" x1="138.47" y1="35.62" x2="159.92" y2="35.62" xlink:href="#linear-gradient-8"/><linearGradient id="linear-gradient-50" x1="138.4" y1="26.84" x2="159.85" y2="26.84" xlink:href="#linear-gradient-8"/><linearGradient id="linear-gradient-51" x1="148.55" y1="30.7" x2="149.77" y2="30.7" xlink:href="#linear-gradient-8"/><linearGradient id="linear-gradient-52" x1="148.56" y1="29.98" x2="149.77" y2="29.98" xlink:href="#linear-gradient-8"/><linearGradient id="linear-gradient-54" x1="116.51" y1="16.95" x2="120.15" y2="16.95" xlink:href="#linear-gradient-8"/><linearGradient id="linear-gradient-55" x1="116.54" y1="14.79" x2="120.15" y2="14.79" xlink:href="#linear-gradient-8"/><linearGradient id="linear-gradient-57" x1="103.16" y1="14.79" x2="133.5" y2="14.79" xlink:href="#linear-gradient-8"/><linearGradient id="linear-gradient-58" x1="107.64" y1="19.19" x2="129.09" y2="19.19" xlink:href="#linear-gradient-8"/><linearGradient id="linear-gradient-59" x1="107.57" y1="10.4" x2="129.02" y2="10.4" xlink:href="#linear-gradient-8"/><linearGradient id="linear-gradient-60" x1="117.72" y1="14.27" x2="118.94" y2="14.27" xlink:href="#linear-gradient-8"/><linearGradient id="linear-gradient-61" x1="117.73" y1="13.54" x2="118.94" y2="13.54" xlink:href="#linear-gradient-8"/><linearGradient id="linear-gradient-63" x1="116.51" y1="50.96" x2="120.15" y2="50.96" xlink:href="#linear-gradient-8"/><linearGradient id="linear-gradient-64" x1="116.54" y1="48.8" x2="120.15" y2="48.8" xlink:href="#linear-gradient-8"/><linearGradient id="linear-gradient-66" x1="103.16" y1="48.79" x2="133.5" y2="48.79" xlink:href="#linear-gradient-8"/><linearGradient id="linear-gradient-67" x1="107.64" y1="53.2" x2="129.09" y2="53.2" xlink:href="#linear-gradient-8"/><linearGradient id="linear-gradient-68" x1="107.57" y1="44.41" x2="129.02" y2="44.41" xlink:href="#linear-gradient-8"/><linearGradient id="linear-gradient-69" x1="117.72" y1="48.28" x2="118.94" y2="48.28" xlink:href="#linear-gradient-8"/><linearGradient id="linear-gradient-70" x1="117.73" y1="47.55" x2="118.94" y2="47.55" xlink:href="#linear-gradient-8"/><linearGradient id="linear-gradient-72" x1="86.01" y1="33.41" x2="89.64" y2="33.41" xlink:href="#linear-gradient-8"/><linearGradient id="linear-gradient-73" x1="86.03" y1="31.24" x2="89.64" y2="31.24" xlink:href="#linear-gradient-8"/><linearGradient id="linear-gradient-75" x1="72.65" y1="31.24" x2="102.99" y2="31.24" xlink:href="#linear-gradient-8"/><linearGradient id="linear-gradient-76" x1="77.13" y1="35.64" x2="98.59" y2="35.64" xlink:href="#linear-gradient-8"/><linearGradient id="linear-gradient-77" x1="77.06" y1="26.86" x2="98.51" y2="26.86" xlink:href="#linear-gradient-8"/><linearGradient id="linear-gradient-78" x1="87.21" y1="30.72" x2="88.43" y2="30.72" xlink:href="#linear-gradient-8"/><linearGradient id="linear-gradient-79" x1="87.22" y1="30" x2="88.43" y2="30" xlink:href="#linear-gradient-8"/><linearGradient id="linear-gradient-81" x1="142.53" y1="98.25" x2="142.73" y2="98.25" xlink:href="#linear-gradient-39"/><linearGradient id="linear-gradient-82" x1="99.12" y1="98.65" x2="99.32" y2="98.65" xlink:href="#linear-gradient-39"/><linearGradient id="linear-gradient-83" x1="39.74" y1="201.41" x2="103.92" y2="201.41" xlink:href="#linear-gradient-43"/><linearGradient id="linear-gradient-84" x1="61.06" y1="232.77" x2="105.36" y2="199.95" gradientUnits="userSpaceOnUse"><stop offset="0" stop-color="#f9cb00"/><stop offset="1" stop-color="#ff9a00"/></linearGradient><linearGradient id="linear-gradient-85" x1="46.12" y1="225.81" x2="66.24" y2="225.81" xlink:href="#linear-gradient-43"/><linearGradient id="linear-gradient-86" x1="90.69" y1="178.21" x2="73.1" y2="176.3" gradientUnits="userSpaceOnUse"><stop offset="0" stop-color="#3e8fd1"/><stop offset="1" stop-color="#5d73de"/></linearGradient><linearGradient id="linear-gradient-87" x1="85.33" y1="172.53" x2="102.73" y2="148.92" gradientUnits="userSpaceOnUse"><stop offset="0" stop-color="#3e84c4"/><stop offset="1" stop-color="#5d60cc"/></linearGradient><linearGradient id="linear-gradient-88" x1="80.4" y1="181.07" x2="110.04" y2="172.79" gradientUnits="userSpaceOnUse"><stop offset="0.04" stop-color="#00b1db"/><stop offset="0.04" stop-color="#01b1db"/><stop offset="0.49" stop-color="#3a8ae1"/><stop offset="0.82" stop-color="#5e71e5"/><stop offset="1" stop-color="#6c68e6"/></linearGradient><linearGradient id="linear-gradient-89" x1="73.39" y1="197.63" x2="85.73" y2="181.92" gradientUnits="userSpaceOnUse"><stop offset="0" stop-color="#20cdbb"/><stop offset="0.94" stop-color="#31d086"/></linearGradient><linearGradient id="linear-gradient-90" x1="64.2" y1="185.69" x2="81.05" y2="162.08" gradientUnits="userSpaceOnUse"><stop offset="0" stop-color="#20a692"/><stop offset="0.94" stop-color="#31bf77"/></linearGradient><linearGradient id="linear-gradient-91" x1="57.18" y1="203.53" x2="41.64" y2="194.5" gradientUnits="userSpaceOnUse"><stop offset="0" stop-color="#eb345a"/><stop offset="0.15" stop-color="#dc335a"/><stop offset="0.5" stop-color="#bd3059"/><stop offset="0.79" stop-color="#aa2f59"/><stop offset="1" stop-color="#a32e59"/></linearGradient><linearGradient id="linear-gradient-92" x1="54.72" y1="205.24" x2="83.19" y2="202.5" gradientUnits="userSpaceOnUse"><stop offset="0" stop-color="#f47e64"/><stop offset="0.48" stop-color="#f81274"/><stop offset="0.59" stop-color="#f41173"/><stop offset="0.7" stop-color="#e90f72"/><stop offset="0.8" stop-color="#d70c6f"/><stop offset="0.9" stop-color="#bd076a"/><stop offset="1" stop-color="#9c0165"/><stop offset="1" stop-color="#9b0165"/></linearGradient></defs><polygon class="cls-1" points="65.36 238.28 2.34 215.51 63.43 183.1 95.07 191.99 65.36 238.28"/><polygon class="cls-2" points="38.46 209.82 6.27 198.03 57.07 162.09 66.39 164.42 38.46 209.82"/><polygon class="cls-3" points="204.72 29.24 157.25 54.38 172.08 64.27 134.12 122.74 107.32 107.92 96.38 102.65 28.04 205.91 38.27 211.61 103.14 130.81 142.31 148.43 190.79 74.84 215.28 90.93 215.55 34.32 204.72 29.24"/><polygon class="cls-4" points="215.55 34.32 168.08 59.46 182.91 69.35 144.95 127.81 107.29 107.97 38.27 211.61 75.98 192.89 113.98 135.89 152.17 154.98 200.45 81.04 215.28 90.93 215.55 34.32"/><polygon class="cls-5" points="135.87 213.67 22.07 171.57 79.21 153.4 146.31 174.85 135.87 213.67"/><path class="cls-6" d="M174.61,199.41c0,8.63-13.11,15.64-29.29,15.64S116,208,116,199.41c0-2-.52-4.52.73-6.26,4.22-5.87,16.09-9.38,28.57-9.38,12.87,0,24.68,3.16,28.61,9.32C175,194.67,174.61,197.64,174.61,199.41Z"/><ellipse class="cls-7" cx="145.32" cy="194.43" rx="29.3" ry="15.64"/><ellipse class="cls-8" cx="145.32" cy="194.43" rx="23.78" ry="12.69"/><path class="cls-9" d="M145.73,183.93c13.14,0,23.36,5.12,23.36,10.5,0-7-10.64-12.69-23.77-12.69s-23.78,5.68-23.78,12.69C121.8,188.72,132.6,183.93,145.73,183.93Z"/><path class="cls-10" d="M157.4,188.48c.23.13.23.34,0,.47l-2,1.16c1.93,1.27,2,3.14.18,4.44a.88.88,0,0,1-.82,0l-2-1.17c-.18-.1-.23-.26-.09-.39.49-.43.39-1-.28-1.42l-1.79-1a4.64,4.64,0,0,0-3.91-.2c-1.31.61-1.39,1.75-.2,2.44l1.52.87c2.82,1.63,2.65,4.35-.49,5.86a11.12,11.12,0,0,1-8.39.06l-2.05,1.19a.87.87,0,0,1-.8,0l-2-1.17c-.22-.13-.22-.33,0-.46l2-1.17c-1.92-1.26-2-3.14-.17-4.43a.88.88,0,0,1,.82,0l2,1.17c.18.1.23.25.1.38-.5.44-.4,1,.27,1.43l1.8,1a4.62,4.62,0,0,0,3.9.2c1.31-.61,1.4-1.75.21-2.44l-1.32-.76c-2.51-1.45-3-3.81-.7-5.4,2.41-1.68,6.55-1.89,9.4-.64l2-1.17a.87.87,0,0,1,.8,0Z"/><path class="cls-11" d="M174.8,193.79c0,8.64-13.12,15.64-29.3,15.64s-29.3-7-29.3-15.64c0-2-.52-4.52.73-6.26,4.22-5.87,16.09-9.38,28.57-9.38,12.87,0,24.68,3.16,28.62,9.32C175.13,189.05,174.8,192,174.8,193.79Z"/><ellipse class="cls-12" cx="145.5" cy="188.81" rx="29.3" ry="15.64"/><ellipse class="cls-13" cx="145.5" cy="188.81" rx="23.78" ry="12.69"/><path class="cls-9" d="M145.91,178.31c13.14,0,23.37,5.12,23.37,10.5,0-7-10.65-12.69-23.78-12.69s-23.78,5.68-23.78,12.69C122,183.1,132.78,178.31,145.91,178.31Z"/><path class="cls-10" d="M157.58,182.86a.25.25,0,0,1,0,.47l-2,1.16c1.93,1.27,2,3.14.18,4.44a.9.9,0,0,1-.83,0l-2-1.16c-.18-.11-.23-.27-.1-.39.49-.44.41-1-.27-1.43l-1.79-1a4.61,4.61,0,0,0-3.91-.19c-1.32.6-1.39,1.74-.21,2.43l1.52.88c2.83,1.62,2.66,4.34-.48,5.85a11.12,11.12,0,0,1-8.39,0l-2,1.2a.93.93,0,0,1-.8,0l-2-1.17c-.23-.13-.23-.34,0-.46l2-1.17c-1.93-1.27-2-3.14-.19-4.43a.9.9,0,0,1,.83,0l2,1.17c.18.1.22.26.09.39-.49.44-.4,1,.27,1.42l1.79,1a4.61,4.61,0,0,0,3.91.19c1.31-.6,1.4-1.74.21-2.43l-1.32-.76c-2.51-1.45-2.94-3.81-.69-5.4s6.54-1.89,9.39-.64l2-1.17a.87.87,0,0,1,.8,0Z"/><path class="cls-14" d="M175,188.17c0,8.64-13.12,15.64-29.3,15.64s-29.3-7-29.3-15.64c0-2-.52-4.52.73-6.26,4.22-5.87,16.09-9.38,28.57-9.38,12.87,0,24.68,3.16,28.62,9.32C175.31,183.43,175,186.4,175,188.17Z"/><ellipse class="cls-15" cx="145.68" cy="183.19" rx="29.3" ry="15.64"/><ellipse class="cls-16" cx="145.68" cy="183.19" rx="23.78" ry="12.69"/><path class="cls-9" d="M146.1,172.69c13.13,0,23.36,5.12,23.36,10.5,0-7-10.65-12.69-23.78-12.69s-23.78,5.68-23.78,12.69C122.16,177.48,133,172.69,146.1,172.69Z"/><path class="cls-10" d="M157.76,177.24c.23.13.23.33,0,.47l-2,1.16c1.93,1.27,2,3.14.18,4.44a.88.88,0,0,1-.82,0l-2-1.17c-.18-.1-.22-.25-.1-.38.5-.45.4-1-.27-1.43l-1.79-1a4.62,4.62,0,0,0-3.9-.2c-1.32.61-1.41,1.75-.22,2.44l1.52.87c2.82,1.63,2.67,4.35-.47,5.87a11.15,11.15,0,0,1-8.4,0l-2.05,1.19a.87.87,0,0,1-.8,0l-2-1.16c-.22-.13-.22-.34,0-.46l2-1.17c-1.93-1.27-2-3.14-.19-4.43a.9.9,0,0,1,.83,0l2,1.17c.17.1.22.26.09.39-.49.44-.4,1,.27,1.42l1.79,1a4.66,4.66,0,0,0,3.92.2c1.31-.61,1.39-1.75.2-2.44l-1.32-.76c-2.51-1.44-2.95-3.81-.7-5.4s6.55-1.89,9.39-.64l2-1.17a.86.86,0,0,1,.81,0Z"/><path class="cls-17" d="M175.16,182.55c0,8.64-13.12,15.64-29.3,15.64s-29.3-7-29.3-15.64c0-2-.52-4.52.73-6.26,4.23-5.87,16.09-9.38,28.57-9.38,12.87,0,24.68,3.16,28.62,9.32C175.49,177.81,175.16,180.78,175.16,182.55Z"/><ellipse class="cls-18" cx="145.86" cy="177.57" rx="29.3" ry="15.64"/><ellipse class="cls-19" cx="145.86" cy="177.57" rx="23.78" ry="12.69"/><path class="cls-9" d="M146.28,167.07c13.13,0,23.36,5.12,23.36,10.5,0-7-10.65-12.69-23.78-12.69s-23.78,5.68-23.78,12.69C122.35,171.86,133.14,167.07,146.28,167.07Z"/><path class="cls-10" d="M157.94,171.62c.23.13.23.34,0,.47l-2,1.16c1.93,1.27,2,3.15.19,4.44a.9.9,0,0,1-.83,0l-2-1.16c-.18-.11-.22-.26-.08-.39.48-.44.39-1-.28-1.42l-1.79-1a4.61,4.61,0,0,0-3.91-.19c-1.32.61-1.4,1.74-.21,2.43l1.52.88c2.82,1.62,2.66,4.34-.48,5.86a11.2,11.2,0,0,1-8.4.05l-2,1.18a.89.89,0,0,1-.81,0l-2-1.17a.24.24,0,0,1,0-.46l2-1.17c-1.93-1.26-2-3.14-.18-4.43a.88.88,0,0,1,.82,0l2,1.16c.17.1.23.26.09.39-.48.44-.39,1,.28,1.42l1.79,1a4.64,4.64,0,0,0,3.91.2c1.31-.61,1.39-1.75.21-2.43l-1.33-.77c-2.5-1.44-3-3.81-.7-5.4,2.41-1.68,6.55-1.89,9.4-.64l2-1.17a.89.89,0,0,1,.81,0Z"/><path class="cls-20" d="M175.34,176.93c0,8.64-13.12,15.64-29.3,15.64s-29.3-7-29.3-15.64c0-2-.52-4.52.73-6.26,4.23-5.87,16.09-9.38,28.57-9.38,12.87,0,24.68,3.16,28.62,9.32C175.67,172.19,175.34,175.16,175.34,176.93Z"/><ellipse class="cls-21" cx="146.04" cy="171.95" rx="29.3" ry="15.64"/><ellipse class="cls-22" cx="146.04" cy="171.95" rx="23.78" ry="12.69"/><path class="cls-9" d="M146.46,161.46c13.13,0,23.36,5.11,23.36,10.49,0-7-10.65-12.69-23.78-12.69s-23.78,5.68-23.78,12.69C122.53,166.24,133.33,161.46,146.46,161.46Z"/><path class="cls-10" d="M158.12,166a.25.25,0,0,1,0,.47l-2,1.16c1.93,1.27,2,3.15.18,4.44a.88.88,0,0,1-.82,0l-2-1.17c-.18-.1-.22-.25-.09-.38.49-.44.4-1-.27-1.42l-1.8-1a4.61,4.61,0,0,0-3.91-.19c-1.31.61-1.39,1.74-.2,2.43l1.52.88c2.82,1.63,2.66,4.34-.48,5.86a11.2,11.2,0,0,1-8.4,0l-2,1.19a.89.89,0,0,1-.81,0l-2-1.17c-.23-.13-.23-.33,0-.46l2-1.17c-1.92-1.26-2-3.14-.19-4.43a.92.92,0,0,1,.84,0l2,1.16c.18.1.22.26.09.39-.49.44-.39,1,.28,1.42l1.79,1a4.68,4.68,0,0,0,3.91.19c1.31-.61,1.4-1.74.21-2.43l-1.32-.76c-2.51-1.45-3-3.82-.7-5.41s6.55-1.88,9.39-.64l2-1.17a.87.87,0,0,1,.8,0Z"/><path class="cls-23" d="M172.58,171.31c0,8.64-13.12,15.64-29.3,15.64S114,180,114,171.31c0-2-.52-4.52.74-6.26,4.22-5.87,16.08-9.38,28.56-9.38,12.87,0,24.69,3.16,28.62,9.32C172.91,166.57,172.58,169.54,172.58,171.31Z"/><ellipse class="cls-24" cx="143.28" cy="166.33" rx="29.3" ry="15.64"/><ellipse class="cls-25" cx="143.28" cy="166.33" rx="23.78" ry="12.69"/><path class="cls-9" d="M143.7,155.84c13.13,0,23.36,5.11,23.36,10.49,0-7-10.64-12.69-23.78-12.69s-23.78,5.68-23.78,12.69C119.77,160.62,130.57,155.84,143.7,155.84Z"/><path class="cls-10" d="M155.37,160.38a.25.25,0,0,1,0,.47l-2,1.16c1.92,1.27,2,3.14.18,4.44a.9.9,0,0,1-.83,0l-2-1.16c-.18-.11-.23-.26-.1-.39.49-.44.4-1-.28-1.42l-1.79-1a4.62,4.62,0,0,0-3.9-.19c-1.32.6-1.4,1.75-.21,2.43l1.52.88c2.82,1.63,2.66,4.34-.48,5.85a11.12,11.12,0,0,1-8.39.06L135,172.67a.87.87,0,0,1-.8,0l-2-1.17c-.23-.12-.23-.33,0-.46l2-1.16c-1.93-1.27-2-3.15-.18-4.44a.85.85,0,0,1,.82,0l2,1.16c.18.1.23.26.09.39-.49.44-.39,1,.28,1.42l1.79,1a4.62,4.62,0,0,0,3.9.2c1.32-.61,1.41-1.75.22-2.43l-1.32-.77c-2.51-1.45-3-3.81-.71-5.4,2.4-1.68,6.56-1.89,9.4-.63l2-1.18a.87.87,0,0,1,.8,0Z"/><path class="cls-26" d="M175.7,165.69c0,8.64-13.12,15.64-29.3,15.64s-29.29-7-29.29-15.64c0-2-.53-4.52.73-6.26,4.22-5.87,16.08-9.38,28.56-9.38,12.87,0,24.69,3.16,28.62,9.32C176,161,175.7,163.92,175.7,165.69Z"/><ellipse class="cls-27" cx="146.4" cy="160.71" rx="29.3" ry="15.64"/><ellipse class="cls-28" cx="146.4" cy="160.71" rx="23.78" ry="12.69"/><path class="cls-9" d="M146.82,150.22c13.13,0,23.36,5.11,23.36,10.49,0-7-10.64-12.69-23.78-12.69s-23.78,5.68-23.78,12.69C122.89,155,133.69,150.22,146.82,150.22Z"/><path class="cls-10" d="M158.48,154.76c.23.13.23.34,0,.47l-2,1.16c1.92,1.27,2,3.14.18,4.44a.9.9,0,0,1-.83,0l-2-1.16c-.17-.1-.22-.26-.09-.39.49-.44.4-1-.27-1.43l-1.8-1a4.62,4.62,0,0,0-3.9-.19c-1.32.61-1.4,1.74-.21,2.43l1.52.88c2.82,1.63,2.66,4.34-.48,5.85a11.17,11.17,0,0,1-8.39.06l-2,1.19a.84.84,0,0,1-.8,0l-2-1.16c-.22-.13-.22-.33,0-.46l2-1.16c-1.93-1.27-2-3.15-.18-4.44a.85.85,0,0,1,.82,0l2,1.16c.18.11.22.26.09.39-.49.43-.39,1,.28,1.42l1.79,1a4.64,4.64,0,0,0,3.91.2c1.31-.61,1.4-1.75.21-2.43l-1.32-.77c-2.51-1.44-2.95-3.81-.71-5.4,2.41-1.68,6.56-1.89,9.4-.63l2-1.18a.87.87,0,0,1,.8,0Z"/><path class="cls-29" d="M169.21,158.64c0,8.63-13.12,15.64-29.3,15.64s-29.3-7-29.3-15.64c0-2-.52-4.52.73-6.26,4.22-5.87,16.09-9.38,28.57-9.38,12.87,0,24.68,3.15,28.62,9.31C169.54,153.9,169.21,156.87,169.21,158.64Z"/><ellipse class="cls-30" cx="139.91" cy="153.66" rx="29.3" ry="15.64"/><ellipse class="cls-31" cx="139.91" cy="153.66" rx="23.78" ry="12.69"/><path class="cls-9" d="M140.32,143.16c13.14,0,23.37,5.12,23.37,10.5,0-7-10.65-12.7-23.78-12.7s-23.78,5.69-23.78,12.7C116.39,148,127.19,143.16,140.32,143.16Z"/><path class="cls-10" d="M152,147.71c.22.13.22.33,0,.46l-2,1.17c1.93,1.27,2,3.14.18,4.43a.9.9,0,0,1-.83,0l-2-1.17c-.18-.1-.23-.26-.09-.39.48-.44.4-1-.28-1.42l-1.79-1a4.64,4.64,0,0,0-3.91-.2c-1.32.61-1.39,1.75-.21,2.43l1.52.88c2.83,1.63,2.66,4.35-.48,5.86a11.12,11.12,0,0,1-8.39.05l-2,1.19a.89.89,0,0,1-.81,0l-2-1.16c-.23-.13-.23-.34,0-.47l2-1.16c-1.93-1.27-2-3.14-.18-4.44a.9.9,0,0,1,.83,0l2,1.17c.18.1.23.25.1.38-.49.44-.4,1,.28,1.43l1.78,1a4.61,4.61,0,0,0,3.91.19c1.31-.6,1.4-1.74.21-2.43l-1.32-.76c-2.51-1.45-2.95-3.81-.71-5.41,2.41-1.68,6.56-1.88,9.41-.63l2-1.18a.87.87,0,0,1,.8,0Z"/><path class="cls-32" d="M187.73,148a8.81,8.81,0,0,0,6.73,3c4.16-.17,7.07-9.31,7.07-9.31l-4.26-.52s-4.15,2.93-5,2.89S187.73,148,187.73,148Z"/><polygon class="cls-33" points="225.72 217.59 202.65 201.13 186.79 210.03 222.41 223.36 225.72 217.59"/><polygon class="cls-34" points="206.99 223.43 181.01 208.86 169.47 220.41 201.09 230.12 206.99 223.43"/><path class="cls-35" d="M219.27,215.06l7.78,2.38.66.53c.13.32.66,2.8.69,3.15.16,1.47,0,2.33-1,3.19s-3.08.18-4.15-.32l-6-3.36c-4.56-2.13-2.69-5.17-2.69-5.17C215.68,214.17,217,214.62,219.27,215.06Z"/><path class="cls-35" d="M201.12,223.64l8.89-.43,2.14,2.51a4.88,4.88,0,0,1,0,4.76c-.67,1.11-2.84,1.26-4,1.16l-5.56-.85c-7-1.1-6.41-4.17-6.41-4.17C196.23,225.19,198.62,223.55,201.12,223.64Z"/><path class="cls-32" d="M207.4,228a3.54,3.54,0,0,0,2.39.24c1.29-.35,1.5-.94,1.5-1.78v-4.69a1.54,1.54,0,0,0-1.53-1.53h-2.2a1.53,1.53,0,0,0-1.53,1.53l-.05,3.87A2.6,2.6,0,0,0,207.4,228Z"/><path class="cls-32" d="M224.6,220.38h0a2.63,2.63,0,0,0,2.63-2.63v-2.49a2.63,2.63,0,0,0-2.63-2.63h0a2.63,2.63,0,0,0-2.63,2.63v2.49A2.63,2.63,0,0,0,224.6,220.38Z"/><path class="cls-36" d="M227.54,183.26c.6-6.19,3.32-15.33,2.61-22.59h0a4.51,4.51,0,0,0-2.9-3.94c-6.35-2.72-14.43,1.83-19,5.28-.58.44-1.74-.78-2-.11s-.88,6.16-.89,6.25c-2.06,10.74-1.45,23.54-1.18,33.64.21,7.42,1.2,22.32,1.2,22.32.84,2.38,5.33,2.7,7.38,0,0,0,1.22-14,1-21.24a91,91,0,0,1,2.55-22,13.24,13.24,0,0,1,1.71-2.36c.06,5.38.12,13.25.4,16,.77,7.45,2.45,22.17,2.45,22.17,1.59,1.91,7.57,1.94,8.36-.33,0,0-1.32-14.88-2.09-22.22A52.74,52.74,0,0,1,227.54,183.26Z"/><path class="cls-35" d="M205.36,168.15s2.58,4.89,7.76,4.27S230,165.61,230.28,162s-24.6,2.07-24.6,2.07Z"/><path class="cls-32" d="M223.08,123.73c-2.25-3.84-1.47-8.78-1.47-8.78l-7.49,2.33,0,7.56C214.17,126,225.33,127.58,223.08,123.73Z"/><path class="cls-37" d="M214.12,122.08a6.53,6.53,0,0,0,4-2.82l-.28-.94-3.71,1.61Z"/><path class="cls-38" d="M204.31,138.65s-.23,5.1,2.57,7c2,1.42,8.56-5.92,14.22-12.88,3.86-4.73,1.28-8.44.1-8.67s-4,1.45-5.44,2.9c-1.14,1.13-6.37,6.78-7.75,8S205,136.79,204.31,138.65Z"/><path class="cls-32" d="M219.86,102.21s5.32-3.2,4.79,5.41A13.68,13.68,0,0,1,215.84,120a4.82,4.82,0,0,1-6.73-3.86c-.44-4.39-.78-7.89.88-11.29,0-3.6,2.43-2.16,6.71-2.1Z"/><path class="cls-39" d="M221.64,119.09s5.31-1.71,5.31-10c0-9-8-8.32-12.53-9.07-2-.33-3.4-.71-5.6,1-2,1.55-.36,5.56,2.32,6,1.07.17.85,2.43,1,3.44.27,1.79,1.73,2.62,2,4.36s1.9,4.4,3.43,4.68C220.33,120,221.64,119.09,221.64,119.09Z"/><path class="cls-32" d="M213.72,114c-.2,1.3.34,2.46,1.21,2.6a1.31,1.31,0,0,0,.28,0,2.31,2.31,0,0,0,1.65-2.11c.2-1.3-.34-2.47-1.21-2.6S213.92,112.68,213.72,114Z"/><path class="cls-40" d="M214,124.38s-6.93,3.33-8.18,6.56-.09,27.27-.62,35.87a10.85,10.85,0,0,0,9,2.69c5.74-.71,16.26-6.53,16.8-9,0,0-.39-25.86,0-31,0,0-4.13-8.78-8.6-6.91,0,0,.67,2.42-2.73,3A7.72,7.72,0,0,1,214,124.38Z"/><path class="cls-32" d="M202.85,136.75a59.85,59.85,0,0,1-7.75-9.8,3.18,3.18,0,0,0-1.22-2.45s-1.54-1.09-2-.39c-.09.35-.72.65-1.73.31,0,0-.45-.25-1.35.83,0,0-2,1.82.87,4.94l2.77.88s4.35,9.43,5.88,11.14a2.74,2.74,0,0,0,4.54-.5C203.64,140.22,204.25,139.13,202.85,136.75Z"/><line class="cls-41" x1="186.81" y1="120.16" x2="184.76" y2="114.22"/><line class="cls-41" x1="181.46" y1="123.17" x2="179.4" y2="117.23"/><path class="cls-42" d="M183.73,137.21l9.82-5.68a.62.62,0,0,0,.27-.74l-4.3-12.45a.62.62,0,0,0-.9-.34l-9.82,5.69a.62.62,0,0,0-.27.74l4.3,12.45A.62.62,0,0,0,183.73,137.21Z"/><polygon class="cls-43" points="183.61 133.95 191.92 129.13 188.74 119.96 180.43 124.78 183.61 133.95"/><path class="cls-44" d="M212.85,125a7.41,7.41,0,0,0,4.86,2.3c3.08.2,4.57-.88,5.28-2.15s.81-2.82.42-3.31-1.4.17-1.4.17,0,1.22-1.76,2a7.78,7.78,0,0,1-5.36-.22C214,123.27,212.61,124.35,212.85,125Z"/><path class="cls-32" d="M192.25,142.54a59.85,59.85,0,0,1-7.75-9.8,3.15,3.15,0,0,0-1.22-2.44s-1.54-1.1-2-.4c-.09.35-.72.65-1.73.31,0,0-.45-.25-1.35.83,0,0-2,1.82.87,4.94l2.77.88s4.35,9.43,5.88,11.14a2.74,2.74,0,0,0,4.54-.5C193,146,193.65,144.92,192.25,142.54Z"/><path class="cls-45" d="M192.34,143.77s-.23,5.11,2.57,7c2,1.41,8.56-5.92,14.23-12.88,3.85-4.73,1.28-8.44.1-8.67s-4,1.44-5.44,2.9c-1.15,1.13-6.37,6.78-7.75,8S193,141.92,192.34,143.77Z"/><path class="cls-46" d="M151,89.65c0,9-13.64,16.26-30.46,16.26S90.11,98.63,90.11,89.65c0-2.05-.55-4.69.76-6.5,4.39-6.1,16.72-9.75,29.7-9.75,13.38,0,25.66,3.28,29.75,9.68C151.37,84.73,151,87.82,151,89.65Z"/><ellipse class="cls-47" cx="120.57" cy="84.48" rx="30.46" ry="16.26"/><ellipse class="cls-48" cx="120.57" cy="84.48" rx="24.72" ry="13.2"/><path class="cls-9" d="M121,73.57c13.65,0,24.29,5.32,24.29,10.91,0-7.29-11.07-13.2-24.72-13.2s-24.73,5.91-24.73,13.2C96.12,78.54,107.35,73.57,121,73.57Z"/><path class="cls-10" d="M133.12,78.29c.24.14.24.35,0,.49L131.05,80c2,1.31,2.08,3.26.19,4.61a.92.92,0,0,1-.87,0l-2.09-1.21c-.19-.1-.23-.27-.09-.4.5-.46.41-1.08-.28-1.48L126,80.44a4.86,4.86,0,0,0-4.07-.2c-1.35.63-1.44,1.82-.21,2.53l1.58.91c2.93,1.69,2.76,4.52-.5,6.09a11.59,11.59,0,0,1-8.72.06L112,91.07a.92.92,0,0,1-.84,0l-2.09-1.21c-.24-.13-.24-.35,0-.48l2.09-1.21c-2-1.31-2.09-3.26-.2-4.61a.92.92,0,0,1,.87,0l2.09,1.2c.19.11.23.28.1.41-.51.46-.41,1.07.28,1.47l1.87,1.08a4.84,4.84,0,0,0,4.06.21c1.36-.64,1.45-1.82.21-2.53l-1.37-.79c-2.61-1.51-3.06-4-.72-5.63s6.81-2,9.76-.66l2.11-1.22a.93.93,0,0,1,.83,0Z"/><line class="cls-49" x1="116.98" y1="33.63" x2="99.22" y2="96.07"/><line class="cls-50" x1="124.1" y1="33.63" x2="142.63" y2="95.68"/><line class="cls-51" x1="118.37" y1="33.07" x2="118.94" y2="68.22"/><path class="cls-44" d="M138.49,37l-.61-.35-.3.17,0,6.43a5.46,5.46,0,0,1,0,.56.59.59,0,0,1,0,.13,2.34,2.34,0,0,1,0,.26l0,.17a.94.94,0,0,0,0,.16l-.06.23a.65.65,0,0,0,0,.13l-.09.25a.36.36,0,0,1,0,.11c0,.12-.09.23-.14.35l0,0c0,.1-.09.21-.14.31l-.05.09-.15.29a.21.21,0,0,1,0,.06,3.45,3.45,0,0,1-.2.32l-.06.09a1.88,1.88,0,0,1-.16.23l-.08.12-.15.19-.12.15-.12.13-.21.23-.14.13a.52.52,0,0,1-.11.1.93.93,0,0,1-.18.16l-.1.09-.2.15-.1.07-.3.19-9.3,5.37a3.6,3.6,0,0,1-.39.2l-.13,0-.22.07-.14,0-.13,0-.17,0h-.35l-.24,0h0l-.11,0a2.39,2.39,0,0,1-.65-1.82l0-6.43-.61-.35-.3.18,0,6.43a2.44,2.44,0,0,0,1,2.23l.61.35-.12-.08a2.39,2.39,0,0,0,2.6-.16L135,49.45a7.64,7.64,0,0,0,3.47-6Z"/><path class="cls-44" d="M117.5,27.69l-.61-.35-.3.18,0,6.42a5.27,5.27,0,0,1,0,.56s0,.09,0,.13,0,.17,0,.26l0,.17c0,.06,0,.11,0,.16l-.06.23a.93.93,0,0,0,0,.13l-.09.26a.42.42,0,0,1,0,.1,3.65,3.65,0,0,1-.14.35v0l-.15.31,0,.1-.15.28,0,.06c-.07.11-.14.22-.2.33l-.07.09-.15.22-.09.12L115,38l-.12.15-.12.14-.21.22-.14.14-.1.1-.18.15L114,39l-.2.15-.1.07-.3.2-9.3,5.36a3.6,3.6,0,0,1-.39.2l-.13,0-.22.08-.14,0-.13,0-.17,0h-.1a1.33,1.33,0,0,1-.2,0h0a.85.85,0,0,1-.23,0h-.06l-.11,0a2.42,2.42,0,0,1-.65-1.83l0-6.42-.61-.35-.3.17,0,6.43a2.41,2.41,0,0,0,1,2.23l.6.35-.11-.08a2.35,2.35,0,0,0,2.59-.16L114,40.14a7.67,7.67,0,0,0,3.48-6Z"/><path class="cls-52" d="M151.32,33.31a1.54,1.54,0,0,1,.89,1.23c0,1-1.34,1.74-3,1.74h-5.77a22.7,22.7,0,0,0-11.32,2.81l-5.82,3.38c-3.07,1.77-4.86,4.11-4.85,6.59l0,3.34c0,1-1.34,1.74-3,1.74a4.27,4.27,0,0,1-2.13-.51,1.5,1.5,0,0,1-.89-1.23l0-3.34c0-2.46-1.8-4.79-4.81-6.52l-5.93-3.43a23.08,23.08,0,0,0-11.39-2.83H87.54a4.3,4.3,0,0,1-2.13-.51,1.54,1.54,0,0,1-.89-1.23c0-1,1.34-1.74,3-1.74h5.77A22.7,22.7,0,0,0,104.61,30l5.82-3.38c3.07-1.77,4.86-4.11,4.85-6.59l0-3.34c0-1,1.34-1.74,3-1.74a4.27,4.27,0,0,1,2.13.51,1.5,1.5,0,0,1,.89,1.23l0,3.34c0,2.47,1.8,4.79,4.82,6.53L132,30a23.08,23.08,0,0,0,11.39,2.83h5.77A4.3,4.3,0,0,1,151.32,33.31Z"/><path class="cls-10" d="M152.2,34.65a.25.25,0,0,0,0,.08l0,.1a.19.19,0,0,1,0,.07l0,.08-.05.09,0,.06a1,1,0,0,1-.08.11l0,.06a.8.8,0,0,1-.13.13l-.06.06-.09.08-.08.06-.12.08-.08,0-.28.15-.07,0a2.65,2.65,0,0,1-.3.11h0a3.06,3.06,0,0,1-.56.14h0l-.34,0h-.13l-.18,0h-6l-.85,0h-.32l-.5,0-.34,0-.47,0h-.1l-.18,0-.66.08-.29,0-.7.11-.15,0h-.06l-.43.09-.32.06-.45.11-.29.07-.5.13-.23.06-.71.21h0l-.89.31-.22.08-.86.35h0c-.28.12-.55.25-.81.38l-.2.1c-.27.14-.53.28-.78.43l-5.82,3.38-.3.18-.12.07-.32.21-.24.16-.31.21-.22.17-.29.22-.2.16-.29.26-.14.12,0,0-.48.48-.11.13-.33.38-.07.08-.06.08-.19.27-.13.18c-.06.1-.12.19-.17.29a.57.57,0,0,0-.08.13l0,0c0,.07-.07.15-.11.22l-.11.22-.09.22a1.42,1.42,0,0,0-.08.18s0,0,0,0,0,.13-.07.19,0,.17-.07.25a1.46,1.46,0,0,0-.05.2c0,.06,0,.12,0,.18a.2.2,0,0,1,0,.07l0,.19,0,.25a1.48,1.48,0,0,0,0,.21.76.76,0,0,0,0,.15,1.09,1.09,0,0,0,0,.18v3.27c0-.11,0-.22,0-.34s0-.13,0-.2l0-.25a1.77,1.77,0,0,1,0-.2,2,2,0,0,1,0-.24l0-.2c0-.08,0-.16.08-.25l.06-.19.09-.22L122,50l.11-.22a2.39,2.39,0,0,1,.12-.22,1,1,0,0,1,.1-.17,1.75,1.75,0,0,1,.18-.29l.12-.18.2-.27a1.83,1.83,0,0,1,.13-.16c.1-.13.21-.26.32-.38l.11-.13.48-.48.17-.15.29-.25.2-.16.29-.23.22-.16.31-.21.24-.16.32-.21.42-.25,5.83-3.39.77-.42.2-.1c.26-.13.53-.26.81-.38h0l.85-.35L135,41l.89-.31h0l.71-.21.22-.06.51-.13.29-.07.45-.11.32-.06.43-.09.22,0,.69-.11.29,0,.66-.08.28,0,.47,0,.34,0,.5,0,.32,0h7.17l.34-.05h0a3.06,3.06,0,0,0,.56-.14h0l.29-.11.07,0,.29-.15h0l.06,0,.12-.08.08-.06.1-.08a0,0,0,0,1,0,0l0,0,.13-.13,0,0v0a1,1,0,0,0,.08-.11l0,0v0a.36.36,0,0,1,0-.09l0-.06v0a.19.19,0,0,0,0-.08l0-.07v0a.25.25,0,0,1,0-.08s0-.05,0-.07V34.54S152.2,34.62,152.2,34.65Z"/><path class="cls-10" d="M121.45,52.59a.36.36,0,0,1,0,.1s0,.05,0,.07a.59.59,0,0,1,0,.08.36.36,0,0,1,0,.09l0,.06a.41.41,0,0,1-.07.11l0,.06-.12.13-.06.06-.1.08-.08.06-.11.08-.08,0-.29.15-.07,0-.29.11,0,0a4.59,4.59,0,0,1-.56.13h0l-.35,0h-.12l-.19,0h-.23a5.17,5.17,0,0,1-.57,0h-.07a3.86,3.86,0,0,1-.49-.09l-.09,0a3,3,0,0,1-.45-.14h0a2.56,2.56,0,0,1-.44-.21,1.5,1.5,0,0,1-.89-1.23l0-3.34c0-2.46-1.8-4.79-4.81-6.52l-5.93-3.43c-.39-.23-.8-.44-1.23-.65h0c-.42-.2-.84-.38-1.28-.55h0l-.07,0-.79-.29-.24-.08c-.29-.09-.58-.19-.88-.27h0l-.78-.2L99.12,37c-.18,0-.36-.09-.55-.12l-.1,0-.24,0-.4-.08-.36-.06-.4-.06-.13,0-.11,0c-.43-.06-.87-.11-1.31-.14h-.17c-.45,0-.89-.06-1.34-.07H87.54a5.44,5.44,0,0,1-.57,0h-.06a3.56,3.56,0,0,1-.49-.09l-.09,0a3,3,0,0,1-.45-.14h0a3.1,3.1,0,0,1-.45-.21,1.54,1.54,0,0,1-.89-1.23v3.27A1.54,1.54,0,0,0,85.4,39a3,3,0,0,0,.44.21h0l.33.11.12,0,.09,0,.11,0,.3,0h.28l.3,0H94c.45,0,.89,0,1.34.07l.17,0c.44,0,.88.08,1.31.14l.24,0,.4.06.36.06.4.07.34.07.55.13.25.06.78.2h0c.3.08.59.18.88.27l.24.08.79.29.09,0c.44.18.86.36,1.28.56h0c.43.21.84.42,1.23.65l5.93,3.42c3,1.74,4.8,4.07,4.81,6.53l0,3.34a1.5,1.5,0,0,0,.89,1.23,2.56,2.56,0,0,0,.44.21h0l.34.11.11,0,.09,0,.11,0,.3,0H118l.29,0H119l.34-.05h0a3.28,3.28,0,0,0,.56-.14h0l.29-.11.07,0,.29-.15h0l.06,0,.12-.08.07-.06.1-.08,0,0,0,0,.12-.13,0,0,0,0a.41.41,0,0,0,.07-.11l0,0v0a.36.36,0,0,0,0-.09s0,0,0-.06v0s0-.05,0-.07a.31.31,0,0,0,0-.08v0a.19.19,0,0,0,0-.08.17.17,0,0,0,0-.07V52.4a.37.37,0,0,1,0,.11A.19.19,0,0,1,121.45,52.59Z"/><path class="cls-53" d="M152.2,34.65a.25.25,0,0,0,0,.08l0,.1a.19.19,0,0,1,0,.07l0,.08-.05.09,0,.06a1,1,0,0,1-.08.11l0,.06a.8.8,0,0,1-.13.13l-.06.06-.09.08-.08.06-.12.08-.08,0-.28.15-.07,0a2.65,2.65,0,0,1-.3.11h0a3.06,3.06,0,0,1-.56.14h0l-.34,0h-.13l-.18,0h-6l-.85,0h-.32l-.5,0-.34,0-.47,0h-.1l-.18,0-.66.08-.29,0-.7.11-.15,0h-.06l-.43.09-.32.06-.45.11-.29.07-.5.13-.23.06-.71.21h0l-.89.31-.22.08-.86.35h0c-.28.12-.55.25-.81.38l-.2.1c-.27.14-.53.28-.78.43l-5.82,3.38-.3.18-.12.07-.32.21-.24.16-.31.21-.22.17-.29.22-.2.16-.29.26-.14.12,0,0-.48.48-.11.13-.33.38-.07.08-.06.08-.19.27-.13.18c-.06.1-.12.19-.17.29a.57.57,0,0,0-.08.13l0,0c0,.07-.07.15-.11.22l-.11.22-.09.22a1.42,1.42,0,0,0-.08.18s0,0,0,0,0,.13-.07.19,0,.17-.07.25a1.46,1.46,0,0,0-.05.2c0,.06,0,.12,0,.18a.2.2,0,0,1,0,.07l0,.19,0,.25a1.48,1.48,0,0,0,0,.21.76.76,0,0,0,0,.15,1.09,1.09,0,0,0,0,.18v3.27c0-.11,0-.22,0-.34s0-.13,0-.2l0-.25a1.77,1.77,0,0,1,0-.2,2,2,0,0,1,0-.24l0-.2c0-.08,0-.16.08-.25l.06-.19.09-.22L122,50l.11-.22a2.39,2.39,0,0,1,.12-.22,1,1,0,0,1,.1-.17,1.75,1.75,0,0,1,.18-.29l.12-.18.2-.27a1.83,1.83,0,0,1,.13-.16c.1-.13.21-.26.32-.38l.11-.13.48-.48.17-.15.29-.25.2-.16.29-.23.22-.16.31-.21.24-.16.32-.21.42-.25,5.83-3.39.77-.42.2-.1c.26-.13.53-.26.81-.38h0l.85-.35L135,41l.89-.31h0l.71-.21.22-.06.51-.13.29-.07.45-.11.32-.06.43-.09.22,0,.69-.11.29,0,.66-.08.28,0,.47,0,.34,0,.5,0,.32,0h7.17l.34-.05h0a3.06,3.06,0,0,0,.56-.14h0l.29-.11.07,0,.29-.15h0l.06,0,.12-.08.08-.06.1-.08a0,0,0,0,1,0,0l0,0,.13-.13,0,0v0a1,1,0,0,0,.08-.11l0,0v0a.36.36,0,0,1,0-.09l0-.06v0a.19.19,0,0,0,0-.08l0-.07v0a.25.25,0,0,1,0-.08s0-.05,0-.07V34.54S152.2,34.62,152.2,34.65Z"/><path class="cls-54" d="M121.45,52.59a.36.36,0,0,1,0,.1s0,.05,0,.07a.59.59,0,0,1,0,.08.36.36,0,0,1,0,.09l0,.06a.41.41,0,0,1-.07.11l0,.06-.12.13-.06.06-.1.08-.08.06-.11.08-.08,0-.29.15-.07,0-.29.11,0,0a4.59,4.59,0,0,1-.56.13h0l-.35,0h-.12l-.19,0h-.23a5.17,5.17,0,0,1-.57,0h-.07a3.86,3.86,0,0,1-.49-.09l-.09,0a3,3,0,0,1-.45-.14h0a2.56,2.56,0,0,1-.44-.21,1.5,1.5,0,0,1-.89-1.23l0-3.34c0-2.46-1.8-4.79-4.81-6.52l-5.93-3.43c-.39-.23-.8-.44-1.23-.65h0c-.42-.2-.84-.38-1.28-.55h0l-.07,0-.79-.29-.24-.08c-.29-.09-.58-.19-.88-.27h0l-.78-.2L99.12,37c-.18,0-.36-.09-.55-.12l-.1,0-.24,0-.4-.08-.36-.06-.4-.06-.13,0-.11,0c-.43-.06-.87-.11-1.31-.14h-.17c-.45,0-.89-.06-1.34-.07H87.54a5.44,5.44,0,0,1-.57,0h-.06a3.56,3.56,0,0,1-.49-.09l-.09,0a3,3,0,0,1-.45-.14h0a3.1,3.1,0,0,1-.45-.21,1.54,1.54,0,0,1-.89-1.23v3.27A1.54,1.54,0,0,0,85.4,39a3,3,0,0,0,.44.21h0l.33.11.12,0,.09,0,.11,0,.3,0h.28l.3,0H94c.45,0,.89,0,1.34.07l.17,0c.44,0,.88.08,1.31.14l.24,0,.4.06.36.06.4.07.34.07.55.13.25.06.78.2h0c.3.08.59.18.88.27l.24.08.79.29.09,0c.44.18.86.36,1.28.56h0c.43.21.84.42,1.23.65l5.93,3.42c3,1.74,4.8,4.07,4.81,6.53l0,3.34a1.5,1.5,0,0,0,.89,1.23,2.56,2.56,0,0,0,.44.21h0l.34.11.11,0,.09,0,.11,0,.3,0H118l.29,0H119l.34-.05h0a3.28,3.28,0,0,0,.56-.14h0l.29-.11.07,0,.29-.15h0l.06,0,.12-.08.07-.06.1-.08,0,0,0,0,.12-.13,0,0,0,0a.41.41,0,0,0,.07-.11l0,0v0a.36.36,0,0,0,0-.09s0,0,0-.06v0s0-.05,0-.07a.31.31,0,0,0,0-.08v0a.19.19,0,0,0,0-.08.17.17,0,0,0,0-.07V52.4a.37.37,0,0,1,0,.11A.19.19,0,0,1,121.45,52.59Z"/><g class="cls-55"><path class="cls-56" d="M151,31.23l0,3.28a.9.9,0,0,1-.52.74,2.83,2.83,0,0,1-2.55,0,.92.92,0,0,1-.54-.75l0-3.28a.9.9,0,0,0,.53.74,2.8,2.8,0,0,0,2.55,0A.9.9,0,0,0,151,31.23Z"/><path class="cls-57" d="M150.45,30.48a.78.78,0,0,1,0,1.48,2.8,2.8,0,0,1-2.55,0c-.7-.41-.71-1.07,0-1.47A2.85,2.85,0,0,1,150.45,30.48Z"/><path class="cls-58" d="M150.45,30.48a.78.78,0,0,1,0,1.48,2.8,2.8,0,0,1-2.55,0c-.7-.41-.71-1.07,0-1.47A2.85,2.85,0,0,1,150.45,30.48Z"/><g class="cls-59"><path class="cls-60" d="M159.85,25c6,3.43,6,9,.07,12.42s-15.51,3.43-21.45,0-6-9-.07-12.42S153.91,21.57,159.85,25Z"/></g><g class="cls-61"><path class="cls-62" d="M138.47,37.43c5.94,3.43,15.55,3.43,21.45,0L149.2,31.24Z"/></g><path class="cls-63" d="M159.85,25c-5.94-3.44-15.54-3.44-21.45,0l10.8,6.23Z"/><path class="cls-64" d="M149.77,30v1.1a.31.31,0,0,1-.17.25.93.93,0,0,1-.86,0,.31.31,0,0,1-.18-.25V30a.28.28,0,0,0,.18.25.93.93,0,0,0,.86,0A.29.29,0,0,0,149.77,30Z"/><path class="cls-65" d="M149.59,29.73c.24.14.24.36,0,.49a.93.93,0,0,1-.86,0c-.24-.13-.24-.35,0-.49A.91.91,0,0,1,149.59,29.73Z"/><path class="cls-66" d="M149.59,29.73c.24.14.24.36,0,.49a.93.93,0,0,1-.86,0c-.24-.13-.24-.35,0-.49A.91.91,0,0,1,149.59,29.73Z"/></g><g class="cls-55"><path class="cls-67" d="M120.15,14.8l0,3.28a.89.89,0,0,1-.53.73,2.8,2.8,0,0,1-2.55,0,.9.9,0,0,1-.53-.74l0-3.28a.9.9,0,0,0,.53.74,2.8,2.8,0,0,0,2.55,0A.9.9,0,0,0,120.15,14.8Z"/><path class="cls-68" d="M119.61,14.05a.78.78,0,0,1,0,1.48,2.8,2.8,0,0,1-2.55,0,.78.78,0,0,1,0-1.48A2.86,2.86,0,0,1,119.61,14.05Z"/><path class="cls-69" d="M119.61,14.05a.78.78,0,0,1,0,1.48,2.8,2.8,0,0,1-2.55,0,.78.78,0,0,1,0-1.48A2.86,2.86,0,0,1,119.61,14.05Z"/><g class="cls-59"><path class="cls-70" d="M129,8.57c5.94,3.44,6,9,.07,12.43s-15.51,3.43-21.45,0-6-9-.07-12.43S123.08,5.14,129,8.57Z"/></g><g class="cls-61"><path class="cls-71" d="M107.64,21c5.94,3.43,15.55,3.43,21.45,0l-10.72-6.19Z"/></g><path class="cls-72" d="M129,8.57c-5.94-3.43-15.55-3.43-21.45,0l10.8,6.24Z"/><path class="cls-73" d="M118.94,13.55v1.1a.31.31,0,0,1-.18.25,1,1,0,0,1-.85,0,.31.31,0,0,1-.18-.25V13.54a.31.31,0,0,0,.18.25.91.91,0,0,0,.85,0Q118.94,13.69,118.94,13.55Z"/><path class="cls-74" d="M118.76,13.3a.26.26,0,0,1,0,.49.91.91,0,0,1-.85,0,.26.26,0,0,1,0-.49A.93.93,0,0,1,118.76,13.3Z"/><path class="cls-75" d="M118.76,13.3a.26.26,0,0,1,0,.49.91.91,0,0,1-.85,0,.26.26,0,0,1,0-.49A.93.93,0,0,1,118.76,13.3Z"/></g><g class="cls-55"><path class="cls-76" d="M120.15,48.8l0,3.29a.9.9,0,0,1-.53.73,2.8,2.8,0,0,1-2.55,0,.9.9,0,0,1-.53-.74l0-3.29a.93.93,0,0,0,.53.75,2.83,2.83,0,0,0,2.55,0A.91.91,0,0,0,120.15,48.8Z"/><path class="cls-77" d="M119.61,48.06a.78.78,0,0,1,0,1.48,2.83,2.83,0,0,1-2.55,0,.78.78,0,0,1,0-1.48A2.8,2.8,0,0,1,119.61,48.06Z"/><path class="cls-78" d="M119.61,48.06a.78.78,0,0,1,0,1.48,2.83,2.83,0,0,1-2.55,0,.78.78,0,0,1,0-1.48A2.8,2.8,0,0,1,119.61,48.06Z"/><g class="cls-59"><path class="cls-79" d="M129,42.58c5.94,3.43,6,9,.07,12.43s-15.51,3.43-21.45,0-6-9-.07-12.43S123.08,39.15,129,42.58Z"/></g><g class="cls-61"><path class="cls-80" d="M107.64,55c5.94,3.43,15.55,3.43,21.45,0l-10.72-6.2Z"/></g><path class="cls-81" d="M129,42.58c-5.94-3.43-15.55-3.43-21.45,0l10.8,6.23Z"/><path class="cls-82" d="M118.94,47.55v1.11q0,.14-.18.24a.91.91,0,0,1-.85,0,.31.31,0,0,1-.18-.25v-1.1a.31.31,0,0,0,.18.25.91.91,0,0,0,.85,0A.31.31,0,0,0,118.94,47.55Z"/><path class="cls-83" d="M118.76,47.3a.26.26,0,0,1,0,.5.91.91,0,0,1-.85,0c-.24-.14-.24-.36,0-.5A.93.93,0,0,1,118.76,47.3Z"/><path class="cls-84" d="M118.76,47.3a.26.26,0,0,1,0,.5.91.91,0,0,1-.85,0c-.24-.14-.24-.36,0-.5A.93.93,0,0,1,118.76,47.3Z"/></g><g class="cls-55"><path class="cls-85" d="M89.64,31.25l0,3.28a.9.9,0,0,1-.52.74,2.83,2.83,0,0,1-2.55,0,.88.88,0,0,1-.53-.75l0-3.28a.89.89,0,0,0,.54.74,2.8,2.8,0,0,0,2.55,0A.87.87,0,0,0,89.64,31.25Z"/><path class="cls-86" d="M89.11,30.51c.71.41.71,1.07,0,1.47a2.8,2.8,0,0,1-2.55,0,.78.78,0,0,1,0-1.47A2.8,2.8,0,0,1,89.11,30.51Z"/><path class="cls-87" d="M89.11,30.51c.71.41.71,1.07,0,1.47a2.8,2.8,0,0,1-2.55,0,.78.78,0,0,1,0-1.47A2.8,2.8,0,0,1,89.11,30.51Z"/><g class="cls-59"><path class="cls-88" d="M98.51,25c5.95,3.43,6,9,.08,12.42s-15.51,3.43-21.46,0-6-9-.07-12.42S92.57,21.59,98.51,25Z"/></g><g class="cls-61"><path class="cls-89" d="M77.13,37.45c6,3.43,15.55,3.43,21.46,0L87.86,31.26Z"/></g><path class="cls-90" d="M98.51,25C92.57,21.59,83,21.59,77.06,25l10.8,6.23Z"/><path class="cls-91" d="M88.43,30v1.1a.31.31,0,0,1-.18.25.93.93,0,0,1-.86,0,.31.31,0,0,1-.18-.25V30a.31.31,0,0,0,.18.25,1,1,0,0,0,.86,0A.29.29,0,0,0,88.43,30Z"/><path class="cls-92" d="M88.26,29.75a.27.27,0,0,1,0,.5,1,1,0,0,1-.86,0,.26.26,0,0,1,0-.5A.93.93,0,0,1,88.26,29.75Z"/><path class="cls-93" d="M88.26,29.75a.27.27,0,0,1,0,.5,1,1,0,0,1-.86,0,.26.26,0,0,1,0-.5A.93.93,0,0,1,88.26,29.75Z"/></g><line class="cls-94" x1="142.63" y1="95.68" x2="142.63" y2="100.83"/><line class="cls-95" x1="99.22" y1="96.07" x2="99.22" y2="101.24"/><polygon class="cls-96" points="55.52 218.3 84.03 203.94 110.31 189.76 100.87 184.51 77.12 197.13 46.13 213.11 55.52 218.3"/><path class="cls-97" d="M55.21,218.12s-1,18.73,12.88,20.73c15,2.15,39.58-18.69,42.23-49.09l-26,14Z"/><path class="cls-98" d="M46.12,213.11l9.09,5s-1.07,16,11,20.4C66.24,238.51,45.86,235.59,46.12,213.11Z"/><polygon class="cls-99" points="78.71 189.34 86.86 194.85 86.86 164.45 78.71 159.85 78.71 189.34"/><path class="cls-100" d="M78.71,159.85l8.17,4.64s10.5-6.88,20.24.14c0,0-6.76-7.35-14.79-8.35C86.62,155.56,80.18,158.49,78.71,159.85Z"/><path class="cls-101" d="M86.87,164.49a19.68,19.68,0,0,1,17.37-1.69c7.72,3,6.87,12.4,6.4,19.94L86.86,194.85Z"/><path class="cls-102" d="M86.86,191.65V164.49a19.68,19.68,0,0,1,17.37-1.69,13.16,13.16,0,0,1,3.76,2.74"/><path class="cls-103" d="M83.53,171.8,83.84,204l-20-12.59S67.94,180.81,83.53,171.8Z"/><path class="cls-104" d="M83.55,171.79a60.85,60.85,0,0,0-19.7,19.64l-9.3-5.33s7.69-12.18,19-19.94Z"/><path class="cls-105" d="M54.55,186.1l9.3,5.31a61.73,61.73,0,0,0-8.64,26.69l-9.08-5A64.75,64.75,0,0,1,54.55,186.1Z"/><path class="cls-106" d="M63.85,191.41l20,12.55L55.21,218.14S55.16,205.4,63.85,191.41Z"/></svg>