<svg id="Layer_1" data-name="Layer 1" xmlns="http://www.w3.org/2000/svg" xmlns:xlink="http://www.w3.org/1999/xlink" viewBox="0 0 240 240"><defs><style>.cls-1{fill:url(#linear-gradient);}.cls-2{fill:url(#linear-gradient-2);}.cls-3{fill:#eb345a;}.cls-4{fill:url(#linear-gradient-3);}.cls-5{fill:url(#linear-gradient-4);}.cls-6{fill:url(#linear-gradient-5);}.cls-7{fill:url(#linear-gradient-6);}.cls-8{fill:url(#linear-gradient-7);}.cls-9{fill:url(#linear-gradient-8);}.cls-10{fill:url(#linear-gradient-9);}.cls-11,.cls-21{fill:#fff5d7;}.cls-11,.cls-13{opacity:0.2;}.cls-12{isolation:isolate;}.cls-14{fill:#2d2d2d;}.cls-15{fill:url(#_ÂÁ_Ï_ÌÌ_È_ËÂÌÚ_72);}.cls-16{fill:url(#_ÂÁ_Ï_ÌÌ_È_ËÂÌÚ_72-2);}.cls-17{fill:url(#_ÂÁ_Ï_ÌÌ_È_ËÂÌÚ_72-3);}.cls-18{fill:url(#_ÂÁ_Ï_ÌÌ_È_ËÂÌÚ_72-4);}.cls-19{fill:url(#linear-gradient-10);}.cls-20{opacity:0.35;}.cls-22{fill:#88beff;opacity:0.5;}.cls-23{fill:#d6c490;}.cls-24{fill:#f2e3b3;}.cls-25{fill:#353535;}.cls-26{fill:#e5a394;}.cls-27{fill:url(#linear-gradient-11);}.cls-28{fill:url(#linear-gradient-12);}.cls-29{fill:url(#linear-gradient-13);}.cls-30{fill:#0f2386;}.cls-31{fill:url(#linear-gradient-14);}.cls-32{fill:#cc8e83;}.cls-33{fill:url(#linear-gradient-15);}.cls-34{fill:url(#linear-gradient-16);}.cls-35{fill:#f18d0a;}</style><linearGradient id="linear-gradient" x1="106.37" y1="166.47" x2="87.72" y2="130.74" gradientUnits="userSpaceOnUse"><stop offset="0" stop-color="#6c68e6" stop-opacity="0.2"/><stop offset="0.28" stop-color="#4781e2" stop-opacity="0.13"/><stop offset="0.69" stop-color="#00b1db" stop-opacity="0"/></linearGradient><linearGradient id="linear-gradient-2" x1="112.11" y1="176.93" x2="92.71" y2="142.89" gradientUnits="userSpaceOnUse"><stop offset="0" stop-color="#6c68e6" stop-opacity="0.2"/><stop offset="0.27" stop-color="#4781e2" stop-opacity="0.13"/><stop offset="0.66" stop-color="#00b1db" stop-opacity="0"/></linearGradient><linearGradient id="linear-gradient-3" x1="160.09" y1="62.25" x2="144.28" y2="34.87" gradientUnits="userSpaceOnUse"><stop offset="0"/><stop offset="0" stop-color="#5757c2"/><stop offset="1" stop-color="#1375ba"/></linearGradient><linearGradient id="linear-gradient-4" x1="105.86" y1="95.32" x2="96.05" y2="78.32" gradientUnits="userSpaceOnUse"><stop offset="0.12" stop-color="#00b1db"/><stop offset="0.37" stop-color="#0696c6"/><stop offset="0.78" stop-color="#106ea6"/><stop offset="1" stop-color="#145e9a"/></linearGradient><linearGradient id="linear-gradient-5" x1="80.95" y1="183.18" x2="41.21" y2="114.34" xlink:href="#linear-gradient-4"/><linearGradient id="linear-gradient-6" x1="139.74" y1="153.37" x2="108.06" y2="98.49" xlink:href="#linear-gradient-4"/><linearGradient id="linear-gradient-7" x1="105.35" y1="95.62" x2="94.77" y2="77.29" xlink:href="#linear-gradient-3"/><linearGradient id="linear-gradient-8" x1="57.31" y1="185.44" x2="62.89" y2="95.88" gradientUnits="userSpaceOnUse"><stop offset="0" stop-color="#5757c2"/><stop offset="1" stop-color="#1375ba"/></linearGradient><linearGradient id="linear-gradient-9" x1="150.8" y1="128.78" x2="62.35" y2="87.01" gradientUnits="userSpaceOnUse"><stop offset="0" stop-color="#6c68e6"/><stop offset="0.2" stop-color="#5c73e4"/><stop offset="0.58" stop-color="#338ee0"/><stop offset="1" stop-color="#00b1db"/></linearGradient><linearGradient id="_ÂÁ_Ï_ÌÌ_È_ËÂÌÚ_72" x1="172.19" y1="105.71" x2="201.86" y2="105.71" gradientUnits="userSpaceOnUse"><stop offset="0" stop-color="#a32e59"/><stop offset="0.21" stop-color="#aa2f59"/><stop offset="0.5" stop-color="#bd3059"/><stop offset="0.85" stop-color="#dc335a"/><stop offset="1" stop-color="#eb345a"/></linearGradient><linearGradient id="_ÂÁ_Ï_ÌÌ_È_ËÂÌÚ_72-2" x1="112.9" y1="124.03" x2="162.8" y2="124.03" xlink:href="#_ÂÁ_Ï_ÌÌ_È_ËÂÌÚ_72"/><linearGradient id="_ÂÁ_Ï_ÌÌ_È_ËÂÌÚ_72-3" x1="105.63" y1="144.69" x2="59.81" y2="186.82" xlink:href="#_ÂÁ_Ï_ÌÌ_È_ËÂÌÚ_72"/><linearGradient id="_ÂÁ_Ï_ÌÌ_È_ËÂÌÚ_72-4" x1="62.37" y1="199.86" x2="62.37" y2="129.05" xlink:href="#_ÂÁ_Ï_ÌÌ_È_ËÂÌÚ_72"/><linearGradient id="linear-gradient-10" x1="140.52" y1="163.3" x2="117.45" y2="124.21" gradientUnits="userSpaceOnUse"><stop offset="0" stop-color="#9b0165"/><stop offset="0.03" stop-color="#a80367"/><stop offset="0.11" stop-color="#c5096c"/><stop offset="0.19" stop-color="#dc0d6f"/><stop offset="0.28" stop-color="#ec1072"/><stop offset="0.39" stop-color="#f51174"/><stop offset="0.52" stop-color="#f81274"/><stop offset="1" stop-color="#f47e64"/></linearGradient><linearGradient id="linear-gradient-11" x1="218.49" y1="115.44" x2="235.44" y2="112.69" gradientUnits="userSpaceOnUse"><stop offset="0" stop-color="#ff9a00"/><stop offset="0.52" stop-color="#f9cb00"/><stop offset="1" stop-color="#ffbd00"/></linearGradient><linearGradient id="linear-gradient-12" x1="214.36" y1="7.01" x2="242.72" y2="7.01" gradientTransform="matrix(0.51, 0.86, 0.86, -0.51, 74.94, -10.8)" gradientUnits="userSpaceOnUse"><stop offset="0.35" stop-color="#00b1db" stop-opacity="0"/><stop offset="0.78" stop-color="#6c68e6" stop-opacity="0.2"/></linearGradient><linearGradient id="linear-gradient-13" x1="218.56" y1="3.2" x2="245.31" y2="3.2" gradientTransform="matrix(0.46, 0.9, 0.89, -0.45, 70.37, -17.72)" xlink:href="#linear-gradient-12"/><linearGradient id="linear-gradient-14" x1="218.35" y1="184.08" x2="189.5" y2="121.12" gradientUnits="userSpaceOnUse"><stop offset="0" stop-color="#3772cd"/><stop offset="0.17" stop-color="#3267c6"/><stop offset="0.47" stop-color="#254ab3"/><stop offset="0.8" stop-color="#14249a"/></linearGradient><linearGradient id="linear-gradient-15" x1="195.41" y1="120.81" x2="230.38" y2="118.53" xlink:href="#linear-gradient-11"/><linearGradient id="linear-gradient-16" x1="-40.85" y1="-349.53" x2="-7.03" y2="-345.39" gradientTransform="translate(4.22 407.34) rotate(37.76)" xlink:href="#linear-gradient-11"/></defs><polygon class="cls-1" points="50.32 199.06 -13 173.34 176 64.3 189.83 121.14 50.32 199.06"/><polygon class="cls-2" points="64.46 207.1 -3.37 181.32 147.13 92.73 201.95 127.54 64.46 207.1"/><path class="cls-3" d="M76.84,208.87a.78.78,0,0,1-.54-.47,2.49,2.49,0,0,1-.2-1.09,4.33,4.33,0,0,1,.2-1.31,3.7,3.7,0,0,1,.54-1.09,2.62,2.62,0,0,1,.79-.74,1.14,1.14,0,0,1,.8-.18.78.78,0,0,1,.54.47,2.45,2.45,0,0,1,.2,1.08,4.44,4.44,0,0,1-.2,1.32,3.89,3.89,0,0,1-.54,1.1,2.89,2.89,0,0,1-.8.73A1.12,1.12,0,0,1,76.84,208.87Zm1.38-1.16a2.73,2.73,0,0,0,.4-.86,3.65,3.65,0,0,0,.14-1.07,2.31,2.31,0,0,0-.14-.92.62.62,0,0,0-.4-.39.76.76,0,0,0-.59.12,2,2,0,0,0-.59.56,2.77,2.77,0,0,0-.39.85,3.71,3.71,0,0,0-.15,1.08,2.23,2.23,0,0,0,.15.91.58.58,0,0,0,.39.4.79.79,0,0,0,.59-.12A1.84,1.84,0,0,0,78.22,207.71Z"/><path class="cls-3" d="M80.84,202.36v4.43l-.39.23v-4l-.91.53v-.41Z"/><path class="cls-3" d="M102.25,194.16a.8.8,0,0,1-.55-.47,2.54,2.54,0,0,1-.19-1.09,4.32,4.32,0,0,1,.19-1.31,3.55,3.55,0,0,1,.55-1.1,2.47,2.47,0,0,1,.79-.73,1.18,1.18,0,0,1,.79-.19.84.84,0,0,1,.55.47,2.51,2.51,0,0,1,.19,1.09,4.32,4.32,0,0,1-.19,1.31,4,4,0,0,1-.55,1.1,2.58,2.58,0,0,1-.79.73A1.19,1.19,0,0,1,102.25,194.16Zm1.38-1.17a2.91,2.91,0,0,0,.4-.85,4.09,4.09,0,0,0,.14-1.08,2.44,2.44,0,0,0-.14-.91.66.66,0,0,0-.4-.4.8.8,0,0,0-.59.13,1.91,1.91,0,0,0-.59.55,3,3,0,0,0-.4.86,4.09,4.09,0,0,0-.14,1.08,2.44,2.44,0,0,0,.14.91.66.66,0,0,0,.4.4.8.8,0,0,0,.59-.13A1.84,1.84,0,0,0,103.63,193Z"/><path class="cls-3" d="M107.81,190.77v.41l-2.7,1.55v-.32l1.6-2.73a5.11,5.11,0,0,0,.41-.82,1.8,1.8,0,0,0,.1-.57c0-.26-.07-.42-.23-.48a.88.88,0,0,0-.67.17,2.63,2.63,0,0,0-1,1.1L105,189a3.66,3.66,0,0,1,.57-.8,3.44,3.44,0,0,1,.79-.62,1.19,1.19,0,0,1,.93-.21c.23.08.34.3.34.68a2.25,2.25,0,0,1-.13.73,6.58,6.58,0,0,1-.5,1L105.69,192Z"/><path class="cls-3" d="M128.31,179.4a.8.8,0,0,1-.54-.47,2.52,2.52,0,0,1-.2-1.09,4.33,4.33,0,0,1,.2-1.31,3.76,3.76,0,0,1,.54-1.1,2.58,2.58,0,0,1,.79-.73,1.14,1.14,0,0,1,.8-.18.76.76,0,0,1,.54.46,2.52,2.52,0,0,1,.2,1.09,4.33,4.33,0,0,1-.2,1.31,3.64,3.64,0,0,1-.54,1.1,2.61,2.61,0,0,1-.8.73A1.18,1.18,0,0,1,128.31,179.4Zm1.38-1.16a2.84,2.84,0,0,0,.4-.86,3.71,3.71,0,0,0,.14-1.08,2.26,2.26,0,0,0-.14-.91.63.63,0,0,0-.4-.4.81.81,0,0,0-.59.13,1.91,1.91,0,0,0-.59.55,2.82,2.82,0,0,0-.39.86,3.71,3.71,0,0,0-.15,1.08,2.23,2.23,0,0,0,.15.91.62.62,0,0,0,.39.4.8.8,0,0,0,.59-.13A1.81,1.81,0,0,0,129.69,178.24Z"/><path class="cls-3" d="M133.43,174.52c.21.1.31.34.31.7a2.15,2.15,0,0,1-.15.77,2.71,2.71,0,0,1-.48.73,2.94,2.94,0,0,1-.76.62,2.13,2.13,0,0,1-.79.29.86.86,0,0,1-.59-.07l.19-.47a.75.75,0,0,0,.51.08,1.89,1.89,0,0,0,.68-.25,2,2,0,0,0,.73-.66,1.47,1.47,0,0,0,.26-.81c0-.27-.09-.44-.26-.49a1.05,1.05,0,0,0-.78.21l-.27.16V175l1.06-2.15-2,1.14v-.41l2.47-1.43v.33l-1.09,2.2A1.07,1.07,0,0,1,133.43,174.52Z"/><path class="cls-3" d="M153.45,164.81a.76.76,0,0,1-.54-.47,2.45,2.45,0,0,1-.2-1.08,4.44,4.44,0,0,1,.2-1.32,3.7,3.7,0,0,1,.54-1.09,2.5,2.5,0,0,1,.8-.73,1.12,1.12,0,0,1,.79-.19.8.8,0,0,1,.54.47,2.34,2.34,0,0,1,.2,1.08,4.14,4.14,0,0,1-.2,1.32,3.76,3.76,0,0,1-.54,1.1,2.84,2.84,0,0,1-.79.73A1.15,1.15,0,0,1,153.45,164.81Zm1.38-1.16a2.67,2.67,0,0,0,.4-.85,3.71,3.71,0,0,0,.15-1.08,2.23,2.23,0,0,0-.15-.91.63.63,0,0,0-.4-.4.82.82,0,0,0-.58.12,1.84,1.84,0,0,0-.59.56,2.73,2.73,0,0,0-.4.86,3.71,3.71,0,0,0-.14,1.08,2.29,2.29,0,0,0,.14.91.59.59,0,0,0,.4.39.76.76,0,0,0,.59-.12A1.81,1.81,0,0,0,154.83,163.65Z"/><path class="cls-3" d="M159.67,160.3l-.77.44v1.16l-.4.23V161l-2.16,1.25v-.33l2-4.12.44-.25-2,4,1.66-1v-1l.39-.22v1l.77-.44Z"/><path class="cls-3" d="M180.05,149.37a.77.77,0,0,1-.55-.47,2.46,2.46,0,0,1-.19-1.08,4.39,4.39,0,0,1,.19-1.32,3.49,3.49,0,0,1,.55-1.09,2.63,2.63,0,0,1,.79-.74,1.12,1.12,0,0,1,.79-.18.81.81,0,0,1,.55.47,2.46,2.46,0,0,1,.19,1.08,4.44,4.44,0,0,1-.19,1.32,4,4,0,0,1-.55,1.1,2.71,2.71,0,0,1-.79.73A1.13,1.13,0,0,1,180.05,149.37Zm1.38-1.16a2.91,2.91,0,0,0,.4-.85,4.09,4.09,0,0,0,.14-1.08,2.44,2.44,0,0,0-.14-.91.63.63,0,0,0-.4-.4.79.79,0,0,0-.59.12,2,2,0,0,0-.59.56,3,3,0,0,0-.4.86,4,4,0,0,0-.14,1.07,2.5,2.5,0,0,0,.14.92.61.61,0,0,0,.4.39.75.75,0,0,0,.59-.12A2,2,0,0,0,181.43,148.21Z"/><path class="cls-3" d="M182.86,146v-2.45l2.47-1.42v.32l-2.08,1.31,0,1.47c1.08-.94,1.72-.83,1.93-.73a.72.72,0,0,1,.32.71,1.92,1.92,0,0,1-.16.76,2.71,2.71,0,0,1-.47.74,3.09,3.09,0,0,1-.76.61,2.44,2.44,0,0,1-.79.3.88.88,0,0,1-.6-.07l.2-.47a.73.73,0,0,0,.51.07,1.78,1.78,0,0,0,.68-.25,2.1,2.1,0,0,0,.72-.66,1.34,1.34,0,0,0,.26-.8c0-.27-.08-.44-.26-.5a1.09,1.09,0,0,0-.77.22l-.28.16Z"/><path class="cls-4" d="M174.05,21.55c-2.07-1.2-4.51-1.27-7.36.38-15,8.64-19.28,43-30.55,49.5-5.23,3-7.49,1.93-11-.11L128,73c3.5,2,7,3.8,12.22.78,11.27-6.51,15.59-40.86,30.56-49.5,2.85-1.65,5.28-1.58,7.35-.37Z"/><path class="cls-5" d="M80.12,107l-2.82-1.64c1.63.94,3.74,1.07,7.17-.91,11.46-6.62,13.08-27,25.73-34.26,6.23-3.59,10.17-1.61,13.91.57l2.83,1.64c-3.75-2.18-7.69-4.17-13.92-.57-12.65,7.3-14.27,27.64-25.73,34.26C83.87,108,81.75,107.9,80.12,107Z"/><path class="cls-6" d="M71.83,100.38c-1.85-1.07-4.33-1.22-8.5,1.19C50.47,109,49.11,138.76,49,140.32l.09,58L52,199.93l-.09-58c.07-1.56,1.43-31.33,14.29-38.75,4.17-2.41,6.65-2.26,8.5-1.19Z"/><path class="cls-7" d="M170.75,24.24c15-8.65,18.4,30,18.58,32.07l.11,64.24L52,199.93l-.09-58c.07-1.56,1.43-31.33,14.29-38.75s9.69,9.45,21.14,2.84,13.08-27,25.73-34.26,15.89,8.47,27.17,1.95S155.78,32.88,170.75,24.24Z"/><path class="cls-8" d="M80.12,107l-4.61-2.38c1.63.94,3.74,1.06,7.17-.91,11.46-6.62,13.08-27,25.73-34.26,6.23-3.6,12-.87,15.7,1.31l2.83,1.64c-3.75-2.18-7.69-4.17-13.92-.57-12.65,7.3-14.27,27.64-25.73,34.26C83.87,108,81.75,107.9,80.12,107Z"/><path class="cls-9" d="M70.81,99.8c-1.84-1.07-4.33-1.22-8.5,1.19C49.45,108.41,48.09,138.18,48,139.75l.09,58L52,199.93l-.09-58c.07-1.56,1.43-31.33,14.29-38.75,4.17-2.41,6.65-2.26,8.5-1.19Z"/><path class="cls-10" d="M170.75,24.24c15-8.65,18.4,30,18.58,32.07l.11,64.24L52,199.93l-.09-58c.07-1.56,1.43-31.33,14.29-38.75s9.69,9.45,21.14,2.84,13.08-27,25.73-34.26,15.89,8.47,27.17,1.95S155.78,32.88,170.75,24.24Z"/><path class="cls-11" d="M52.27,140.36h-.06a.23.23,0,0,1-.23-.24V140a90.07,90.07,0,0,1,2.32-16.1c2.44-10.06,6.35-17.52,11.68-20.6,6.79-3.91,9.23-1.22,11.59,1.38,2.14,2.35,4.24,4.53,9.63,1.42s8.53-9,11.89-15.77c3.5-7,7.32-14.71,13.86-18.48s10.66-1.29,14.61,1c3.67,2.15,7.14,4.17,12.5,1.08,5.17-3,9-11.49,13.09-21.2,4.85-11.57,9.87-23.53,18-28.2,2.61-1.51,5-1.7,7.19-.56,8.06,4.23,10.43,25.93,11,32.49l0,.27a.24.24,0,0,1-.21.26.23.23,0,0,1-.26-.21l0-.29c-.53-6.49-2.86-28-10.71-32.1-2-1-4.27-.87-6.73.55-7.95,4.58-12.93,16.47-17.75,28-4.11,9.79-8,18.36-13.29,21.43-5.6,3.23-9.35,1-13-1.08-3.83-2.25-7.79-3.9-14.19-.2s-10,10.87-13.47,17.79S93.1,103.23,87.45,106.5s-8,.87-10.22-1.52c-2.33-2.57-4.54-5-11-1.28-11.9,6.87-13.57,31.58-13.77,36.31v.12C52.45,140.26,52.39,140.36,52.27,140.36Z"/><g class="cls-12"><g class="cls-13"><path class="cls-14" d="M144.82,92.18c17.72-10.23,15.78,23.07,32.43,13.46,12.69-7.33,11.93-21.8,12.13-22.57l.06,37.28L51.94,200V168.32c.32.16,11.05,3.12,17-.34,14.1-8.13,14.59-28.36,26.2-35.06,12.33-7.12,9.88,9.25,22.61,1.9C130,127.75,127.09,102.41,144.82,92.18Z"/></g><path class="cls-15" d="M175.94,118.06l-3.75-2.19c2.36,1.37,5.25,1.49,9.18-.78,12.69-7.32,16.54-22,16.74-22.73l3.75,2.2c-.2.77-4.05,15.4-16.74,22.73C181.19,119.55,178.3,119.44,175.94,118.06Z"/><path class="cls-16" d="M159,100.72c-2.56-1.49-5.74-1.62-10.12.91-17.73,10.23-14.78,35.56-27,42.64-4.38,2.53-7,2.25-9,1.08l3.78,2.2c2,1.17,4.59,1.45,9-1.08,12.26-7.07,9.3-32.4,27-42.64,4.38-2.53,7.56-2.4,10.12-.91Z"/><path class="cls-17" d="M107.53,141.12l4.09,2.45c-2-1.13-4.42-1.4-8.58,1-11.6,6.7-12.1,26.93-26.19,35.06-6,3.47-12.15.36-12.47.2l-4.09-2.45c.33.16,6.48,3.26,12.47-.2,14.1-8.13,14.59-28.36,26.19-35.06C103.11,139.72,105.59,140,107.53,141.12Z"/><polygon class="cls-18" points="64.46 207.1 60.37 204.65 60.29 177.38 64.38 179.83 64.46 207.1"/><path class="cls-19" d="M152.68,103.83c17.72-10.23,15.78,23.07,32.44,13.46,12.69-7.33,16.54-22,16.74-22.73l.09,33.16L64.46,207.1l-.08-27.27c.32.16,6.47,3.27,12.47-.2,14.09-8.13,14.59-28.36,26.19-35.06,12.33-7.12,9.88,9.25,22.61,1.9C137.91,139.4,135,114.07,152.68,103.83Z"/><g class="cls-20"><path class="cls-21" d="M70.54,181.83a14.26,14.26,0,0,1-6.09-1.44c-.13,0-.1-.38,0-.5s.1,0,.22.06S71,183.13,77,179.67c7.33-4.23,10.93-11.72,14.42-19,3.18-6.62,6.18-12.87,11.77-16.09,6.26-3.62,8.82-1.22,11.3,1.11s4.9,4.6,11.16,1c5.49-3.17,8-10.39,10.67-17.83,3.38-9.51,6.72-19.49,16.48-25.12,9.08-5.25,13,1.25,16.75,7.1s7.26,11.41,15.78,6.5c11.8-6.8,15.64-19.68,16.29-22.2h.24l.23.06c-.67,2.6-4.56,15.65-16.52,22.54-8.91,5.14-12.73-.86-16.41-6.65s-7.33-11.53-16-6.5c-9.6,5.54-13.21,15.68-16.4,24.63-2.68,7.51-5.2,14.61-10.84,17.87-6.57,3.78-9.19,1.32-11.72-1.06s-4.78-4.49-10.75-1c-5.46,3.15-8.43,9.34-11.58,15.89-3.51,7.31-7.15,14.88-14.6,19.18A13.09,13.09,0,0,1,70.54,181.83Z"/></g></g><polygon class="cls-22" points="78.95 198.73 78.39 199.06 78.39 75.55 78.95 75.22 78.95 198.73"/><polygon class="cls-22" points="104.25 183.98 103.68 184.31 103.68 60.8 104.25 60.48 104.25 183.98"/><polygon class="cls-22" points="131.08 168.98 130.52 169.31 130.52 45.8 131.08 45.47 131.08 168.98"/><polygon class="cls-22" points="156.29 154.1 155.72 154.43 155.72 30.92 156.29 30.59 156.29 154.1"/><polygon class="cls-22" points="182.06 139.2 181.5 139.53 181.5 16.02 182.06 15.7 182.06 139.2"/><path class="cls-23" d="M158,102a4.49,4.49,0,0,1-2,3.53c-1.12.65-2,.12-2-1.18a4.52,4.52,0,0,1,2-3.53C157.07,100.15,158,100.68,158,102Z"/><path class="cls-24" d="M158.48,102.31a4.52,4.52,0,0,1-2,3.53c-1.13.65-2,.12-2-1.18a4.49,4.49,0,0,1,2-3.53C157.56,100.48,158.48,101,158.48,102.31Z"/><path class="cls-23" d="M132.89,140.36a4.49,4.49,0,0,1-2,3.53c-1.13.65-2,.12-2-1.18a4.49,4.49,0,0,1,2-3.53C132,138.53,132.89,139.06,132.89,140.36Z"/><path class="cls-24" d="M133.42,140.62a4.52,4.52,0,0,1-2,3.53c-1.13.65-2,.13-2-1.17a4.51,4.51,0,0,1,2-3.54C132.5,138.79,133.42,139.32,133.42,140.62Z"/><path class="cls-23" d="M183.55,118.22a4.09,4.09,0,0,1-1.85,3.2c-1,.59-1.85.11-1.85-1.07a4.09,4.09,0,0,1,1.85-3.2C182.72,116.56,183.55,117,183.55,118.22Z"/><path class="cls-24" d="M184,118.29a4.08,4.08,0,0,1-1.84,3.2c-1,.59-1.85.11-1.85-1.07a4.06,4.06,0,0,1,1.85-3.2C183.22,116.63,184,117.11,184,118.29Z"/><path class="cls-23" d="M106.14,143.59a4.86,4.86,0,0,1-2.2,3.8c-1.21.71-2.2.14-2.2-1.26a4.86,4.86,0,0,1,2.2-3.81C105.15,141.62,106.14,142.19,106.14,143.59Z"/><path class="cls-24" d="M106.86,143.9a4.86,4.86,0,0,1-2.2,3.8c-1.22.7-2.2.13-2.2-1.27a4.83,4.83,0,0,1,2.2-3.8C105.87,141.93,106.86,142.49,106.86,143.9Z"/><path class="cls-23" d="M80.77,178.17a4.61,4.61,0,0,1-2.08,3.61c-1.15.66-2.08.12-2.08-1.21a4.59,4.59,0,0,1,2.08-3.6C79.84,176.3,80.77,176.84,80.77,178.17Z"/><path class="cls-24" d="M81.45,178.39A4.6,4.6,0,0,1,79.37,182c-1.15.66-2.08.13-2.08-1.2a4.61,4.61,0,0,1,2.08-3.61C80.52,176.53,81.45,177.07,81.45,178.39Z"/><path class="cls-25" d="M174.09,106.44a.76.76,0,0,1-.79-.4L161.24,82.13c-.2-.37-.39-.68-.13-.81s.42.1.61.47l12.92,23.55a.76.76,0,0,1-.31,1A1.13,1.13,0,0,1,174.09,106.44Z"/><path class="cls-26" d="M225.92,126.26a36.3,36.3,0,0,1-5.52,15.42l-1.63-8,1-10.16S225.92,123.88,225.92,126.26Z"/><path class="cls-27" d="M221.91,104.07s4.63,12.29,4.76,15.17,1,6.39-.75,7-5.39.13-5.39.13-1.38-18.31-1-20.69S220.15,101.94,221.91,104.07Z"/><path class="cls-26" d="M184.71,116.58a57.34,57.34,0,0,1-7.45-9.41,3,3,0,0,0-1.17-2.34s-1.48-1.06-1.91-.38c-.08.34-.69.62-1.66.3,0,0-.43-.25-1.3.79,0,0-1.88,1.75.84,4.74l2.66.85s4.17,9.05,5.64,10.69a2.63,2.63,0,0,0,4.36-.48C185.46,119.92,186.05,118.87,184.71,116.58Z"/><path class="cls-26" d="M180.36,121.82a8.46,8.46,0,0,0,6.46,2.93c4-.17,6.79-8.94,6.79-8.94l-4.09-.51s-4,2.82-4.81,2.78S180.36,121.82,180.36,121.82Z"/><polygon class="cls-28" points="216.84 188.64 194.68 172.83 179.46 181.38 213.66 194.18 216.84 188.64"/><polygon class="cls-29" points="198.85 194.24 173.91 180.25 162.83 191.34 193.19 200.66 198.85 194.24"/><path class="cls-30" d="M210.65,186.21l7.46,2.28.64.51c.12.31.63,2.69.66,3,.15,1.42,0,2.24-1,3.07s-2.95.17-4-.31l-5.73-3.22c-4.37-2.05-2.58-5-2.58-5C207.2,185.36,208.45,185.78,210.65,186.21Z"/><path class="cls-30" d="M193.21,194.44l8.54-.41,2.06,2.41a4.67,4.67,0,0,1,0,4.57c-.64,1.07-2.71,1.21-3.86,1.12l-5.34-.82c-6.7-1.05-6.15-4-6.15-4C188.52,195.93,190.82,194.36,193.21,194.44Z"/><path class="cls-26" d="M199.25,198.63a3.39,3.39,0,0,0,2.29.24c1.24-.34,1.44-.91,1.44-1.72v-4.5a1.47,1.47,0,0,0-1.47-1.47H199.4a1.47,1.47,0,0,0-1.47,1.47l0,3.71A2.49,2.49,0,0,0,199.25,198.63Z"/><path class="cls-26" d="M215.76,191.32h0a2.52,2.52,0,0,0,2.52-2.53V186.4a2.52,2.52,0,0,0-2.52-2.52h0a2.52,2.52,0,0,0-2.52,2.52v2.39A2.52,2.52,0,0,0,215.76,191.32Z"/><path class="cls-31" d="M218.59,155.67c.57-5.94,3.19-14.71,2.5-21.69h0a4.3,4.3,0,0,0-2.78-3.77c-6.1-2.62-13.85,1.76-18.22,5.06-.56.42-1.67-.74-2-.1s-.84,5.91-.86,6c-2,10.31-1.38,22.6-1.12,32.3.19,7.12,1.15,21.43,1.15,21.43.8,2.28,5.12,2.59,7.08,0,0,0,1.17-13.46,1-20.39a87.08,87.08,0,0,1,2.46-21.15,12.62,12.62,0,0,1,1.63-2.27c.06,5.17.12,12.72.39,15.31.74,7.16,2.35,21.28,2.35,21.28,1.52,1.84,7.27,1.87,8-.31,0,0-1.27-14.28-2-21.33A50.08,50.08,0,0,1,218.59,155.67Z"/><path class="cls-30" d="M197.28,141.17s2.49,4.7,7.46,4.1,16.21-6.54,16.48-10.06-23.63,2-23.63,2Z"/><path class="cls-26" d="M214.3,98.52c-2.15-3.69-1.41-8.43-1.41-8.43l-7.19,2.24,0,7.26C205.74,100.7,216.46,102.22,214.3,98.52Z"/><path class="cls-32" d="M205.7,96.93a6.24,6.24,0,0,0,3.81-2.7l-.27-.9-3.56,1.55Z"/><path class="cls-26" d="M211.21,77.86s5.1-3.07,4.6,5.19a13.14,13.14,0,0,1-8.46,11.87,4.63,4.63,0,0,1-6.46-3.7c-.42-4.22-.75-7.58.85-10.84,0-3.46,2.32-2.08,6.44-2Z"/><path class="cls-25" d="M212.92,94.07s5.1-1.65,5.1-9.62c0-8.63-7.67-8-12-8.71-1.93-.32-3.26-.69-5.37,1-1.92,1.5-.35,5.35,2.23,5.76,1,.16.82,2.34,1,3.3.26,1.72,1.66,2.52,1.94,4.19s1.82,4.22,3.29,4.49A5.56,5.56,0,0,0,212.92,94.07Z"/><path class="cls-26" d="M205.32,89.16c-.19,1.25.32,2.37,1.16,2.49a.82.82,0,0,0,.27,0,2.22,2.22,0,0,0,1.58-2c.19-1.25-.33-2.37-1.16-2.5S205.51,87.91,205.32,89.16Z"/><path class="cls-33" d="M205.62,99.15s-6.65,3.19-7.85,6.29-.08,26.18-.6,34.45a10.45,10.45,0,0,0,8.61,2.58c5.51-.69,15.61-6.28,16.13-8.69,0,0-.38-24.82,0-29.71,0,0-4-8.42-8.26-6.63,0,0,.64,2.32-2.63,2.84A7.45,7.45,0,0,1,205.62,99.15Z"/><path class="cls-34" d="M184.79,117.77s-.22,4.89,2.47,6.76c2,1.36,8.22-5.69,13.65-12.36,3.71-4.55,1.23-8.11.1-8.33s-3.81,1.39-5.22,2.78c-1.1,1.09-6.12,6.51-7.44,7.66S185.46,116,184.79,117.77Z"/><path class="cls-35" d="M204.48,99.75a7.08,7.08,0,0,0,4.67,2.21c3,.19,4.38-.84,5.07-2.07s.77-2.71.4-3.18-1.34.17-1.34.17,0,1.17-1.69,1.88a7.49,7.49,0,0,1-5.15-.21C205.62,98.08,204.25,99.12,204.48,99.75Z"/></svg>