<svg id="Layer_1" data-name="Layer 1" xmlns="http://www.w3.org/2000/svg" xmlns:xlink="http://www.w3.org/1999/xlink" viewBox="0 0 240 240"><defs><style>.cls-1{fill:none;}.cls-2{fill:url(#linear-gradient);}.cls-3{fill:url(#linear-gradient-2);}.cls-4{fill:#b2d4d9;}.cls-5{fill:#f0f4f8;}.cls-6{fill:#383839;}.cls-7{fill:url(#linear-gradient-3);}.cls-8{opacity:0.7;}.cls-11,.cls-9{fill:#dbebfb;}.cls-10{fill:#ededed;}.cls-11{opacity:0.4;}.cls-12{opacity:0.15;}.cls-13{fill:#f6983e;}.cls-14{fill:url(#linear-gradient-4);}.cls-15{clip-path:url(#clip-path);}.cls-16{fill:url(#linear-gradient-5);}.cls-17{fill:#ce8d82;}.cls-18{fill:#e5a394;}.cls-19{fill:#353535;}.cls-20{fill:url(#linear-gradient-6);}.cls-21{fill:url(#linear-gradient-7);}.cls-22,.cls-24,.cls-28{opacity:0.6;}.cls-22{fill:url(#linear-gradient-8);}.cls-23{fill:#4160a1;}.cls-24{fill:url(#linear-gradient-9);}.cls-25{fill:#fbfbff;}.cls-26{fill:url(#linear-gradient-10);}.cls-27{fill:url(#linear-gradient-11);}.cls-28{fill:url(#linear-gradient-12);}.cls-29{fill:#5858bb;}.cls-30{fill:#09086c;}.cls-31{fill:url(#linear-gradient-13);}.cls-32{fill:url(#linear-gradient-14);}.cls-33{fill:url(#linear-gradient-15);}.cls-34{fill:url(#linear-gradient-16);}.cls-35{fill:url(#linear-gradient-17);}.cls-36{fill:#0f2386;}.cls-37{fill:url(#linear-gradient-18);}.cls-38{fill:#9b0165;}.cls-39{fill:url(#linear-gradient-19);}.cls-40{fill:url(#linear-gradient-20);}.cls-41{fill:#fabdab;}.cls-42{fill:#d3958b;}.cls-43{fill:#f9cb00;}.cls-44{fill:url(#linear-gradient-21);}.cls-45{fill:url(#linear-gradient-22);}.cls-46{fill:#f4f3ed;}</style><linearGradient id="linear-gradient" x1="127.68" y1="111.76" x2="202.37" y2="111.76" gradientUnits="userSpaceOnUse"><stop offset="0" stop-color="#6c68e6" stop-opacity="0.4"/><stop offset="0.43" stop-color="#4582e2" stop-opacity="0.36"/><stop offset="1" stop-color="#00b1db" stop-opacity="0.3"/></linearGradient><linearGradient id="linear-gradient-2" x1="142.32" y1="183.28" x2="107.56" y2="122.29" gradientUnits="userSpaceOnUse"><stop offset="0" stop-color="#6c68e6" stop-opacity="0.2"/><stop offset="0.27" stop-color="#4781e2" stop-opacity="0.13"/><stop offset="0.66" stop-color="#00b1db" stop-opacity="0"/></linearGradient><linearGradient id="linear-gradient-3" x1="164.84" y1="111.88" x2="165.75" y2="179.31" gradientUnits="userSpaceOnUse"><stop offset="0.12" stop-color="#00b0da"/><stop offset="0.32" stop-color="#14a5e4"/><stop offset="0.77" stop-color="#3c8df7"/><stop offset="1" stop-color="#4c84ff"/></linearGradient><linearGradient id="linear-gradient-4" x1="130.04" y1="72.39" x2="183.92" y2="72.39" gradientUnits="userSpaceOnUse"><stop offset="0" stop-color="#ff9a00"/><stop offset="0.1" stop-color="#fda900"/><stop offset="0.27" stop-color="#fbbc00"/><stop offset="0.45" stop-color="#f9c700"/><stop offset="0.64" stop-color="#f9cb00"/><stop offset="1" stop-color="#ffbd00"/></linearGradient><clipPath id="clip-path"><path class="cls-1" d="M153.07,39.6l19.05,11a29.15,29.15,0,0,1,7.3,6.51,30.76,30.76,0,0,1,6.52,14.32,25.75,25.75,0,0,1,.35,4.65V97.42a14.68,14.68,0,0,1-1.09,5.25,7.34,7.34,0,0,1-3.2,3.58c-1.31.86-4,1.21-6.83.3a27.25,27.25,0,0,1-2.8-1.21c-1-.53-19.6-11.31-19.6-11.31a42,42,0,0,1-3.83-2.87,38,38,0,0,1-4.83-5.72,37.65,37.65,0,0,1-3.84-7.7,24.92,24.92,0,0,1-1.45-7.95c0-3,.08-21.39.08-21.39a21.36,21.36,0,0,1,.43-4.42,9.2,9.2,0,0,1,2.35-4.32,6.73,6.73,0,0,1,4.26-1.94A12.24,12.24,0,0,1,153.07,39.6Z"/></clipPath><linearGradient id="linear-gradient-5" x1="148.67" y1="92.31" x2="183.44" y2="95.4" gradientUnits="userSpaceOnUse"><stop offset="0" stop-color="#9c0165"/><stop offset="0.48" stop-color="#f91274"/><stop offset="1" stop-color="#f57e64"/></linearGradient><linearGradient id="linear-gradient-6" x1="111.96" y1="99.73" x2="144.85" y2="99.73" gradientUnits="userSpaceOnUse"><stop offset="0" stop-color="#4160a1"/><stop offset="0.2" stop-color="#5450c6"/><stop offset="0.36" stop-color="#6047dd"/><stop offset="0.46" stop-color="#6443e5"/><stop offset="0.58" stop-color="#6146df"/><stop offset="0.74" stop-color="#574dcd"/><stop offset="0.92" stop-color="#485aaf"/><stop offset="1" stop-color="#4160a1"/></linearGradient><linearGradient id="linear-gradient-7" x1="128.45" y1="111.65" x2="132.9" y2="74.78" gradientTransform="translate(133.26 -64.81) rotate(54.1)" gradientUnits="userSpaceOnUse"><stop offset="0" stop-color="#00b1db"/><stop offset="0.28" stop-color="#338ee0"/><stop offset="0.54" stop-color="#5c73e4"/><stop offset="0.67" stop-color="#6c68e6"/></linearGradient><linearGradient id="linear-gradient-8" x1="128.72" y1="109.41" x2="131.88" y2="83.27" gradientTransform="matrix(0.59, 0.81, -0.81, 0.59, 133.26, -64.81)" gradientUnits="userSpaceOnUse"><stop offset="0" stop-color="#4160a1"/><stop offset="0.21" stop-color="#455fa7"/><stop offset="0.5" stop-color="#505eb8"/><stop offset="0.83" stop-color="#615bd4"/><stop offset="1" stop-color="#6c5ae5"/></linearGradient><linearGradient id="linear-gradient-9" x1="120.31" y1="88.34" x2="120.39" y2="87.71" gradientTransform="matrix(1, 0, 0, 1, 0, 0)" xlink:href="#linear-gradient-8"/><linearGradient id="linear-gradient-10" x1="98.89" y1="122.82" x2="116.6" y2="122.82" xlink:href="#linear-gradient-6"/><linearGradient id="linear-gradient-11" x1="110.05" y1="129.33" x2="102.58" y2="114.05" gradientTransform="translate(136.38 -37.15) rotate(51.73)" gradientUnits="userSpaceOnUse"><stop offset="0" stop-color="#00b1db"/><stop offset="0.42" stop-color="#338ee0"/><stop offset="0.8" stop-color="#5c73e4"/><stop offset="1" stop-color="#6c68e6"/></linearGradient><linearGradient id="linear-gradient-12" x1="109.39" y1="127.97" x2="103.31" y2="115.55" gradientTransform="translate(136.38 -37.15) rotate(51.73)" xlink:href="#linear-gradient-8"/><linearGradient id="linear-gradient-13" x1="509.59" y1="-702.11" x2="544.32" y2="-702.11" gradientTransform="matrix(0.51, 0.86, 0.86, -0.51, 403.95, -585.78)" gradientUnits="userSpaceOnUse"><stop offset="0.35" stop-color="#00b1db" stop-opacity="0"/><stop offset="0.78" stop-color="#6c68e6" stop-opacity="0.2"/></linearGradient><linearGradient id="linear-gradient-14" x1="513.58" y1="-658.71" x2="545.02" y2="-658.71" gradientTransform="matrix(0.46, 0.9, 0.89, -0.45, 400.36, -551.92)" xlink:href="#linear-gradient-13"/><linearGradient id="linear-gradient-15" x1="70.13" y1="228.05" x2="72.63" y2="233.22" gradientUnits="userSpaceOnUse"><stop offset="0.2" stop-color="#14249a"/><stop offset="0.53" stop-color="#254ab3"/><stop offset="0.83" stop-color="#3267c6"/><stop offset="1" stop-color="#3772cd"/></linearGradient><linearGradient id="linear-gradient-16" x1="79.58" y1="231.3" x2="84.05" y2="236.88" xlink:href="#linear-gradient-15"/><linearGradient id="linear-gradient-17" x1="61.59" y1="189.82" x2="89.92" y2="191.15" gradientUnits="userSpaceOnUse"><stop offset="0.29" stop-color="#14249a"/><stop offset="0.58" stop-color="#254ab3"/><stop offset="0.85" stop-color="#3267c6"/><stop offset="1" stop-color="#3772cd"/></linearGradient><linearGradient id="linear-gradient-18" x1="61.27" y1="159.84" x2="82.75" y2="159.84" gradientUnits="userSpaceOnUse"><stop offset="0" stop-color="#9b0165"/><stop offset="0.52" stop-color="#f81274"/><stop offset="1" stop-color="#f47e64"/></linearGradient><linearGradient id="linear-gradient-19" x1="63.15" y1="146.16" x2="74.79" y2="146.16" xlink:href="#linear-gradient-18"/><linearGradient id="linear-gradient-20" x1="246.56" y1="-885.2" x2="269.2" y2="-897.27" gradientTransform="translate(-700.02 646.3) rotate(42.01)" xlink:href="#linear-gradient-18"/><linearGradient id="linear-gradient-21" x1="176.54" y1="61.2" x2="194.86" y2="64.21" gradientUnits="userSpaceOnUse"><stop offset="0.27" stop-color="#122584"/><stop offset="0.58" stop-color="#122c87"/><stop offset="1" stop-color="#123e90"/></linearGradient><linearGradient id="linear-gradient-22" x1="173.55" y1="49.6" x2="186.54" y2="70.38" gradientTransform="translate(54.96 -81.4) rotate(29.41)" gradientUnits="userSpaceOnUse"><stop offset="0" stop-color="#14249a"/><stop offset="0.27" stop-color="#1b35a5"/><stop offset="0.8" stop-color="#2f60c1"/><stop offset="1" stop-color="#3772cd"/></linearGradient></defs><path class="cls-2" d="M137.17,9.12l54.05,30.69a36.52,36.52,0,0,1,6.7,5.1,15.12,15.12,0,0,1,3.79,6.46,28.57,28.57,0,0,1,.66,7V210.91s-3,4.85-4.93,4.16c-3.7-1.32-6.63.59-9.86-.79-3.93-1.69-48.41-27.31-50.57-28.85s-5.68-5.21-6.86-7.72-1.24-9.45-1.57-10.61c-1.35-4.63-.78-151-.78-152.69a8.13,8.13,0,0,1,2.35-5A7.34,7.34,0,0,1,137.17,9.12Z"/><polygon class="cls-3" points="194.47 216.19 68.24 169.6 122.45 136.74 205.01 176.99 194.47 216.19"/><path class="cls-4" d="M141.76,4.39l53.48,30.18a23.07,23.07,0,0,1,6.55,5.18,31.17,31.17,0,0,1,4,7.18,20.87,20.87,0,0,1,1.28,6.52V209.09s.11,3.31-1.2,5-7.06,4.52-11.12,2.55-54.88-31.94-57.17-33.52-6-5.31-7.3-7.86a24.34,24.34,0,0,1-2.5-11c0-4.91,1.17-152.5,1.17-154.27s3.31-4.13,4.36-4.92A10.05,10.05,0,0,1,141.76,4.39Z"/><path class="cls-5" d="M137.17,7.46l54.05,30.69a36.52,36.52,0,0,1,6.7,5.1,15.12,15.12,0,0,1,3.79,6.46,28.57,28.57,0,0,1,.66,6.95V209.25s-.14,4-1.38,5.64a5.41,5.41,0,0,1-6.82,1.61c-3.93-1.68-55-31.19-57.16-32.74s-5.68-5.2-6.86-7.71a24.54,24.54,0,0,1-2.35-10.79V12.75a8.1,8.1,0,0,1,2.35-5A7.34,7.34,0,0,1,137.17,7.46Z"/><path class="cls-6" d="M137.68,9.31l52.58,30.35s4.46,2.4,6.74,5.18,3.14,4.5,3.55,6.26A44.17,44.17,0,0,1,201.1,58V208.91a9.45,9.45,0,0,1-1.27,4.52c-1.2,1.6-5,3.35-8.08,1.78-3.72-1.89-52.13-30-54.23-31.51s-5.53-5.15-6.67-7.63a24.63,24.63,0,0,1-2.29-10.68c0-4.77,0-149.14,0-150.85a6.42,6.42,0,0,1,2.29-5A7,7,0,0,1,137.68,9.31Z"/><path class="cls-7" d="M146.89,17.83l-9.38-5.36s-3.3-1.16-4.95,1.16a9.84,9.84,0,0,0-1.45,4.94V164.9s.42,7.44,2.33,10.76c1,1.82,5.23,5.82,7.85,7.27s46.55,26.77,46.55,26.77,4.71,3.24,6.95,2.74,3.78-1.62,3.75-6.24c0-2.88,0-149.17,0-149.17s.07-5-2.12-8.24a26.74,26.74,0,0,0-6.87-6.5c-1.74-1.12-6-3.25-7.47-4a.37.37,0,0,0-.53.34v2.07a1,1,0,0,1-1.48.86L149.54,24.11a3.71,3.71,0,0,1-1.85-3.19V19.2A1.56,1.56,0,0,0,146.89,17.83Z"/><g class="cls-8"><path class="cls-9" d="M187.53,151a1.47,1.47,0,0,1,.66,1.15v1c0,.42-.3.58-.67.37L138.19,125a1.44,1.44,0,0,1-.66-1.14v-1c0-.43.3-.59.67-.38Z"/><path class="cls-9" d="M187.49,166.17a1.47,1.47,0,0,1,.66,1.14v1c0,.43-.31.59-.67.38l-49.33-28.48a1.45,1.45,0,0,1-.67-1.15v-1c0-.42.3-.58.66-.37Z"/><path class="cls-9" d="M187.51,158.84a1.47,1.47,0,0,1,.66,1.15v1c0,.42-.31.58-.67.37l-49.33-28.48a1.45,1.45,0,0,1-.67-1.14v-1c0-.43.3-.59.66-.38Z"/></g><path class="cls-10" d="M144.17,108l2.24,1.37,1.14,5.79,0,0L149,111l2.24,1.38-.22,7-1.54-.94.1-3.08c0-.16,0-.34,0-.53s0-.67.1-1.4l0,0-1.41,4.28-1.6-1-1.11-5.84,0,0q0,1.35,0,2.07l-.1,3L144,115Z"/><polygon class="cls-10" points="153.94 114.01 155.64 115.05 155.41 122.08 153.73 121.04 153.94 114.01"/><path class="cls-10" d="M161.2,118.37l.17.1a8,8,0,0,1,1.1.81,7.51,7.51,0,0,1,.9.87l-.58,1.17a5.82,5.82,0,0,0-1.46-1.28l-.09-.05c-.44-.26-.8-.3-1.06-.11s-.43.62-.45,1.3a3.63,3.63,0,0,0,.31,1.72,2.7,2.7,0,0,0,1,1.16l.1.06a4.39,4.39,0,0,0,.59.28l0-1.1-1.11-.68.05-1.46,2.68,1.64-.12,3.79a8.18,8.18,0,0,1-2.16-.89l-.26-.16a6.06,6.06,0,0,1-2.19-2.31,6.22,6.22,0,0,1-.7-3.17c0-1.14.35-1.84.94-2.12A2.5,2.5,0,0,1,161.2,118.37Z"/><polygon class="cls-10" points="166.13 121.5 167.82 122.53 167.74 125.14 169.69 126.34 169.77 123.73 171.46 124.77 171.24 131.8 169.55 130.76 169.64 127.9 167.69 126.7 167.6 129.56 165.91 128.52 166.13 121.5"/><polygon class="cls-10" points="173.7 126.15 178.41 129.05 178.37 130.6 176.85 129.66 176.68 135.14 175 134.11 175.17 128.64 173.65 127.7 173.7 126.15"/><polygon class="cls-10" points="179.99 130.01 181.81 131.13 182.79 134.39 183.94 132.45 185.76 133.56 183.59 136.59 183.5 139.33 181.81 138.3 181.89 135.61 179.99 130.01"/><path class="cls-11" d="M173.12,196.1a.79.79,0,0,1-.42-.12l-17.06-9.92a.84.84,0,0,1-.3-1.14.83.83,0,0,1,1.14-.3l17.06,9.93a.83.83,0,0,1,.3,1.13A.84.84,0,0,1,173.12,196.1Z"/><path d="M170.55,32.94a.66.66,0,0,1-.33-.09l-13.3-7.74a.65.65,0,0,1,.66-1.12l13.3,7.74a.65.65,0,0,1-.33,1.21Z"/><path class="cls-12" d="M188.85,74.06c-1-7.44-4.21-9.73-7-13.79a14.77,14.77,0,0,0-8.56-5.79l-25.12-17.6c-10.16,1-11,10.82-11,10.82s-.25,14.08-.28,17.68.13,9.11.46,11.94c.3,2.54,2.21,8.89,4.13,11.65,1.67,2.4,5.59,7,6.73,8.22a47.09,47.09,0,0,0,4.12,3.43S169,109.4,170,110a26,26,0,0,0,3.21,1.48,12.09,12.09,0,0,0,7.1-.29,9.46,9.46,0,0,0,4.94-4.48c1.38-2.47,3.94-7.93,3.94-7.93s0-15.69,0-19.19A33.72,33.72,0,0,0,188.85,74.06Z"/><path class="cls-13" d="M190.87,68.64a30.76,30.76,0,0,0-6.52-14.32,29.31,29.31,0,0,0-7.3-6.52L158,36.8a12.16,12.16,0,0,0-7.13-1.88,6.91,6.91,0,0,0-3.24,1.1h0l-4.17,2.37,1.65.52a12.61,12.61,0,0,0-.85,2.27,20.65,20.65,0,0,0-.43,4.42S143.78,64,143.75,67a25.22,25.22,0,0,0,1.44,8,38.7,38.7,0,0,0,3.84,7.7,39.15,39.15,0,0,0,4.84,5.72,44,44,0,0,0,3.83,2.87s18.64,10.78,19.6,11.31a27.25,27.25,0,0,0,2.8,1.21,11.09,11.09,0,0,0,2.17.46l-.14,2s4.63-2.6,4.8-2.71a7.28,7.28,0,0,0,3.19-3.58,14.59,14.59,0,0,0,1.1-5.25V73.29A25.61,25.61,0,0,0,190.87,68.64Z"/><path class="cls-14" d="M153.07,39.6l19.05,11a29.15,29.15,0,0,1,7.3,6.51,30.76,30.76,0,0,1,6.52,14.32,25.75,25.75,0,0,1,.35,4.65V97.42a14.68,14.68,0,0,1-1.09,5.25,7.34,7.34,0,0,1-3.2,3.58c-1.31.86-4,1.21-6.83.3a27.25,27.25,0,0,1-2.8-1.21c-1-.53-19.6-11.31-19.6-11.31a42,42,0,0,1-3.83-2.87,38,38,0,0,1-4.83-5.72,37.65,37.65,0,0,1-3.84-7.7,24.92,24.92,0,0,1-1.45-7.95c0-3,.08-21.39.08-21.39a21.36,21.36,0,0,1,.43-4.42,9.2,9.2,0,0,1,2.35-4.32,6.73,6.73,0,0,1,4.26-1.94A12.24,12.24,0,0,1,153.07,39.6Z"/><g class="cls-15"><path class="cls-16" d="M148.55,92.37,175.69,108V99.69a14.59,14.59,0,0,0-6.62-11.44l-13.9-8c-3.66-2.11-6.62-.41-6.62,3.79Z"/><path class="cls-17" d="M162.12,90.13h0c2.65,1.53,4.8.3,4.8-2.75V81.86l-9.6-5.55v5.52A10.6,10.6,0,0,0,162.12,90.13Z"/><path class="cls-18" d="M157.42,80.17l2.17,2.69c1.56,2,3.49,3.06,5.06,2.93l2.17-.19c3.24-.28,5.24-3.11,5.24-7.43V69.6c0-6.32-4.45-14-9.94-17.19h0c-5.5-3.17-10-.62-10,5.7v8.57C152.17,71,154.17,76.14,157.42,80.17Z"/><path class="cls-18" d="M172.06,79.05h0c.84.49,1.52.1,1.52-.86v-4a3.32,3.32,0,0,0-1.52-2.61h0c-.83-.48-1.51-.09-1.51.87v4A3.34,3.34,0,0,0,172.06,79.05Z"/><path class="cls-18" d="M152.17,67.57h0c.84.48,1.51.09,1.51-.87v-4a3.31,3.31,0,0,0-1.51-2.61h0c-.83-.49-1.51-.1-1.51.86v4A3.36,3.36,0,0,0,152.17,67.57Z"/><path class="cls-19" d="M173.11,72.68s.88-7-.5-9.74a24,24,0,0,0-10.09-11.61c-7.57-4.37-9.21-2.25-10.77.38,0,0-1.29,5.72.42,8.88l.51,2.72s3.07-2.38,2.23-8c0,0,5.38,8.63,14.5,11.55,0,0,.14,4.42,2.67,6.81Z"/></g><path class="cls-12" d="M190.8,62.66c4,7,2.68,12.62-2,13.89-2.24.6-3,3.17-5,2.72-2.86-.65-5.34-3.68-7.68-7.82-4-7-4.36-14.86-.14-17.23S186.83,55.62,190.8,62.66Z"/><path class="cls-20" d="M143.34,108.55a34.43,34.43,0,0,1-4.15,4.13c-4.86,3.59-12.76,3.12-19.2-1.54-7.59-5.49-10.27-14.73-6-20.63a51.81,51.81,0,0,1,4-4.13c4.8-4,10.82-1.44,17.49,3.39s11,10,8.84,15.8C144,106.45,143.9,107.77,143.34,108.55Z"/><ellipse class="cls-21" cx="130.09" cy="98.09" rx="13.19" ry="16.95" transform="translate(-25.65 145.95) rotate(-54.1)"/><ellipse class="cls-22" cx="130.09" cy="98.09" rx="11.02" ry="14.16" transform="translate(-25.65 145.95) rotate(-54.1)"/><path class="cls-23" d="M135.93,90.23c5.36,4,8.83,10.4,6.23,15.21,2.67-4.92.33-12-5.61-16.28-5.13-3.71-11.34-4.18-15.42-1.62C125.06,85.32,130.9,86.46,135.93,90.23Z"/><path class="cls-24" d="M120.68,87.82c-.22.16-.46.31-.67.49A7.63,7.63,0,0,1,120.68,87.82Z"/><path class="cls-25" d="M135.86,92.77a.27.27,0,0,1-.06.23l-1,1.16a4,4,0,0,1,1.2,2.28,3,3,0,0,1-.46,2.15.33.33,0,0,1-.48,0l-1.35-1.16a.35.35,0,0,1-.12-.23.3.3,0,0,1,0-.16,1.05,1.05,0,0,0,.09-.61,1.3,1.3,0,0,0-.46-.8l-1.18-1a1.77,1.77,0,0,0-2.31-.19,1.38,1.38,0,0,0-.43,1.26,1.85,1.85,0,0,0,.65,1.15l.88.77a5,5,0,0,1,1.68,3A3.4,3.4,0,0,1,132,103a3.84,3.84,0,0,1-5.39.64l-1,1.17a.32.32,0,0,1-.47,0l-1.34-1.16a.41.41,0,0,1-.13-.24.32.32,0,0,1,.06-.23l1-1.16a4,4,0,0,1-1.19-2.27,3,3,0,0,1,.46-2.16.33.33,0,0,1,.48,0l1.34,1.16A.36.36,0,0,1,126,99a.3.3,0,0,1,0,.16.91.91,0,0,0-.09.61,1.33,1.33,0,0,0,.45.81l1.2,1a1.76,1.76,0,0,0,2.3.19,1.38,1.38,0,0,0,.43-1.26,1.88,1.88,0,0,0-.65-1.15l-1-.89A4.57,4.57,0,0,1,127,95.68a3.42,3.42,0,0,1,1-3.05,4.05,4.05,0,0,1,4.89-.07l1-1.18a.34.34,0,0,1,.47,0l1.34,1.16A.36.36,0,0,1,135.86,92.77Z"/><path class="cls-26" d="M102.13,118.66c-2.7,3.42-4.22,7.26-2.55,10.15a13,13,0,0,0,2.54,2.22c3.32,2.62,8.7,1.32,12-2.89s3.2-9.49.1-12.37a11.24,11.24,0,0,0-3.23-2.2C107.91,112.29,104.83,115.24,102.13,118.66Z"/><ellipse class="cls-27" cx="106.5" cy="122.07" rx="9.71" ry="7.65" transform="translate(-55.3 130.08) rotate(-51.73)"/><ellipse class="cls-28" cx="106.5" cy="122.07" rx="7.9" ry="6.22" transform="translate(-55.3 130.08) rotate(-51.73)"/><path class="cls-23" d="M102.17,118.86c2.7-3.42,6.56-4.53,9.23-3-2.7-2.13-7.08-1.08-9.78,2.34s-2.71,7.93,0,10.06C99.35,126.36,99.47,122.29,102.17,118.86Z"/><path class="cls-25" d="M110.28,124.3l-.64.74-.27,0-.68-.49a2.15,2.15,0,0,1-2.51.52l0-.26.65-.74.21-.07a.71.71,0,0,0,.8-.23l.57-.66a1.09,1.09,0,0,0,.28-.74.69.69,0,0,0-.22-.48,1,1,0,0,0-1.38.19l-.47.56a2.39,2.39,0,0,1-3.33.46,1.64,1.64,0,0,1-.52-1.19,2.4,2.4,0,0,1,.4-1.38l-.7-.51v-.25l.63-.74.27,0,.68.5a2.12,2.12,0,0,1,2.51-.52v.26l-.63.73-.22.07a.72.72,0,0,0-.8.24l-.56.65a1.08,1.08,0,0,0-.28.73.67.67,0,0,0,.21.5,1,1,0,0,0,1.38-.2l.41-.48a2.56,2.56,0,0,1,3-.77,1.72,1.72,0,0,1,.88,1.46,2.28,2.28,0,0,1-.41,1.36l.7.5Z"/><path class="cls-29" d="M99.06,157.24l-9.54-5.53a.6.6,0,0,1-.27-.71l5.85-17.08a.6.6,0,0,1,.87-.33l9.53,5.53a.6.6,0,0,1,.27.71l-5.84,17.09A.6.6,0,0,1,99.06,157.24Z"/><polygon class="cls-30" points="99.17 154.07 91.1 149.39 95.85 135.5 103.92 140.18 99.17 154.07"/><polygon class="cls-31" points="87.25 231.71 58.48 208.33 45.89 220.05 77.13 237 87.25 231.71"/><polygon class="cls-32" points="76.27 227.81 46.21 207.85 33.61 217.8 66.06 233.28 76.27 227.81"/><path class="cls-33" d="M65.45,230.6s-.74,1.82.45,2.52,5.75-1.07,7.77-1.89,3.69-2,3.44-3.07c-.36-1.44-6.8.16-7.68.29S65.64,230.05,65.45,230.6Z"/><path class="cls-18" d="M65.22,203.22s.14,26.87.53,27.67,2.43.44,3.58.13,4-1.46,4.23-2.52-3.54-.07-3.83-.29.93-26.25.93-26.25S65.38,199.6,65.22,203.22Z"/><path class="cls-34" d="M76.27,234.32s-.75,1.82.44,2.52,5.75-1.07,7.77-1.89,3.14-1.9,3-2.94c-.25-1.7-6.34,0-7.23.17S76.45,233.78,76.27,234.32Z"/><path class="cls-18" d="M76,206.94s.13,26.87.53,27.67,2.43.44,3.57.13,4-1.46,4.24-2.51-3.55-.08-3.84-.3.93-26.25.93-26.25S76.19,203.32,76,206.94Z"/><path class="cls-35" d="M60.93,190.1c.45-3.94,1.16-12.47,1.75-16.59s4.31-9,4.31-9c4.91-.78,14.72,4.93,14.72,4.93a44,44,0,0,1,3.13,9.22C86,183.94,88,212.47,88,213.26s-4.9,2.74-4.9,2.74c-7.45,2-16.28-4.12-18.24-5.29,0,0-4.67-2.61-5.13-3.8S60.38,194.83,60.93,190.1Z"/><path class="cls-36" d="M65.63,166.79S63.87,169,64.54,170c.82,1.25,4.81,4.25,10.21,4.76,4.34.42,8.23-2.1,7.57-3.93C79.17,162.21,69,170.73,65.63,166.79Z"/><path class="cls-37" d="M63.17,146.31s-3.29,3.3-1.21,10.76c0,0,1.31,3.42,2.73,7.27,1.08,2.9.69,4,.69,4a8.41,8.41,0,0,0,3.69,2.91c2.76,1.31,7.21,2.62,9.9,2s3.61-1,3.53-2.46a35.93,35.93,0,0,1-.07-6.15c.23-3.68.61-7.6-.08-9.75s-4.6-7.68-8.6-8.52C73.75,146.33,69,151.59,63.17,146.31Z"/><path class="cls-38" d="M64.06,162.65s3.93,4.5,11-2.43l.91-2.13-12.32,3.53Z"/><path class="cls-39" d="M65.39,144.49s-2,.66-2.22,1.82,1.45,1.78,2.45,2,6,1,8.67-2S68.15,143.26,65.39,144.49Z"/><path class="cls-18" d="M100.59,151.8h0a2.35,2.35,0,0,1-1.12-3.12l1-2.17a2.35,2.35,0,0,1,3.12-1.12h0a2.36,2.36,0,0,1,1.12,3.13l-1,2.17A2.35,2.35,0,0,1,100.59,151.8Z"/><path class="cls-40" d="M76.36,152.73c-.92,1.1-.53,4.11,2.72,6.58,2.79,2.12,6.7,7.21,11.87,7.42s8.21-7.48,10.69-10.93-1.22-5.92-2.12-5.75c-1.91.35-3.64,5.1-5.66,8.08s-2.38,2.72-8-2S78.07,150.68,76.36,152.73Z"/><path class="cls-41" d="M77.75,142.43c-1,3.86-3.75,5-6.25,2.64s-3.75-7.48-2.8-11.34,3.75-5,6.25-2.64S78.7,138.57,77.75,142.43Z"/><path class="cls-42" d="M73.07,152.43l-.41-.08a2.58,2.58,0,0,1-2.07-3L72,141.49a2.59,2.59,0,0,1,3-2.07l.41.08a2.6,2.6,0,0,1,2.07,3l-.28,7.76C77,151.65,74.46,152.68,73.07,152.43Z"/><path class="cls-18" d="M81.73,141.07c-1,3.86-5,5.39-7.49,3s-3.76-7.48-2.81-11.34,3.75-5,6.25-2.64S82.68,137.21,81.73,141.07Z"/><path class="cls-18" d="M72.88,152.43l-.41-.07a2.6,2.6,0,0,1-2.07-3l1.45-7.86a2.57,2.57,0,0,1,3-2.07l.41.08a2.57,2.57,0,0,1,2.07,3l-.28,7.75C76.79,151.66,74.28,152.69,72.88,152.43Z"/><path class="cls-18" d="M79.57,139.59a1.75,1.75,0,1,1-1.28-2.12A1.75,1.75,0,0,1,79.57,139.59Z"/><path class="cls-19" d="M76.8,125.45s-7.87-1.78-10.89,4.73S64,140.93,62.85,144.83c-2.24,7.88-3.54,9.93-2,13.52.49,1.16,1.93,3.43,3.74,3.94,3.88,1.1,9,.82,11.38-2.58,3.46-5,.6-13,1.68-17.93s2.92-4.76,4.11-6.66S84.38,128.12,76.8,125.45Z"/><path class="cls-43" d="M105.22,106.86l.29-.06a.36.36,0,0,0,0-.7l-.29-.06a1.86,1.86,0,0,1-1.45-1.45l-.06-.29a.36.36,0,0,0-.7,0l-.06.29A1.86,1.86,0,0,1,101.5,106l-.29.06a.36.36,0,0,0,0,.7l.29.06a1.86,1.86,0,0,1,1.45,1.45l.06.29a.36.36,0,0,0,.7,0l.06-.29A1.86,1.86,0,0,1,105.22,106.86Z"/><path class="cls-43" d="M135.83,76.91l.29.06a.37.37,0,0,0,.29-.66l-.25-.17a1.9,1.9,0,0,1-.77-2l.06-.3a.37.37,0,0,0-.66-.28l-.17.24a1.91,1.91,0,0,1-2,.78l-.3-.07a.37.37,0,0,0-.28.67l.25.17a1.92,1.92,0,0,1,.77,2l-.06.29a.37.37,0,0,0,.66.29l.17-.25A1.9,1.9,0,0,1,135.83,76.91Z"/><path class="cls-43" d="M125.27,122.44h1.12a.49.49,0,0,0,.2-.94l-1-.45a2.76,2.76,0,0,1-1.66-2.56v-1.12a.48.48,0,0,0-.93-.2l-.45,1a2.76,2.76,0,0,1-2.56,1.66h-1.13a.49.49,0,0,0-.2.93l1,.45a2.76,2.76,0,0,1,1.65,2.56v1.13a.49.49,0,0,0,.94.2l.45-1A2.76,2.76,0,0,1,125.27,122.44Z"/><path class="cls-43" d="M106.83,94.32l1.07-.22a.47.47,0,0,0,0-.92L106.83,93a2.65,2.65,0,0,1-2.08-2.08l-.22-1.07a.47.47,0,0,0-.92,0l-.22,1.07A2.65,2.65,0,0,1,101.3,93l-1.06.22a.47.47,0,0,0,0,.92l1.06.22a2.65,2.65,0,0,1,2.09,2.08l.22,1.07a.47.47,0,0,0,.92,0l.22-1.07A2.65,2.65,0,0,1,106.83,94.32Z"/><path class="cls-43" d="M154.91,98.37l1.08.45a.51.51,0,0,0,.56-.82l-.82-.83a2.87,2.87,0,0,1-.6-3.11l.45-1.08a.51.51,0,0,0-.82-.56l-.84.82a2.84,2.84,0,0,1-3.11.6l-1.08-.45a.51.51,0,0,0-.55.83l.82.83a2.88,2.88,0,0,1,.6,3.11l-.45,1.08a.5.5,0,0,0,.82.55l.83-.82A2.89,2.89,0,0,1,154.91,98.37Z"/><path class="cls-44" d="M176.3,53.24l3.42-1.91a4.66,4.66,0,0,1,3.13-.57,10.09,10.09,0,0,1,3.89,1.57,17.06,17.06,0,0,1,4.81,5,19.68,19.68,0,0,1,3.14,7.79,10,10,0,0,1-.51,5.56,4.73,4.73,0,0,1-2,2.24l-3.27,1.81Z"/><ellipse class="cls-45" cx="182.55" cy="63.99" rx="7.45" ry="12.45" transform="translate(-7.9 97.9) rotate(-29.41)"/><path class="cls-46" d="M181.25,68a.51.51,0,0,1-.72-.14l-3-4.78,1.4-.89,2.1,3.31a.51.51,0,0,0,.72.14l4.78-3.36.95,1.36Z"/></svg>