<?xml version="1.0" encoding="UTF-8"?>
<svg width="32px" height="32px" viewBox="0 0 32 32" version="1.1" xmlns="http://www.w3.org/2000/svg" xmlns:xlink="http://www.w3.org/1999/xlink">
    <title>Icons/Exit</title>
    <defs>
        <filter id="filter-1">
            <feColorMatrix in="SourceGraphic" type="matrix" values="0 0 0 0 0.129412 0 0 0 0 0.129412 0 0 0 0 0.129412 0 0 0 1.000000 0"></feColorMatrix>
        </filter>
    </defs>
    <g id="Icons/Exit" stroke="none" stroke-width="1" fill="none" fill-rule="evenodd">
        <g filter="url(#filter-1)" id="Cross">
            <g transform="translate(6.000000, 6.000000)">
                <path d="M18.2929,19.7071 C18.6834,20.0976 19.3166,20.0976 19.7071,19.7071 C20.0976,19.3166 20.0976,18.6834 19.7071,18.2929 L11.4142,10 L19.7071,1.70711 C20.0976,1.31658 20.0976,0.683419 19.7071,0.292893 C19.3166,-0.0976309 18.6834,-0.097631 18.2929,0.292893 L9.99999992,8.58579 L1.70711,0.292894 C1.31658,-0.0976306 0.683417,-0.0976306 0.292893,0.292894 C-0.0976311,0.683418 -0.0976311,1.31658 0.292893,1.70711 L8.58579,10 L0.292893,18.2929 C-0.0976311,18.6834 -0.0976311,19.3166 0.292893,19.7071 C0.683417,20.0976 1.31658,20.0976 1.70711,19.7071 L9.99999992,11.4142 L18.2929,19.7071 Z" id="Path" fill="#212121"></path>
            </g>
        </g>
    </g>
</svg>