<svg xmlns="http://www.w3.org/2000/svg" width="32" height="32" viewBox="0 0 32 32">
    <defs>
        <filter id="b9w2u7t0ua">
            <feColorMatrix in="SourceGraphic" values="0 0 0 0 0.129412 0 0 0 0 0.129412 0 0 0 0 0.129412 0 0 0 1.000000 0"/>
        </filter>
    </defs>
    <g fill="none" fill-rule="evenodd">
        <g>
            <g filter="url(#b9w2u7t0ua)" transform="translate(-110 -2152) translate(110 2152)">
                <g>
                    <path fill="#212121" d="M2 2h12v19.33c-.62-.052-1.257.062-1.84.354l-.16.08-.211-.106c-1.126-.563-2.452-.563-3.578 0L8 21.764l-.211-.106c-1.126-.563-2.452-.563-3.578 0L4 21.764l-.16-.08c-.583-.292-1.22-.406-1.84-.354V2zm12-2c1.105 0 2 .895 2 2v21.229c0 .654-.79.98-1.252.519-.447-.447-1.129-.558-1.694-.275l-.235.117c-.516.258-1.123.258-1.638 0l-.287-.143c-.563-.281-1.225-.281-1.788 0l-.212.106c-.563.281-1.225.281-1.788 0l-.212-.106c-.563-.281-1.225-.281-1.788 0l-.287.143c-.516.258-1.123.258-1.638 0l-.235-.117c-.565-.282-1.247-.172-1.694.275C.79 24.21 0 23.883 0 23.229V2C0 .895.895 0 2 0h12zM6 15c-.552 0-1 .448-1 1s.448 1 1 1h4c.552 0 1-.448 1-1s-.448-1-1-1H6zm-3 4c0-.552.448-1 1-1h8c.552 0 1 .448 1 1s-.448 1-1 1H4c-.552 0-1-.448-1-1zM5.79 8.885c-.472.034-.825.412-.787.843.088 1.026.981 1.825 2.14 2.092v.397c0 .432.384.783.857.783s.857-.35.857-.783v-.399c1.22-.283 2.143-1.157 2.143-2.25 0-.993-.65-1.655-1.63-2.03-.242-.092-.49-.162-.752-.22-.146-.031-.469-.09-.43-.082.01.002-.296-.054-.405-.077-.18-.04-.342-.085-.488-.141-.41-.156-.58-.33-.58-.584 0-.39.54-.783 1.288-.783.719 0 1.253.367 1.285.744.038.431.45.753.922.72.472-.035.825-.412.787-.843-.088-1.026-.981-1.825-2.14-2.091v-.398C8.857 3.351 8.473 3 8 3s-.857.35-.857.783v.399C5.922 4.465 5 5.338 5 6.434c0 .992.652 1.655 1.635 2.03.24.091.489.161.752.218.146.032.474.092.433.083-.01-.002.292.054.4.077.18.04.342.085.488.14.407.157.578.33.578.585 0 .387-.541.783-1.288.783-.72 0-1.254-.368-1.286-.745-.038-.432-.45-.754-.922-.72z" transform="translate(8 4)"/>
                </g>
            </g>
        </g>
    </g>
</svg>
