<svg xmlns="http://www.w3.org/2000/svg" width="40" height="40" viewBox="0 0 40 40">
    <defs>
        <filter id="0jvr786e1a">
            <feColorMatrix in="SourceGraphic" values="0 0 0 0 0.129412 0 0 0 0 0.129412 0 0 0 0 0.129412 0 0 0 1.000000 0"/>
        </filter>
    </defs>
    <g fill="none" fill-rule="evenodd">
        <g>
            <g filter="url(#0jvr786e1a)" transform="translate(-700 -1226) translate(700 1226)">
                <g fill="#212121">
                    <path d="M22.5 13.75c0-.69.56-1.25 1.25-1.25H30c.69 0 1.25.56 1.25 1.25S30.69 15 30 15h-6.25c-.69 0-1.25-.56-1.25-1.25zm1.25 2.5c-.69 0-1.25.56-1.25 1.25s.56 1.25 1.25 1.25H30c.69 0 1.25-.56 1.25-1.25s-.56-1.25-1.25-1.25h-6.25zm-1.25 5c0-.69.56-1.25 1.25-1.25H30c.69 0 1.25.56 1.25 1.25S30.69 22.5 30 22.5h-6.25c-.69 0-1.25-.56-1.25-1.25zM0 23.75c0-.69.56-1.25 1.25-1.25H7.5c.69 0 1.25.56 1.25 1.25V30H0v-6.25zm22.5 5c0-.69.56-1.25 1.25-1.25H30c.69 0 1.25.56 1.25 1.25S30.69 30 30 30h-6.25c-.69 0-1.25-.56-1.25-1.25zm1.25-5c-.69 0-1.25.56-1.25 1.25s.56 1.25 1.25 1.25H30c.69 0 1.25-.56 1.25-1.25s-.56-1.25-1.25-1.25h-6.25zM12.5 20c-.69 0-1.25.56-1.25 1.25V30H20v-8.75c0-.69-.56-1.25-1.25-1.25H12.5zM30.902 1.635c.478.499.461 1.29-.038 1.767l-15.239 14.58-5.226-5-8.28 7.92c-.5.478-1.292.461-1.77-.037-.48-.498-.462-1.29.037-1.767l10.013-9.58 5.226 5 13.506-12.92c.5-.478 1.292-.461 1.77.037z" transform="translate(5 5)"/>
                    <path d="M30 1.25c.69 0 1.25.56 1.25 1.25v3.75c0 .69-.56 1.25-1.25 1.25s-1.25-.56-1.25-1.25V2.5c0-.69.56-1.25 1.25-1.25z" transform="translate(5 5)"/>
                    <path d="M31.25 2.5c0 .69-.56 1.25-1.25 1.25h-3.75c-.69 0-1.25-.56-1.25-1.25s.56-1.25 1.25-1.25H30c.69 0 1.25.56 1.25 1.25zM2.679.979c0-.54.48-.979 1.071-.979.592 0 1.071.438 1.071.979v.497c1.449.333 2.565 1.331 2.676 2.614.046.539-.394 1.01-.984 1.053-.59.042-1.106-.36-1.153-.9-.04-.47-.708-.93-1.606-.93-.936 0-1.611.493-1.611.979 0 .318.214.535.726.73.183.07.386.127.61.176.136.03.52.1.505.097-.048-.01.356.064.538.103.329.072.639.16.94.274C6.687 6.141 7.5 6.97 7.5 8.21c0 1.367-1.153 2.46-2.679 2.814v.498c0 .54-.48.979-1.071.979-.592 0-1.071-.438-1.071-.979v-.497C1.23 10.691.114 9.694.003 8.41c-.046-.54.394-1.01.984-1.053.59-.043 1.106.36 1.153.899.04.471.708.93 1.607.93.934 0 1.61-.493 1.61-.977 0-.319-.213-.536-.722-.73-.183-.07-.385-.128-.61-.176-.135-.03-.514-.099-.5-.096.05.01-.358-.064-.54-.104-.33-.071-.64-.159-.942-.274C.815 6.361 0 5.533 0 4.292c0-1.37 1.152-2.46 2.679-2.815V.98z" transform="translate(5 5)"/>
                </g>
            </g>
        </g>
    </g>
</svg>
