<svg xmlns="http://www.w3.org/2000/svg" width="40" height="40" viewBox="0 0 40 40">
    <defs>
        <filter id="8x5efwo98a">
            <feColorMatrix in="SourceGraphic" values="0 0 0 0 0.129412 0 0 0 0 0.129412 0 0 0 0 0.129412 0 0 0 1.000000 0"/>
        </filter>
    </defs>
    <g fill="none" fill-rule="evenodd">
        <g>
            <g filter="url(#8x5efwo98a)" transform="translate(-995 -1226) translate(995 1226)">
                <g>
                    <path fill="#212121" d="M2.5 0C1.12 0 0 1.12 0 2.5v15C0 18.88 1.12 20 2.5 20h10.625c.69 0 1.25-.56 1.25-1.25s-.56-1.25-1.25-1.25H2.5v-1.25h15c.69 0 1.25-.56 1.25-1.25s-.56-1.25-1.25-1.25h-15V2.5h25v10c0 .69.56 1.25 1.25 1.25S30 13.19 30 12.5v-10C30 1.12 28.88 0 27.5 0h-25zm1.25 5c0-.69.56-1.25 1.25-1.25h5c.69 0 1.25.56 1.25 1.25v5c0 .69-.56 1.25-1.25 1.25H5c-.69 0-1.25-.56-1.25-1.25V5zm17.29 4.896c.076-.122.233-.164.36-.096.065.035.114.096.133.169l1.27 4.737c.27 1.006 1.134 1.74 2.171 1.841l6.16.602c.123.012.227.1.26.22.011.044.013.09.004.134l-1.427 7.456-4.61 1.235-7.549-4.52c-.284-.17-.406-.519-.29-.83.006-.017.024-.028.043-.026l2.851.346c1.758.213 3.174-1.418 2.716-3.129l-2.124-7.925c-.019-.073-.008-.15.032-.214zm1.54-2.3c-1.29-.69-2.893-.26-3.665.982-.403.65-.52 1.44-.322 2.179l2.124 7.925-2.851-.345c-1.167-.142-2.279.535-2.688 1.637-.535 1.44.033 3.055 1.35 3.844l7.548 4.52c.58.349 1.277.446 1.931.271l4.611-1.236c.926-.248 1.628-1.003 1.809-1.944l1.427-7.456c.08-.415.063-.842-.046-1.25-.302-1.127-1.27-1.949-2.431-2.062l-6.16-.602-1.269-4.737c-.198-.74-.693-1.364-1.368-1.726z" transform="translate(2.5 6.25)"/>
                </g>
            </g>
        </g>
    </g>
</svg>
