<svg xmlns="http://www.w3.org/2000/svg" width="32" height="32" viewBox="0 0 32 32">
    <defs>
        <filter id="rngmp1mdba">
            <feColorMatrix in="SourceGraphic" values="0 0 0 0 0.129412 0 0 0 0 0.129412 0 0 0 0 0.129412 0 0 0 1.000000 0"/>
        </filter>
    </defs>
    <g fill="none" fill-rule="evenodd">
        <g>
            <g filter="url(#rngmp1mdba)" transform="translate(-110 -1919) translate(110 1919)">
                <g>
                    <path fill="#212121" d="M9.048 3.84c0-1.06.852-1.92 1.904-1.92s1.905.86 1.905 1.92h-3.81zm-1.905 0c0-2.12 1.705-3.84 3.81-3.84 2.103 0 3.809 1.72 3.809 3.84h2.857c1.052 0 1.905.86 1.905 1.92v16.32c0 1.06-.853 1.92-1.905 1.92h-1.587c-.526 0-.953-.43-.953-.96s.427-.96.953-.96h1.587V5.76H4.286v2.88c0 .53-.427.96-.953.96s-.952-.43-.952-.96V5.76c0-1.06.853-1.92 1.905-1.92h2.857zM2.38 22.08v-9.6h9.524v9.6H2.38zm-1.905-9.6c0-1.06.853-1.92 1.905-1.92h9.524c1.052 0 1.905.86 1.905 1.92v9.6c0 1.06-.853 1.92-1.905 1.92H2.38c-1.052 0-1.905-.86-1.905-1.92v-9.6zm6.667 3.84c1.052 0 1.905-.86 1.905-1.92 0-.53.426-.96.952-.96s.952.43.952.96c0 2.12-1.705 3.84-3.81 3.84-2.103 0-3.809-1.72-3.809-3.84 0-.53.427-.96.953-.96s.952.43.952.96c0 1.06.853 1.92 1.905 1.92zm1.905-8.64c0 .53-.427.96-.953.96s-.952-.43-.952-.96.426-.96.952-.96.953.43.953.96zm4.762.96c.526 0 .952-.43.952-.96s-.426-.96-.952-.96-.953.43-.953.96.427.96.953.96z" transform="translate(6 4)"/>
                </g>
            </g>
        </g>
    </g>
</svg>
