<svg xmlns="http://www.w3.org/2000/svg" width="32" height="32" viewBox="0 0 32 32">
    <defs>
        <filter id="m3xwudyxba">
            <feColorMatrix in="SourceGraphic" values="0 0 0 0 0.129412 0 0 0 0 0.129412 0 0 0 0 0.129412 0 0 0 1.000000 0"/>
        </filter>
    </defs>
    <g fill="none" fill-rule="evenodd">
        <g>
            <g filter="url(#m3xwudyxba)" transform="translate(-110 -1710) translate(110 1710)">
                <g>
                    <path fill="#212121" d="M10.08 0c-.53 0-.96.428-.96.957 0 .528.43.956.96.956h3.84c.53 0 .96-.428.96-.956 0-.529-.43-.957-.96-.957h-3.84zm7.816 4.783H6.104l-1.357 6.695h14.506l-1.357-6.695zm-15.09 6.606l-.255 1.257c-.097.23-.151.481-.151.745v4.783c0 .715.393 1.338.976 1.666-.01.08-.016.163-.016.247 0 1.057.86 1.913 1.92 1.913h.96c1.06 0 1.92-.856 1.92-1.913h7.68c0 1.057.86 1.913 1.92 1.913h.96c1.06 0 1.92-.856 1.92-1.913 0-.084-.005-.166-.016-.247.583-.328.976-.951.976-1.666V13.39c0-.264-.054-.516-.151-.745l-.255-1.257c.123.057.26.09.406.09h.96c.53 0 .96-.429.96-.957 0-.529-.43-.957-.96-.957h-.96c-.282 0-.536.122-.712.315l-1.11-5.476c-.181-.893-.968-1.534-1.882-1.534H6.104c-.914 0-1.7.641-1.882 1.534L3.112 9.88c-.176-.193-.43-.315-.712-.315h-.96c-.53 0-.96.428-.96.957 0 .528.43.956.96.956h.96c.145 0 .283-.032.406-.09zm15.914 6.785h.96V13.39H4.32v4.783H18.72zm-9.6-2.391c0 .792-.645 1.434-1.44 1.434-.795 0-1.44-.642-1.44-1.434 0-.793.645-1.435 1.44-1.435.795 0 1.44.642 1.44 1.435zm7.2 1.434c.795 0 1.44-.642 1.44-1.434 0-.793-.645-1.435-1.44-1.435-.795 0-1.44.642-1.44 1.435 0 .792.645 1.434 1.44 1.434z" transform="translate(4 5)"/>
                </g>
            </g>
        </g>
    </g>
</svg>
