<svg width="32" height="32" viewBox="0 0 32 32" fill="none" xmlns="http://www.w3.org/2000/svg">
<path fill-rule="evenodd" clip-rule="evenodd" d="M15 15C17.2091 15 19 13.2091 19 11C19 8.79086 17.2091 7 15 7C12.7909 7 11 8.79086 11 11C11 13.2091 12.7909 15 15 15ZM15 17C18.3137 17 21 14.3137 21 11C21 7.68629 18.3137 5 15 5C11.6863 5 9 7.68629 9 11C9 14.3137 11.6863 17 15 17ZM9.66667 20C8.74619 20 8 20.7462 8 21.6667C8 24.0599 9.9401 26 12.3333 26H17C17.5523 26 18 26.4477 18 27C18 27.5523 17.5523 28 17 28H12.3333C8.83553 28 6 25.1645 6 21.6667C6 19.6416 7.64162 18 9.66667 18H16C16.5523 18 17 18.4477 17 19C17 19.5523 16.5523 20 16 20H9.66667ZM19.053 22.8472C18.4238 22.8926 17.9539 23.3954 18.0036 23.9703C18.1218 25.3384 19.3118 26.4032 20.8564 26.7593V27.289C20.8564 27.8657 21.3681 28.3332 21.9993 28.3332C22.6305 28.3332 23.1421 27.8657 23.1421 27.289V26.758C24.77 26.3802 25.9999 25.2148 25.9999 23.7564C25.9999 22.4336 25.1333 21.5501 23.8256 21.0503C23.5046 20.9277 23.1744 20.8344 22.8235 20.758C22.6295 20.7158 22.1987 20.6373 22.2496 20.6476C22.2649 20.6506 21.8564 20.5763 21.7113 20.5448C21.4715 20.4928 21.2549 20.4317 21.0598 20.3573C20.5137 20.1492 20.2857 19.9174 20.2857 19.5782C20.2857 19.0596 21.0055 18.5343 22.0038 18.5343C22.9626 18.5343 23.6744 19.0244 23.7178 19.5268C23.7675 20.1017 24.3179 20.531 24.9471 20.4855C25.5763 20.4401 26.0461 19.9373 25.9964 19.3624C25.8781 17.9944 24.6871 16.9296 23.1421 16.5739V16.0442C23.1421 15.4675 22.6305 15 21.9993 15C21.3681 15 20.8564 15.4675 20.8564 16.0442V16.5759C19.2284 16.9536 18.0001 18.1178 18.0001 19.5782C18.0001 20.9018 18.8689 21.7851 20.1797 22.2847C20.5011 22.4072 20.8317 22.5004 21.183 22.5767C21.3778 22.6189 21.8141 22.6983 21.7593 22.6873C21.7456 22.6845 22.1499 22.7582 22.2941 22.7896C22.5332 22.8416 22.749 22.9026 22.9435 22.9769C23.4872 23.1847 23.7143 23.4162 23.7143 23.7564C23.7143 24.2725 22.993 24.7994 21.9971 24.7994C21.0374 24.7994 20.3257 24.3093 20.2822 23.806C20.2325 23.2311 19.6822 22.8018 19.053 22.8472Z" fill="#585858"/>
</svg>
