<svg xmlns="http://www.w3.org/2000/svg" width="32" height="32" viewBox="0 0 32 32">
    <defs>
        <filter id="418wro13sa">
            <feColorMatrix in="SourceGraphic" values="0 0 0 0 0.129412 0 0 0 0 0.129412 0 0 0 0 0.129412 0 0 0 1.000000 0"/>
        </filter>
    </defs>
    <g fill="none" fill-rule="evenodd">
        <g>
            <g filter="url(#418wro13sa)" transform="translate(-110 -2050) translate(110 2050)">
                <g>
                    <path fill="#212121" d="M24 12c0 4.442-2.413 8.32-6 10.395v-6.358V6.2c0-.318-.13-.664-.42-.904-.34-.282-.859-.363-1.302-.082-.441.28-.686.771-.83 1.115-.165.399-.304.88-.422 1.392-.238 1.027-.424 2.302-.569 3.554-.29 2.511-.424 5.045-.45 5.576-.035.694.538 1.149 1.098 1.149H16v5.317c-1.251.442-2.598.683-4 .683-.681 0-1.35-.057-2-.166v-8.41c.23-.08.454-.192.664-.332l1-.666C12.5 13.869 13 12.933 13 11.93V6c0-.552-.448-1-1-1s-1 .448-1 1v5.93c0 .334-.167.646-.445.832l-.555.37V6c0-.552-.448-1-1-1s-1 .448-1 1v7.132l-.555-.37C7.167 12.576 7 12.264 7 11.93V6c0-.552-.448-1-1-1s-1 .448-1 1v5.93c0 1.003.501 1.94 1.336 2.496l1 .666c.21.14.433.251.664.333v7.892C3.34 21.67 0 17.225 0 12 0 5.373 5.373 0 12 0s12 5.373 12 12z" transform="translate(4 4)"/>
                </g>
            </g>
        </g>
    </g>
</svg>
