<svg xmlns="http://www.w3.org/2000/svg" width="30" height="30" viewBox="0 0 30 30">
    <defs>
        <filter id="rfxxxfhwsa">
            <feColorMatrix in="SourceGraphic" values="0 0 0 0 1.000000 0 0 0 0 1.000000 0 0 0 0 1.000000 0 0 0 1.000000 0"/>
        </filter>
    </defs>
    <g fill="none" fill-rule="evenodd">
        <g>
            <g filter="url(#rfxxxfhwsa)" transform="translate(-413 -4722) translate(413 4722)">
                <g>
                    <path fill="#212121" d="M20.625 11.25c0 5.178-4.197 9.375-9.375 9.375s-9.375-4.197-9.375-9.375 4.197-9.375 9.375-9.375 9.375 4.197 9.375 9.375zm1.875 0c0 6.213-5.037 11.25-11.25 11.25S0 17.463 0 11.25 5.037 0 11.25 0 22.5 5.037 22.5 11.25zM15 7.5c0 2.071-1.679 3.75-3.75 3.75-2.071 0-3.75-1.679-3.75-3.75 0-2.071 1.679-3.75 3.75-3.75C13.321 3.75 15 5.429 15 7.5zm-9.375 6.458c0-1.15.933-2.083 2.083-2.083h7.084c1.15 0 2.083.933 2.083 2.083 0 2.301-1.865 4.167-4.167 4.167H9.792c-2.302 0-4.167-1.866-4.167-4.167z" transform="translate(3.75 3.75)"/>
                </g>
            </g>
        </g>
    </g>
</svg>
