<svg xmlns="http://www.w3.org/2000/svg" width="26" height="26" viewBox="0 0 26 26">
    <defs>
        <filter id="3djw37qqxa">
            <feColorMatrix in="SourceGraphic" values="0 0 0 0 0.000000 0 0 0 0 0.215686 0 0 0 0 0.482353 0 0 0 1.000000 0"/>
        </filter>
    </defs>
    <g fill="none" fill-rule="evenodd">
        <g>
            <g filter="url(#3djw37qqxa)" transform="translate(-994 -62) translate(994 62)">
                <g>
                    <path fill="#212121" d="M15.952 14.595l-4.449-4.45c.797-1.088 1.225-2.403 1.219-3.752C12.707 2.873 9.859.02 6.338 0 4.654-.007 3.036.66 1.845 1.851.655 3.043-.01 4.662 0 6.347c.015 3.521 2.863 6.373 6.384 6.393 1.354.006 2.674-.426 3.763-1.232l.004-.003 4.445 4.447c.24.252.599.354.936.267.337-.088.6-.351.687-.689.088-.337-.015-.695-.267-.935zm-9.573-3.13c-2.816-.016-5.095-2.297-5.107-5.114-.008-1.347.524-2.642 1.476-3.596.952-.953 2.246-1.487 3.594-1.481 2.817.016 5.095 2.297 5.107 5.114.008 1.348-.524 2.643-1.476 3.596-.952.954-2.246 1.487-3.594 1.482z" transform="translate(4.875 4.875)"/>
                </g>
            </g>
        </g>
    </g>
</svg>
