<svg width="32" height="32" viewBox="0 0 32 32" fill="none" xmlns="http://www.w3.org/2000/svg">
<path fill-rule="evenodd" clip-rule="evenodd" d="M3 6C3 4.89543 3.89543 4 5 4H15C16.1046 4 17 4.89543 17 6V12.1C16.6769 12.0344 16.3425 12 16 12C13.2386 12 11 14.2386 11 17C11 19.7614 13.2386 22 16 22C16.3425 22 16.6769 21.9656 17 21.9V26C17 27.1046 16.1046 28 15 28H5C3.89543 28 3 27.1046 3 26V6ZM7 7C7 6.44772 7.44772 6 8 6H12C12.5523 6 13 6.44772 13 7C13 7.55228 12.5523 8 12 8H8C7.44772 8 7 7.55228 7 7ZM18.2714 13.3154C18.6494 12.9128 19.2823 12.893 19.6849 13.2711C20.6358 14.1641 21.2 15.5276 21.2 17C21.2 18.4726 20.6355 19.836 19.6845 20.729C19.2819 21.107 18.6491 21.0871 18.271 20.6845C17.893 20.2819 17.9129 19.6491 18.3155 19.271C18.8217 18.7957 19.2 17.981 19.2 17C19.2 16.019 18.8218 15.2042 18.3157 14.7289C17.9131 14.3509 17.8933 13.718 18.2714 13.3154ZM21.5681 10.1765C21.1132 9.86326 20.4906 9.97804 20.1773 10.4329C19.8641 10.8877 19.9788 11.5104 20.4337 11.8237C22.1807 13.0268 23.2728 14.9118 23.2728 17.0001C23.2728 19.0885 22.1803 20.9732 20.4329 22.1765C19.9781 22.4897 19.8632 23.1124 20.1765 23.5672C20.4897 24.0221 21.1124 24.1369 21.5672 23.8237C23.7941 22.2903 25.2728 19.8189 25.2728 17.0001C25.2728 14.1816 23.7948 11.71 21.5681 10.1765ZM22.1729 7.43995C22.4823 6.98244 23.104 6.86235 23.5615 7.17171C26.8359 9.38583 29.0001 12.9467 29.0001 17.0001C29.0001 21.054 26.835 24.6145 23.5602 26.8285C23.1027 27.1379 22.481 27.0177 22.1717 26.5602C21.8623 26.1027 21.9825 25.481 22.44 25.1717C25.237 23.2807 27.0001 20.307 27.0001 17.0001C27.0001 13.6933 25.2376 10.7194 22.4412 8.82849C21.9837 8.51913 21.8636 7.89746 22.1729 7.43995ZM14.4051 18.3535C15.1862 19.1345 16.4525 19.1345 17.2335 18.3535C18.0146 17.5724 18.0146 16.3061 17.2335 15.5251C16.4525 14.744 15.1862 14.744 14.4051 15.5251C13.6241 16.3061 13.6241 17.5724 14.4051 18.3535Z" fill="#585858"/>
</svg>
