<svg width="32" height="32" viewBox="0 0 32 32" fill="none" xmlns="http://www.w3.org/2000/svg">
<path fill-rule="evenodd" clip-rule="evenodd" d="M7 5C5.89543 5 5 5.89543 5 7V27C5 28.1046 5.89543 29 7 29H16C19.866 29 23 25.866 23 22V21C23 20.4477 22.5523 20 22 20C21.4477 20 21 20.4477 21 21V22C21 24.7614 18.7614 27 16 27H7V7L17.101 7C15.8045 8.27052 15 10.0413 15 12C15 15.866 18.134 19 22 19C25.866 19 29 15.866 29 12C29 8.13401 25.866 5 22 5H18.5H18H7ZM9 20C8.44772 20 8 20.4477 8 21C8 21.5523 8.44772 22 9 22H13C13.5523 22 14 21.5523 14 21C14 20.4477 13.5523 20 13 20H9ZM8 24C8 23.4477 8.44772 23 9 23H17C17.5523 23 18 23.4477 18 24C18 24.5523 17.5523 25 17 25H9C8.44772 25 8 24.5523 8 24ZM10.1429 8.78314C10.1429 8.35062 10.5266 8 11 8C11.4734 8 11.8571 8.35062 11.8571 8.78314V9.18051C13.0156 9.44738 13.9086 10.2459 13.9973 11.2717C14.0346 11.7029 13.6823 12.0801 13.2103 12.1141C12.7384 12.1482 12.3256 11.8263 12.2884 11.3951C12.2558 11.0183 11.7219 10.6507 11.0029 10.6507C10.2541 10.6507 9.71431 11.0446 9.71431 11.4336C9.71431 11.688 9.88531 11.8619 10.2948 12.018C10.4412 12.0738 10.6036 12.1196 10.7834 12.1586C10.8923 12.1822 11.1987 12.2379 11.1872 12.2356C11.149 12.2279 11.4722 12.2869 11.6176 12.3185C11.8808 12.3757 12.1284 12.4457 12.3692 12.5377C13.35 12.9126 14 13.5752 14 14.5672C14 15.6609 13.0778 16.5348 11.8571 16.8183V17.2169C11.8571 17.6494 11.4734 18 11 18C10.5266 18 10.1429 17.6494 10.1429 17.2169V16.8196C8.98414 16.5526 8.09136 15.754 8.0027 14.7277C7.96545 14.2965 8.31782 13.9194 8.78973 13.8854C9.26164 13.8513 9.6744 14.1733 9.71165 14.6045C9.74426 14.9819 10.2781 15.3495 10.9979 15.3495C11.7447 15.3495 12.2857 14.9544 12.2857 14.5672C12.2857 14.3121 12.1154 14.1385 11.7077 13.9827C11.5618 13.9269 11.3999 13.8812 11.2206 13.8422C11.1124 13.8187 10.8092 13.7634 10.8195 13.7655C10.8606 13.7737 10.5333 13.7142 10.3872 13.6825C10.1238 13.6253 9.8758 13.5554 9.63478 13.4635C8.6517 13.0888 8.00004 12.4263 8.00004 11.4336C8.00004 10.3382 8.9216 9.46494 10.1429 9.18175V8.78314ZM22 6.75C19.1005 6.75 16.75 9.1005 16.75 12C16.75 14.8995 19.1005 17.25 22 17.25C24.8995 17.25 27.25 14.8995 27.25 12C27.25 9.1005 24.8995 6.75 22 6.75ZM22 8C22.5523 8 23 8.44772 23 9V11.5858L24.7071 13.2929C25.0976 13.6834 25.0976 14.3166 24.7071 14.7071C24.3166 15.0976 23.6834 15.0976 23.2929 14.7071L21 12.4142V9C21 8.44772 21.4477 8 22 8Z" fill="#585858"/>
</svg>
