<svg xmlns="http://www.w3.org/2000/svg" width="32" height="32" viewBox="0 0 32 32">
    <defs>
        <filter id="g825oxrgna">
            <feColorMatrix in="SourceGraphic" values="0 0 0 0 0.129412 0 0 0 0 0.129412 0 0 0 0 0.129412 0 0 0 1.000000 0"/>
        </filter>
    </defs>
    <g fill="none" fill-rule="evenodd">
        <g>
            <g filter="url(#g825oxrgna)" transform="translate(-110 -1817) translate(110 1817)">
                <g>
                    <path fill="#212121" d="M2.381 14.491c0-.662.269-1.623.882-2.854.597-1.197 1.435-2.484 2.373-3.751C7.154 5.836 8.853 3.948 10 2.735c1.147 1.213 2.846 3.1 4.364 5.151.938 1.267 1.776 2.554 2.373 3.75.613 1.232.882 2.193.882 2.855 0 4.174-3.394 7.59-7.619 7.59s-7.619-3.416-7.619-7.59zm-1.905 0c0-4.414 6.731-11.648 8.876-13.84.36-.368.937-.368 1.296 0 2.145 2.192 8.876 9.426 8.876 13.84 0 5.252-4.264 9.51-9.524 9.51-5.26 0-9.524-4.258-9.524-9.51zm6.567-.932l2.534-3.735v2c0 .583.469 1.055 1.047 1.055h2.26l-2.46 3.386v-1.65c0-.583-.47-1.056-1.048-1.056H7.043zm4.439-6.529c0-1.038-1.331-1.453-1.913-.596l-5.015 7.393c-.476.701.022 1.652.865 1.652h3.1v3.427c0 1.02 1.294 1.448 1.892.624l5.008-6.89c.507-.698.013-1.68-.845-1.68h-3.092V7.03z" transform="translate(6 4)"/>
                </g>
            </g>
        </g>
    </g>
</svg>
