<svg xmlns="http://www.w3.org/2000/svg" width="30" height="30" viewBox="0 0 30 30">
    <defs>
        <filter id="l5iv8n2xea">
            <feColorMatrix in="SourceGraphic" values="0 0 0 0 0.129412 0 0 0 0 0.129412 0 0 0 0 0.129412 0 0 0 1.000000 0"/>
        </filter>
    </defs>
    <g fill="none" fill-rule="evenodd">
        <g>
            <g filter="url(#l5iv8n2xea)" transform="translate(-80 -2751) translate(80 2751)">
                <g>
                    <path fill="#212121" d="M5.156 0C4.121 0 3.281.84 3.281 1.875V3.75c0 .518.42.938.938.938s.937-.42.937-.938V1.875h12.188v18.75h-1.407c-.517 0-.937.42-.937.938 0 .517.42.937.938.937h1.406c1.035 0 1.875-.84 1.875-1.875V1.875C19.219.839 18.379 0 17.344 0H5.156zM2.344 7.5h9.375v13.125H2.344V7.5zm-1.875 0c0-1.036.84-1.875 1.875-1.875h9.375c1.035 0 1.875.84 1.875 1.875v13.125c0 1.036-.84 1.875-1.875 1.875H2.344c-1.036 0-1.875-.84-1.875-1.875V7.5zm3.75 6.563c.518 0 .937-.42.937-.938s-.42-.938-.937-.938c-.518 0-.938.42-.938.938s.42.938.938.938zm3.75-.938c0 .518-.42.938-.938.938s-.937-.42-.937-.938.42-.938.937-.938c.518 0 .938.42.938.938zm1.875.938c.518 0 .937-.42.937-.938s-.42-.938-.937-.938c-.518 0-.938.42-.938.938s.42.938.938.938zm-4.688 1.874c0 .518-.42.938-.937.938-.518 0-.938-.42-.938-.938 0-.517.42-.937.938-.937s.937.42.937.938zm1.875.938c.518 0 .938-.42.938-.938 0-.517-.42-.937-.938-.937s-.937.42-.937.938c0 .517.42.937.937.937zm3.75-.938c0 .518-.42.938-.937.938-.518 0-.938-.42-.938-.938 0-.517.42-.937.938-.937s.937.42.937.938zm-6.562 3.75c.518 0 .937-.42.937-.937 0-.518-.42-.938-.937-.938-.518 0-.938.42-.938.938s.42.938.938.938zm3.75-.937c0 .518-.42.938-.938.938s-.937-.42-.937-.938.42-.938.937-.938c.518 0 .938.42.938.938zm1.875.938c.518 0 .937-.42.937-.938s-.42-.938-.937-.938c-.518 0-.938.42-.938.938s.42.938.938.938zM3.28 9.374c0-.518.42-.938.938-.938h5.625c.518 0 .937.42.937.938s-.42.938-.937.938H4.219c-.518 0-.938-.42-.938-.938z" transform="translate(5.625 3.75)"/>
                </g>
            </g>
        </g>
    </g>
</svg>
