<svg xmlns="http://www.w3.org/2000/svg" width="30" height="30" viewBox="0 0 30 30">
    <defs>
        <filter id="bagyftmtpa">
            <feColorMatrix in="SourceGraphic" values="0 0 0 0 1.000000 0 0 0 0 1.000000 0 0 0 0 1.000000 0 0 0 1.000000 0"/>
        </filter>
    </defs>
    <g fill="none" fill-rule="evenodd">
        <g>
            <g filter="url(#bagyftmtpa)" transform="translate(-803 -4722) translate(803 4722)">
                <g>
                    <path fill="#212121" d="M1.875 0C.839 0 0 .84 0 1.875v18.75C0 21.661.84 22.5 1.875 22.5h11.25c1.036 0 1.875-.84 1.875-1.875v-2.813h4.688c1.035 0 1.875-.839 1.875-1.875v-7.5c0-1.035-.84-1.874-1.875-1.874H7.5c-1.036 0-1.875.839-1.875 1.875v7.5c0 1.035.84 1.874 1.875 1.874h5.625v2.813H1.875V1.875h11.25v2.813c0 .517.42.937.938.937.517 0 .937-.42.937-.938V1.876C15 .839 14.16 0 13.125 0H1.875zm3.75 2.813c-.518 0-.938.42-.938.937 0 .518.42.938.938.938h3.75c.518 0 .938-.42.938-.938s-.42-.938-.938-.938h-3.75zm14.063 5.624H7.5v7.5h12.188v-7.5zM9.374 10.313c-.518 0-.938.42-.938.937v1.875c0 .518.42.938.938.938h1.875c.518 0 .938-.42.938-.938V11.25c0-.518-.42-.938-.938-.938H9.375zm3.75.937c0-.518.42-.938.938-.938h3.75c.517 0 .937.42.937.938s-.42.938-.938.938h-3.75c-.517 0-.937-.42-.937-.938zm.938 1.875c-.518 0-.938.42-.938.938 0 .517.42.937.938.937h1.874c.518 0 .938-.42.938-.938 0-.517-.42-.937-.938-.937h-1.874z" transform="translate(4.688 3.75)"/>
                </g>
            </g>
        </g>
    </g>
</svg>
