<svg xmlns="http://www.w3.org/2000/svg" width="30" height="30" viewBox="0 0 30 30">
    <defs>
        <filter id="iidk340yoa">
            <feColorMatrix in="SourceGraphic" values="0 0 0 0 1.000000 0 0 0 0 1.000000 0 0 0 0 1.000000 0 0 0 1.000000 0"/>
        </filter>
    </defs>
    <g fill="none" fill-rule="evenodd">
        <g>
            <g filter="url(#iidk340yoa)" transform="translate(-735 -1286) translate(735 1286)">
                <g>
                    <path fill="#FFF" d="M16.875 0c1.036 0 1.875.84 1.875 1.875v15c0 1.036-.84 1.875-1.875 1.875h-15C.839 18.75 0 17.91 0 16.875v-15C0 .839.84 0 1.875 0h15zM6.503 6.903H3.985V15h2.518V6.903zm6.413-.2c-1.225 0-2.046.67-2.383 1.307H10.5V6.903H8.083V15H10.6v-4.006c0-1.056.201-2.078 1.512-2.078 1.292 0 1.309 1.207 1.309 2.147V15h2.517v-4.44c0-2.18-.472-3.858-3.022-3.858zm-7.698-3.89c-.81 0-1.468.656-1.468 1.466 0 .81.657 1.467 1.468 1.467.81 0 1.468-.658 1.468-1.467s-.658-1.466-1.468-1.466z" transform="translate(5.625 5.625)"/>
                </g>
            </g>
        </g>
    </g>
</svg>
