<svg xmlns="http://www.w3.org/2000/svg" width="32" height="32" viewBox="0 0 32 32">
    <defs>
        <filter id="8lfovwuuza">
            <feColorMatrix in="SourceGraphic" values="0 0 0 0 0.129412 0 0 0 0 0.129412 0 0 0 0 0.129412 0 0 0 1.000000 0"/>
        </filter>
    </defs>
    <g fill="none" fill-rule="evenodd">
        <g>
            <g filter="url(#8lfovwuuza)" transform="translate(-110 -3741) translate(110 3741)">
                <g>
                    <path fill="#212121" d="M20.667 5.398c-3.015-3.005-7.097-2.975-9.77-2.087-.504.167-1.05-.104-1.218-.607-.168-.503.105-1.047.61-1.215C13.393.457 18.328.353 22.028 4.04c4.615 4.601 4.75 11.994.22 16.51-4.532 4.518-11.947 4.383-16.562-.218C2.67 17.326 1.916 12.9 2.81 9.072l-1.329.764c-.46.265-1.05.108-1.315-.351-.266-.46-.108-1.047.352-1.312l3.538-2.036c.387-.223.863-.148 1.164.153.282.277.374.712.197 1.09-1.719 3.673-1.378 8.594 1.632 11.594 3.9 3.889 10.095 3.95 13.837.22 3.742-3.731 3.681-9.908-.22-13.796zm1.113 7.007c0 4.242-3.449 7.68-7.703 7.68-4.255 0-7.704-3.438-7.704-7.68 0-4.242 3.45-7.68 7.704-7.68s7.703 3.438 7.703 7.68zm-8.529-4.048c0-.415.37-.751.826-.751.456 0 .825.336.825.751v.382c1.116.256 1.976 1.023 2.061 2.007.036.414-.303.776-.758.809-.454.033-.852-.276-.888-.69-.03-.362-.545-.715-1.238-.715-.72 0-1.24.378-1.24.752 0 .244.164.41.559.56.14.054.297.098.47.136.105.022.4.076.39.074-.038-.008.273.049.414.08.253.054.491.121.723.21.945.36 1.57.996 1.57 1.948 0 1.05-.887 1.889-2.063 2.161v.383c0 .415-.37.752-.825.752-.456 0-.826-.337-.826-.752v-.382c-1.115-.256-1.975-1.023-2.06-2.008-.036-.414.303-.776.757-.809.455-.032.852.277.888.69.031.363.546.716 1.239.716.719 0 1.24-.38 1.24-.751 0-.245-.164-.412-.557-.561-.14-.054-.296-.098-.469-.135-.104-.023-.396-.076-.386-.074.04.008-.276-.049-.416-.08-.254-.054-.493-.121-.725-.21-.947-.36-1.574-.995-1.574-1.948 0-1.052.887-1.89 2.063-2.162v-.383z" transform="translate(3 4)"/>
                </g>
            </g>
        </g>
    </g>
</svg>
