<svg xmlns="http://www.w3.org/2000/svg" width="20" height="20" viewBox="0 0 20 20">
    <defs>
        <filter id="b5kj5ovsqa">
            <feColorMatrix in="SourceGraphic" values="0 0 0 0 0.121569 0 0 0 0 0.431373 0 0 0 0 0.854902 0 0 0 1.000000 0"/>
        </filter>
    </defs>
    <g fill="none" fill-rule="evenodd">
        <g>
            <g filter="url(#b5kj5ovsqa)" transform="translate(-195 -2793) translate(195 2793)">
                <g>
                    <path fill="#212121" d="M11.433 12.317c.244.244.64.244.884 0s.244-.64 0-.884L7.134 6.25l5.183-5.183c.244-.244.244-.64 0-.884s-.64-.244-.884 0L6.25 5.366 1.067.183C.823-.06.427-.06.183.183s-.244.64 0 .884L5.366 6.25.183 11.433c-.244.244-.244.64 0 .884s.64.244.884 0L6.25 7.134l5.183 5.183z" transform="translate(3.75 3.75)"/>
                </g>
            </g>
        </g>
    </g>
</svg>
