<svg width="32" height="32" viewBox="0 0 32 32" fill="none" xmlns="http://www.w3.org/2000/svg">
<path fill-rule="evenodd" clip-rule="evenodd" d="M17 9C17.5523 9 18 8.55228 18 8V7C18 6.44772 17.5523 6 17 6L16 6C15.4477 6 15 6.44772 15 7V9H17ZM19.2361 10C19.7111 9.46924 20 8.76835 20 8V7C20 5.34315 18.6569 4 17 4H16C14.713 4 13.6152 4.81047 13.1893 5.94889C12.6419 5.36489 11.8636 5 11 5H10C8.34315 5 7 6.34315 7 8C7 8.76835 7.28885 9.46924 7.76389 10H7C6.44772 10 6 10.4477 6 11V14H26V11C26 10.4477 25.5523 10 25 10H19.2361ZM11 7H10C9.44772 7 9 7.44772 9 8C9 8.55229 9.44772 9 10 9H12V8C12 7.44772 11.5523 7 11 7ZM10 15H7V25C7 26.1046 7.89543 27 9 27H10V15ZM16 15V27H23C24.1046 27 25 26.1046 25 25V15H16ZM14 15H12V27H14V15Z" fill="#585858"/>
</svg>
