<svg xmlns="http://www.w3.org/2000/svg" width="32" height="32" viewBox="0 0 32 32">
    <defs>
        <filter id="w50rzeh73a">
            <feColorMatrix in="SourceGraphic" values="0 0 0 0 0.121569 0 0 0 0 0.431373 0 0 0 0 0.854902 0 0 0 1.000000 0"/>
        </filter>
    </defs>
    <g fill="none" fill-rule="evenodd">
        <g>
            <g filter="url(#w50rzeh73a)" transform="translate(-170 -3235) translate(170 3235)">
                <g>
                    <path fill="#212121" fill-rule="nonzero" d="M15.055.343c-.478.457-.478 1.195 0 1.652l4.753 4.547H1.225C.551 6.542 0 7.07 0 7.714c0 .645.551 1.172 1.225 1.172H19.82l-4.753 4.547c-.478.457-.478 1.196 0 1.653.478.457 1.25.457 1.727 0l6.848-6.551c.477-.457.477-1.196 0-1.653l-6.86-6.54c-.466-.456-1.25-.456-1.727 0z" transform="translate(4 8)"/>
                </g>
            </g>
        </g>
    </g>
</svg>
