<svg xmlns="http://www.w3.org/2000/svg" width="32" height="32" viewBox="0 0 32 32">
    <g fill="none" fill-rule="evenodd">
        <g fill="#212121">
            <g>
                <g>
                    <path d="M2 0C.895 0 0 .895 0 2v20c0 1.105.895 2 2 2h10c1.105 0 2-.895 2-2v-2h-.732c-.495 0-.971-.183-1.338-.513l-3.768-3.391c-.421-.38-.662-.92-.662-1.487V9c0-1.105.895-2 2-2H14V2c0-1.105-.895-2-2-2H2zm3 2c-.552 0-1 .448-1 1s.448 1 1 1h4c.552 0 1-.448 1-1s-.448-1-1-1H5zm10.923 4.331c.37-.41 1.002-.444 1.413-.074l3.333 3c.308.277.413.715.265 1.101-.149.387-.52.642-.934.642H10c-.552 0-1-.448-1-1s.448-1 1-1h7.394l-1.396-1.257c-.41-.37-.444-1.001-.075-1.412zm-1.846 11.338c-.37.41-1.002.444-1.413.074l-3.333-3c-.308-.277-.413-.715-.265-1.101.149-.387.52-.642.934-.642h10c.552 0 1 .448 1 1s-.448 1-1 1h-7.394l1.396 1.257c.41.37.444 1.002.075 1.412z" transform="translate(-604 -1226) translate(604 1226) translate(6 4)"/>
                </g>
            </g>
        </g>
    </g>
</svg>
