<svg xmlns="http://www.w3.org/2000/svg" width="35" height="35" viewBox="0 0 35 35">
    <defs>
        <filter id="35fpt1qbza">
            <feColorMatrix in="SourceGraphic" values="0 0 0 0 0.129412 0 0 0 0 0.129412 0 0 0 0 0.129412 0 0 0 1.000000 0"/>
        </filter>
    </defs>
    <g fill="none" fill-rule="evenodd">
        <g>
            <g filter="url(#35fpt1qbza)" transform="translate(-35 -1059) translate(35 1059)">
                <g>
                    <path fill="#212121" d="M22.604 5.904C19.307 2.617 14.842 2.65 11.92 3.621c-.552.184-1.148-.114-1.332-.664-.184-.55.114-1.145.666-1.328C14.649.5 20.048.386 24.093 4.419c5.049 5.033 5.197 13.118.24 18.058-4.955 4.941-13.065 4.794-18.113-.239C2.922 18.95 2.095 14.11 3.073 9.922l-1.453.836c-.504.29-1.148.118-1.439-.384-.29-.502-.118-1.145.386-1.435l3.87-2.227c.422-.243.943-.161 1.272.168.31.303.41.778.216 1.192-1.88 4.018-1.508 9.4 1.784 12.681 4.266 4.253 11.042 4.32 15.135.24s4.026-10.836-.24-15.089zm1.218 7.664c0 4.64-3.772 8.4-8.426 8.4-4.653 0-8.425-3.76-8.425-8.4 0-4.64 3.772-8.4 8.425-8.4 4.654 0 8.426 3.76 8.426 8.4zm-9.328-4.427c0-.454.404-.822.902-.822.5 0 .903.368.903.822v.417c1.22.28 2.16 1.119 2.254 2.196.04.453-.332.849-.829.884-.497.036-.931-.302-.97-.755-.035-.395-.597-.781-1.355-.781-.788 0-1.357.413-1.357.822 0 .267.18.45.612.613.154.059.325.107.514.148.115.025.438.083.426.08-.04-.007.3.055.453.088.277.06.538.134.791.23 1.034.394 1.718 1.09 1.718 2.131 0 1.148-.971 2.066-2.257 2.364v.418c0 .454-.404.823-.903.823-.498 0-.902-.369-.902-.823v-.417c-1.22-.28-2.161-1.119-2.254-2.196-.04-.453.331-.85.829-.885.497-.036.931.302.97.755.035.397.597.782 1.355.782.787 0 1.357-.414 1.357-.82 0-.269-.18-.451-.61-.615-.153-.058-.323-.106-.512-.147-.114-.025-.433-.083-.423-.08.044.008-.301-.055-.455-.088-.277-.06-.539-.133-.793-.23-1.035-.393-1.721-1.089-1.721-2.131 0-1.15.97-2.067 2.257-2.365v-.418z" transform="translate(3.281 4.375)"/>
                </g>
            </g>
        </g>
    </g>
</svg>
