<svg xmlns="http://www.w3.org/2000/svg" width="30" height="30" viewBox="0 0 30 30">
    <defs>
        <filter id="g3hghwqlsa">
            <feColorMatrix in="SourceGraphic" values="0 0 0 0 1.000000 0 0 0 0 1.000000 0 0 0 0 1.000000 0 0 0 1.000000 0"/>
        </filter>
    </defs>
    <g fill="none" fill-rule="evenodd">
        <g>
            <g filter="url(#g3hghwqlsa)" transform="translate(-998 -4722) translate(998 4722)">
                <g>
                    <path fill="#212121" d="M14.279.865c0-.478-.388-.865-.866-.865-.477 0-.865.387-.865.865v1.731c0 .478.388.866.865.866.478 0 .866-.388.866-.866V.866zm-5.013 1.12c-.338-.339-.886-.339-1.224 0-.338.337-.338.885 0 1.223L9.34 4.506c.338.338.886.338 1.224 0 .338-.338.338-.886 0-1.224L9.266 1.984zm9.086 1.223l-1.298 1.298c-.338.338-.886.338-1.224 0-.338-.338-.338-.886 0-1.224l1.298-1.298c.338-.338.886-.338 1.224 0 .338.338.338.886 0 1.224zm1.091 20.755c-.142.188-.364.3-.601.3h-4.843c-1.464 0-2.915-.27-4.282-.793l-2.45-.94V13.2l.719-.43c2.028-1.214 3.572-3.091 4.368-5.312l.444-1.242c.058-.161.244-.236.397-.16.482.241.786.732.786 1.27v.485c0 1.056-.147 2.107-.438 3.122l-.154.537h-.961c-.47 0-.852.38-.852.85 0 .469.381.85.852.85h7.617c.236 0 .459.11.6.299.201.266.201.633 0 .9-.141.188-.364.3-.6.3h-1.203c-.47 0-.852.38-.852.849v.022c.012.459.389.827.852.827h1.203c.236 0 .459.111.6.3.201.267.201.633 0 .9-.138.185-.355.295-.586.3h-1.217c-.463 0-.84.368-.852.827v.022c0 .47.381.85.852.85h1.217c.231.004.448.114.587.3.2.266.2.632 0 .899-.142.188-.365.3-.601.3h-1.203c-.47 0-.852.38-.852.849s.381.85.852.85c.237 0 .46.11.601.3.2.266.2.632 0 .899zm1.648-1.433c.35.795.255 1.735-.285 2.452-.463.617-1.191.98-1.964.98h-4.843c-1.673 0-3.332-.308-4.893-.907l-2.426-.93c-.467.6-1.198.987-2.02.987H.853c-.47 0-.852-.38-.852-.85V10.771c0-.47.382-.85.852-.85h3.809c1.025 0 1.91.602 2.316 1.471l.132-.079c1.69-1.011 2.977-2.576 3.64-4.427l.445-1.242c.401-1.12 1.695-1.64 2.763-1.107 1.059.528 1.728 1.608 1.728 2.789v.485c0 1.214-.17 2.422-.504 3.589l-.02.07h4.884c.772 0 1.5.363 1.964.98.655.87.655 2.067 0 2.938-.034.044-.069.088-.105.13.036.042.071.085.105.13.655.87.655 2.068 0 2.938-.034.045-.069.088-.105.13.036.042.071.085.105.13.655.87.655 2.067 0 2.938-.244.324-.56.578-.918.746zm-16.43.883H1.704V11.62h2.957c.47 0 .852.38.852.85v10.093c0 .47-.382.85-.852.85zm-1.68-1.699c0-.47.382-.85.852-.85s.852.38.852.85-.381.85-.852.85c-.47 0-.852-.38-.852-.85z" transform="translate(3.75 1.875)"/>
                </g>
            </g>
        </g>
    </g>
</svg>
