<svg xmlns="http://www.w3.org/2000/svg" width="30" height="30" viewBox="0 0 30 30">
    <defs>
        <filter id="0uy2bfuo2a">
            <feColorMatrix in="SourceGraphic" values="0 0 0 0 1.000000 0 0 0 0 1.000000 0 0 0 0 1.000000 0 0 0 1.000000 0"/>
        </filter>
    </defs>
    <g fill="none" fill-rule="evenodd">
        <g>
            <g filter="url(#0uy2bfuo2a)" transform="translate(-608 -4722) translate(608 4722)">
                <g>
                    <path fill="#212121" d="M14.357 5.813l-7.923 7.923 2.652 2.652 7.923-7.923-2.652-2.652zm1.326-1.326l2.652 2.652 1.713-1.714-2.651-2.652-1.714 1.714zM4.466 15.704l.642-.642 2.652 2.652-.642.641-3.985 1.334 1.333-3.985zm3.247 4.43c.276-.093.526-.248.731-.453l12.93-12.93c.732-.732.732-1.92 0-2.652l-2.651-2.651c-.733-.733-1.92-.733-2.652 0L3.14 14.378c-.206.205-.36.455-.453.73l-1.93 5.77c-.246.733.453 1.431 1.186 1.186l5.77-1.93z" transform="translate(3.75 3.75)"/>
                </g>
            </g>
        </g>
    </g>
</svg>
