<svg xmlns="http://www.w3.org/2000/svg" width="30" height="30" viewBox="0 0 30 30">
    <defs>
        <filter id="0mppem0wna">
            <feColorMatrix in="SourceGraphic" values="0 0 0 0 0.698039 0 0 0 0 0.698039 0 0 0 0 0.698039 0 0 0 1.000000 0"/>
        </filter>
    </defs>
    <g fill="none" fill-rule="evenodd">
        <g>
            <g filter="url(#0mppem0wna)" transform="translate(-645 -1286) translate(645 1286)">
                <g>
                    <path fill="#FFF" d="M13.125 0c3.107 0 5.625 2.518 5.625 5.625v7.5c0 3.107-2.518 5.625-5.625 5.625h-7.5C2.518 18.75 0 16.232 0 13.125v-7.5C0 2.518 2.518 0 5.625 0h7.5zm-3.75 4.688c-2.585 0-4.688 2.102-4.688 4.687 0 2.585 2.103 4.688 4.688 4.688 2.585 0 4.688-2.103 4.688-4.688 0-2.585-2.103-4.688-4.688-4.688zM15 2.813c-.469 0-.938.468-.938.937 0 .469.47.938.938.938.469 0 .938-.47.938-.938 0-.469-.47-.938-.938-.938zm-5.625 3.75c-1.553 0-2.813 1.259-2.813 2.812s1.26 2.813 2.813 2.813c1.553 0 2.813-1.26 2.813-2.813 0-1.553-1.26-2.813-2.813-2.813z" transform="translate(5.625 5.625)"/>
                </g>
            </g>
        </g>
    </g>
</svg>
