<svg xmlns="http://www.w3.org/2000/svg" width="32" height="32" viewBox="0 0 32 32">
    <defs>
        <filter id="owb76uc6xa">
            <feColorMatrix in="SourceGraphic" values="0 0 0 0 0.129412 0 0 0 0 0.129412 0 0 0 0 0.129412 0 0 0 1.000000 0"/>
        </filter>
    </defs>
    <g fill="none" fill-rule="evenodd">
        <g>
            <g filter="url(#owb76uc6xa)" transform="translate(-110 -2278) translate(110 2278)">
                <g>
                    <path fill="#212121" d="M0 1.882C0 .842.86 0 1.92 0h19.2c1.06 0 1.92.843 1.92 1.882v4.706c0 .52-.43.941-.96.941s-.96-.421-.96-.94V1.881H1.92v11.294H14.4c.53 0 .96.422.96.942s-.43.94-.96.94H1.92c-1.06 0-1.92-.842-1.92-1.882V1.882zm20.16 6.589c-.53 0-.96.421-.96.94v1.883h-1.92c-.53 0-.96.421-.96.941s.43.941.96.941h1.92v1.883c0 .52.43.941.96.941s.96-.421.96-.941v-1.883h1.92c.53 0 .96-.42.96-.94s-.43-.942-.96-.942h-1.92V9.412c0-.52-.43-.941-.96-.941zm-8.64-5.647c-.454 0-.823.33-.823.737v.375c-1.172.266-2.057 1.088-2.057 2.12 0 .933.626 1.557 1.57 1.91.23.086.469.152.722.206.14.03.454.086.415.078-.01-.002.28.05.385.072.172.037.327.08.467.132.392.147.555.31.555.55 0 .365-.52.737-1.236.737-.691 0-1.203-.346-1.235-.701-.036-.406-.432-.71-.885-.677-.453.032-.791.387-.755.792.085.966.942 1.718 2.054 1.97v.373c0 .407.369.737.823.737.454 0 .823-.33.823-.737v-.375c1.172-.267 2.057-1.09 2.057-2.119 0-.933-.624-1.557-1.566-1.91-.23-.086-.468-.152-.721-.206-.14-.03-.45-.085-.413-.078.01.002-.283-.05-.388-.072-.173-.037-.328-.08-.469-.133-.393-.147-.557-.31-.557-.55 0-.366.518-.737 1.237-.737.69 0 1.203.346 1.234.7.036.407.432.71.885.678.453-.032.791-.387.755-.793-.085-.966-.942-1.717-2.054-1.968V3.56c0-.407-.369-.737-.823-.737z" transform="translate(4 8)"/>
                </g>
            </g>
        </g>
    </g>
</svg>
