<svg xmlns="http://www.w3.org/2000/svg" width="30" height="30" viewBox="0 0 30 30">
    <defs>
        <filter id="ifvcwl8y0a">
            <feColorMatrix in="SourceGraphic" values="0 0 0 0 1.000000 0 0 0 0 1.000000 0 0 0 0 1.000000 0 0 0 1.000000 0"/>
        </filter>
    </defs>
    <g fill="none" fill-rule="evenodd">
        <g>
            <g filter="url(#ifvcwl8y0a)" transform="translate(-15 -1382) translate(15 1382)">
                <g>
                    <path fill="#FFF" d="M16.875 0c1.036 0 1.875.84 1.875 1.875v15c0 1.036-.84 1.875-1.875 1.875h-4.688v-7.059h2.403l.386-2.647h-2.789V7.913c0-1.015.287-1.516 1.256-1.516H15V3.866c-.274-.037-.852-.116-1.945-.116-2.283 0-3.68 1.181-3.68 3.873v1.421H6.562v2.647h2.813v7.059h-7.5C.839 18.75 0 17.91 0 16.875v-15C0 .839.84 0 1.875 0h15z" transform="translate(5.625 5.625)"/>
                </g>
            </g>
        </g>
    </g>
</svg>
