<?xml version="1.0" encoding="UTF-8"?>
<svg width="32px" height="32px" viewBox="0 0 32 32" version="1.1" xmlns="http://www.w3.org/2000/svg" xmlns:xlink="http://www.w3.org/1999/xlink">
    <title>Icons/Link</title>
    <defs>
        <filter id="filter-1">
            <feColorMatrix in="SourceGraphic" type="matrix" values="0 0 0 0 0.129412 0 0 0 0 0.129412 0 0 0 0 0.129412 0 0 0 1.000000 0"></feColorMatrix>
        </filter>
    </defs>
    <g id="Icons/Link" stroke="none" stroke-width="1" fill="none" fill-rule="evenodd">
        <g filter="url(#filter-1)" id="Link">
            <g transform="translate(0.000000, 11.000000)">
                <path d="M31.7634,4.4738 C32.0831,4.8535 32.0783,5.4153 31.752,5.7892 L27.7157,9.6644 C27.3554,10.0772 26.7348,10.1143 26.3296,9.7474 C25.9243,9.3805 25.8878,8.7485 26.248,8.3357 L28.7607,6 L10,6 C9.44771,6 9,5.5523 9,5 C9,4.4477 9.44771,4 10,4 L28.5965,4 L26.2366,1.6511 C25.8836,1.2319 25.931,0.6005 26.3426,0.241 C26.7542,-0.1186 27.374,-0.0702 27.7271,0.349 L31.7634,4.4738 Z M6,5 C6,5.5523 6.44772,6 7,6 C7.55228,6 8,5.5523 8,5 C8,4.4477 7.55228,4 7,4 C6.44772,4 6,4.4477 6,5 Z M4,6 C3.44772,6 3,5.5523 3,5 C3,4.4477 3.44772,4 4,4 C4.55228,4 5,4.4477 5,5 C5,5.5523 4.55228,6 4,6 Z M0,5 C0,5.5523 0.447715,6 1,6 C1.55228,6 2,5.5523 2,5 C2,4.4477 1.55228,4 1,4 C0.447715,4 0,4.4477 0,5 Z" id="Shape" fill="#585858"></path>
            </g>
        </g>
    </g>
</svg>