<svg xmlns="http://www.w3.org/2000/svg" width="32" height="32" viewBox="0 0 32 32">
    <defs>
        <filter id="lb6zn29f4a">
            <feColorMatrix in="SourceGraphic" values="0 0 0 0 0.121569 0 0 0 0 0.431373 0 0 0 0 0.854902 0 0 0 1.000000 0"/>
        </filter>
    </defs>
    <g fill="none" fill-rule="evenodd">
        <g>
            <g filter="url(#lb6zn29f4a)" transform="translate(-65 -2332) translate(65 2332)">
                <g>
                    <path fill="#585858" d="M31.763 4.474c.32.38.315.941-.011 1.315l-4.036 3.875c-.36.413-.981.45-1.386.083-.406-.367-.442-.998-.082-1.411L28.761 6H10c-.552 0-1-.448-1-1s.448-1 1-1h18.596l-2.36-2.349c-.352-.42-.305-1.05.107-1.41.411-.36 1.031-.311 1.384.108l4.036 4.125zM6 5c0 .552.448 1 1 1s1-.448 1-1-.448-1-1-1-1 .448-1 1zM4 6c-.552 0-1-.448-1-1s.448-1 1-1 1 .448 1 1-.448 1-1 1zM0 5c0 .552.448 1 1 1s1-.448 1-1-.448-1-1-1-1 .448-1 1z" transform="translate(0 11)"/>
                </g>
            </g>
        </g>
    </g>
</svg>
