<?xml version="1.0" encoding="UTF-8"?>
<svg width="32px" height="32px" viewBox="0 0 32 32" version="1.1" xmlns="http://www.w3.org/2000/svg" xmlns:xlink="http://www.w3.org/1999/xlink">
    <title>Icons/Lock</title>
    <defs>
        <filter id="filter-1">
            <feColorMatrix in="SourceGraphic" type="matrix" values="0 0 0 0 0.129412 0 0 0 0 0.129412 0 0 0 0 0.129412 0 0 0 1.000000 0"></feColorMatrix>
        </filter>
    </defs>
    <g id="Icons/Lock" stroke="none" stroke-width="1" fill="none" fill-rule="evenodd">
        <g filter="url(#filter-1)" id="Filled">
            <g transform="translate(7.000000, 4.000000)">
                <path d="M9,0 C5.134,0 2,3.13401 2,7 L2,9 C0.89543,9 0,9.8836 0,10.9737 L0,22.0263 C0,23.1164 0.89543,24 2,24 L16,24 C17.1046,24 18,23.1164 18,22.0263 L18,10.9737 C18,9.8836 17.1046,9 16,9 L16,7 C16,3.13401 12.866,0 9,0 Z M14,9 L14,7 C14,4.23858 11.7614,2 9,2 C6.2386,2 4,4.23858 4,7 L4,9 L14,9 Z M9,18 C10.1046,18 11,17.1046 11,16 C11,14.8954 10.1046,14 9,14 C7.8954,14 7,14.8954 7,16 C7,17.1046 7.8954,18 9,18 Z" id="Shape" fill="#212121"></path>
            </g>
        </g>
    </g>
</svg>