<?xml version="1.0" encoding="UTF-8"?>
<svg width="32px" height="32px" viewBox="0 0 32 32" version="1.1" xmlns="http://www.w3.org/2000/svg" xmlns:xlink="http://www.w3.org/1999/xlink">
    <title>Icons/Rate</title>
    <defs>
        <filter id="filter-1">
            <feColorMatrix in="SourceGraphic" type="matrix" values="0 0 0 0 0.129412 0 0 0 0 0.129412 0 0 0 0 0.129412 0 0 0 1.000000 0"></feColorMatrix>
        </filter>
    </defs>
    <g id="Icons/Rate" stroke="none" stroke-width="1" fill="none" fill-rule="evenodd">
        <g filter="url(#filter-1)" id="Full">
            <g transform="translate(4.000000, 4.000000)">
                <path d="M11.5232,0.35294 C11.6681,-0.11765 12.3319,-0.11765 12.4768,0.35294 L14.9544,8.3986 C15.019,8.6084 15.2123,8.7515 15.4312,8.7515 L23.5000008,8.7515 C23.9773,8.7515 24.1823,9.3595 23.8029,9.6503 L17.2328,14.687 C17.0666,14.8144 16.9972,15.0323 17.0589,15.2328 L19.5582,23.3491 C19.7017,23.8149 19.1646,24.1909 18.7785,23.8949 L12.303,18.9307 C12.1241,18.7936 11.8759,18.7936 11.697,18.9307 L5.22155,23.8949 C4.83544,24.1909 4.29834,23.8149 4.44179,23.3491 L6.9411,15.2328 C7.0028,15.0323 6.9334,14.8144 6.7672,14.687 L0.19707,9.6503 C-0.18226,9.3595 0.02266,8.7515 0.50002,8.7515 L8.5688,8.7515 C8.7877,8.7515 8.981,8.6084 9.0456,8.3986 L11.5232,0.35294 Z" id="Path" fill="#212121" fill-rule="nonzero"></path>
            </g>
        </g>
    </g>
</svg>