<?xml version="1.0" encoding="UTF-8"?>
<svg width="32px" height="32px" viewBox="0 0 32 32" version="1.1" xmlns="http://www.w3.org/2000/svg" xmlns:xlink="http://www.w3.org/1999/xlink">
    <title>Icons/Search</title>
    <defs>
        <filter id="filter-1">
            <feColorMatrix in="SourceGraphic" type="matrix" values="0 0 0 0 0.129412 0 0 0 0 0.129412 0 0 0 0 0.129412 0 0 0 1.000000 0"></feColorMatrix>
        </filter>
    </defs>
    <g id="Icons/Search" stroke="none" stroke-width="1" fill="none" fill-rule="evenodd">
        <g filter="url(#filter-1)" id="Search">
            <g transform="translate(6.000000, 6.000000)">
                <path d="M19.6333323,17.9631783 L14.1575323,12.4852783 C15.1390323,11.1465783 15.6649323,9.52806826 15.6575323,7.86808826 C15.6388323,3.53498826 12.1341323,0.0251848599 7.80105226,7.8259902e-05 C5.72743226,-0.00922407012 3.73619226,0.81110326 2.27091226,2.27839826 C0.805633264,3.74568826 -0.0119606361,5.73805826 0.000132263378,7.81165826 C0.0189957639,12.1451783 3.52401226,15.6552783 7.85748226,15.6802783 C9.52423226,15.6874783 11.1486323,15.1555783 12.4882323,14.1638783 L12.4939323,14.1595783 L17.9647323,19.6331783 C18.2605323,19.9434783 18.7012323,20.0690783 19.1161323,19.9613783 C19.5311323,19.8535783 19.8550323,19.5293783 19.9624323,19.1143783 C20.0698323,18.6993783 19.9438323,18.2586783 19.6333323,17.9631783 Z M7.85131226,14.1116321 C4.38472226,14.0915783 1.58075226,11.2838783 1.56543339,7.81721826 C1.55618226,6.15855826 2.21031226,4.56497826 3.38231226,3.39122826 C4.55431226,2.21748826 6.14691226,1.56098826 7.80559226,1.56782457 C11.2721323,1.58781826 14.0761323,4.39561826 14.0914322,7.86221826 C14.1007323,9.52088826 13.4466323,11.1144783 12.2746323,12.2881783 C11.1026323,13.4619783 9.50999226,14.1184783 7.85131226,14.1116321 Z" id="Shape" fill="#212121"></path>
            </g>
        </g>
    </g>
</svg>