<?xml version="1.0" encoding="UTF-8"?>
<svg width="32px" height="32px" viewBox="0 0 32 32" version="1.1" xmlns="http://www.w3.org/2000/svg" xmlns:xlink="http://www.w3.org/1999/xlink">
    <title>Icons/Social/Linkedin</title>
    <defs>
        <filter id="filter-1">
            <feColorMatrix in="SourceGraphic" type="matrix" values="0 0 0 0 0.129412 0 0 0 0 0.129412 0 0 0 0 0.129412 0 0 0 1.000000 0"></feColorMatrix>
        </filter>
    </defs>
    <g id="Icons/Social/Linkedin" stroke="none" stroke-width="1" fill="none" fill-rule="evenodd">
        <g filter="url(#filter-1)" id="Filled">
            <g transform="translate(6.000000, 6.000000)">
                <path d="M18,0 C19.1045695,0 20,0.8954305 20,2 L20,18 C20,19.1045695 19.1045695,20 18,20 L2,20 C0.8954305,20 0,19.1045695 0,18 L0,2 C0,0.8954305 0.8954305,0 2,0 L18,0 Z M6.93695271,7.36366181 L4.25043783,7.36366181 L4.25043783,16 L6.93695271,16 L6.93695271,7.36366181 Z M13.7770928,7.14893617 C12.4702627,7.14893617 11.5941856,7.8649916 11.2353765,8.543743 L11.2353765,8.543743 L11.1989492,8.543743 L11.1989492,7.36366181 L8.62171629,7.36366181 L8.62171629,16 L11.3064098,16 L11.3064098,11.7273236 C11.3064098,10.6009239 11.521331,9.5100084 12.9192294,9.5100084 C14.2970928,9.5100084 14.3153065,10.7983623 14.3153065,11.800112 L14.3153065,16 L17,16 L17,11.2632979 C17,8.93770997 16.497303,7.14893617 13.7770928,7.14893617 Z M5.56637478,3 C4.70122592,3 4,3.70058791 4,4.56403975 C4,5.4274916 4.70031524,6.12898936 5.56637478,6.12898936 C6.42970228,6.12898936 7.13183888,5.4274916 7.13183888,4.56403975 C7.13183888,3.70149776 6.42970228,3 5.56637478,3 Z" id="Linkedin" fill="#FFFFFF"></path>
            </g>
        </g>
    </g>
</svg>