<?xml version="1.0" encoding="UTF-8"?>
<svg width="32px" height="32px" viewBox="0 0 32 32" version="1.1" xmlns="http://www.w3.org/2000/svg" xmlns:xlink="http://www.w3.org/1999/xlink">
    <title>Icons/Social/Facebook</title>
    <defs>
        <filter id="filter-1">
            <feColorMatrix in="SourceGraphic" type="matrix" values="0 0 0 0 0.129412 0 0 0 0 0.129412 0 0 0 0 0.129412 0 0 0 1.000000 0"></feColorMatrix>
        </filter>
    </defs>
    <g id="Icons/Social/Facebook" stroke="none" stroke-width="1" fill="none" fill-rule="evenodd">
        <g filter="url(#filter-1)" id="Search">
            <g transform="translate(6.000000, 6.000000)">
                <path d="M18,0 C19.1045695,0 20,0.8954305 20,2 L20,18 C20,19.1045695 19.1045695,20 18,20 L13,20 L13,12.4705882 L15.5628969,12.4705882 L15.974062,9.64705882 L13,9.64705882 L13,8.44047059 C13,7.35811765 13.3053317,6.82352941 14.3390084,6.82352941 L14.3390084,6.82352941 L16,6.82352941 L16,4.12329412 C15.7079575,4.08470588 15.0912099,4 13.9249613,4 C11.4896728,4 10,5.26023529 10,8.13082353 L10,8.13082353 L10,9.64705882 L7,9.64705882 L7,12.4705882 L10,12.4705882 L10,20 L2,20 C0.8954305,20 0,19.1045695 0,18 L0,2 C0,0.8954305 0.8954305,0 2,0 L18,0 Z" id="Facebook" fill="#FFFFFF"></path>
            </g>
        </g>
    </g>
</svg>