<?xml version="1.0" encoding="UTF-8"?>
<svg width="32px" height="32px" viewBox="0 0 32 32" version="1.1" xmlns="http://www.w3.org/2000/svg" xmlns:xlink="http://www.w3.org/1999/xlink">
    <title>Icons/Tools</title>
    <defs>
        <filter id="filter-1">
            <feColorMatrix in="SourceGraphic" type="matrix" values="0 0 0 0 0.129412 0 0 0 0 0.129412 0 0 0 0 0.129412 0 0 0 1.000000 0"></feColorMatrix>
        </filter>
    </defs>
    <g id="Icons/Tools" stroke="none" stroke-width="1" fill="none" fill-rule="evenodd">
        <g filter="url(#filter-1)" id="Exclude-from-Budget">
            <g transform="translate(6.000000, 4.000000)">
                <path d="M5.5,0 C4.3954,0 3.5,0.89543 3.5,2 L3.5,4 C3.5,4.55228 3.94772,5 4.5,5 C5.0523,5 5.5,4.55228 5.5,4 L5.5,2 L18.5,2 L18.5,22 L17,22 C16.4477,22 16,22.4477 16,23 C16,23.5523 16.4477,24 17,24 L18.5,24 C19.6046,24 20.5,23.1046 20.5,22 L20.5,2 C20.5,0.89543 19.6046,0 18.5,0 L5.5,0 Z M2.5,8 L12.5,8 L12.5,22 L2.5,22 L2.5,8 Z M0.5,8 C0.5,6.8954 1.39543,6 2.5,6 L12.5,6 C13.6046,6 14.5,6.8954 14.5,8 L14.5,22 C14.5,23.1046 13.6046,24 12.5,24 L2.5,24 C1.39543,24 0.5,23.1046 0.5,22 L0.5,8 Z M4.5,15 C5.0523,15 5.5,14.5523 5.5,14 C5.5,13.4477 5.0523,13 4.5,13 C3.94772,13 3.5,13.4477 3.5,14 C3.5,14.5523 3.94772,15 4.5,15 Z M8.5,14 C8.5,14.5523 8.0523,15 7.5,15 C6.9477,15 6.5,14.5523 6.5,14 C6.5,13.4477 6.9477,13 7.5,13 C8.0523,13 8.5,13.4477 8.5,14 Z M10.5,15 C11.0523,15 11.5,14.5523 11.5,14 C11.5,13.4477 11.0523,13 10.5,13 C9.9477,13 9.5,13.4477 9.5,14 C9.5,14.5523 9.9477,15 10.5,15 Z M5.5,17 C5.5,17.5523 5.0523,18 4.5,18 C3.94772,18 3.5,17.5523 3.5,17 C3.5,16.4477 3.94772,16 4.5,16 C5.0523,16 5.5,16.4477 5.5,17 Z M7.5,18 C8.0523,18 8.5,17.5523 8.5,17 C8.5,16.4477 8.0523,16 7.5,16 C6.9477,16 6.5,16.4477 6.5,17 C6.5,17.5523 6.9477,18 7.5,18 Z M11.5,17 C11.5,17.5523 11.0523,18 10.5,18 C9.9477,18 9.5,17.5523 9.5,17 C9.5,16.4477 9.9477,16 10.5,16 C11.0523,16 11.5,16.4477 11.5,17 Z M4.5,21 C5.0523,21 5.5,20.5523 5.5,20 C5.5,19.4477 5.0523,19 4.5,19 C3.94772,19 3.5,19.4477 3.5,20 C3.5,20.5523 3.94772,21 4.5,21 Z M8.5,20 C8.5,20.5523 8.0523,21 7.5,21 C6.9477,21 6.5,20.5523 6.5,20 C6.5,19.4477 6.9477,19 7.5,19 C8.0523,19 8.5,19.4477 8.5,20 Z M10.5,21 C11.0523,21 11.5,20.5523 11.5,20 C11.5,19.4477 11.0523,19 10.5,19 C9.9477,19 9.5,19.4477 9.5,20 C9.5,20.5523 9.9477,21 10.5,21 Z M3.5,10 C3.5,9.4477 3.94772,9 4.5,9 L10.5,9 C11.0523,9 11.5,9.4477 11.5,10 C11.5,10.5523 11.0523,11 10.5,11 L4.5,11 C3.94772,11 3.5,10.5523 3.5,10 Z" id="Shape" fill="#212121"></path>
            </g>
        </g>
    </g>
</svg>